<svg width="32" height="32" viewBox="0 0 32 32" fill="none" xmlns="http://www.w3.org/2000/svg">
<mask id="mask0_10271_29491" style="mask-type:alpha" maskUnits="userSpaceOnUse" x="1" y="1" width="30" height="30">
<path d="M1.00049 2.3641C1.00049 1.611 1.611 1.00049 2.3641 1.00049H8.50036C12.6424 1.00049 16.0002 4.3583 16.0002 8.50036C16.0002 4.3583 19.358 1.00049 23.5001 1.00049H29.6364C30.3895 1.00049 31 1.611 31 2.3641V8.50036C31 12.6424 27.6422 16.0002 23.5001 16.0002H8.50036C4.3583 16.0002 1.00049 12.6424 1.00049 8.50036V2.3641Z" fill="white"/>
<path d="M8.50036 16.0002C12.6395 16.0002 15.9954 19.3532 16.0002 23.4912V18.7275C16.0002 17.2213 14.7792 16.0002 13.273 16.0002L23.5001 16.0002C27.6422 16.0002 31 19.3581 31 23.5001V29.6364C31 30.3895 30.3895 31 29.6364 31H23.5001C19.3601 31 16.0036 27.6456 16.0002 23.5064C15.9968 27.6456 12.6403 31 8.50036 31C4.3583 31 1.00049 27.6422 1.00049 23.5001C1.00049 19.358 4.3583 16.0002 8.50036 16.0002Z" fill="white"/>
</mask>
<g mask="url(#mask0_10271_29491)">
<path d="M1 23.4989C1 19.3568 4.35781 15.999 8.49988 15.999C12.6419 15.999 15.9998 19.3568 15.9998 23.4989C15.9998 27.641 12.6419 30.9988 8.49988 30.9988C4.35781 30.9988 1 27.641 1 23.4989Z" fill="url(#paint0_linear_10271_29491)"/>
<path d="M23.4996 30.999C19.3575 30.999 15.9997 27.6412 15.9997 23.4991L15.9997 18.7265C15.9997 17.2203 14.7787 15.9993 13.2725 15.9993L23.4996 15.9993C27.6416 15.9993 30.9994 19.3571 30.9994 23.4991L30.9994 30.999L23.4996 30.999Z" fill="url(#paint1_linear_10271_29491)"/>
<path opacity="0.5" d="M23.4996 1.5H30.9995V8.99988C30.9995 13.1419 27.6417 16.4997 23.4996 16.4997H18.727C17.9697 16.4997 17.2845 16.1911 16.7904 15.6928C17.2846 16.1917 17.9702 16.5007 18.728 16.5007H8.50085C4.35878 16.5007 1.00098 13.1429 1.00098 9.00085V1.50098H8.50085C12.614 1.50098 15.9539 4.81212 16.0002 8.91431C16.0461 4.81167 19.3861 1.5 23.4996 1.5Z" fill="black" stroke="black" stroke-opacity="0.5"/>
<path d="M1.00098 1.00064L8.50085 1.00064C12.6429 1.00064 16.0007 4.35845 16.0007 8.50052V13.2732C16.0007 14.7794 17.2218 16.0004 18.728 16.0004L8.50085 16.0004C4.35878 16.0004 1.00098 12.6426 1.00098 8.50052L1.00098 1.00064Z" fill="url(#paint2_linear_10271_29491)"/>
<path opacity="0.5" d="M30.9998 8.49988V1.49951H23.4999C19.3578 1.49951 16 4.85732 16 8.99939V13.772C16 14.6927 16.4562 15.5069 17.155 16.0007H18.7282C17.9704 16.0007 17.2849 15.6917 16.7906 15.1928C17.2848 15.6911 17.97 15.9997 18.7272 15.9997H23.4999C27.6419 15.9997 30.9998 12.6419 30.9998 8.49988Z" fill="black"/>
<path opacity="0.25" fill-rule="evenodd" clip-rule="evenodd" d="M16.3931 16.0007H18.7282C17.9704 16.0007 17.2849 15.6917 16.7906 15.1928C17.2848 15.6911 17.97 15.9997 18.7272 15.9997H23.4999C27.6419 15.9997 30.9998 12.6419 30.9998 8.49988V1H23.4999C19.3864 1 16.0463 4.31167 16.0005 8.41431C15.9942 7.85889 15.9275 7.31796 15.8068 6.7978C15.607 7.49723 15.5 8.23581 15.5 8.99939V13.772C15.5 14.6364 15.8398 15.4214 16.3931 16.0007ZM30.4998 8.99939V1.99951H23.4999C19.6339 1.99951 16.5 5.13346 16.5 8.99939V13.772C16.5 15.0021 17.4972 15.9997 18.7272 15.9997H23.4999C27.3658 15.9997 30.4998 12.8653 30.4998 8.99939Z" fill="black"/>
<path d="M30.9995 0.999512L23.4996 0.999512C19.3576 0.999512 15.9998 4.35732 15.9998 8.49939V13.272C15.9998 14.7782 17.2208 15.9993 18.727 15.9993H23.4996C27.6417 15.9993 30.9995 12.6415 30.9995 8.49939V0.999512Z" fill="url(#paint3_linear_10271_29491)"/>
</g>
<defs>
<linearGradient id="paint0_linear_10271_29491" x1="8.49987" y1="14.9763" x2="12.2498" y2="30.9988" gradientUnits="userSpaceOnUse">
<stop stop-color="#007FA5"/>
<stop offset="1" stop-color="#0E536E"/>
</linearGradient>
<linearGradient id="paint1_linear_10271_29491" x1="29.2949" y1="30.999" x2="23.2665" y2="12.4918" gradientUnits="userSpaceOnUse">
<stop stop-color="#057093"/>
<stop offset="1" stop-color="#20B2C6"/>
</linearGradient>
<linearGradient id="paint2_linear_10271_29491" x1="5.64966" y1="-0.192521" x2="8.63266" y2="18.305" gradientUnits="userSpaceOnUse">
<stop stop-color="#64D9E1"/>
<stop offset="1" stop-color="#30CCD7"/>
</linearGradient>
<linearGradient id="paint3_linear_10271_29491" x1="23.4996" y1="-0.19365" x2="24.8632" y2="17.7038" gradientUnits="userSpaceOnUse">
<stop stop-color="#9FF2F4"/>
<stop offset="1" stop-color="#64D9E1"/>
</linearGradient>
</defs>
</svg>
