<?xml version="1.0" encoding="utf-8" standalone="no"?>
<!DOCTYPE svg PUBLIC "-//W3C//DTD SVG 1.1//EN"
  "http://www.w3.org/Graphics/SVG/1.1/DTD/svg11.dtd">
<svg xmlns:xlink="http://www.w3.org/1999/xlink" width="1000.965625pt" height="369.99625pt" viewBox="0 0 1000.965625 369.99625" xmlns="http://www.w3.org/2000/svg" version="1.1">
 <metadata>
  <rdf:RDF xmlns:dc="http://purl.org/dc/elements/1.1/" xmlns:cc="http://creativecommons.org/ns#" xmlns:rdf="http://www.w3.org/1999/02/22-rdf-syntax-ns#">
   <cc:Work>
    <dc:type rdf:resource="http://purl.org/dc/dcmitype/StillImage"/>
    <dc:date>2026-05-02T13:30:38.270831</dc:date>
    <dc:format>image/svg+xml</dc:format>
    <dc:creator>
     <cc:Agent>
      <dc:title>Matplotlib v3.10.8, https://matplotlib.org/</dc:title>
     </cc:Agent>
    </dc:creator>
   </cc:Work>
  </rdf:RDF>
 </metadata>
 <defs>
  <style type="text/css">*{stroke-linejoin: round; stroke-linecap: butt}</style>
 </defs>
 <g id="figure_1">
  <g id="patch_1">
   <path d="M 0 369.99625 
L 1000.965625 369.99625 
L 1000.965625 0 
L 0 0 
z
" style="fill: #ffffff"/>
  </g>
  <g id="axes_1">
   <g id="patch_2">
    <path d="M 83.346875 332.44 
L 479.074375 332.44 
L 479.074375 65.76 
L 83.346875 65.76 
z
" style="fill: #ffffff"/>
   </g>
   <g id="patch_3">
    <path d="M 83.346875 77.881818 
L 479.074375 77.881818 
L 479.074375 103.857143 
L 83.346875 103.857143 
z
" clip-path="url(#p13121ad662)" style="fill: #2ecc71; stroke: #ffffff; stroke-linejoin: miter"/>
   </g>
   <g id="patch_4">
    <path d="M 83.346875 121.174026 
L 479.074375 121.174026 
L 479.074375 147.149351 
L 83.346875 147.149351 
z
" clip-path="url(#p13121ad662)" style="fill: #2ecc71; stroke: #ffffff; stroke-linejoin: miter"/>
   </g>
   <g id="patch_5">
    <path d="M 83.346875 164.466234 
L 479.074375 164.466234 
L 479.074375 190.441558 
L 83.346875 190.441558 
z
" clip-path="url(#p13121ad662)" style="fill: #2ecc71; stroke: #ffffff; stroke-linejoin: miter"/>
   </g>
   <g id="patch_6">
    <path d="M 83.346875 207.758442 
L 479.074375 207.758442 
L 479.074375 233.733766 
L 83.346875 233.733766 
z
" clip-path="url(#p13121ad662)" style="fill: #2ecc71; stroke: #ffffff; stroke-linejoin: miter"/>
   </g>
   <g id="patch_7">
    <path d="M 83.346875 251.050649 
L 479.074375 251.050649 
L 479.074375 277.025974 
L 83.346875 277.025974 
z
" clip-path="url(#p13121ad662)" style="fill: #2ecc71; stroke: #ffffff; stroke-linejoin: miter"/>
   </g>
   <g id="patch_8">
    <path d="M 83.346875 294.342857 
L 479.074375 294.342857 
L 479.074375 320.318182 
L 83.346875 320.318182 
z
" clip-path="url(#p13121ad662)" style="fill: #f39c12; stroke: #ffffff; stroke-linejoin: miter"/>
   </g>
   <g id="matplotlib.axis_1"/>
   <g id="matplotlib.axis_2">
    <g id="ytick_1">
     <g id="line2d_1">
      <defs>
       <path id="m1c20193804" d="M 0 0 
L -3.5 0 
" style="stroke: #000000; stroke-width: 0.8"/>
      </defs>
      <g>
       <use xlink:href="#m1c20193804" x="83.346875" y="90.869481" style="stroke: #000000; stroke-width: 0.8"/>
      </g>
     </g>
     <g id="text_1">
      <!-- VM Quota -->
      <g transform="translate(27.323438 89.829637) scale(0.1 -0.1)">
       <defs>
        <path id="DejaVuSans-56" d="M 1831 0 
L 50 4666 
L 709 4666 
L 2188 738 
L 3669 4666 
L 4325 4666 
L 2547 0 
L 1831 0 
z
" transform="scale(0.015625)"/>
        <path id="DejaVuSans-4d" d="M 628 4666 
L 1569 4666 
L 2759 1491 
L 3956 4666 
L 4897 4666 
L 4897 0 
L 4281 0 
L 4281 4097 
L 3078 897 
L 2444 897 
L 1241 4097 
L 1241 0 
L 628 0 
L 628 4666 
z
" transform="scale(0.015625)"/>
        <path id="DejaVuSans-20" transform="scale(0.015625)"/>
        <path id="DejaVuSans-51" d="M 2522 4238 
Q 1834 4238 1429 3725 
Q 1025 3213 1025 2328 
Q 1025 1447 1429 934 
Q 1834 422 2522 422 
Q 3209 422 3611 934 
Q 4013 1447 4013 2328 
Q 4013 3213 3611 3725 
Q 3209 4238 2522 4238 
z
M 3406 84 
L 4238 -825 
L 3475 -825 
L 2784 -78 
Q 2681 -84 2626 -87 
Q 2572 -91 2522 -91 
Q 1538 -91 948 567 
Q 359 1225 359 2328 
Q 359 3434 948 4092 
Q 1538 4750 2522 4750 
Q 3503 4750 4090 4092 
Q 4678 3434 4678 2328 
Q 4678 1516 4351 937 
Q 4025 359 3406 84 
z
" transform="scale(0.015625)"/>
        <path id="DejaVuSans-75" d="M 544 1381 
L 544 3500 
L 1119 3500 
L 1119 1403 
Q 1119 906 1312 657 
Q 1506 409 1894 409 
Q 2359 409 2629 706 
Q 2900 1003 2900 1516 
L 2900 3500 
L 3475 3500 
L 3475 0 
L 2900 0 
L 2900 538 
Q 2691 219 2414 64 
Q 2138 -91 1772 -91 
Q 1169 -91 856 284 
Q 544 659 544 1381 
z
M 1991 3584 
L 1991 3584 
z
" transform="scale(0.015625)"/>
        <path id="DejaVuSans-6f" d="M 1959 3097 
Q 1497 3097 1228 2736 
Q 959 2375 959 1747 
Q 959 1119 1226 758 
Q 1494 397 1959 397 
Q 2419 397 2687 759 
Q 2956 1122 2956 1747 
Q 2956 2369 2687 2733 
Q 2419 3097 1959 3097 
z
M 1959 3584 
Q 2709 3584 3137 3096 
Q 3566 2609 3566 1747 
Q 3566 888 3137 398 
Q 2709 -91 1959 -91 
Q 1206 -91 779 398 
Q 353 888 353 1747 
Q 353 2609 779 3096 
Q 1206 3584 1959 3584 
z
" transform="scale(0.015625)"/>
        <path id="DejaVuSans-74" d="M 1172 4494 
L 1172 3500 
L 2356 3500 
L 2356 3053 
L 1172 3053 
L 1172 1153 
Q 1172 725 1289 603 
Q 1406 481 1766 481 
L 2356 481 
L 2356 0 
L 1766 0 
Q 1100 0 847 248 
Q 594 497 594 1153 
L 594 3053 
L 172 3053 
L 172 3500 
L 594 3500 
L 594 4494 
L 1172 4494 
z
" transform="scale(0.015625)"/>
        <path id="DejaVuSans-61" d="M 2194 1759 
Q 1497 1759 1228 1600 
Q 959 1441 959 1056 
Q 959 750 1161 570 
Q 1363 391 1709 391 
Q 2188 391 2477 730 
Q 2766 1069 2766 1631 
L 2766 1759 
L 2194 1759 
z
M 3341 1997 
L 3341 0 
L 2766 0 
L 2766 531 
Q 2569 213 2275 61 
Q 1981 -91 1556 -91 
Q 1019 -91 701 211 
Q 384 513 384 1019 
Q 384 1609 779 1909 
Q 1175 2209 1959 2209 
L 2766 2209 
L 2766 2266 
Q 2766 2663 2505 2880 
Q 2244 3097 1772 3097 
Q 1472 3097 1187 3025 
Q 903 2953 641 2809 
L 641 3341 
Q 956 3463 1253 3523 
Q 1550 3584 1831 3584 
Q 2591 3584 2966 3190 
Q 3341 2797 3341 1997 
z
" transform="scale(0.015625)"/>
       </defs>
       <use xlink:href="#DejaVuSans-56"/>
       <use xlink:href="#DejaVuSans-4d" transform="translate(68.408203 0)"/>
       <use xlink:href="#DejaVuSans-20" transform="translate(154.6875 0)"/>
       <use xlink:href="#DejaVuSans-51" transform="translate(186.474609 0)"/>
       <use xlink:href="#DejaVuSans-75" transform="translate(265.185547 0)"/>
       <use xlink:href="#DejaVuSans-6f" transform="translate(328.564453 0)"/>
       <use xlink:href="#DejaVuSans-74" transform="translate(389.746094 0)"/>
       <use xlink:href="#DejaVuSans-61" transform="translate(428.955078 0)"/>
      </g>
      <!-- (Compute) -->
      <g transform="translate(22.942188 101.027449) scale(0.1 -0.1)">
       <defs>
        <path id="DejaVuSans-28" d="M 1984 4856 
Q 1566 4138 1362 3434 
Q 1159 2731 1159 2009 
Q 1159 1288 1364 580 
Q 1569 -128 1984 -844 
L 1484 -844 
Q 1016 -109 783 600 
Q 550 1309 550 2009 
Q 550 2706 781 3412 
Q 1013 4119 1484 4856 
L 1984 4856 
z
" transform="scale(0.015625)"/>
        <path id="DejaVuSans-43" d="M 4122 4306 
L 4122 3641 
Q 3803 3938 3442 4084 
Q 3081 4231 2675 4231 
Q 1875 4231 1450 3742 
Q 1025 3253 1025 2328 
Q 1025 1406 1450 917 
Q 1875 428 2675 428 
Q 3081 428 3442 575 
Q 3803 722 4122 1019 
L 4122 359 
Q 3791 134 3420 21 
Q 3050 -91 2638 -91 
Q 1578 -91 968 557 
Q 359 1206 359 2328 
Q 359 3453 968 4101 
Q 1578 4750 2638 4750 
Q 3056 4750 3426 4639 
Q 3797 4528 4122 4306 
z
" transform="scale(0.015625)"/>
        <path id="DejaVuSans-6d" d="M 3328 2828 
Q 3544 3216 3844 3400 
Q 4144 3584 4550 3584 
Q 5097 3584 5394 3201 
Q 5691 2819 5691 2113 
L 5691 0 
L 5113 0 
L 5113 2094 
Q 5113 2597 4934 2840 
Q 4756 3084 4391 3084 
Q 3944 3084 3684 2787 
Q 3425 2491 3425 1978 
L 3425 0 
L 2847 0 
L 2847 2094 
Q 2847 2600 2669 2842 
Q 2491 3084 2119 3084 
Q 1678 3084 1418 2786 
Q 1159 2488 1159 1978 
L 1159 0 
L 581 0 
L 581 3500 
L 1159 3500 
L 1159 2956 
Q 1356 3278 1631 3431 
Q 1906 3584 2284 3584 
Q 2666 3584 2933 3390 
Q 3200 3197 3328 2828 
z
" transform="scale(0.015625)"/>
        <path id="DejaVuSans-70" d="M 1159 525 
L 1159 -1331 
L 581 -1331 
L 581 3500 
L 1159 3500 
L 1159 2969 
Q 1341 3281 1617 3432 
Q 1894 3584 2278 3584 
Q 2916 3584 3314 3078 
Q 3713 2572 3713 1747 
Q 3713 922 3314 415 
Q 2916 -91 2278 -91 
Q 1894 -91 1617 61 
Q 1341 213 1159 525 
z
M 3116 1747 
Q 3116 2381 2855 2742 
Q 2594 3103 2138 3103 
Q 1681 3103 1420 2742 
Q 1159 2381 1159 1747 
Q 1159 1113 1420 752 
Q 1681 391 2138 391 
Q 2594 391 2855 752 
Q 3116 1113 3116 1747 
z
" transform="scale(0.015625)"/>
        <path id="DejaVuSans-65" d="M 3597 1894 
L 3597 1613 
L 953 1613 
Q 991 1019 1311 708 
Q 1631 397 2203 397 
Q 2534 397 2845 478 
Q 3156 559 3463 722 
L 3463 178 
Q 3153 47 2828 -22 
Q 2503 -91 2169 -91 
Q 1331 -91 842 396 
Q 353 884 353 1716 
Q 353 2575 817 3079 
Q 1281 3584 2069 3584 
Q 2775 3584 3186 3129 
Q 3597 2675 3597 1894 
z
M 3022 2063 
Q 3016 2534 2758 2815 
Q 2500 3097 2075 3097 
Q 1594 3097 1305 2825 
Q 1016 2553 972 2059 
L 3022 2063 
z
" transform="scale(0.015625)"/>
        <path id="DejaVuSans-29" d="M 513 4856 
L 1013 4856 
Q 1481 4119 1714 3412 
Q 1947 2706 1947 2009 
Q 1947 1309 1714 600 
Q 1481 -109 1013 -844 
L 513 -844 
Q 928 -128 1133 580 
Q 1338 1288 1338 2009 
Q 1338 2731 1133 3434 
Q 928 4138 513 4856 
z
" transform="scale(0.015625)"/>
       </defs>
       <use xlink:href="#DejaVuSans-28"/>
       <use xlink:href="#DejaVuSans-43" transform="translate(39.013672 0)"/>
       <use xlink:href="#DejaVuSans-6f" transform="translate(108.837891 0)"/>
       <use xlink:href="#DejaVuSans-6d" transform="translate(170.019531 0)"/>
       <use xlink:href="#DejaVuSans-70" transform="translate(267.431641 0)"/>
       <use xlink:href="#DejaVuSans-75" transform="translate(330.908203 0)"/>
       <use xlink:href="#DejaVuSans-74" transform="translate(394.287109 0)"/>
       <use xlink:href="#DejaVuSans-65" transform="translate(433.496094 0)"/>
       <use xlink:href="#DejaVuSans-29" transform="translate(495.019531 0)"/>
      </g>
     </g>
    </g>
    <g id="ytick_2">
     <g id="line2d_2">
      <g>
       <use xlink:href="#m1c20193804" x="83.346875" y="134.161688" style="stroke: #000000; stroke-width: 0.8"/>
      </g>
     </g>
     <g id="text_2">
      <!-- Non-Compute -->
      <g transform="translate(7.2 133.121845) scale(0.1 -0.1)">
       <defs>
        <path id="DejaVuSans-4e" d="M 628 4666 
L 1478 4666 
L 3547 763 
L 3547 4666 
L 4159 4666 
L 4159 0 
L 3309 0 
L 1241 3903 
L 1241 0 
L 628 0 
L 628 4666 
z
" transform="scale(0.015625)"/>
        <path id="DejaVuSans-6e" d="M 3513 2113 
L 3513 0 
L 2938 0 
L 2938 2094 
Q 2938 2591 2744 2837 
Q 2550 3084 2163 3084 
Q 1697 3084 1428 2787 
Q 1159 2491 1159 1978 
L 1159 0 
L 581 0 
L 581 3500 
L 1159 3500 
L 1159 2956 
Q 1366 3272 1645 3428 
Q 1925 3584 2291 3584 
Q 2894 3584 3203 3211 
Q 3513 2838 3513 2113 
z
" transform="scale(0.015625)"/>
        <path id="DejaVuSans-2d" d="M 313 2009 
L 1997 2009 
L 1997 1497 
L 313 1497 
L 313 2009 
z
" transform="scale(0.015625)"/>
       </defs>
       <use xlink:href="#DejaVuSans-4e"/>
       <use xlink:href="#DejaVuSans-6f" transform="translate(74.804688 0)"/>
       <use xlink:href="#DejaVuSans-6e" transform="translate(135.986328 0)"/>
       <use xlink:href="#DejaVuSans-2d" transform="translate(199.365234 0)"/>
       <use xlink:href="#DejaVuSans-43" transform="translate(235.449219 0)"/>
       <use xlink:href="#DejaVuSans-6f" transform="translate(305.273438 0)"/>
       <use xlink:href="#DejaVuSans-6d" transform="translate(366.455078 0)"/>
       <use xlink:href="#DejaVuSans-70" transform="translate(463.867188 0)"/>
       <use xlink:href="#DejaVuSans-75" transform="translate(527.34375 0)"/>
       <use xlink:href="#DejaVuSans-74" transform="translate(590.722656 0)"/>
       <use xlink:href="#DejaVuSans-65" transform="translate(629.931641 0)"/>
      </g>
      <!-- Quota -->
      <g transform="translate(45.970313 144.319657) scale(0.1 -0.1)">
       <use xlink:href="#DejaVuSans-51"/>
       <use xlink:href="#DejaVuSans-75" transform="translate(78.710938 0)"/>
       <use xlink:href="#DejaVuSans-6f" transform="translate(142.089844 0)"/>
       <use xlink:href="#DejaVuSans-74" transform="translate(203.271484 0)"/>
       <use xlink:href="#DejaVuSans-61" transform="translate(242.480469 0)"/>
      </g>
     </g>
    </g>
    <g id="ytick_3">
     <g id="line2d_3">
      <g>
       <use xlink:href="#m1c20193804" x="83.346875" y="177.453896" style="stroke: #000000; stroke-width: 0.8"/>
      </g>
     </g>
     <g id="text_3">
      <!-- Capacity -->
      <g transform="translate(32.64375 176.414052) scale(0.1 -0.1)">
       <defs>
        <path id="DejaVuSans-63" d="M 3122 3366 
L 3122 2828 
Q 2878 2963 2633 3030 
Q 2388 3097 2138 3097 
Q 1578 3097 1268 2742 
Q 959 2388 959 1747 
Q 959 1106 1268 751 
Q 1578 397 2138 397 
Q 2388 397 2633 464 
Q 2878 531 3122 666 
L 3122 134 
Q 2881 22 2623 -34 
Q 2366 -91 2075 -91 
Q 1284 -91 818 406 
Q 353 903 353 1747 
Q 353 2603 823 3093 
Q 1294 3584 2113 3584 
Q 2378 3584 2631 3529 
Q 2884 3475 3122 3366 
z
" transform="scale(0.015625)"/>
        <path id="DejaVuSans-69" d="M 603 3500 
L 1178 3500 
L 1178 0 
L 603 0 
L 603 3500 
z
M 603 4863 
L 1178 4863 
L 1178 4134 
L 603 4134 
L 603 4863 
z
" transform="scale(0.015625)"/>
        <path id="DejaVuSans-79" d="M 2059 -325 
Q 1816 -950 1584 -1140 
Q 1353 -1331 966 -1331 
L 506 -1331 
L 506 -850 
L 844 -850 
Q 1081 -850 1212 -737 
Q 1344 -625 1503 -206 
L 1606 56 
L 191 3500 
L 800 3500 
L 1894 763 
L 2988 3500 
L 3597 3500 
L 2059 -325 
z
" transform="scale(0.015625)"/>
       </defs>
       <use xlink:href="#DejaVuSans-43"/>
       <use xlink:href="#DejaVuSans-61" transform="translate(69.824219 0)"/>
       <use xlink:href="#DejaVuSans-70" transform="translate(131.103516 0)"/>
       <use xlink:href="#DejaVuSans-61" transform="translate(194.580078 0)"/>
       <use xlink:href="#DejaVuSans-63" transform="translate(255.859375 0)"/>
       <use xlink:href="#DejaVuSans-69" transform="translate(310.839844 0)"/>
       <use xlink:href="#DejaVuSans-74" transform="translate(338.623047 0)"/>
       <use xlink:href="#DejaVuSans-79" transform="translate(377.832031 0)"/>
      </g>
      <!-- Reservations -->
      <g transform="translate(11.810938 187.611865) scale(0.1 -0.1)">
       <defs>
        <path id="DejaVuSans-52" d="M 2841 2188 
Q 3044 2119 3236 1894 
Q 3428 1669 3622 1275 
L 4263 0 
L 3584 0 
L 2988 1197 
Q 2756 1666 2539 1819 
Q 2322 1972 1947 1972 
L 1259 1972 
L 1259 0 
L 628 0 
L 628 4666 
L 2053 4666 
Q 2853 4666 3247 4331 
Q 3641 3997 3641 3322 
Q 3641 2881 3436 2590 
Q 3231 2300 2841 2188 
z
M 1259 4147 
L 1259 2491 
L 2053 2491 
Q 2509 2491 2742 2702 
Q 2975 2913 2975 3322 
Q 2975 3731 2742 3939 
Q 2509 4147 2053 4147 
L 1259 4147 
z
" transform="scale(0.015625)"/>
        <path id="DejaVuSans-73" d="M 2834 3397 
L 2834 2853 
Q 2591 2978 2328 3040 
Q 2066 3103 1784 3103 
Q 1356 3103 1142 2972 
Q 928 2841 928 2578 
Q 928 2378 1081 2264 
Q 1234 2150 1697 2047 
L 1894 2003 
Q 2506 1872 2764 1633 
Q 3022 1394 3022 966 
Q 3022 478 2636 193 
Q 2250 -91 1575 -91 
Q 1294 -91 989 -36 
Q 684 19 347 128 
L 347 722 
Q 666 556 975 473 
Q 1284 391 1588 391 
Q 1994 391 2212 530 
Q 2431 669 2431 922 
Q 2431 1156 2273 1281 
Q 2116 1406 1581 1522 
L 1381 1569 
Q 847 1681 609 1914 
Q 372 2147 372 2553 
Q 372 3047 722 3315 
Q 1072 3584 1716 3584 
Q 2034 3584 2315 3537 
Q 2597 3491 2834 3397 
z
" transform="scale(0.015625)"/>
        <path id="DejaVuSans-72" d="M 2631 2963 
Q 2534 3019 2420 3045 
Q 2306 3072 2169 3072 
Q 1681 3072 1420 2755 
Q 1159 2438 1159 1844 
L 1159 0 
L 581 0 
L 581 3500 
L 1159 3500 
L 1159 2956 
Q 1341 3275 1631 3429 
Q 1922 3584 2338 3584 
Q 2397 3584 2469 3576 
Q 2541 3569 2628 3553 
L 2631 2963 
z
" transform="scale(0.015625)"/>
        <path id="DejaVuSans-76" d="M 191 3500 
L 800 3500 
L 1894 563 
L 2988 3500 
L 3597 3500 
L 2284 0 
L 1503 0 
L 191 3500 
z
" transform="scale(0.015625)"/>
       </defs>
       <use xlink:href="#DejaVuSans-52"/>
       <use xlink:href="#DejaVuSans-65" transform="translate(64.982422 0)"/>
       <use xlink:href="#DejaVuSans-73" transform="translate(126.505859 0)"/>
       <use xlink:href="#DejaVuSans-65" transform="translate(178.605469 0)"/>
       <use xlink:href="#DejaVuSans-72" transform="translate(240.128906 0)"/>
       <use xlink:href="#DejaVuSans-76" transform="translate(281.242188 0)"/>
       <use xlink:href="#DejaVuSans-61" transform="translate(340.421875 0)"/>
       <use xlink:href="#DejaVuSans-74" transform="translate(401.701172 0)"/>
       <use xlink:href="#DejaVuSans-69" transform="translate(440.910156 0)"/>
       <use xlink:href="#DejaVuSans-6f" transform="translate(468.693359 0)"/>
       <use xlink:href="#DejaVuSans-6e" transform="translate(529.875 0)"/>
       <use xlink:href="#DejaVuSans-73" transform="translate(593.253906 0)"/>
      </g>
     </g>
    </g>
    <g id="ytick_4">
     <g id="line2d_4">
      <g>
       <use xlink:href="#m1c20193804" x="83.346875" y="220.746104" style="stroke: #000000; stroke-width: 0.8"/>
      </g>
     </g>
     <g id="text_4">
      <!-- AKS -->
      <g transform="translate(56.6 219.70626) scale(0.1 -0.1)">
       <defs>
        <path id="DejaVuSans-41" d="M 2188 4044 
L 1331 1722 
L 3047 1722 
L 2188 4044 
z
M 1831 4666 
L 2547 4666 
L 4325 0 
L 3669 0 
L 3244 1197 
L 1141 1197 
L 716 0 
L 50 0 
L 1831 4666 
z
" transform="scale(0.015625)"/>
        <path id="DejaVuSans-4b" d="M 628 4666 
L 1259 4666 
L 1259 2694 
L 3353 4666 
L 4166 4666 
L 1850 2491 
L 4331 0 
L 3500 0 
L 1259 2247 
L 1259 0 
L 628 0 
L 628 4666 
z
" transform="scale(0.015625)"/>
        <path id="DejaVuSans-53" d="M 3425 4513 
L 3425 3897 
Q 3066 4069 2747 4153 
Q 2428 4238 2131 4238 
Q 1616 4238 1336 4038 
Q 1056 3838 1056 3469 
Q 1056 3159 1242 3001 
Q 1428 2844 1947 2747 
L 2328 2669 
Q 3034 2534 3370 2195 
Q 3706 1856 3706 1288 
Q 3706 609 3251 259 
Q 2797 -91 1919 -91 
Q 1588 -91 1214 -16 
Q 841 59 441 206 
L 441 856 
Q 825 641 1194 531 
Q 1563 422 1919 422 
Q 2459 422 2753 634 
Q 3047 847 3047 1241 
Q 3047 1584 2836 1778 
Q 2625 1972 2144 2069 
L 1759 2144 
Q 1053 2284 737 2584 
Q 422 2884 422 3419 
Q 422 4038 858 4394 
Q 1294 4750 2059 4750 
Q 2388 4750 2728 4690 
Q 3069 4631 3425 4513 
z
" transform="scale(0.015625)"/>
       </defs>
       <use xlink:href="#DejaVuSans-41"/>
       <use xlink:href="#DejaVuSans-4b" transform="translate(68.408203 0)"/>
       <use xlink:href="#DejaVuSans-53" transform="translate(133.984375 0)"/>
      </g>
      <!-- Node Pools -->
      <g transform="translate(21.175 230.904073) scale(0.1 -0.1)">
       <defs>
        <path id="DejaVuSans-64" d="M 2906 2969 
L 2906 4863 
L 3481 4863 
L 3481 0 
L 2906 0 
L 2906 525 
Q 2725 213 2448 61 
Q 2172 -91 1784 -91 
Q 1150 -91 751 415 
Q 353 922 353 1747 
Q 353 2572 751 3078 
Q 1150 3584 1784 3584 
Q 2172 3584 2448 3432 
Q 2725 3281 2906 2969 
z
M 947 1747 
Q 947 1113 1208 752 
Q 1469 391 1925 391 
Q 2381 391 2643 752 
Q 2906 1113 2906 1747 
Q 2906 2381 2643 2742 
Q 2381 3103 1925 3103 
Q 1469 3103 1208 2742 
Q 947 2381 947 1747 
z
" transform="scale(0.015625)"/>
        <path id="DejaVuSans-50" d="M 1259 4147 
L 1259 2394 
L 2053 2394 
Q 2494 2394 2734 2622 
Q 2975 2850 2975 3272 
Q 2975 3691 2734 3919 
Q 2494 4147 2053 4147 
L 1259 4147 
z
M 628 4666 
L 2053 4666 
Q 2838 4666 3239 4311 
Q 3641 3956 3641 3272 
Q 3641 2581 3239 2228 
Q 2838 1875 2053 1875 
L 1259 1875 
L 1259 0 
L 628 0 
L 628 4666 
z
" transform="scale(0.015625)"/>
        <path id="DejaVuSans-6c" d="M 603 4863 
L 1178 4863 
L 1178 0 
L 603 0 
L 603 4863 
z
" transform="scale(0.015625)"/>
       </defs>
       <use xlink:href="#DejaVuSans-4e"/>
       <use xlink:href="#DejaVuSans-6f" transform="translate(74.804688 0)"/>
       <use xlink:href="#DejaVuSans-64" transform="translate(135.986328 0)"/>
       <use xlink:href="#DejaVuSans-65" transform="translate(199.462891 0)"/>
       <use xlink:href="#DejaVuSans-20" transform="translate(260.986328 0)"/>
       <use xlink:href="#DejaVuSans-50" transform="translate(292.773438 0)"/>
       <use xlink:href="#DejaVuSans-6f" transform="translate(349.451172 0)"/>
       <use xlink:href="#DejaVuSans-6f" transform="translate(410.632812 0)"/>
       <use xlink:href="#DejaVuSans-6c" transform="translate(471.814453 0)"/>
       <use xlink:href="#DejaVuSans-73" transform="translate(499.597656 0)"/>
      </g>
     </g>
    </g>
    <g id="ytick_5">
     <g id="line2d_5">
      <g>
       <use xlink:href="#m1c20193804" x="83.346875" y="264.038312" style="stroke: #000000; stroke-width: 0.8"/>
      </g>
     </g>
     <g id="text_5">
      <!-- Alerts -->
      <g transform="translate(47.334375 262.998468) scale(0.1 -0.1)">
       <use xlink:href="#DejaVuSans-41"/>
       <use xlink:href="#DejaVuSans-6c" transform="translate(68.408203 0)"/>
       <use xlink:href="#DejaVuSans-65" transform="translate(96.191406 0)"/>
       <use xlink:href="#DejaVuSans-72" transform="translate(157.714844 0)"/>
       <use xlink:href="#DejaVuSans-74" transform="translate(198.828125 0)"/>
       <use xlink:href="#DejaVuSans-73" transform="translate(238.037109 0)"/>
      </g>
      <!-- (24h) -->
      <g transform="translate(49.48125 274.19628) scale(0.1 -0.1)">
       <defs>
        <path id="DejaVuSans-32" d="M 1228 531 
L 3431 531 
L 3431 0 
L 469 0 
L 469 531 
Q 828 903 1448 1529 
Q 2069 2156 2228 2338 
Q 2531 2678 2651 2914 
Q 2772 3150 2772 3378 
Q 2772 3750 2511 3984 
Q 2250 4219 1831 4219 
Q 1534 4219 1204 4116 
Q 875 4013 500 3803 
L 500 4441 
Q 881 4594 1212 4672 
Q 1544 4750 1819 4750 
Q 2544 4750 2975 4387 
Q 3406 4025 3406 3419 
Q 3406 3131 3298 2873 
Q 3191 2616 2906 2266 
Q 2828 2175 2409 1742 
Q 1991 1309 1228 531 
z
" transform="scale(0.015625)"/>
        <path id="DejaVuSans-34" d="M 2419 4116 
L 825 1625 
L 2419 1625 
L 2419 4116 
z
M 2253 4666 
L 3047 4666 
L 3047 1625 
L 3713 1625 
L 3713 1100 
L 3047 1100 
L 3047 0 
L 2419 0 
L 2419 1100 
L 313 1100 
L 313 1709 
L 2253 4666 
z
" transform="scale(0.015625)"/>
        <path id="DejaVuSans-68" d="M 3513 2113 
L 3513 0 
L 2938 0 
L 2938 2094 
Q 2938 2591 2744 2837 
Q 2550 3084 2163 3084 
Q 1697 3084 1428 2787 
Q 1159 2491 1159 1978 
L 1159 0 
L 581 0 
L 581 4863 
L 1159 4863 
L 1159 2956 
Q 1366 3272 1645 3428 
Q 1925 3584 2291 3584 
Q 2894 3584 3203 3211 
Q 3513 2838 3513 2113 
z
" transform="scale(0.015625)"/>
       </defs>
       <use xlink:href="#DejaVuSans-28"/>
       <use xlink:href="#DejaVuSans-32" transform="translate(39.013672 0)"/>
       <use xlink:href="#DejaVuSans-34" transform="translate(102.636719 0)"/>
       <use xlink:href="#DejaVuSans-68" transform="translate(166.259766 0)"/>
       <use xlink:href="#DejaVuSans-29" transform="translate(229.638672 0)"/>
      </g>
     </g>
    </g>
    <g id="ytick_6">
     <g id="line2d_6">
      <g>
       <use xlink:href="#m1c20193804" x="83.346875" y="307.330519" style="stroke: #000000; stroke-width: 0.8"/>
      </g>
     </g>
     <g id="text_6">
      <!-- Hub Data -->
      <g transform="translate(29.085938 306.290676) scale(0.1 -0.1)">
       <defs>
        <path id="DejaVuSans-48" d="M 628 4666 
L 1259 4666 
L 1259 2753 
L 3553 2753 
L 3553 4666 
L 4184 4666 
L 4184 0 
L 3553 0 
L 3553 2222 
L 1259 2222 
L 1259 0 
L 628 0 
L 628 4666 
z
" transform="scale(0.015625)"/>
        <path id="DejaVuSans-62" d="M 3116 1747 
Q 3116 2381 2855 2742 
Q 2594 3103 2138 3103 
Q 1681 3103 1420 2742 
Q 1159 2381 1159 1747 
Q 1159 1113 1420 752 
Q 1681 391 2138 391 
Q 2594 391 2855 752 
Q 3116 1113 3116 1747 
z
M 1159 2969 
Q 1341 3281 1617 3432 
Q 1894 3584 2278 3584 
Q 2916 3584 3314 3078 
Q 3713 2572 3713 1747 
Q 3713 922 3314 415 
Q 2916 -91 2278 -91 
Q 1894 -91 1617 61 
Q 1341 213 1159 525 
L 1159 0 
L 581 0 
L 581 4863 
L 1159 4863 
L 1159 2969 
z
" transform="scale(0.015625)"/>
        <path id="DejaVuSans-44" d="M 1259 4147 
L 1259 519 
L 2022 519 
Q 2988 519 3436 956 
Q 3884 1394 3884 2338 
Q 3884 3275 3436 3711 
Q 2988 4147 2022 4147 
L 1259 4147 
z
M 628 4666 
L 1925 4666 
Q 3281 4666 3915 4102 
Q 4550 3538 4550 2338 
Q 4550 1131 3912 565 
Q 3275 0 1925 0 
L 628 0 
L 628 4666 
z
" transform="scale(0.015625)"/>
       </defs>
       <use xlink:href="#DejaVuSans-48"/>
       <use xlink:href="#DejaVuSans-75" transform="translate(75.195312 0)"/>
       <use xlink:href="#DejaVuSans-62" transform="translate(138.574219 0)"/>
       <use xlink:href="#DejaVuSans-20" transform="translate(202.050781 0)"/>
       <use xlink:href="#DejaVuSans-44" transform="translate(233.837891 0)"/>
       <use xlink:href="#DejaVuSans-61" transform="translate(310.839844 0)"/>
       <use xlink:href="#DejaVuSans-74" transform="translate(372.119141 0)"/>
       <use xlink:href="#DejaVuSans-61" transform="translate(411.328125 0)"/>
      </g>
      <!-- Freshness -->
      <g transform="translate(26.825 317.488488) scale(0.1 -0.1)">
       <defs>
        <path id="DejaVuSans-46" d="M 628 4666 
L 3309 4666 
L 3309 4134 
L 1259 4134 
L 1259 2759 
L 3109 2759 
L 3109 2228 
L 1259 2228 
L 1259 0 
L 628 0 
L 628 4666 
z
" transform="scale(0.015625)"/>
       </defs>
       <use xlink:href="#DejaVuSans-46"/>
       <use xlink:href="#DejaVuSans-72" transform="translate(50.269531 0)"/>
       <use xlink:href="#DejaVuSans-65" transform="translate(89.132812 0)"/>
       <use xlink:href="#DejaVuSans-73" transform="translate(150.65625 0)"/>
       <use xlink:href="#DejaVuSans-68" transform="translate(202.755859 0)"/>
       <use xlink:href="#DejaVuSans-6e" transform="translate(266.134766 0)"/>
       <use xlink:href="#DejaVuSans-65" transform="translate(329.513672 0)"/>
       <use xlink:href="#DejaVuSans-73" transform="translate(391.037109 0)"/>
       <use xlink:href="#DejaVuSans-73" transform="translate(443.136719 0)"/>
      </g>
     </g>
    </g>
   </g>
   <g id="patch_9">
    <path d="M 83.346875 332.44 
L 83.346875 65.76 
" style="fill: none; stroke: #000000; stroke-width: 0.8; stroke-linejoin: miter; stroke-linecap: square"/>
   </g>
   <g id="text_7">
    <!-- HEALTHY -->
    <g style="fill: #ffffff" transform="translate(253.659922 93.904793) scale(0.11 -0.11)">
     <defs>
      <path id="DejaVuSans-Bold-48" d="M 588 4666 
L 1791 4666 
L 1791 2888 
L 3566 2888 
L 3566 4666 
L 4769 4666 
L 4769 0 
L 3566 0 
L 3566 1978 
L 1791 1978 
L 1791 0 
L 588 0 
L 588 4666 
z
" transform="scale(0.015625)"/>
      <path id="DejaVuSans-Bold-45" d="M 588 4666 
L 3834 4666 
L 3834 3756 
L 1791 3756 
L 1791 2888 
L 3713 2888 
L 3713 1978 
L 1791 1978 
L 1791 909 
L 3903 909 
L 3903 0 
L 588 0 
L 588 4666 
z
" transform="scale(0.015625)"/>
      <path id="DejaVuSans-Bold-41" d="M 3419 850 
L 1538 850 
L 1241 0 
L 31 0 
L 1759 4666 
L 3194 4666 
L 4922 0 
L 3713 0 
L 3419 850 
z
M 1838 1716 
L 3116 1716 
L 2478 3572 
L 1838 1716 
z
" transform="scale(0.015625)"/>
      <path id="DejaVuSans-Bold-4c" d="M 588 4666 
L 1791 4666 
L 1791 909 
L 3903 909 
L 3903 0 
L 588 0 
L 588 4666 
z
" transform="scale(0.015625)"/>
      <path id="DejaVuSans-Bold-54" d="M 31 4666 
L 4331 4666 
L 4331 3756 
L 2784 3756 
L 2784 0 
L 1581 0 
L 1581 3756 
L 31 3756 
L 31 4666 
z
" transform="scale(0.015625)"/>
      <path id="DejaVuSans-Bold-59" d="M -63 4666 
L 1253 4666 
L 2316 3003 
L 3378 4666 
L 4697 4666 
L 2919 1966 
L 2919 0 
L 1716 0 
L 1716 1966 
L -63 4666 
z
" transform="scale(0.015625)"/>
     </defs>
     <use xlink:href="#DejaVuSans-Bold-48"/>
     <use xlink:href="#DejaVuSans-Bold-45" transform="translate(83.691406 0)"/>
     <use xlink:href="#DejaVuSans-Bold-41" transform="translate(152.001953 0)"/>
     <use xlink:href="#DejaVuSans-Bold-4c" transform="translate(229.394531 0)"/>
     <use xlink:href="#DejaVuSans-Bold-54" transform="translate(276.615234 0)"/>
     <use xlink:href="#DejaVuSans-Bold-48" transform="translate(344.828125 0)"/>
     <use xlink:href="#DejaVuSans-Bold-59" transform="translate(428.519531 0)"/>
    </g>
   </g>
   <g id="text_8">
    <!-- HEALTHY -->
    <g style="fill: #ffffff" transform="translate(253.659922 137.197001) scale(0.11 -0.11)">
     <use xlink:href="#DejaVuSans-Bold-48"/>
     <use xlink:href="#DejaVuSans-Bold-45" transform="translate(83.691406 0)"/>
     <use xlink:href="#DejaVuSans-Bold-41" transform="translate(152.001953 0)"/>
     <use xlink:href="#DejaVuSans-Bold-4c" transform="translate(229.394531 0)"/>
     <use xlink:href="#DejaVuSans-Bold-54" transform="translate(276.615234 0)"/>
     <use xlink:href="#DejaVuSans-Bold-48" transform="translate(344.828125 0)"/>
     <use xlink:href="#DejaVuSans-Bold-59" transform="translate(428.519531 0)"/>
    </g>
   </g>
   <g id="text_9">
    <!-- HEALTHY -->
    <g style="fill: #ffffff" transform="translate(253.659922 180.489209) scale(0.11 -0.11)">
     <use xlink:href="#DejaVuSans-Bold-48"/>
     <use xlink:href="#DejaVuSans-Bold-45" transform="translate(83.691406 0)"/>
     <use xlink:href="#DejaVuSans-Bold-41" transform="translate(152.001953 0)"/>
     <use xlink:href="#DejaVuSans-Bold-4c" transform="translate(229.394531 0)"/>
     <use xlink:href="#DejaVuSans-Bold-54" transform="translate(276.615234 0)"/>
     <use xlink:href="#DejaVuSans-Bold-48" transform="translate(344.828125 0)"/>
     <use xlink:href="#DejaVuSans-Bold-59" transform="translate(428.519531 0)"/>
    </g>
   </g>
   <g id="text_10">
    <!-- HEALTHY -->
    <g style="fill: #ffffff" transform="translate(253.659922 223.781416) scale(0.11 -0.11)">
     <use xlink:href="#DejaVuSans-Bold-48"/>
     <use xlink:href="#DejaVuSans-Bold-45" transform="translate(83.691406 0)"/>
     <use xlink:href="#DejaVuSans-Bold-41" transform="translate(152.001953 0)"/>
     <use xlink:href="#DejaVuSans-Bold-4c" transform="translate(229.394531 0)"/>
     <use xlink:href="#DejaVuSans-Bold-54" transform="translate(276.615234 0)"/>
     <use xlink:href="#DejaVuSans-Bold-48" transform="translate(344.828125 0)"/>
     <use xlink:href="#DejaVuSans-Bold-59" transform="translate(428.519531 0)"/>
    </g>
   </g>
   <g id="text_11">
    <!-- HEALTHY -->
    <g style="fill: #ffffff" transform="translate(253.659922 267.073624) scale(0.11 -0.11)">
     <use xlink:href="#DejaVuSans-Bold-48"/>
     <use xlink:href="#DejaVuSans-Bold-45" transform="translate(83.691406 0)"/>
     <use xlink:href="#DejaVuSans-Bold-41" transform="translate(152.001953 0)"/>
     <use xlink:href="#DejaVuSans-Bold-4c" transform="translate(229.394531 0)"/>
     <use xlink:href="#DejaVuSans-Bold-54" transform="translate(276.615234 0)"/>
     <use xlink:href="#DejaVuSans-Bold-48" transform="translate(344.828125 0)"/>
     <use xlink:href="#DejaVuSans-Bold-59" transform="translate(428.519531 0)"/>
    </g>
   </g>
   <g id="text_12">
    <!-- WARNING -->
    <g style="fill: #ffffff" transform="translate(251.134219 310.365832) scale(0.11 -0.11)">
     <defs>
      <path id="DejaVuSans-Bold-57" d="M 191 4666 
L 1344 4666 
L 2150 1275 
L 2950 4666 
L 4109 4666 
L 4909 1275 
L 5716 4666 
L 6859 4666 
L 5759 0 
L 4372 0 
L 3525 3547 
L 2688 0 
L 1300 0 
L 191 4666 
z
" transform="scale(0.015625)"/>
      <path id="DejaVuSans-Bold-52" d="M 2297 2597 
Q 2675 2597 2839 2737 
Q 3003 2878 3003 3200 
Q 3003 3519 2839 3656 
Q 2675 3794 2297 3794 
L 1791 3794 
L 1791 2597 
L 2297 2597 
z
M 1791 1766 
L 1791 0 
L 588 0 
L 588 4666 
L 2425 4666 
Q 3347 4666 3776 4356 
Q 4206 4047 4206 3378 
Q 4206 2916 3982 2619 
Q 3759 2322 3309 2181 
Q 3556 2125 3751 1926 
Q 3947 1728 4147 1325 
L 4800 0 
L 3519 0 
L 2950 1159 
Q 2778 1509 2601 1637 
Q 2425 1766 2131 1766 
L 1791 1766 
z
" transform="scale(0.015625)"/>
      <path id="DejaVuSans-Bold-4e" d="M 588 4666 
L 1931 4666 
L 3628 1466 
L 3628 4666 
L 4769 4666 
L 4769 0 
L 3425 0 
L 1728 3200 
L 1728 0 
L 588 0 
L 588 4666 
z
" transform="scale(0.015625)"/>
      <path id="DejaVuSans-Bold-49" d="M 588 4666 
L 1791 4666 
L 1791 0 
L 588 0 
L 588 4666 
z
" transform="scale(0.015625)"/>
      <path id="DejaVuSans-Bold-47" d="M 4781 347 
Q 4331 128 3847 18 
Q 3363 -91 2847 -91 
Q 1681 -91 1000 561 
Q 319 1213 319 2328 
Q 319 3456 1012 4103 
Q 1706 4750 2913 4750 
Q 3378 4750 3804 4662 
Q 4231 4575 4609 4403 
L 4609 3438 
Q 4219 3659 3833 3768 
Q 3447 3878 3059 3878 
Q 2341 3878 1952 3476 
Q 1563 3075 1563 2328 
Q 1563 1588 1938 1184 
Q 2313 781 3003 781 
Q 3191 781 3352 804 
Q 3513 828 3641 878 
L 3641 1784 
L 2906 1784 
L 2906 2591 
L 4781 2591 
L 4781 347 
z
" transform="scale(0.015625)"/>
     </defs>
     <use xlink:href="#DejaVuSans-Bold-57"/>
     <use xlink:href="#DejaVuSans-Bold-41" transform="translate(105.802734 0)"/>
     <use xlink:href="#DejaVuSans-Bold-52" transform="translate(183.195312 0)"/>
     <use xlink:href="#DejaVuSans-Bold-4e" transform="translate(260.197266 0)"/>
     <use xlink:href="#DejaVuSans-Bold-49" transform="translate(343.888672 0)"/>
     <use xlink:href="#DejaVuSans-Bold-4e" transform="translate(381.095703 0)"/>
     <use xlink:href="#DejaVuSans-Bold-47" transform="translate(464.787109 0)"/>
    </g>
   </g>
   <g id="text_13">
    <!-- Check Status Summary -->
    <g transform="translate(202.778438 59.76) scale(0.12 -0.12)">
     <defs>
      <path id="DejaVuSans-Bold-43" d="M 4288 256 
Q 3956 84 3597 -3 
Q 3238 -91 2847 -91 
Q 1681 -91 1000 561 
Q 319 1213 319 2328 
Q 319 3447 1000 4098 
Q 1681 4750 2847 4750 
Q 3238 4750 3597 4662 
Q 3956 4575 4288 4403 
L 4288 3438 
Q 3953 3666 3628 3772 
Q 3303 3878 2944 3878 
Q 2300 3878 1931 3465 
Q 1563 3053 1563 2328 
Q 1563 1606 1931 1193 
Q 2300 781 2944 781 
Q 3303 781 3628 887 
Q 3953 994 4288 1222 
L 4288 256 
z
" transform="scale(0.015625)"/>
      <path id="DejaVuSans-Bold-68" d="M 4056 2131 
L 4056 0 
L 2931 0 
L 2931 347 
L 2931 1625 
Q 2931 2084 2911 2256 
Q 2891 2428 2841 2509 
Q 2775 2619 2662 2680 
Q 2550 2741 2406 2741 
Q 2056 2741 1856 2470 
Q 1656 2200 1656 1722 
L 1656 0 
L 538 0 
L 538 4863 
L 1656 4863 
L 1656 2988 
Q 1909 3294 2193 3439 
Q 2478 3584 2822 3584 
Q 3428 3584 3742 3212 
Q 4056 2841 4056 2131 
z
" transform="scale(0.015625)"/>
      <path id="DejaVuSans-Bold-65" d="M 4031 1759 
L 4031 1441 
L 1416 1441 
Q 1456 1047 1700 850 
Q 1944 653 2381 653 
Q 2734 653 3104 758 
Q 3475 863 3866 1075 
L 3866 213 
Q 3469 63 3072 -14 
Q 2675 -91 2278 -91 
Q 1328 -91 801 392 
Q 275 875 275 1747 
Q 275 2603 792 3093 
Q 1309 3584 2216 3584 
Q 3041 3584 3536 3087 
Q 4031 2591 4031 1759 
z
M 2881 2131 
Q 2881 2450 2695 2645 
Q 2509 2841 2209 2841 
Q 1884 2841 1681 2658 
Q 1478 2475 1428 2131 
L 2881 2131 
z
" transform="scale(0.015625)"/>
      <path id="DejaVuSans-Bold-63" d="M 3366 3391 
L 3366 2478 
Q 3138 2634 2908 2709 
Q 2678 2784 2431 2784 
Q 1963 2784 1702 2511 
Q 1441 2238 1441 1747 
Q 1441 1256 1702 982 
Q 1963 709 2431 709 
Q 2694 709 2930 787 
Q 3166 866 3366 1019 
L 3366 103 
Q 3103 6 2833 -42 
Q 2563 -91 2291 -91 
Q 1344 -91 809 395 
Q 275 881 275 1747 
Q 275 2613 809 3098 
Q 1344 3584 2291 3584 
Q 2566 3584 2833 3536 
Q 3100 3488 3366 3391 
z
" transform="scale(0.015625)"/>
      <path id="DejaVuSans-Bold-6b" d="M 538 4863 
L 1656 4863 
L 1656 2216 
L 2944 3500 
L 4244 3500 
L 2534 1894 
L 4378 0 
L 3022 0 
L 1656 1459 
L 1656 0 
L 538 0 
L 538 4863 
z
" transform="scale(0.015625)"/>
      <path id="DejaVuSans-Bold-20" transform="scale(0.015625)"/>
      <path id="DejaVuSans-Bold-53" d="M 3834 4519 
L 3834 3531 
Q 3450 3703 3084 3790 
Q 2719 3878 2394 3878 
Q 1963 3878 1756 3759 
Q 1550 3641 1550 3391 
Q 1550 3203 1689 3098 
Q 1828 2994 2194 2919 
L 2706 2816 
Q 3484 2659 3812 2340 
Q 4141 2022 4141 1434 
Q 4141 663 3683 286 
Q 3225 -91 2284 -91 
Q 1841 -91 1394 -6 
Q 947 78 500 244 
L 500 1259 
Q 947 1022 1364 901 
Q 1781 781 2169 781 
Q 2563 781 2772 912 
Q 2981 1044 2981 1288 
Q 2981 1506 2839 1625 
Q 2697 1744 2272 1838 
L 1806 1941 
Q 1106 2091 782 2419 
Q 459 2747 459 3303 
Q 459 4000 909 4375 
Q 1359 4750 2203 4750 
Q 2588 4750 2994 4692 
Q 3400 4634 3834 4519 
z
" transform="scale(0.015625)"/>
      <path id="DejaVuSans-Bold-74" d="M 1759 4494 
L 1759 3500 
L 2913 3500 
L 2913 2700 
L 1759 2700 
L 1759 1216 
Q 1759 972 1856 886 
Q 1953 800 2241 800 
L 2816 800 
L 2816 0 
L 1856 0 
Q 1194 0 917 276 
Q 641 553 641 1216 
L 641 2700 
L 84 2700 
L 84 3500 
L 641 3500 
L 641 4494 
L 1759 4494 
z
" transform="scale(0.015625)"/>
      <path id="DejaVuSans-Bold-61" d="M 2106 1575 
Q 1756 1575 1579 1456 
Q 1403 1338 1403 1106 
Q 1403 894 1545 773 
Q 1688 653 1941 653 
Q 2256 653 2472 879 
Q 2688 1106 2688 1447 
L 2688 1575 
L 2106 1575 
z
M 3816 1997 
L 3816 0 
L 2688 0 
L 2688 519 
Q 2463 200 2181 54 
Q 1900 -91 1497 -91 
Q 953 -91 614 226 
Q 275 544 275 1050 
Q 275 1666 698 1953 
Q 1122 2241 2028 2241 
L 2688 2241 
L 2688 2328 
Q 2688 2594 2478 2717 
Q 2269 2841 1825 2841 
Q 1466 2841 1156 2769 
Q 847 2697 581 2553 
L 581 3406 
Q 941 3494 1303 3539 
Q 1666 3584 2028 3584 
Q 2975 3584 3395 3211 
Q 3816 2838 3816 1997 
z
" transform="scale(0.015625)"/>
      <path id="DejaVuSans-Bold-75" d="M 500 1363 
L 500 3500 
L 1625 3500 
L 1625 3150 
Q 1625 2866 1622 2436 
Q 1619 2006 1619 1863 
Q 1619 1441 1641 1255 
Q 1663 1069 1716 984 
Q 1784 875 1895 815 
Q 2006 756 2150 756 
Q 2500 756 2700 1025 
Q 2900 1294 2900 1772 
L 2900 3500 
L 4019 3500 
L 4019 0 
L 2900 0 
L 2900 506 
Q 2647 200 2364 54 
Q 2081 -91 1741 -91 
Q 1134 -91 817 281 
Q 500 653 500 1363 
z
" transform="scale(0.015625)"/>
      <path id="DejaVuSans-Bold-73" d="M 3272 3391 
L 3272 2541 
Q 2913 2691 2578 2766 
Q 2244 2841 1947 2841 
Q 1628 2841 1473 2761 
Q 1319 2681 1319 2516 
Q 1319 2381 1436 2309 
Q 1553 2238 1856 2203 
L 2053 2175 
Q 2913 2066 3209 1816 
Q 3506 1566 3506 1031 
Q 3506 472 3093 190 
Q 2681 -91 1863 -91 
Q 1516 -91 1145 -36 
Q 775 19 384 128 
L 384 978 
Q 719 816 1070 734 
Q 1422 653 1784 653 
Q 2113 653 2278 743 
Q 2444 834 2444 1013 
Q 2444 1163 2330 1236 
Q 2216 1309 1875 1350 
L 1678 1375 
Q 931 1469 631 1722 
Q 331 1975 331 2491 
Q 331 3047 712 3315 
Q 1094 3584 1881 3584 
Q 2191 3584 2531 3537 
Q 2872 3491 3272 3391 
z
" transform="scale(0.015625)"/>
      <path id="DejaVuSans-Bold-6d" d="M 3781 2919 
Q 3994 3244 4286 3414 
Q 4578 3584 4928 3584 
Q 5531 3584 5847 3212 
Q 6163 2841 6163 2131 
L 6163 0 
L 5038 0 
L 5038 1825 
Q 5041 1866 5042 1909 
Q 5044 1953 5044 2034 
Q 5044 2406 4934 2573 
Q 4825 2741 4581 2741 
Q 4263 2741 4089 2478 
Q 3916 2216 3909 1719 
L 3909 0 
L 2784 0 
L 2784 1825 
Q 2784 2406 2684 2573 
Q 2584 2741 2328 2741 
Q 2006 2741 1831 2477 
Q 1656 2213 1656 1722 
L 1656 0 
L 531 0 
L 531 3500 
L 1656 3500 
L 1656 2988 
Q 1863 3284 2130 3434 
Q 2397 3584 2719 3584 
Q 3081 3584 3359 3409 
Q 3638 3234 3781 2919 
z
" transform="scale(0.015625)"/>
      <path id="DejaVuSans-Bold-72" d="M 3138 2547 
Q 2991 2616 2845 2648 
Q 2700 2681 2553 2681 
Q 2122 2681 1889 2404 
Q 1656 2128 1656 1613 
L 1656 0 
L 538 0 
L 538 3500 
L 1656 3500 
L 1656 2925 
Q 1872 3269 2151 3426 
Q 2431 3584 2822 3584 
Q 2878 3584 2943 3579 
Q 3009 3575 3134 3559 
L 3138 2547 
z
" transform="scale(0.015625)"/>
      <path id="DejaVuSans-Bold-79" d="M 78 3500 
L 1197 3500 
L 2138 1125 
L 2938 3500 
L 4056 3500 
L 2584 -331 
Q 2363 -916 2067 -1148 
Q 1772 -1381 1288 -1381 
L 641 -1381 
L 641 -647 
L 991 -647 
Q 1275 -647 1404 -556 
Q 1534 -466 1606 -231 
L 1638 -134 
L 78 3500 
z
" transform="scale(0.015625)"/>
     </defs>
     <use xlink:href="#DejaVuSans-Bold-43"/>
     <use xlink:href="#DejaVuSans-Bold-68" transform="translate(73.388672 0)"/>
     <use xlink:href="#DejaVuSans-Bold-65" transform="translate(144.580078 0)"/>
     <use xlink:href="#DejaVuSans-Bold-63" transform="translate(212.402344 0)"/>
     <use xlink:href="#DejaVuSans-Bold-6b" transform="translate(271.679688 0)"/>
     <use xlink:href="#DejaVuSans-Bold-20" transform="translate(338.183594 0)"/>
     <use xlink:href="#DejaVuSans-Bold-53" transform="translate(372.998047 0)"/>
     <use xlink:href="#DejaVuSans-Bold-74" transform="translate(445.019531 0)"/>
     <use xlink:href="#DejaVuSans-Bold-61" transform="translate(492.822266 0)"/>
     <use xlink:href="#DejaVuSans-Bold-74" transform="translate(560.302734 0)"/>
     <use xlink:href="#DejaVuSans-Bold-75" transform="translate(608.105469 0)"/>
     <use xlink:href="#DejaVuSans-Bold-73" transform="translate(679.296875 0)"/>
     <use xlink:href="#DejaVuSans-Bold-20" transform="translate(738.818359 0)"/>
     <use xlink:href="#DejaVuSans-Bold-53" transform="translate(773.632812 0)"/>
     <use xlink:href="#DejaVuSans-Bold-75" transform="translate(845.654297 0)"/>
     <use xlink:href="#DejaVuSans-Bold-6d" transform="translate(916.845703 0)"/>
     <use xlink:href="#DejaVuSans-Bold-6d" transform="translate(1021.044922 0)"/>
     <use xlink:href="#DejaVuSans-Bold-61" transform="translate(1125.244141 0)"/>
     <use xlink:href="#DejaVuSans-Bold-72" transform="translate(1192.724609 0)"/>
     <use xlink:href="#DejaVuSans-Bold-79" transform="translate(1242.041016 0)"/>
    </g>
   </g>
   <g id="legend_1">
    <g id="patch_10">
     <path d="M 406.970313 327.94 
L 472.774375 327.94 
Q 474.574375 327.94 474.574375 326.14 
L 474.574375 287.409063 
Q 474.574375 285.609062 472.774375 285.609062 
L 406.970313 285.609062 
Q 405.170313 285.609062 405.170313 287.409063 
L 405.170313 326.14 
Q 405.170313 327.94 406.970313 327.94 
z
" style="fill: #ffffff; opacity: 0.8; stroke: #cccccc; stroke-linejoin: miter"/>
    </g>
    <g id="patch_11">
     <path d="M 408.770313 296.047656 
L 426.770313 296.047656 
L 426.770313 289.747656 
L 408.770313 289.747656 
z
" style="fill: #2ecc71; stroke: #2ecc71; stroke-linejoin: miter"/>
    </g>
    <g id="text_14">
     <!-- Healthy -->
     <g transform="translate(433.970313 296.047656) scale(0.09 -0.09)">
      <use xlink:href="#DejaVuSans-48"/>
      <use xlink:href="#DejaVuSans-65" transform="translate(75.195312 0)"/>
      <use xlink:href="#DejaVuSans-61" transform="translate(136.71875 0)"/>
      <use xlink:href="#DejaVuSans-6c" transform="translate(197.998047 0)"/>
      <use xlink:href="#DejaVuSans-74" transform="translate(225.78125 0)"/>
      <use xlink:href="#DejaVuSans-68" transform="translate(264.990234 0)"/>
      <use xlink:href="#DejaVuSans-79" transform="translate(328.369141 0)"/>
     </g>
    </g>
    <g id="patch_12">
     <path d="M 408.770313 309.257969 
L 426.770313 309.257969 
L 426.770313 302.957969 
L 408.770313 302.957969 
z
" style="fill: #f39c12; stroke: #f39c12; stroke-linejoin: miter"/>
    </g>
    <g id="text_15">
     <!-- Warning -->
     <g transform="translate(433.970313 309.257969) scale(0.09 -0.09)">
      <defs>
       <path id="DejaVuSans-57" d="M 213 4666 
L 850 4666 
L 1831 722 
L 2809 4666 
L 3519 4666 
L 4500 722 
L 5478 4666 
L 6119 4666 
L 4947 0 
L 4153 0 
L 3169 4050 
L 2175 0 
L 1381 0 
L 213 4666 
z
" transform="scale(0.015625)"/>
       <path id="DejaVuSans-67" d="M 2906 1791 
Q 2906 2416 2648 2759 
Q 2391 3103 1925 3103 
Q 1463 3103 1205 2759 
Q 947 2416 947 1791 
Q 947 1169 1205 825 
Q 1463 481 1925 481 
Q 2391 481 2648 825 
Q 2906 1169 2906 1791 
z
M 3481 434 
Q 3481 -459 3084 -895 
Q 2688 -1331 1869 -1331 
Q 1566 -1331 1297 -1286 
Q 1028 -1241 775 -1147 
L 775 -588 
Q 1028 -725 1275 -790 
Q 1522 -856 1778 -856 
Q 2344 -856 2625 -561 
Q 2906 -266 2906 331 
L 2906 616 
Q 2728 306 2450 153 
Q 2172 0 1784 0 
Q 1141 0 747 490 
Q 353 981 353 1791 
Q 353 2603 747 3093 
Q 1141 3584 1784 3584 
Q 2172 3584 2450 3431 
Q 2728 3278 2906 2969 
L 2906 3500 
L 3481 3500 
L 3481 434 
z
" transform="scale(0.015625)"/>
      </defs>
      <use xlink:href="#DejaVuSans-57"/>
      <use xlink:href="#DejaVuSans-61" transform="translate(92.501953 0)"/>
      <use xlink:href="#DejaVuSans-72" transform="translate(153.78125 0)"/>
      <use xlink:href="#DejaVuSans-6e" transform="translate(193.144531 0)"/>
      <use xlink:href="#DejaVuSans-69" transform="translate(256.523438 0)"/>
      <use xlink:href="#DejaVuSans-6e" transform="translate(284.306641 0)"/>
      <use xlink:href="#DejaVuSans-67" transform="translate(347.685547 0)"/>
     </g>
    </g>
    <g id="patch_13">
     <path d="M 408.770313 322.468281 
L 426.770313 322.468281 
L 426.770313 316.168281 
L 408.770313 316.168281 
z
" style="fill: #e74c3c; stroke: #e74c3c; stroke-linejoin: miter"/>
    </g>
    <g id="text_16">
     <!-- Critical -->
     <g transform="translate(433.970313 322.468281) scale(0.09 -0.09)">
      <use xlink:href="#DejaVuSans-43"/>
      <use xlink:href="#DejaVuSans-72" transform="translate(69.824219 0)"/>
      <use xlink:href="#DejaVuSans-69" transform="translate(110.9375 0)"/>
      <use xlink:href="#DejaVuSans-74" transform="translate(138.720703 0)"/>
      <use xlink:href="#DejaVuSans-69" transform="translate(177.929688 0)"/>
      <use xlink:href="#DejaVuSans-63" transform="translate(205.712891 0)"/>
      <use xlink:href="#DejaVuSans-61" transform="translate(260.693359 0)"/>
      <use xlink:href="#DejaVuSans-6c" transform="translate(321.972656 0)"/>
     </g>
    </g>
   </g>
  </g>
  <g id="axes_2">
   <g id="patch_14">
    <path d="M 588.494375 332.44 
L 984.221875 332.44 
L 984.221875 65.76 
L 588.494375 65.76 
z
" style="fill: #ffffff"/>
   </g>
   <g id="patch_15">
    <path d="M 588.494375 77.881818 
L 918.267292 77.881818 
L 918.267292 126.369091 
L 588.494375 126.369091 
z
" clip-path="url(#p4e3ccdfeca)" style="fill: #e74c3c; stroke: #ffffff; stroke-linejoin: miter"/>
   </g>
   <g id="patch_16">
    <path d="M 588.494375 174.856364 
L 592.45165 174.856364 
L 592.45165 223.343636 
L 588.494375 223.343636 
z
" clip-path="url(#p4e3ccdfeca)" style="fill: #2ecc71; stroke: #ffffff; stroke-linejoin: miter"/>
   </g>
   <g id="patch_17">
    <path d="M 588.494375 271.830909 
L 590.14324 271.830909 
L 590.14324 320.318182 
L 588.494375 320.318182 
z
" clip-path="url(#p4e3ccdfeca)" style="fill: #2ecc71; stroke: #ffffff; stroke-linejoin: miter"/>
   </g>
   <g id="matplotlib.axis_3">
    <g id="xtick_1">
     <g id="line2d_7">
      <defs>
       <path id="mdf4a1a6f48" d="M 0 0 
L 0 3.5 
" style="stroke: #000000; stroke-width: 0.8"/>
      </defs>
      <g>
       <use xlink:href="#mdf4a1a6f48" x="588.494375" y="332.44" style="stroke: #000000; stroke-width: 0.8"/>
      </g>
     </g>
     <g id="text_17">
      <!-- 0 -->
      <g transform="translate(585.313125 347.038437) scale(0.1 -0.1)">
       <defs>
        <path id="DejaVuSans-30" d="M 2034 4250 
Q 1547 4250 1301 3770 
Q 1056 3291 1056 2328 
Q 1056 1369 1301 889 
Q 1547 409 2034 409 
Q 2525 409 2770 889 
Q 3016 1369 3016 2328 
Q 3016 3291 2770 3770 
Q 2525 4250 2034 4250 
z
M 2034 4750 
Q 2819 4750 3233 4129 
Q 3647 3509 3647 2328 
Q 3647 1150 3233 529 
Q 2819 -91 2034 -91 
Q 1250 -91 836 529 
Q 422 1150 422 2328 
Q 422 3509 836 4129 
Q 1250 4750 2034 4750 
z
" transform="scale(0.015625)"/>
       </defs>
       <use xlink:href="#DejaVuSans-30"/>
      </g>
     </g>
    </g>
    <g id="xtick_2">
     <g id="line2d_8">
      <g>
       <use xlink:href="#mdf4a1a6f48" x="654.448958" y="332.44" style="stroke: #000000; stroke-width: 0.8"/>
      </g>
     </g>
     <g id="text_18">
      <!-- 20 -->
      <g transform="translate(648.086458 347.038437) scale(0.1 -0.1)">
       <use xlink:href="#DejaVuSans-32"/>
       <use xlink:href="#DejaVuSans-30" transform="translate(63.623047 0)"/>
      </g>
     </g>
    </g>
    <g id="xtick_3">
     <g id="line2d_9">
      <g>
       <use xlink:href="#mdf4a1a6f48" x="720.403542" y="332.44" style="stroke: #000000; stroke-width: 0.8"/>
      </g>
     </g>
     <g id="text_19">
      <!-- 40 -->
      <g transform="translate(714.041042 347.038437) scale(0.1 -0.1)">
       <use xlink:href="#DejaVuSans-34"/>
       <use xlink:href="#DejaVuSans-30" transform="translate(63.623047 0)"/>
      </g>
     </g>
    </g>
    <g id="xtick_4">
     <g id="line2d_10">
      <g>
       <use xlink:href="#mdf4a1a6f48" x="786.358125" y="332.44" style="stroke: #000000; stroke-width: 0.8"/>
      </g>
     </g>
     <g id="text_20">
      <!-- 60 -->
      <g transform="translate(779.995625 347.038437) scale(0.1 -0.1)">
       <defs>
        <path id="DejaVuSans-36" d="M 2113 2584 
Q 1688 2584 1439 2293 
Q 1191 2003 1191 1497 
Q 1191 994 1439 701 
Q 1688 409 2113 409 
Q 2538 409 2786 701 
Q 3034 994 3034 1497 
Q 3034 2003 2786 2293 
Q 2538 2584 2113 2584 
z
M 3366 4563 
L 3366 3988 
Q 3128 4100 2886 4159 
Q 2644 4219 2406 4219 
Q 1781 4219 1451 3797 
Q 1122 3375 1075 2522 
Q 1259 2794 1537 2939 
Q 1816 3084 2150 3084 
Q 2853 3084 3261 2657 
Q 3669 2231 3669 1497 
Q 3669 778 3244 343 
Q 2819 -91 2113 -91 
Q 1303 -91 875 529 
Q 447 1150 447 2328 
Q 447 3434 972 4092 
Q 1497 4750 2381 4750 
Q 2619 4750 2861 4703 
Q 3103 4656 3366 4563 
z
" transform="scale(0.015625)"/>
       </defs>
       <use xlink:href="#DejaVuSans-36"/>
       <use xlink:href="#DejaVuSans-30" transform="translate(63.623047 0)"/>
      </g>
     </g>
    </g>
    <g id="xtick_5">
     <g id="line2d_11">
      <g>
       <use xlink:href="#mdf4a1a6f48" x="852.312708" y="332.44" style="stroke: #000000; stroke-width: 0.8"/>
      </g>
     </g>
     <g id="text_21">
      <!-- 80 -->
      <g transform="translate(845.950208 347.038437) scale(0.1 -0.1)">
       <defs>
        <path id="DejaVuSans-38" d="M 2034 2216 
Q 1584 2216 1326 1975 
Q 1069 1734 1069 1313 
Q 1069 891 1326 650 
Q 1584 409 2034 409 
Q 2484 409 2743 651 
Q 3003 894 3003 1313 
Q 3003 1734 2745 1975 
Q 2488 2216 2034 2216 
z
M 1403 2484 
Q 997 2584 770 2862 
Q 544 3141 544 3541 
Q 544 4100 942 4425 
Q 1341 4750 2034 4750 
Q 2731 4750 3128 4425 
Q 3525 4100 3525 3541 
Q 3525 3141 3298 2862 
Q 3072 2584 2669 2484 
Q 3125 2378 3379 2068 
Q 3634 1759 3634 1313 
Q 3634 634 3220 271 
Q 2806 -91 2034 -91 
Q 1263 -91 848 271 
Q 434 634 434 1313 
Q 434 1759 690 2068 
Q 947 2378 1403 2484 
z
M 1172 3481 
Q 1172 3119 1398 2916 
Q 1625 2713 2034 2713 
Q 2441 2713 2670 2916 
Q 2900 3119 2900 3481 
Q 2900 3844 2670 4047 
Q 2441 4250 2034 4250 
Q 1625 4250 1398 4047 
Q 1172 3844 1172 3481 
z
" transform="scale(0.015625)"/>
       </defs>
       <use xlink:href="#DejaVuSans-38"/>
       <use xlink:href="#DejaVuSans-30" transform="translate(63.623047 0)"/>
      </g>
     </g>
    </g>
    <g id="xtick_6">
     <g id="line2d_12">
      <g>
       <use xlink:href="#mdf4a1a6f48" x="918.267292" y="332.44" style="stroke: #000000; stroke-width: 0.8"/>
      </g>
     </g>
     <g id="text_22">
      <!-- 100 -->
      <g transform="translate(908.723542 347.038437) scale(0.1 -0.1)">
       <defs>
        <path id="DejaVuSans-31" d="M 794 531 
L 1825 531 
L 1825 4091 
L 703 3866 
L 703 4441 
L 1819 4666 
L 2450 4666 
L 2450 531 
L 3481 531 
L 3481 0 
L 794 0 
L 794 531 
z
" transform="scale(0.015625)"/>
       </defs>
       <use xlink:href="#DejaVuSans-31"/>
       <use xlink:href="#DejaVuSans-30" transform="translate(63.623047 0)"/>
       <use xlink:href="#DejaVuSans-30" transform="translate(127.246094 0)"/>
      </g>
     </g>
    </g>
    <g id="xtick_7">
     <g id="line2d_13">
      <g>
       <use xlink:href="#mdf4a1a6f48" x="984.221875" y="332.44" style="stroke: #000000; stroke-width: 0.8"/>
      </g>
     </g>
     <g id="text_23">
      <!-- 120 -->
      <g transform="translate(974.678125 347.038437) scale(0.1 -0.1)">
       <use xlink:href="#DejaVuSans-31"/>
       <use xlink:href="#DejaVuSans-32" transform="translate(63.623047 0)"/>
       <use xlink:href="#DejaVuSans-30" transform="translate(127.246094 0)"/>
      </g>
     </g>
    </g>
    <g id="text_24">
     <!-- Max Utilization % -->
     <g transform="translate(743.039375 360.716562) scale(0.1 -0.1)">
      <defs>
       <path id="DejaVuSans-78" d="M 3513 3500 
L 2247 1797 
L 3578 0 
L 2900 0 
L 1881 1375 
L 863 0 
L 184 0 
L 1544 1831 
L 300 3500 
L 978 3500 
L 1906 2253 
L 2834 3500 
L 3513 3500 
z
" transform="scale(0.015625)"/>
       <path id="DejaVuSans-55" d="M 556 4666 
L 1191 4666 
L 1191 1831 
Q 1191 1081 1462 751 
Q 1734 422 2344 422 
Q 2950 422 3222 751 
Q 3494 1081 3494 1831 
L 3494 4666 
L 4128 4666 
L 4128 1753 
Q 4128 841 3676 375 
Q 3225 -91 2344 -91 
Q 1459 -91 1007 375 
Q 556 841 556 1753 
L 556 4666 
z
" transform="scale(0.015625)"/>
       <path id="DejaVuSans-7a" d="M 353 3500 
L 3084 3500 
L 3084 2975 
L 922 459 
L 3084 459 
L 3084 0 
L 275 0 
L 275 525 
L 2438 3041 
L 353 3041 
L 353 3500 
z
" transform="scale(0.015625)"/>
       <path id="DejaVuSans-25" d="M 4653 2053 
Q 4381 2053 4226 1822 
Q 4072 1591 4072 1178 
Q 4072 772 4226 539 
Q 4381 306 4653 306 
Q 4919 306 5073 539 
Q 5228 772 5228 1178 
Q 5228 1588 5073 1820 
Q 4919 2053 4653 2053 
z
M 4653 2450 
Q 5147 2450 5437 2106 
Q 5728 1763 5728 1178 
Q 5728 594 5436 251 
Q 5144 -91 4653 -91 
Q 4153 -91 3862 251 
Q 3572 594 3572 1178 
Q 3572 1766 3864 2108 
Q 4156 2450 4653 2450 
z
M 1428 4353 
Q 1159 4353 1004 4120 
Q 850 3888 850 3481 
Q 850 3069 1003 2837 
Q 1156 2606 1428 2606 
Q 1700 2606 1854 2837 
Q 2009 3069 2009 3481 
Q 2009 3884 1853 4118 
Q 1697 4353 1428 4353 
z
M 4250 4750 
L 4750 4750 
L 1831 -91 
L 1331 -91 
L 4250 4750 
z
M 1428 4750 
Q 1922 4750 2215 4408 
Q 2509 4066 2509 3481 
Q 2509 2891 2217 2550 
Q 1925 2209 1428 2209 
Q 931 2209 642 2551 
Q 353 2894 353 3481 
Q 353 4063 643 4406 
Q 934 4750 1428 4750 
z
" transform="scale(0.015625)"/>
      </defs>
      <use xlink:href="#DejaVuSans-4d"/>
      <use xlink:href="#DejaVuSans-61" transform="translate(86.279297 0)"/>
      <use xlink:href="#DejaVuSans-78" transform="translate(147.558594 0)"/>
      <use xlink:href="#DejaVuSans-20" transform="translate(206.738281 0)"/>
      <use xlink:href="#DejaVuSans-55" transform="translate(238.525391 0)"/>
      <use xlink:href="#DejaVuSans-74" transform="translate(311.71875 0)"/>
      <use xlink:href="#DejaVuSans-69" transform="translate(350.927734 0)"/>
      <use xlink:href="#DejaVuSans-6c" transform="translate(378.710938 0)"/>
      <use xlink:href="#DejaVuSans-69" transform="translate(406.494141 0)"/>
      <use xlink:href="#DejaVuSans-7a" transform="translate(434.277344 0)"/>
      <use xlink:href="#DejaVuSans-61" transform="translate(486.767578 0)"/>
      <use xlink:href="#DejaVuSans-74" transform="translate(548.046875 0)"/>
      <use xlink:href="#DejaVuSans-69" transform="translate(587.255859 0)"/>
      <use xlink:href="#DejaVuSans-6f" transform="translate(615.039062 0)"/>
      <use xlink:href="#DejaVuSans-6e" transform="translate(676.220703 0)"/>
      <use xlink:href="#DejaVuSans-20" transform="translate(739.599609 0)"/>
      <use xlink:href="#DejaVuSans-25" transform="translate(771.386719 0)"/>
     </g>
    </g>
   </g>
   <g id="matplotlib.axis_4">
    <g id="ytick_7">
     <g id="line2d_14">
      <g>
       <use xlink:href="#m1c20193804" x="588.494375" y="102.125455" style="stroke: #000000; stroke-width: 0.8"/>
      </g>
     </g>
     <g id="text_25">
      <!-- Network -->
      <g transform="translate(539.74125 101.085611) scale(0.1 -0.1)">
       <defs>
        <path id="DejaVuSans-77" d="M 269 3500 
L 844 3500 
L 1563 769 
L 2278 3500 
L 2956 3500 
L 3675 769 
L 4391 3500 
L 4966 3500 
L 4050 0 
L 3372 0 
L 2619 2869 
L 1863 0 
L 1184 0 
L 269 3500 
z
" transform="scale(0.015625)"/>
        <path id="DejaVuSans-6b" d="M 581 4863 
L 1159 4863 
L 1159 1991 
L 2875 3500 
L 3609 3500 
L 1753 1863 
L 3688 0 
L 2938 0 
L 1159 1709 
L 1159 0 
L 581 0 
L 581 4863 
z
" transform="scale(0.015625)"/>
       </defs>
       <use xlink:href="#DejaVuSans-4e"/>
       <use xlink:href="#DejaVuSans-65" transform="translate(74.804688 0)"/>
       <use xlink:href="#DejaVuSans-74" transform="translate(136.328125 0)"/>
       <use xlink:href="#DejaVuSans-77" transform="translate(175.537109 0)"/>
       <use xlink:href="#DejaVuSans-6f" transform="translate(257.324219 0)"/>
       <use xlink:href="#DejaVuSans-72" transform="translate(318.505859 0)"/>
       <use xlink:href="#DejaVuSans-6b" transform="translate(359.619141 0)"/>
      </g>
      <!-- Network Watchers -->
      <g transform="translate(489.955313 112.283423) scale(0.1 -0.1)">
       <use xlink:href="#DejaVuSans-4e"/>
       <use xlink:href="#DejaVuSans-65" transform="translate(74.804688 0)"/>
       <use xlink:href="#DejaVuSans-74" transform="translate(136.328125 0)"/>
       <use xlink:href="#DejaVuSans-77" transform="translate(175.537109 0)"/>
       <use xlink:href="#DejaVuSans-6f" transform="translate(257.324219 0)"/>
       <use xlink:href="#DejaVuSans-72" transform="translate(318.505859 0)"/>
       <use xlink:href="#DejaVuSans-6b" transform="translate(359.619141 0)"/>
       <use xlink:href="#DejaVuSans-20" transform="translate(417.529297 0)"/>
       <use xlink:href="#DejaVuSans-57" transform="translate(449.316406 0)"/>
       <use xlink:href="#DejaVuSans-61" transform="translate(541.818359 0)"/>
       <use xlink:href="#DejaVuSans-74" transform="translate(603.097656 0)"/>
       <use xlink:href="#DejaVuSans-63" transform="translate(642.306641 0)"/>
       <use xlink:href="#DejaVuSans-68" transform="translate(697.287109 0)"/>
       <use xlink:href="#DejaVuSans-65" transform="translate(760.666016 0)"/>
       <use xlink:href="#DejaVuSans-72" transform="translate(822.189453 0)"/>
       <use xlink:href="#DejaVuSans-73" transform="translate(863.302734 0)"/>
      </g>
     </g>
    </g>
    <g id="ytick_8">
     <g id="line2d_15">
      <g>
       <use xlink:href="#m1c20193804" x="588.494375" y="199.1" style="stroke: #000000; stroke-width: 0.8"/>
      </g>
     </g>
     <g id="text_26">
      <!-- Storage -->
      <g transform="translate(542.36625 198.060156) scale(0.1 -0.1)">
       <use xlink:href="#DejaVuSans-53"/>
       <use xlink:href="#DejaVuSans-74" transform="translate(63.476562 0)"/>
       <use xlink:href="#DejaVuSans-6f" transform="translate(102.685547 0)"/>
       <use xlink:href="#DejaVuSans-72" transform="translate(163.867188 0)"/>
       <use xlink:href="#DejaVuSans-61" transform="translate(204.980469 0)"/>
       <use xlink:href="#DejaVuSans-67" transform="translate(266.259766 0)"/>
       <use xlink:href="#DejaVuSans-65" transform="translate(329.736328 0)"/>
      </g>
      <!-- Storage Accounts -->
      <g transform="translate(493.602188 209.257969) scale(0.1 -0.1)">
       <use xlink:href="#DejaVuSans-53"/>
       <use xlink:href="#DejaVuSans-74" transform="translate(63.476562 0)"/>
       <use xlink:href="#DejaVuSans-6f" transform="translate(102.685547 0)"/>
       <use xlink:href="#DejaVuSans-72" transform="translate(163.867188 0)"/>
       <use xlink:href="#DejaVuSans-61" transform="translate(204.980469 0)"/>
       <use xlink:href="#DejaVuSans-67" transform="translate(266.259766 0)"/>
       <use xlink:href="#DejaVuSans-65" transform="translate(329.736328 0)"/>
       <use xlink:href="#DejaVuSans-20" transform="translate(391.259766 0)"/>
       <use xlink:href="#DejaVuSans-41" transform="translate(423.046875 0)"/>
       <use xlink:href="#DejaVuSans-63" transform="translate(489.705078 0)"/>
       <use xlink:href="#DejaVuSans-63" transform="translate(544.685547 0)"/>
       <use xlink:href="#DejaVuSans-6f" transform="translate(599.666016 0)"/>
       <use xlink:href="#DejaVuSans-75" transform="translate(660.847656 0)"/>
       <use xlink:href="#DejaVuSans-6e" transform="translate(724.226562 0)"/>
       <use xlink:href="#DejaVuSans-74" transform="translate(787.605469 0)"/>
       <use xlink:href="#DejaVuSans-73" transform="translate(826.814453 0)"/>
      </g>
     </g>
    </g>
    <g id="ytick_9">
     <g id="line2d_16">
      <g>
       <use xlink:href="#m1c20193804" x="588.494375" y="296.074545" style="stroke: #000000; stroke-width: 0.8"/>
      </g>
     </g>
     <g id="text_27">
      <!-- Network -->
      <g transform="translate(539.74125 295.034702) scale(0.1 -0.1)">
       <use xlink:href="#DejaVuSans-4e"/>
       <use xlink:href="#DejaVuSans-65" transform="translate(74.804688 0)"/>
       <use xlink:href="#DejaVuSans-74" transform="translate(136.328125 0)"/>
       <use xlink:href="#DejaVuSans-77" transform="translate(175.537109 0)"/>
       <use xlink:href="#DejaVuSans-6f" transform="translate(257.324219 0)"/>
       <use xlink:href="#DejaVuSans-72" transform="translate(318.505859 0)"/>
       <use xlink:href="#DejaVuSans-6b" transform="translate(359.619141 0)"/>
      </g>
      <!-- Route Tables -->
      <g transform="translate(518.213125 306.232514) scale(0.1 -0.1)">
       <defs>
        <path id="DejaVuSans-54" d="M -19 4666 
L 3928 4666 
L 3928 4134 
L 2272 4134 
L 2272 0 
L 1638 0 
L 1638 4134 
L -19 4134 
L -19 4666 
z
" transform="scale(0.015625)"/>
       </defs>
       <use xlink:href="#DejaVuSans-52"/>
       <use xlink:href="#DejaVuSans-6f" transform="translate(64.982422 0)"/>
       <use xlink:href="#DejaVuSans-75" transform="translate(126.164062 0)"/>
       <use xlink:href="#DejaVuSans-74" transform="translate(189.542969 0)"/>
       <use xlink:href="#DejaVuSans-65" transform="translate(228.751953 0)"/>
       <use xlink:href="#DejaVuSans-20" transform="translate(290.275391 0)"/>
       <use xlink:href="#DejaVuSans-54" transform="translate(322.0625 0)"/>
       <use xlink:href="#DejaVuSans-61" transform="translate(366.646484 0)"/>
       <use xlink:href="#DejaVuSans-62" transform="translate(427.925781 0)"/>
       <use xlink:href="#DejaVuSans-6c" transform="translate(491.402344 0)"/>
       <use xlink:href="#DejaVuSans-65" transform="translate(519.185547 0)"/>
       <use xlink:href="#DejaVuSans-73" transform="translate(580.708984 0)"/>
      </g>
     </g>
    </g>
   </g>
   <g id="line2d_17">
    <path d="M 852.312708 332.44 
L 852.312708 65.76 
" clip-path="url(#p4e3ccdfeca)" style="fill: none; stroke-dasharray: 5.55,2.4; stroke-dashoffset: 0; stroke: #f39c12; stroke-opacity: 0.7; stroke-width: 1.5"/>
   </g>
   <g id="line2d_18">
    <path d="M 901.778646 332.44 
L 901.778646 65.76 
" clip-path="url(#p4e3ccdfeca)" style="fill: none; stroke-dasharray: 5.55,2.4; stroke-dashoffset: 0; stroke: #e74c3c; stroke-opacity: 0.7; stroke-width: 1.5"/>
   </g>
   <g id="patch_18">
    <path d="M 588.494375 332.44 
L 588.494375 65.76 
" style="fill: none; stroke: #000000; stroke-width: 0.8; stroke-linejoin: miter; stroke-linecap: square"/>
   </g>
   <g id="patch_19">
    <path d="M 588.494375 332.44 
L 984.221875 332.44 
" style="fill: none; stroke: #000000; stroke-width: 0.8; stroke-linejoin: miter; stroke-linecap: square"/>
   </g>
   <g id="text_28">
    <!-- 100% (7 rgn) -->
    <g transform="translate(921.565021 104.608892) scale(0.09 -0.09)">
     <defs>
      <path id="DejaVuSans-37" d="M 525 4666 
L 3525 4666 
L 3525 4397 
L 1831 0 
L 1172 0 
L 2766 4134 
L 525 4134 
L 525 4666 
z
" transform="scale(0.015625)"/>
     </defs>
     <use xlink:href="#DejaVuSans-31"/>
     <use xlink:href="#DejaVuSans-30" transform="translate(63.623047 0)"/>
     <use xlink:href="#DejaVuSans-30" transform="translate(127.246094 0)"/>
     <use xlink:href="#DejaVuSans-25" transform="translate(190.869141 0)"/>
     <use xlink:href="#DejaVuSans-20" transform="translate(285.888672 0)"/>
     <use xlink:href="#DejaVuSans-28" transform="translate(317.675781 0)"/>
     <use xlink:href="#DejaVuSans-37" transform="translate(356.689453 0)"/>
     <use xlink:href="#DejaVuSans-20" transform="translate(420.3125 0)"/>
     <use xlink:href="#DejaVuSans-72" transform="translate(452.099609 0)"/>
     <use xlink:href="#DejaVuSans-67" transform="translate(491.462891 0)"/>
     <use xlink:href="#DejaVuSans-6e" transform="translate(554.939453 0)"/>
     <use xlink:href="#DejaVuSans-29" transform="translate(618.318359 0)"/>
    </g>
   </g>
   <g id="text_29">
    <!-- 1% (3 rgn) -->
    <g transform="translate(595.749379 201.583437) scale(0.09 -0.09)">
     <defs>
      <path id="DejaVuSans-33" d="M 2597 2516 
Q 3050 2419 3304 2112 
Q 3559 1806 3559 1356 
Q 3559 666 3084 287 
Q 2609 -91 1734 -91 
Q 1441 -91 1130 -33 
Q 819 25 488 141 
L 488 750 
Q 750 597 1062 519 
Q 1375 441 1716 441 
Q 2309 441 2620 675 
Q 2931 909 2931 1356 
Q 2931 1769 2642 2001 
Q 2353 2234 1838 2234 
L 1294 2234 
L 1294 2753 
L 1863 2753 
Q 2328 2753 2575 2939 
Q 2822 3125 2822 3475 
Q 2822 3834 2567 4026 
Q 2313 4219 1838 4219 
Q 1578 4219 1281 4162 
Q 984 4106 628 3988 
L 628 4550 
Q 988 4650 1302 4700 
Q 1616 4750 1894 4750 
Q 2613 4750 3031 4423 
Q 3450 4097 3450 3541 
Q 3450 3153 3228 2886 
Q 3006 2619 2597 2516 
z
" transform="scale(0.015625)"/>
     </defs>
     <use xlink:href="#DejaVuSans-31"/>
     <use xlink:href="#DejaVuSans-25" transform="translate(63.623047 0)"/>
     <use xlink:href="#DejaVuSans-20" transform="translate(158.642578 0)"/>
     <use xlink:href="#DejaVuSans-28" transform="translate(190.429688 0)"/>
     <use xlink:href="#DejaVuSans-33" transform="translate(229.443359 0)"/>
     <use xlink:href="#DejaVuSans-20" transform="translate(293.066406 0)"/>
     <use xlink:href="#DejaVuSans-72" transform="translate(324.853516 0)"/>
     <use xlink:href="#DejaVuSans-67" transform="translate(364.216797 0)"/>
     <use xlink:href="#DejaVuSans-6e" transform="translate(427.693359 0)"/>
     <use xlink:href="#DejaVuSans-29" transform="translate(491.072266 0)"/>
    </g>
   </g>
   <g id="text_30">
    <!-- 0% (1 rgn) -->
    <g transform="translate(593.440969 298.557983) scale(0.09 -0.09)">
     <use xlink:href="#DejaVuSans-30"/>
     <use xlink:href="#DejaVuSans-25" transform="translate(63.623047 0)"/>
     <use xlink:href="#DejaVuSans-20" transform="translate(158.642578 0)"/>
     <use xlink:href="#DejaVuSans-28" transform="translate(190.429688 0)"/>
     <use xlink:href="#DejaVuSans-31" transform="translate(229.443359 0)"/>
     <use xlink:href="#DejaVuSans-20" transform="translate(293.066406 0)"/>
     <use xlink:href="#DejaVuSans-72" transform="translate(324.853516 0)"/>
     <use xlink:href="#DejaVuSans-67" transform="translate(364.216797 0)"/>
     <use xlink:href="#DejaVuSans-6e" transform="translate(427.693359 0)"/>
     <use xlink:href="#DejaVuSans-29" transform="translate(491.072266 0)"/>
    </g>
   </g>
   <g id="text_31">
    <!-- Non-Compute Quota Usage (Active Services) -->
    <g transform="translate(635.444063 59.76) scale(0.12 -0.12)">
     <defs>
      <path id="DejaVuSans-Bold-6f" d="M 2203 2784 
Q 1831 2784 1636 2517 
Q 1441 2250 1441 1747 
Q 1441 1244 1636 976 
Q 1831 709 2203 709 
Q 2569 709 2762 976 
Q 2956 1244 2956 1747 
Q 2956 2250 2762 2517 
Q 2569 2784 2203 2784 
z
M 2203 3584 
Q 3106 3584 3614 3096 
Q 4122 2609 4122 1747 
Q 4122 884 3614 396 
Q 3106 -91 2203 -91 
Q 1297 -91 786 396 
Q 275 884 275 1747 
Q 275 2609 786 3096 
Q 1297 3584 2203 3584 
z
" transform="scale(0.015625)"/>
      <path id="DejaVuSans-Bold-6e" d="M 4056 2131 
L 4056 0 
L 2931 0 
L 2931 347 
L 2931 1631 
Q 2931 2084 2911 2256 
Q 2891 2428 2841 2509 
Q 2775 2619 2662 2680 
Q 2550 2741 2406 2741 
Q 2056 2741 1856 2470 
Q 1656 2200 1656 1722 
L 1656 0 
L 538 0 
L 538 3500 
L 1656 3500 
L 1656 2988 
Q 1909 3294 2193 3439 
Q 2478 3584 2822 3584 
Q 3428 3584 3742 3212 
Q 4056 2841 4056 2131 
z
" transform="scale(0.015625)"/>
      <path id="DejaVuSans-Bold-2d" d="M 347 2297 
L 2309 2297 
L 2309 1388 
L 347 1388 
L 347 2297 
z
" transform="scale(0.015625)"/>
      <path id="DejaVuSans-Bold-70" d="M 1656 506 
L 1656 -1331 
L 538 -1331 
L 538 3500 
L 1656 3500 
L 1656 2988 
Q 1888 3294 2169 3439 
Q 2450 3584 2816 3584 
Q 3463 3584 3878 3070 
Q 4294 2556 4294 1747 
Q 4294 938 3878 423 
Q 3463 -91 2816 -91 
Q 2450 -91 2169 54 
Q 1888 200 1656 506 
z
M 2400 2772 
Q 2041 2772 1848 2508 
Q 1656 2244 1656 1747 
Q 1656 1250 1848 986 
Q 2041 722 2400 722 
Q 2759 722 2948 984 
Q 3138 1247 3138 1747 
Q 3138 2247 2948 2509 
Q 2759 2772 2400 2772 
z
" transform="scale(0.015625)"/>
      <path id="DejaVuSans-Bold-51" d="M 2847 -84 
L 2753 -84 
Q 1600 -84 959 553 
Q 319 1191 319 2328 
Q 319 3463 958 4106 
Q 1597 4750 2719 4750 
Q 3853 4750 4486 4112 
Q 5119 3475 5119 2328 
Q 5119 1541 4783 972 
Q 4447 403 3816 116 
L 4756 -934 
L 3609 -934 
L 2847 -84 
z
M 2719 3878 
Q 2169 3878 1866 3472 
Q 1563 3066 1563 2328 
Q 1563 1578 1859 1179 
Q 2156 781 2719 781 
Q 3272 781 3575 1187 
Q 3878 1594 3878 2328 
Q 3878 3066 3575 3472 
Q 3272 3878 2719 3878 
z
" transform="scale(0.015625)"/>
      <path id="DejaVuSans-Bold-55" d="M 588 4666 
L 1791 4666 
L 1791 1869 
Q 1791 1291 1980 1042 
Q 2169 794 2597 794 
Q 3028 794 3217 1042 
Q 3406 1291 3406 1869 
L 3406 4666 
L 4609 4666 
L 4609 1869 
Q 4609 878 4112 393 
Q 3616 -91 2597 -91 
Q 1581 -91 1084 393 
Q 588 878 588 1869 
L 588 4666 
z
" transform="scale(0.015625)"/>
      <path id="DejaVuSans-Bold-67" d="M 2919 594 
Q 2688 288 2409 144 
Q 2131 0 1766 0 
Q 1125 0 706 504 
Q 288 1009 288 1791 
Q 288 2575 706 3076 
Q 1125 3578 1766 3578 
Q 2131 3578 2409 3434 
Q 2688 3291 2919 2981 
L 2919 3500 
L 4044 3500 
L 4044 353 
Q 4044 -491 3511 -936 
Q 2978 -1381 1966 -1381 
Q 1638 -1381 1331 -1331 
Q 1025 -1281 716 -1178 
L 716 -306 
Q 1009 -475 1290 -558 
Q 1572 -641 1856 -641 
Q 2406 -641 2662 -400 
Q 2919 -159 2919 353 
L 2919 594 
z
M 2181 2772 
Q 1834 2772 1640 2515 
Q 1447 2259 1447 1791 
Q 1447 1309 1634 1061 
Q 1822 813 2181 813 
Q 2531 813 2725 1069 
Q 2919 1325 2919 1791 
Q 2919 2259 2725 2515 
Q 2531 2772 2181 2772 
z
" transform="scale(0.015625)"/>
      <path id="DejaVuSans-Bold-28" d="M 2413 -844 
L 1484 -844 
Q 1006 -72 778 623 
Q 550 1319 550 2003 
Q 550 2688 779 3389 
Q 1009 4091 1484 4856 
L 2413 4856 
Q 2013 4116 1813 3408 
Q 1613 2700 1613 2009 
Q 1613 1319 1811 609 
Q 2009 -100 2413 -844 
z
" transform="scale(0.015625)"/>
      <path id="DejaVuSans-Bold-69" d="M 538 3500 
L 1656 3500 
L 1656 0 
L 538 0 
L 538 3500 
z
M 538 4863 
L 1656 4863 
L 1656 3950 
L 538 3950 
L 538 4863 
z
" transform="scale(0.015625)"/>
      <path id="DejaVuSans-Bold-76" d="M 97 3500 
L 1216 3500 
L 2088 1081 
L 2956 3500 
L 4078 3500 
L 2700 0 
L 1472 0 
L 97 3500 
z
" transform="scale(0.015625)"/>
      <path id="DejaVuSans-Bold-29" d="M 513 -844 
Q 913 -100 1113 609 
Q 1313 1319 1313 2009 
Q 1313 2700 1113 3408 
Q 913 4116 513 4856 
L 1441 4856 
Q 1916 4091 2145 3389 
Q 2375 2688 2375 2003 
Q 2375 1319 2147 623 
Q 1919 -72 1441 -844 
L 513 -844 
z
" transform="scale(0.015625)"/>
     </defs>
     <use xlink:href="#DejaVuSans-Bold-4e"/>
     <use xlink:href="#DejaVuSans-Bold-6f" transform="translate(83.691406 0)"/>
     <use xlink:href="#DejaVuSans-Bold-6e" transform="translate(152.392578 0)"/>
     <use xlink:href="#DejaVuSans-Bold-2d" transform="translate(223.583984 0)"/>
     <use xlink:href="#DejaVuSans-Bold-43" transform="translate(265.087891 0)"/>
     <use xlink:href="#DejaVuSans-Bold-6f" transform="translate(338.476562 0)"/>
     <use xlink:href="#DejaVuSans-Bold-6d" transform="translate(407.177734 0)"/>
     <use xlink:href="#DejaVuSans-Bold-70" transform="translate(511.376953 0)"/>
     <use xlink:href="#DejaVuSans-Bold-75" transform="translate(582.958984 0)"/>
     <use xlink:href="#DejaVuSans-Bold-74" transform="translate(654.150391 0)"/>
     <use xlink:href="#DejaVuSans-Bold-65" transform="translate(701.953125 0)"/>
     <use xlink:href="#DejaVuSans-Bold-20" transform="translate(769.775391 0)"/>
     <use xlink:href="#DejaVuSans-Bold-51" transform="translate(804.589844 0)"/>
     <use xlink:href="#DejaVuSans-Bold-75" transform="translate(889.599609 0)"/>
     <use xlink:href="#DejaVuSans-Bold-6f" transform="translate(960.791016 0)"/>
     <use xlink:href="#DejaVuSans-Bold-74" transform="translate(1029.492188 0)"/>
     <use xlink:href="#DejaVuSans-Bold-61" transform="translate(1077.294922 0)"/>
     <use xlink:href="#DejaVuSans-Bold-20" transform="translate(1144.775391 0)"/>
     <use xlink:href="#DejaVuSans-Bold-55" transform="translate(1179.589844 0)"/>
     <use xlink:href="#DejaVuSans-Bold-73" transform="translate(1260.791016 0)"/>
     <use xlink:href="#DejaVuSans-Bold-61" transform="translate(1320.3125 0)"/>
     <use xlink:href="#DejaVuSans-Bold-67" transform="translate(1387.792969 0)"/>
     <use xlink:href="#DejaVuSans-Bold-65" transform="translate(1459.375 0)"/>
     <use xlink:href="#DejaVuSans-Bold-20" transform="translate(1527.197266 0)"/>
     <use xlink:href="#DejaVuSans-Bold-28" transform="translate(1562.011719 0)"/>
     <use xlink:href="#DejaVuSans-Bold-41" transform="translate(1607.714844 0)"/>
     <use xlink:href="#DejaVuSans-Bold-63" transform="translate(1685.107422 0)"/>
     <use xlink:href="#DejaVuSans-Bold-74" transform="translate(1744.384766 0)"/>
     <use xlink:href="#DejaVuSans-Bold-69" transform="translate(1792.1875 0)"/>
     <use xlink:href="#DejaVuSans-Bold-76" transform="translate(1826.464844 0)"/>
     <use xlink:href="#DejaVuSans-Bold-65" transform="translate(1891.650391 0)"/>
     <use xlink:href="#DejaVuSans-Bold-20" transform="translate(1959.472656 0)"/>
     <use xlink:href="#DejaVuSans-Bold-53" transform="translate(1994.287109 0)"/>
     <use xlink:href="#DejaVuSans-Bold-65" transform="translate(2066.308594 0)"/>
     <use xlink:href="#DejaVuSans-Bold-72" transform="translate(2134.130859 0)"/>
     <use xlink:href="#DejaVuSans-Bold-76" transform="translate(2183.447266 0)"/>
     <use xlink:href="#DejaVuSans-Bold-69" transform="translate(2248.632812 0)"/>
     <use xlink:href="#DejaVuSans-Bold-63" transform="translate(2282.910156 0)"/>
     <use xlink:href="#DejaVuSans-Bold-65" transform="translate(2342.1875 0)"/>
     <use xlink:href="#DejaVuSans-Bold-73" transform="translate(2410.009766 0)"/>
     <use xlink:href="#DejaVuSans-Bold-29" transform="translate(2469.53125 0)"/>
    </g>
   </g>
   <g id="legend_2">
    <g id="patch_20">
     <path d="M 882.230781 327.94 
L 977.921875 327.94 
Q 979.721875 327.94 979.721875 326.14 
L 979.721875 300.619375 
Q 979.721875 298.819375 977.921875 298.819375 
L 882.230781 298.819375 
Q 880.430781 298.819375 880.430781 300.619375 
L 880.430781 326.14 
Q 880.430781 327.94 882.230781 327.94 
z
" style="fill: #ffffff; opacity: 0.8; stroke: #cccccc; stroke-linejoin: miter"/>
    </g>
    <g id="line2d_19">
     <path d="M 884.030781 306.107969 
L 893.030781 306.107969 
L 902.030781 306.107969 
" style="fill: none; stroke-dasharray: 5.55,2.4; stroke-dashoffset: 0; stroke: #f39c12; stroke-opacity: 0.7; stroke-width: 1.5"/>
    </g>
    <g id="text_32">
     <!-- Warning (80%) -->
     <g transform="translate(909.230781 309.257969) scale(0.09 -0.09)">
      <use xlink:href="#DejaVuSans-57"/>
      <use xlink:href="#DejaVuSans-61" transform="translate(92.501953 0)"/>
      <use xlink:href="#DejaVuSans-72" transform="translate(153.78125 0)"/>
      <use xlink:href="#DejaVuSans-6e" transform="translate(193.144531 0)"/>
      <use xlink:href="#DejaVuSans-69" transform="translate(256.523438 0)"/>
      <use xlink:href="#DejaVuSans-6e" transform="translate(284.306641 0)"/>
      <use xlink:href="#DejaVuSans-67" transform="translate(347.685547 0)"/>
      <use xlink:href="#DejaVuSans-20" transform="translate(411.162109 0)"/>
      <use xlink:href="#DejaVuSans-28" transform="translate(442.949219 0)"/>
      <use xlink:href="#DejaVuSans-38" transform="translate(481.962891 0)"/>
      <use xlink:href="#DejaVuSans-30" transform="translate(545.585938 0)"/>
      <use xlink:href="#DejaVuSans-25" transform="translate(609.208984 0)"/>
      <use xlink:href="#DejaVuSans-29" transform="translate(704.228516 0)"/>
     </g>
    </g>
    <g id="line2d_20">
     <path d="M 884.030781 319.318281 
L 893.030781 319.318281 
L 902.030781 319.318281 
" style="fill: none; stroke-dasharray: 5.55,2.4; stroke-dashoffset: 0; stroke: #e74c3c; stroke-opacity: 0.7; stroke-width: 1.5"/>
    </g>
    <g id="text_33">
     <!-- Critical (95%) -->
     <g transform="translate(909.230781 322.468281) scale(0.09 -0.09)">
      <defs>
       <path id="DejaVuSans-39" d="M 703 97 
L 703 672 
Q 941 559 1184 500 
Q 1428 441 1663 441 
Q 2288 441 2617 861 
Q 2947 1281 2994 2138 
Q 2813 1869 2534 1725 
Q 2256 1581 1919 1581 
Q 1219 1581 811 2004 
Q 403 2428 403 3163 
Q 403 3881 828 4315 
Q 1253 4750 1959 4750 
Q 2769 4750 3195 4129 
Q 3622 3509 3622 2328 
Q 3622 1225 3098 567 
Q 2575 -91 1691 -91 
Q 1453 -91 1209 -44 
Q 966 3 703 97 
z
M 1959 2075 
Q 2384 2075 2632 2365 
Q 2881 2656 2881 3163 
Q 2881 3666 2632 3958 
Q 2384 4250 1959 4250 
Q 1534 4250 1286 3958 
Q 1038 3666 1038 3163 
Q 1038 2656 1286 2365 
Q 1534 2075 1959 2075 
z
" transform="scale(0.015625)"/>
       <path id="DejaVuSans-35" d="M 691 4666 
L 3169 4666 
L 3169 4134 
L 1269 4134 
L 1269 2991 
Q 1406 3038 1543 3061 
Q 1681 3084 1819 3084 
Q 2600 3084 3056 2656 
Q 3513 2228 3513 1497 
Q 3513 744 3044 326 
Q 2575 -91 1722 -91 
Q 1428 -91 1123 -41 
Q 819 9 494 109 
L 494 744 
Q 775 591 1075 516 
Q 1375 441 1709 441 
Q 2250 441 2565 725 
Q 2881 1009 2881 1497 
Q 2881 1984 2565 2268 
Q 2250 2553 1709 2553 
Q 1456 2553 1204 2497 
Q 953 2441 691 2322 
L 691 4666 
z
" transform="scale(0.015625)"/>
      </defs>
      <use xlink:href="#DejaVuSans-43"/>
      <use xlink:href="#DejaVuSans-72" transform="translate(69.824219 0)"/>
      <use xlink:href="#DejaVuSans-69" transform="translate(110.9375 0)"/>
      <use xlink:href="#DejaVuSans-74" transform="translate(138.720703 0)"/>
      <use xlink:href="#DejaVuSans-69" transform="translate(177.929688 0)"/>
      <use xlink:href="#DejaVuSans-63" transform="translate(205.712891 0)"/>
      <use xlink:href="#DejaVuSans-61" transform="translate(260.693359 0)"/>
      <use xlink:href="#DejaVuSans-6c" transform="translate(321.972656 0)"/>
      <use xlink:href="#DejaVuSans-20" transform="translate(349.755859 0)"/>
      <use xlink:href="#DejaVuSans-28" transform="translate(381.542969 0)"/>
      <use xlink:href="#DejaVuSans-39" transform="translate(420.556641 0)"/>
      <use xlink:href="#DejaVuSans-35" transform="translate(484.179688 0)"/>
      <use xlink:href="#DejaVuSans-25" transform="translate(547.802734 0)"/>
      <use xlink:href="#DejaVuSans-29" transform="translate(642.822266 0)"/>
     </g>
    </g>
   </g>
  </g>
  <g id="text_34">
   <!-- Daily Capacity Supply Chain Health Check — 2026-05-02 -->
   <g transform="translate(278.766719 17.837812) scale(0.14 -0.14)">
    <defs>
     <path id="DejaVuSans-Bold-44" d="M 1791 3756 
L 1791 909 
L 2222 909 
Q 2959 909 3348 1275 
Q 3738 1641 3738 2338 
Q 3738 3031 3350 3393 
Q 2963 3756 2222 3756 
L 1791 3756 
z
M 588 4666 
L 1856 4666 
Q 2919 4666 3439 4514 
Q 3959 4363 4331 4000 
Q 4659 3684 4818 3271 
Q 4978 2859 4978 2338 
Q 4978 1809 4818 1395 
Q 4659 981 4331 666 
Q 3956 303 3431 151 
Q 2906 0 1856 0 
L 588 0 
L 588 4666 
z
" transform="scale(0.015625)"/>
     <path id="DejaVuSans-Bold-6c" d="M 538 4863 
L 1656 4863 
L 1656 0 
L 538 0 
L 538 4863 
z
" transform="scale(0.015625)"/>
     <path id="DejaVuSans-Bold-2014" d="M 344 2156 
L 6056 2156 
L 6056 1350 
L 344 1350 
L 344 2156 
z
" transform="scale(0.015625)"/>
     <path id="DejaVuSans-Bold-32" d="M 1844 884 
L 3897 884 
L 3897 0 
L 506 0 
L 506 884 
L 2209 2388 
Q 2438 2594 2547 2791 
Q 2656 2988 2656 3200 
Q 2656 3528 2436 3728 
Q 2216 3928 1850 3928 
Q 1569 3928 1234 3808 
Q 900 3688 519 3450 
L 519 4475 
Q 925 4609 1322 4679 
Q 1719 4750 2100 4750 
Q 2938 4750 3402 4381 
Q 3866 4013 3866 3353 
Q 3866 2972 3669 2642 
Q 3472 2313 2841 1759 
L 1844 884 
z
" transform="scale(0.015625)"/>
     <path id="DejaVuSans-Bold-30" d="M 2944 2338 
Q 2944 3213 2780 3570 
Q 2616 3928 2228 3928 
Q 1841 3928 1675 3570 
Q 1509 3213 1509 2338 
Q 1509 1453 1675 1090 
Q 1841 728 2228 728 
Q 2613 728 2778 1090 
Q 2944 1453 2944 2338 
z
M 4147 2328 
Q 4147 1169 3647 539 
Q 3147 -91 2228 -91 
Q 1306 -91 806 539 
Q 306 1169 306 2328 
Q 306 3491 806 4120 
Q 1306 4750 2228 4750 
Q 3147 4750 3647 4120 
Q 4147 3491 4147 2328 
z
" transform="scale(0.015625)"/>
     <path id="DejaVuSans-Bold-36" d="M 2316 2303 
Q 2000 2303 1842 2098 
Q 1684 1894 1684 1484 
Q 1684 1075 1842 870 
Q 2000 666 2316 666 
Q 2634 666 2792 870 
Q 2950 1075 2950 1484 
Q 2950 1894 2792 2098 
Q 2634 2303 2316 2303 
z
M 3803 4544 
L 3803 3681 
Q 3506 3822 3243 3889 
Q 2981 3956 2731 3956 
Q 2194 3956 1894 3657 
Q 1594 3359 1544 2772 
Q 1750 2925 1990 3001 
Q 2231 3078 2516 3078 
Q 3231 3078 3670 2659 
Q 4109 2241 4109 1563 
Q 4109 813 3618 361 
Q 3128 -91 2303 -91 
Q 1394 -91 895 523 
Q 397 1138 397 2266 
Q 397 3422 980 4083 
Q 1563 4744 2578 4744 
Q 2900 4744 3203 4694 
Q 3506 4644 3803 4544 
z
" transform="scale(0.015625)"/>
     <path id="DejaVuSans-Bold-35" d="M 678 4666 
L 3669 4666 
L 3669 3781 
L 1638 3781 
L 1638 3059 
Q 1775 3097 1914 3117 
Q 2053 3138 2203 3138 
Q 3056 3138 3531 2711 
Q 4006 2284 4006 1522 
Q 4006 766 3489 337 
Q 2972 -91 2053 -91 
Q 1656 -91 1267 -14 
Q 878 63 494 219 
L 494 1166 
Q 875 947 1217 837 
Q 1559 728 1863 728 
Q 2300 728 2551 942 
Q 2803 1156 2803 1522 
Q 2803 1891 2551 2103 
Q 2300 2316 1863 2316 
Q 1603 2316 1309 2248 
Q 1016 2181 678 2041 
L 678 4666 
z
" transform="scale(0.015625)"/>
    </defs>
    <use xlink:href="#DejaVuSans-Bold-44"/>
    <use xlink:href="#DejaVuSans-Bold-61" transform="translate(83.007812 0)"/>
    <use xlink:href="#DejaVuSans-Bold-69" transform="translate(150.488281 0)"/>
    <use xlink:href="#DejaVuSans-Bold-6c" transform="translate(184.765625 0)"/>
    <use xlink:href="#DejaVuSans-Bold-79" transform="translate(219.042969 0)"/>
    <use xlink:href="#DejaVuSans-Bold-20" transform="translate(284.228516 0)"/>
    <use xlink:href="#DejaVuSans-Bold-43" transform="translate(319.042969 0)"/>
    <use xlink:href="#DejaVuSans-Bold-61" transform="translate(392.431641 0)"/>
    <use xlink:href="#DejaVuSans-Bold-70" transform="translate(459.912109 0)"/>
    <use xlink:href="#DejaVuSans-Bold-61" transform="translate(531.494141 0)"/>
    <use xlink:href="#DejaVuSans-Bold-63" transform="translate(598.974609 0)"/>
    <use xlink:href="#DejaVuSans-Bold-69" transform="translate(658.251953 0)"/>
    <use xlink:href="#DejaVuSans-Bold-74" transform="translate(692.529297 0)"/>
    <use xlink:href="#DejaVuSans-Bold-79" transform="translate(740.332031 0)"/>
    <use xlink:href="#DejaVuSans-Bold-20" transform="translate(805.517578 0)"/>
    <use xlink:href="#DejaVuSans-Bold-53" transform="translate(840.332031 0)"/>
    <use xlink:href="#DejaVuSans-Bold-75" transform="translate(912.353516 0)"/>
    <use xlink:href="#DejaVuSans-Bold-70" transform="translate(983.544922 0)"/>
    <use xlink:href="#DejaVuSans-Bold-70" transform="translate(1055.126953 0)"/>
    <use xlink:href="#DejaVuSans-Bold-6c" transform="translate(1126.708984 0)"/>
    <use xlink:href="#DejaVuSans-Bold-79" transform="translate(1160.986328 0)"/>
    <use xlink:href="#DejaVuSans-Bold-20" transform="translate(1226.171875 0)"/>
    <use xlink:href="#DejaVuSans-Bold-43" transform="translate(1260.986328 0)"/>
    <use xlink:href="#DejaVuSans-Bold-68" transform="translate(1334.375 0)"/>
    <use xlink:href="#DejaVuSans-Bold-61" transform="translate(1405.566406 0)"/>
    <use xlink:href="#DejaVuSans-Bold-69" transform="translate(1473.046875 0)"/>
    <use xlink:href="#DejaVuSans-Bold-6e" transform="translate(1507.324219 0)"/>
    <use xlink:href="#DejaVuSans-Bold-20" transform="translate(1578.515625 0)"/>
    <use xlink:href="#DejaVuSans-Bold-48" transform="translate(1613.330078 0)"/>
    <use xlink:href="#DejaVuSans-Bold-65" transform="translate(1697.021484 0)"/>
    <use xlink:href="#DejaVuSans-Bold-61" transform="translate(1764.84375 0)"/>
    <use xlink:href="#DejaVuSans-Bold-6c" transform="translate(1832.324219 0)"/>
    <use xlink:href="#DejaVuSans-Bold-74" transform="translate(1866.601562 0)"/>
    <use xlink:href="#DejaVuSans-Bold-68" transform="translate(1914.404297 0)"/>
    <use xlink:href="#DejaVuSans-Bold-20" transform="translate(1985.595703 0)"/>
    <use xlink:href="#DejaVuSans-Bold-43" transform="translate(2020.410156 0)"/>
    <use xlink:href="#DejaVuSans-Bold-68" transform="translate(2093.798828 0)"/>
    <use xlink:href="#DejaVuSans-Bold-65" transform="translate(2164.990234 0)"/>
    <use xlink:href="#DejaVuSans-Bold-63" transform="translate(2232.8125 0)"/>
    <use xlink:href="#DejaVuSans-Bold-6b" transform="translate(2292.089844 0)"/>
    <use xlink:href="#DejaVuSans-Bold-20" transform="translate(2358.59375 0)"/>
    <use xlink:href="#DejaVuSans-Bold-2014" transform="translate(2393.408203 0)"/>
    <use xlink:href="#DejaVuSans-Bold-20" transform="translate(2493.408203 0)"/>
    <use xlink:href="#DejaVuSans-Bold-32" transform="translate(2528.222656 0)"/>
    <use xlink:href="#DejaVuSans-Bold-30" transform="translate(2597.802734 0)"/>
    <use xlink:href="#DejaVuSans-Bold-32" transform="translate(2667.382812 0)"/>
    <use xlink:href="#DejaVuSans-Bold-36" transform="translate(2736.962891 0)"/>
    <use xlink:href="#DejaVuSans-Bold-2d" transform="translate(2806.542969 0)"/>
    <use xlink:href="#DejaVuSans-Bold-30" transform="translate(2848.046875 0)"/>
    <use xlink:href="#DejaVuSans-Bold-35" transform="translate(2917.626953 0)"/>
    <use xlink:href="#DejaVuSans-Bold-2d" transform="translate(2987.207031 0)"/>
    <use xlink:href="#DejaVuSans-Bold-30" transform="translate(3028.710938 0)"/>
    <use xlink:href="#DejaVuSans-Bold-32" transform="translate(3098.291016 0)"/>
   </g>
  </g>
 </g>
 <defs>
  <clipPath id="p13121ad662">
   <rect x="83.346875" y="65.76" width="395.7275" height="266.68"/>
  </clipPath>
  <clipPath id="p4e3ccdfeca">
   <rect x="588.494375" y="65.76" width="395.7275" height="266.68"/>
  </clipPath>
 </defs>
</svg>
