<svg width="32" height="32" viewBox="0 0 32 32" fill="none" xmlns="http://www.w3.org/2000/svg">
<g clip-path="url(#clip0_4001_1045)">
<path d="M13.8187 6.54578L0 20.3644V29.0916C0.000470976 29.8628 0.307047 30.6023 0.852384 31.1476C1.39772 31.693 2.13722 31.9995 2.90844 32H29.0916C29.8628 31.9995 30.6023 31.693 31.1476 31.1476C31.693 30.6023 31.9995 29.8628 32 29.0916V2.90844C31.9995 2.13722 31.693 1.39772 31.1476 0.852384C30.6023 0.307047 29.8628 0.000470976 29.0916 0L27.6356 0L17.4542 10.1813L13.8187 6.54578Z" fill="url(#paint0_linear_4001_1045)"/>
<path d="M13.8188 15.2729L1.0419 28.0498C0.679393 28.3305 0.4175 28.721 0.295405 29.1629C0.17331 29.6048 0.197575 30.0744 0.364571 30.5014C0.616097 30.9557 0.984718 31.3342 1.43211 31.5978C1.8795 31.8614 2.38932 32.0003 2.90857 32.0001H29.0917C29.8629 31.9996 30.6024 31.693 31.1477 31.1477C31.6931 30.6023 31.9997 29.8628 32.0001 29.0916V4.3645L17.4543 18.9085L13.8188 15.2729Z" fill="url(#paint1_linear_4001_1045)"/>
<path d="M17.4542 10.1813L27.6356 0H2.90844C2.13722 0.000470976 1.39772 0.307047 0.852384 0.852384C0.307047 1.39772 0.000470976 2.13722 0 2.90844L0 20.3644L13.8187 6.54578L17.4542 10.1813Z" fill="url(#paint2_linear_4001_1045)"/>
</g>
<defs>
<linearGradient id="paint0_linear_4001_1045" x1="27.7351" y1="35.1644" x2="4.51022" y2="-2.76267" gradientUnits="userSpaceOnUse">
<stop stop-color="#0078D4"/>
<stop offset="1" stop-color="#289BF2"/>
</linearGradient>
<linearGradient id="paint1_linear_4001_1045" x1="9.13435" y1="4.00361" x2="23.5912" y2="31.5485" gradientUnits="userSpaceOnUse">
<stop stop-color="#00CCF9"/>
<stop offset="1" stop-color="#0095E6"/>
</linearGradient>
<linearGradient id="paint2_linear_4001_1045" x1="10.2542" y1="-0.108445" x2="17.28" y2="20.1742" gradientUnits="userSpaceOnUse">
<stop stop-color="#7CECFF"/>
<stop offset="1" stop-color="#50E6FF"/>
</linearGradient>
<clipPath id="clip0_4001_1045">
<rect width="32" height="32" fill="white"/>
</clipPath>
</defs>
</svg>
