<svg width="32" height="32" viewBox="0 0 32 32" fill="none" xmlns="http://www.w3.org/2000/svg">
<g clip-path="url(#clip0_4001_3284)">
<path d="M30.1017 20.5833C29.0556 23.4932 27.1367 26.0093 24.6072 27.788C22.0776 29.5666 19.0607 30.5211 15.9684 30.521C14.5665 30.5269 13.1713 30.3293 11.8262 29.9344C12.0307 29.4689 12.1395 28.9671 12.1462 28.4588C12.1639 28.4588 12.1995 28.4766 12.2173 28.4766C13.4355 28.8339 14.6989 29.0135 15.9684 29.0099C18.5062 29.0049 20.9918 28.2895 23.144 26.9447C25.2962 25.6 27.029 23.6797 28.1462 21.401L28.1639 21.3833L30.1017 20.5833Z" fill="#32BEDD"/>
<path d="M6.36838 25.0099C5.92293 25.2575 5.53512 25.5969 5.23061 26.0055C3.99797 24.7418 2.9935 23.2742 2.26172 21.6677L4.11061 22.0766V22.5388C4.10888 22.7829 4.19088 23.0201 4.34294 23.211C4.495 23.4019 4.70792 23.5349 4.94616 23.5877L5.19505 23.6411C5.52808 24.1017 5.89661 24.5356 6.29727 24.9388L6.36838 25.0099Z" fill="#32BEDD"/>
<path d="M21.9591 1.70323C21.7099 2.14872 21.547 2.63729 21.4791 3.14323C21.4435 3.12545 21.3902 3.10768 21.3547 3.0899C19.6568 2.34509 17.822 1.96359 15.968 1.9699C13.9605 1.97325 11.9787 2.42139 10.1651 3.28209C8.3515 4.14278 6.75114 5.39465 5.4791 6.94768L4.96354 7.05434C4.72499 7.10302 4.51026 7.23184 4.35503 7.4194C4.1998 7.60697 4.11341 7.842 4.11021 8.08545V8.90323L2.29688 9.24101C3.4969 6.62421 5.42323 4.40712 7.84679 2.8534C10.2703 1.29967 13.0892 0.474693 15.968 0.476566C18.0273 0.477809 20.0651 0.895043 21.9591 1.70323Z" fill="#32BEDD"/>
<path d="M29.9942 10.1334L28.0564 9.45786C27.7022 8.72805 27.2732 8.03695 26.7764 7.39564C26.7408 7.3423 26.7053 7.30675 26.6875 7.27119C27.1646 7.09523 27.6003 6.82291 27.9675 6.47119C28.8242 7.58251 29.5076 8.81727 29.9942 10.1334Z" fill="#32BEDD"/>
<path d="M17.906 21.1699L22.4215 22.1654L15.4171 25.0667C15.3815 25.0667 15.3637 25.0845 15.3282 25.0845C15.258 25.0827 15.1912 25.0541 15.1416 25.0044C15.092 24.9548 15.0633 24.888 15.0615 24.8179V6.12986C15.0633 6.0597 15.092 5.99292 15.1416 5.94329C15.1912 5.89367 15.258 5.86499 15.3282 5.86319C15.3589 5.86043 15.3898 5.8666 15.4171 5.88097L23.346 8.6543L17.9237 9.66764C17.7048 9.71725 17.5089 9.83875 17.3671 10.0128C17.2253 10.1868 17.1459 10.4032 17.1415 10.6276V20.2276C17.14 20.449 17.2154 20.6639 17.3548 20.8358C17.4943 21.0077 17.6891 21.1258 17.906 21.1699Z" fill="white"/>
<path d="M1.95553 10.0766L4.10664 9.66772V21.3122L1.91998 20.8322L0.159978 20.4411C0.111458 20.432 0.0681105 20.405 0.0384906 20.3655C0.00887058 20.326 -0.00487077 20.2769 -2.19237e-05 20.2277V10.6277C-0.00155481 10.5793 0.0134557 10.5318 0.042538 10.493C0.0716203 10.4542 0.11304 10.4265 0.159978 10.4144L1.95553 10.0766Z" fill="#A67AF4"/>
<path d="M17.905 21.1699L22.4205 22.1654L15.4161 25.0667C15.3805 25.0667 15.3628 25.0845 15.3272 25.0845C15.2571 25.0827 15.1903 25.0541 15.1406 25.0044C15.091 24.9548 15.0623 24.888 15.0605 24.8179V6.12986C15.0623 6.0597 15.091 5.99292 15.1406 5.94329C15.1903 5.89367 15.2571 5.86499 15.3272 5.86319C15.3579 5.86043 15.3888 5.8666 15.4161 5.88097L23.345 8.6543L17.9228 9.66764C17.7039 9.71725 17.5079 9.83875 17.3661 10.0128C17.2243 10.1868 17.1449 10.4032 17.1405 10.6276V20.2276C17.139 20.449 17.2144 20.6639 17.3538 20.8358C17.4933 21.0077 17.6881 21.1258 17.905 21.1699Z" fill="url(#paint0_linear_4001_3284)"/>
<path d="M15.2637 5.8667L5.11609 7.78314C5.04508 7.79832 4.9815 7.83759 4.93614 7.89429C4.89078 7.951 4.86642 8.02164 4.86721 8.09425V22.5423C4.86657 22.6138 4.89035 22.6835 4.93463 22.7397C4.97891 22.796 5.04104 22.8354 5.11076 22.8516L15.2548 25.0667C15.3003 25.0757 15.3473 25.0744 15.3922 25.063C15.4372 25.0515 15.4791 25.0302 15.5148 25.0006C15.5506 24.971 15.5793 24.9338 15.5989 24.8918C15.6185 24.8497 15.6284 24.8038 15.6281 24.7574V6.18314C15.6288 6.14229 15.6215 6.10169 15.6065 6.06367C15.5915 6.02566 15.5692 5.99097 15.5408 5.96158C15.5124 5.93219 15.4785 5.90869 15.441 5.89241C15.4035 5.87613 15.3632 5.86739 15.3223 5.8667H15.2637Z" fill="url(#paint1_linear_4001_3284)"/>
<path opacity="0.5" d="M10.5742 8.74844V22.192L14.1049 22.7804V8.11377L10.5742 8.74844Z" fill="#B796F9"/>
<path opacity="0.5" d="M6.23828 9.47387V21.2516L9.31206 21.897V8.94409L6.23828 9.47387Z" fill="#B796F9"/>
<path d="M28.4441 3.6411C28.4423 4.25742 28.2581 4.85941 27.9146 5.37113C27.5711 5.88285 27.0837 6.28136 26.514 6.51641C25.9442 6.75145 25.3176 6.81249 24.7132 6.69182C24.1088 6.57115 23.5537 6.27418 23.1179 5.83838C22.6821 5.40257 22.3852 4.84746 22.2645 4.24307C22.1438 3.63868 22.2049 3.01208 22.4399 2.44234C22.6749 1.8726 23.0735 1.38524 23.5852 1.04173C24.0969 0.698228 24.6989 0.513974 25.3152 0.512215C25.7264 0.511278 26.1336 0.591569 26.5137 0.748478C26.8937 0.905387 27.239 1.13582 27.5297 1.42655C27.8205 1.71729 28.0509 2.06258 28.2078 2.44262C28.3647 2.82266 28.445 3.22995 28.4441 3.6411Z" fill="#32BEDD"/>
<path d="M8.26676 31.5238C9.99382 31.5238 11.3939 30.1237 11.3939 28.3966C11.3939 26.6696 9.99382 25.2695 8.26676 25.2695C6.5397 25.2695 5.13965 26.6696 5.13965 28.3966C5.13965 30.1237 6.5397 31.5238 8.26676 31.5238Z" fill="#32BEDD"/>
<path d="M31.9996 11.8918V18.7255C31.9984 18.8012 31.9755 18.875 31.9336 18.9381C31.8917 19.0011 31.8325 19.0507 31.7632 19.0811L30.4014 19.6429L24.9436 21.8971H24.924C24.9017 21.9005 24.8789 21.9005 24.8565 21.8971C24.8093 21.8971 24.7641 21.8784 24.7308 21.845C24.6974 21.8117 24.6787 21.7665 24.6787 21.7193V9.30509C24.679 9.27275 24.688 9.24109 24.705 9.21352C24.7219 9.18595 24.746 9.16352 24.7747 9.14865H24.8085C24.8195 9.14511 24.8313 9.14511 24.8423 9.14865C24.8634 9.14669 24.8846 9.15169 24.9027 9.16287H24.9223H24.9436L30.3107 11.0224L31.7329 11.5238C31.8112 11.548 31.8795 11.597 31.9276 11.6633C31.9757 11.7297 32.001 11.8098 31.9996 11.8918Z" fill="#773ADC"/>
<path d="M24.8164 9.13787L18.0609 10.409C18.0135 10.4192 17.9712 10.4456 17.9411 10.4835C17.9109 10.5214 17.8948 10.5686 17.8955 10.617V20.233C17.8951 20.2806 17.9108 20.327 17.9402 20.3645C17.9696 20.402 18.0109 20.4283 18.0573 20.4392L24.8129 21.9165C24.8394 21.9222 24.8668 21.9226 24.8934 21.9176C24.9201 21.9127 24.9455 21.9024 24.9682 21.8875C24.9908 21.8727 25.0103 21.8534 25.0254 21.8309C25.0406 21.8084 25.0511 21.7831 25.0564 21.7565C25.0583 21.7412 25.0583 21.7257 25.0564 21.7103V9.34409C25.0569 9.28923 25.0357 9.2364 24.9974 9.19711C24.9591 9.15782 24.9068 9.13525 24.852 9.13432C24.84 9.13404 24.8281 9.13523 24.8164 9.13787Z" fill="#A67AF4"/>
</g>
<defs>
<linearGradient id="paint0_linear_4001_3284" x1="15.6401" y1="15.4721" x2="26.1023" y2="15.4721" gradientUnits="userSpaceOnUse">
<stop offset="0.001" stop-color="#773ADC"/>
<stop offset="1" stop-color="#552F99"/>
</linearGradient>
<linearGradient id="paint1_linear_4001_3284" x1="10.2468" y1="6.7147" x2="10.2468" y2="24.4978" gradientUnits="userSpaceOnUse">
<stop stop-color="#A67AF4"/>
<stop offset="0.999" stop-color="#773ADC"/>
</linearGradient>
<clipPath id="clip0_4001_3284">
<rect width="32" height="32" fill="white"/>
</clipPath>
</defs>
</svg>
