<svg width="32" height="32" viewBox="0 0 32 32" fill="none" xmlns="http://www.w3.org/2000/svg">
<g clip-path="url(#clip0_4001_2833)">
<path d="M5.12139 2.47641L6.98628 0.311078C7.07128 0.213508 7.17618 0.135264 7.29393 0.0816019C7.41168 0.0279402 7.53955 0.000104811 7.66895 -3.35816e-05H25.5392C25.7153 -0.0173199 25.8932 0.00317799 26.0608 0.0600914C26.2284 0.117005 26.382 0.209024 26.5112 0.330005C26.6404 0.450985 26.7423 0.598143 26.8102 0.761653C26.878 0.925162 26.9102 1.10126 26.9045 1.27819V23.5822C26.9048 23.7083 26.8788 23.8331 26.8279 23.9486C26.7771 24.064 26.7027 24.1675 26.6094 24.2524L24.5969 26.0853H6.33028L5.09473 25.5662L5.12139 2.47641Z" fill="#005BA1"/>
<path d="M6.62207 2.4658L7.7634 1.16447C7.83876 1.07819 7.93166 1.00899 8.03589 0.961468C8.14012 0.91395 8.25329 0.889215 8.36785 0.888916H25.0665C25.172 0.888916 25.2764 0.909713 25.3738 0.950117C25.4711 0.990522 25.5596 1.04974 25.6341 1.12438C25.7086 1.19902 25.7676 1.28762 25.8078 1.3851C25.848 1.48258 25.8685 1.58703 25.8683 1.69247V22.9014C25.8686 23.0131 25.8455 23.1237 25.8005 23.2259C25.7555 23.3282 25.6896 23.4199 25.607 23.4951L23.8292 25.12L6.62207 2.4658Z" fill="white"/>
<path d="M13.6069 22.9333H7.93584C7.85505 22.9338 7.77773 22.9662 7.72077 23.0235C7.66381 23.0808 7.63183 23.1583 7.63184 23.2391V31.8222C7.63208 31.8508 7.64031 31.8787 7.65559 31.9028C7.67088 31.9269 7.69261 31.9463 7.71833 31.9587C7.74405 31.9711 7.77273 31.976 7.80112 31.973C7.8295 31.9699 7.85646 31.9589 7.87895 31.9413L10.6772 29.7476C10.696 29.7337 10.718 29.7245 10.7412 29.7209H10.7305L13.9127 27.232V23.2356C13.9118 23.1551 13.8792 23.0782 13.8219 23.0217C13.7647 22.9651 13.6874 22.9333 13.6069 22.9333Z" fill="url(#paint0_linear_4001_2833)"/>
<path d="M10.7305 29.7102L13.9127 27.2213V31.8435C13.9125 31.8719 13.9045 31.8997 13.8894 31.9238C13.8743 31.9478 13.8529 31.9672 13.8274 31.9798C13.8019 31.9923 13.7735 31.9976 13.7452 31.9948C13.7169 31.9921 13.69 31.9816 13.6674 31.9644L10.7305 29.7102Z" fill="#76BC2D"/>
<path d="M23.7045 2.45154H5.18006C5.16885 2.45154 5.15776 2.45375 5.1474 2.45803C5.13705 2.46232 5.12764 2.46861 5.11972 2.47653C5.1118 2.48446 5.10551 2.49386 5.10122 2.50422C5.09693 2.51457 5.09473 2.52567 5.09473 2.53687V25.5662C5.09473 25.7232 5.1571 25.8738 5.26812 25.9848C5.37914 26.0958 5.52972 26.1582 5.68673 26.1582H23.7045C23.8617 26.1582 24.0124 26.0959 24.1237 25.9849C24.235 25.8739 24.2978 25.7234 24.2983 25.5662V3.04354C24.2978 2.88637 24.235 2.73579 24.1237 2.62482C24.0124 2.51385 23.8617 2.45154 23.7045 2.45154Z" fill="url(#paint1_linear_4001_2833)"/>
<path d="M10.7709 10.919V17.2195H9.42155V12.4444C9.33918 12.512 9.25048 12.5715 9.15666 12.6221C9.05259 12.6823 8.94448 12.7352 8.83311 12.7804C8.71721 12.828 8.59846 12.8684 8.47755 12.9013C8.35745 12.9342 8.23502 12.9579 8.11133 12.9724V11.8435C8.45595 11.7443 8.79 11.6115 9.10866 11.447C9.4066 11.2948 9.69039 11.1163 9.95666 10.9137L10.7709 10.919Z" fill="white"/>
<path d="M14.7552 17.3279C13.2868 17.3279 12.5532 16.2974 12.5544 14.2364C12.4999 13.3798 12.7096 12.5272 13.1552 11.7937C13.348 11.519 13.6073 11.2978 13.909 11.1507C14.2106 11.0037 14.5446 10.9356 14.8797 10.9528C16.3126 10.9528 17.029 12.0005 17.029 14.0959C17.0817 14.9364 16.877 15.7729 16.4424 16.4942C16.2557 16.7656 16.0027 16.9848 15.7074 17.1307C15.412 17.2767 15.0843 17.3446 14.7552 17.3279ZM14.8157 11.9946C14.2231 11.9946 13.9268 12.7324 13.9268 14.2079C13.9268 15.5982 14.2148 16.2933 14.7908 16.2933C15.3668 16.2933 15.6512 15.575 15.6441 14.1386C15.6441 12.7057 15.3686 11.9893 14.8175 11.9893L14.8157 11.9946Z" fill="white"/>
<path d="M20.8985 10.919V17.2195H19.5438V12.4444C19.4617 12.5124 19.373 12.572 19.2789 12.6221C19.1748 12.6823 19.0667 12.7352 18.9554 12.7804C18.8396 12.8283 18.7208 12.8687 18.5998 12.9013C18.4803 12.934 18.3584 12.9578 18.2354 12.9724V11.8435C18.5798 11.7437 18.9137 11.6109 19.2327 11.447C19.5298 11.2944 19.813 11.1159 20.0789 10.9137L20.8985 10.919Z" fill="white"/>
</g>
<defs>
<linearGradient id="paint0_linear_4001_2833" x1="10.7732" y1="33.1645" x2="10.7732" y2="23.2498" gradientUnits="userSpaceOnUse">
<stop stop-color="#76BC2D"/>
<stop offset="0.192" stop-color="#7FCB30"/>
<stop offset="0.42" stop-color="#84D332"/>
<stop offset="0.775" stop-color="#86D633"/>
</linearGradient>
<linearGradient id="paint1_linear_4001_2833" x1="14.6965" y1="26.1582" x2="14.6965" y2="2.45154" gradientUnits="userSpaceOnUse">
<stop stop-color="#1988D9"/>
<stop offset="0.9" stop-color="#54AEF0"/>
</linearGradient>
<clipPath id="clip0_4001_2833">
<rect width="32" height="32" fill="white"/>
</clipPath>
</defs>
</svg>
