<svg width="32" height="32" viewBox="0 0 32 32" fill="none" xmlns="http://www.w3.org/2000/svg">
<path d="M28.4441 8.51524L27.1463 7.87524L23.2174 15.9464H19.8574V17.3686H23.253L27.1463 25.3686L28.4441 24.7286L24.4974 16.6219L28.4441 8.51524Z" fill="#949494"/>
<path d="M27.7862 10.9149C27.2745 10.9187 26.7732 10.7702 26.3462 10.4882C26.0302 10.2946 25.7589 10.0359 25.5505 9.72939C25.3421 9.42289 25.2013 9.07555 25.1373 8.71044C25.0466 8.31235 25.0467 7.89895 25.1375 7.50088C25.2283 7.10282 25.4076 6.73031 25.662 6.41099C25.9165 6.09166 26.2395 5.83371 26.6073 5.65627C26.975 5.47884 27.3779 5.38646 27.7862 5.38599C28.3031 5.38491 28.8093 5.53306 29.244 5.81266C29.5518 6.01383 29.8158 6.27492 30.0205 6.58035C30.2251 6.88579 30.3661 7.22932 30.4351 7.59044C30.5228 7.98729 30.5204 8.39875 30.4281 8.79456C30.3359 9.19037 30.1561 9.56048 29.902 9.87768C29.6479 10.1949 29.3259 10.4511 28.9598 10.6275C28.5937 10.8039 28.1927 10.896 27.7862 10.8971V10.9149Z" fill="white"/>
<path d="M27.7868 6.08012C28.1904 6.08282 28.5849 6.19995 28.9246 6.4179C29.1583 6.56486 29.3604 6.75687 29.5191 6.98274C29.6778 7.2086 29.79 7.4638 29.849 7.73345C29.912 8.00458 29.9209 8.28547 29.8751 8.56003C29.8294 8.83458 29.7299 9.09741 29.5824 9.33345C29.3893 9.6301 29.1261 9.87455 28.816 10.0451C28.5059 10.2157 28.1585 10.3071 27.8046 10.3112C27.4025 10.3158 27.0076 10.2047 26.6668 9.99123C26.1884 9.6893 25.8494 9.2097 25.7246 8.6579C25.6588 8.34899 25.6624 8.02932 25.7351 7.72197C25.8078 7.41463 25.9479 7.12726 26.1452 6.88063C26.3425 6.634 26.5921 6.43426 26.876 6.29582C27.1599 6.15739 27.471 6.08371 27.7868 6.08012ZM27.7868 4.87123C26.9861 4.87112 26.2122 5.16002 25.6075 5.68483C25.0027 6.20964 24.6077 6.93508 24.495 7.72784C24.3823 8.52059 24.5596 9.32738 24.9941 9.99992C25.4287 10.6725 26.0914 11.1655 26.8604 11.3886C27.6295 11.6116 28.4532 11.5496 29.1801 11.2139C29.9071 10.8782 30.4884 10.2914 30.8174 9.56132C31.1463 8.83128 31.2007 8.00705 30.9705 7.24011C30.7404 6.47318 30.2411 5.81509 29.5646 5.38679C29.0336 5.04828 28.4165 4.86934 27.7868 4.87123Z" fill="#32BEDD"/>
<path d="M27.7863 27.7685C27.2746 27.7724 26.7733 27.6239 26.3463 27.3419C26.0428 27.155 25.7795 26.9095 25.5718 26.6197C25.3641 26.3299 25.2163 26.0017 25.1368 25.6541C25.0574 25.3066 25.048 24.9467 25.1091 24.5955C25.1703 24.2443 25.3008 23.9088 25.493 23.6085C25.6816 23.3044 25.9287 23.0407 26.2201 22.8328C26.5114 22.625 26.8412 22.477 27.1901 22.3976C27.5391 22.3183 27.9004 22.309 28.253 22.3704C28.6056 22.4317 28.9425 22.5626 29.2441 22.7552C29.7399 23.0714 30.1199 23.5398 30.3272 24.0902C30.5344 24.6406 30.5576 25.2433 30.3934 25.808C30.2292 26.3727 29.8864 26.869 29.4164 27.2224C28.9463 27.5759 28.3744 27.7675 27.7863 27.7685Z" fill="white"/>
<path d="M27.7868 22.933C28.1904 22.9357 28.5849 23.0529 28.9246 23.2708C29.1583 23.4178 29.3604 23.6098 29.5191 23.8356C29.6778 24.0615 29.79 24.3167 29.849 24.5864C29.912 24.8575 29.9209 25.1384 29.8751 25.4129C29.8294 25.6875 29.7299 25.9503 29.5824 26.1864C29.3893 26.483 29.1261 26.7274 28.816 26.898C28.5059 27.0686 28.1585 27.16 27.8046 27.1641C27.4025 27.1687 27.0076 27.0576 26.6668 26.8441C26.1884 26.5422 25.8494 26.0626 25.7246 25.5108C25.6588 25.2019 25.6624 24.8822 25.7351 24.5749C25.8078 24.2675 25.9479 23.9802 26.1452 23.7335C26.3425 23.4869 26.5921 23.2872 26.876 23.1487C27.1599 23.0103 27.471 22.9366 27.7868 22.933ZM27.7868 21.7241C26.9861 21.724 26.2122 22.0129 25.6075 22.5377C25.0027 23.0625 24.6077 23.788 24.495 24.5807C24.3823 25.3735 24.5596 26.1803 24.9941 26.8528C25.4287 27.5254 26.0914 28.0185 26.8604 28.2415C27.6295 28.4645 28.4532 28.4025 29.1801 28.0668C29.9071 27.7311 30.4884 27.1443 30.8174 26.4142C31.1463 25.6842 31.2007 24.8599 30.9705 24.093C30.7404 23.3261 30.2411 22.668 29.5646 22.2397C29.0336 21.9012 28.4165 21.7222 27.7868 21.7241Z" fill="#32BEDD"/>
<path d="M10.6664 10.169C5.33312 10.169 0.888672 8.58683 0.888672 6.64905V25.3513C0.888672 27.289 5.17312 28.9068 10.4709 28.9068H10.6664C15.9998 28.9068 20.3909 27.3424 20.3909 25.3513V6.64905C20.3198 8.58683 15.9998 10.169 10.6664 10.169Z" fill="url(#paint0_linear_4001_2751)"/>
<path d="M20.3198 6.64866C20.3198 8.58644 15.9642 10.2042 10.5953 10.2042C5.22645 10.2042 0.888672 8.58644 0.888672 6.64866C0.888672 4.71088 5.33312 3.12866 10.6664 3.12866C15.9998 3.12866 20.3909 4.69311 20.3909 6.68422" fill="#E8E8E8"/>
<path d="M18.0443 6.3639C18.0443 7.59057 14.7198 8.58612 10.5954 8.58612C6.47093 8.58612 3.14648 7.59057 3.14648 6.3639C3.14648 5.13723 6.48871 4.1239 10.6665 4.1239C14.8443 4.1239 18.1154 5.11946 18.1154 6.3639" fill="#50E6FF"/>
<path d="M10.6667 6.8795C8.67243 6.82986 6.68382 7.11223 4.78223 7.71506C6.67819 8.34517 8.66947 8.63995 10.6667 8.58617C12.6696 8.63805 14.6664 8.34334 16.5689 7.71506C14.6615 7.11093 12.6668 6.82855 10.6667 6.8795Z" fill="#198AB3"/>
<defs>
<linearGradient id="paint0_linear_4001_2751" x1="0.888672" y1="17.7602" x2="20.3198" y2="17.7602" gradientUnits="userSpaceOnUse">
<stop stop-color="#005BA1"/>
<stop offset="0.07" stop-color="#0060A9"/>
<stop offset="0.36" stop-color="#0071C8"/>
<stop offset="0.52" stop-color="#0078D4"/>
<stop offset="0.64" stop-color="#0074CD"/>
<stop offset="0.82" stop-color="#006ABB"/>
<stop offset="1" stop-color="#005BA1"/>
</linearGradient>
</defs>
</svg>
