<svg width="32" height="32" viewBox="0 0 32 32" fill="none" xmlns="http://www.w3.org/2000/svg">
<path d="M25.9997 0C27.1042 0 27.9997 0.895431 27.9997 2V30C27.9997 31.1046 27.1042 32 25.9997 32H19.333C18.2284 32 17.333 31.1046 17.333 30V2C17.333 0.895431 18.2284 0 19.333 0H25.9997Z" fill="url(#paint0_linear_4001_2956)"/>
<path d="M21.3337 9.33333V30C21.3337 31.1046 20.4382 32 19.3337 32H12.667C11.5624 32 10.667 31.1046 10.667 30V10C10.667 8.89543 11.5624 8 12.667 8H20.0003C20.3539 8 20.6931 8.14048 20.9431 8.39052C21.1932 8.64057 21.3337 8.97971 21.3337 9.33333Z" fill="url(#paint1_linear_4001_2956)"/>
<path d="M6 16C4.89543 16 4 16.8954 4 18V30C4 31.1046 4.89543 32 6 32H12.6667C13.7712 32 14.6667 31.1046 14.6667 30V17.3333C14.6667 16.9797 14.5262 16.6406 14.2761 16.3905C14.0261 16.1405 13.687 16 13.3333 16H6Z" fill="url(#paint2_linear_4001_2956)"/>
<defs>
<linearGradient id="paint0_linear_4001_2956" x1="15.1973" y1="0.168667" x2="29.2637" y2="29.9843" gradientUnits="userSpaceOnUse">
<stop stop-color="#E6AD10"/>
<stop offset="1" stop-color="#C87E0E"/>
</linearGradient>
<linearGradient id="paint1_linear_4001_2956" x1="9.78666" y1="8.454" x2="21.6163" y2="31.396" gradientUnits="userSpaceOnUse">
<stop stop-color="#F6D751"/>
<stop offset="1" stop-color="#E6AD10"/>
</linearGradient>
<linearGradient id="paint2_linear_4001_2956" x1="5.47167" y1="15.379" x2="12.0083" y2="30.8717" gradientUnits="userSpaceOnUse">
<stop stop-color="#F9E589"/>
<stop offset="1" stop-color="#F6D751"/>
</linearGradient>
</defs>
</svg>
