<svg width="32" height="32" viewBox="0 0 32 32" fill="none" xmlns="http://www.w3.org/2000/svg">
<g clip-path="url(#clip0_4001_2772)">
<path d="M26.3999 9.86668H31.4186C31.5061 9.86708 31.5926 9.84766 31.6715 9.80987C31.7505 9.77208 31.8198 9.71691 31.8744 9.64848C31.929 9.58006 31.9673 9.50016 31.9866 9.41479C32.0059 9.32943 32.0056 9.2408 31.9857 9.15557L29.9946 0.453342C29.9658 0.324185 29.8936 0.20878 29.7901 0.126309C29.6866 0.0438377 29.558 -0.000731492 29.4257 9.08238e-06H24.4053C24.3179 -0.00012758 24.2316 0.0194905 24.1529 0.0573961C24.0742 0.0953017 24.0051 0.150514 23.9507 0.218903C23.8963 0.287293 23.8581 0.36709 23.8389 0.452326C23.8198 0.537563 23.8201 0.626033 23.8399 0.71112L25.831 9.41512C25.8601 9.54335 25.9319 9.6579 26.0346 9.73995C26.1373 9.82201 26.2649 9.8667 26.3964 9.86668H26.3999ZM2.57238 32H7.59282C7.68019 32.0001 7.76646 31.9805 7.84517 31.9426C7.92389 31.9047 7.99302 31.8495 8.04739 31.7811C8.10176 31.7127 8.13996 31.6329 8.15914 31.5477C8.17832 31.4625 8.17799 31.374 8.15815 31.2889L6.16704 22.5849C6.138 22.4567 6.06623 22.3421 5.9635 22.2601C5.86077 22.178 5.73319 22.1333 5.60171 22.1333H0.581265C0.493747 22.1329 0.407274 22.1524 0.328334 22.1901C0.249394 22.2279 0.180038 22.2831 0.12547 22.3515C0.070902 22.42 0.032539 22.4999 0.0132599 22.5852C-0.00601915 22.6706 -0.00571365 22.7592 0.0141535 22.8445L2.00526 31.5485C2.03437 31.677 2.10641 31.7918 2.2095 31.8738C2.3126 31.9559 2.44059 32.0004 2.57238 32Z" fill="#0078D4"/>
<path d="M22.3768 32H2.66832C2.58823 31.9999 2.50918 31.9817 2.43706 31.9469C2.36494 31.9121 2.3016 31.8614 2.25173 31.7987C2.20186 31.7361 2.16675 31.6629 2.149 31.5848C2.13125 31.5067 2.13132 31.4256 2.14921 31.3476L9.22477 0.41423C9.25184 0.296063 9.31836 0.190645 9.41337 0.115349C9.50838 0.0400522 9.62621 -0.00062965 9.74744 7.36884e-06H29.4559C29.5361 -0.000147104 29.6154 0.0178089 29.6877 0.0525376C29.7601 0.0872662 29.8236 0.137872 29.8737 0.200585C29.9238 0.263297 29.959 0.3365 29.9769 0.414737C29.9947 0.492975 29.9947 0.574232 29.9768 0.652452L22.8994 31.5858C22.8724 31.7037 22.8062 31.8088 22.7115 31.8841C22.6169 31.9594 22.4995 32.0002 22.3785 32H22.3768Z" fill="url(#paint0_linear_4001_2772)"/>
<path d="M21.6882 16.037L14.0135 7.28857L11.8268 9.2068L17.5833 15.7686L11.0215 21.525L12.9397 23.7117L21.6882 16.037Z" fill="#C3F1FF"/>
</g>
<defs>
<linearGradient id="paint0_linear_4001_2772" x1="16.0621" y1="7.36885e-06" x2="16.0621" y2="32" gradientUnits="userSpaceOnUse">
<stop stop-color="#5EA0EF"/>
<stop offset="0.201" stop-color="#5A9EEE"/>
<stop offset="0.41" stop-color="#4D99EA"/>
<stop offset="0.622" stop-color="#3990E4"/>
<stop offset="0.835" stop-color="#1C84DC"/>
<stop offset="1" stop-color="#0078D4"/>
</linearGradient>
<clipPath id="clip0_4001_2772">
<rect width="32" height="32" fill="white"/>
</clipPath>
</defs>
</svg>
