<svg width="32" height="32" viewBox="0 0 32 32" fill="none" xmlns="http://www.w3.org/2000/svg">
<path d="M11.0503 0.888916H5.0574C4.81787 0.888916 4.58068 0.936095 4.35938 1.02776C4.13809 1.11942 3.93701 1.25378 3.76764 1.42315C3.59826 1.59253 3.46391 1.7936 3.37224 2.0149C3.28058 2.2362 3.2334 2.47338 3.2334 2.71292V8.71114H6.8814V4.53692H11.0503V0.888916Z" fill="#32BEDD"/>
<path d="M26.9413 0.888916H20.9502V4.53692H25.1173V8.71114H28.7653V2.71292C28.7653 2.47338 28.7181 2.2362 28.6265 2.0149C28.5348 1.7936 28.4004 1.59253 28.2311 1.42315C28.0617 1.25378 27.8606 1.11942 27.6393 1.02776C27.418 0.936095 27.1808 0.888916 26.9413 0.888916Z" fill="#32BEDD"/>
<path d="M25.1173 23.2886V27.4575H20.9502V31.1108H26.9413C27.4251 31.1108 27.889 30.9186 28.2311 30.5766C28.5731 30.2345 28.7653 29.7706 28.7653 29.2868V23.2886H25.1173Z" fill="#32BEDD"/>
<path d="M6.88141 27.4628V23.2886H3.23341V29.2815C3.2327 29.5214 3.27937 29.7592 3.37072 29.9811C3.46207 30.203 3.59631 30.4047 3.76575 30.5747C3.9352 30.7446 4.13651 30.8794 4.35816 30.9714C4.5798 31.0634 4.81743 31.1108 5.05741 31.1108H11.0503V27.4628H6.88141Z" fill="#32BEDD"/>
<path d="M6.6199 28.7667H25.379C25.655 28.7657 25.9195 28.6557 26.1146 28.4605C26.3098 28.2653 26.4199 28.0009 26.4208 27.7249V4.26712C26.4199 3.99111 26.3098 3.72668 26.1146 3.53151C25.9195 3.33634 25.655 3.22628 25.379 3.22534H6.6199C6.34389 3.22628 6.07946 3.33634 5.88429 3.53151C5.68912 3.72668 5.57906 3.99111 5.57812 4.26712V27.7338C5.58139 28.0083 5.69248 28.2704 5.8874 28.4637C6.08231 28.6569 6.34542 28.7658 6.6199 28.7667Z" fill="url(#paint0_linear_4001_2979)"/>
<path d="M8.17714 26.6828H23.8216C23.9596 26.6824 24.0918 26.6273 24.1894 26.5298C24.287 26.4322 24.342 26.3 24.3425 26.1619V5.84017C24.3425 5.70186 24.2877 5.56919 24.19 5.47122C24.0924 5.37325 23.9599 5.31798 23.8216 5.3175H8.17714C8.03883 5.31798 7.90634 5.37325 7.80871 5.47122C7.71107 5.56919 7.65625 5.70186 7.65625 5.84017V26.1619C7.65672 26.3 7.71175 26.4322 7.80933 26.5298C7.90692 26.6273 8.03913 26.6824 8.17714 26.6828Z" fill="white"/>
<path d="M11.8305 23.5554H20.1682C20.3062 23.5549 20.4385 23.4999 20.536 23.4023C20.6336 23.3047 20.6887 23.1725 20.6891 23.0345V20.6896C20.6887 20.5516 20.6336 20.4194 20.536 20.3218C20.4385 20.2242 20.3062 20.1692 20.1682 20.1687H11.8305C11.6925 20.1692 11.5602 20.2242 11.4627 20.3218C11.3651 20.4194 11.31 20.5516 11.3096 20.6896V23.0345C11.31 23.1725 11.3651 23.3047 11.4627 23.4023C11.5602 23.4999 11.6925 23.5549 11.8305 23.5554Z" fill="#5E9624"/>
<path d="M11.8305 17.6941H20.1682C20.3062 17.6936 20.4385 17.6386 20.536 17.541C20.6336 17.4434 20.6887 17.3112 20.6891 17.1732V14.8283C20.6891 14.69 20.6343 14.5573 20.5367 14.4594C20.439 14.3614 20.3065 14.3061 20.1682 14.3057H11.8305C11.6921 14.3061 11.5597 14.3614 11.462 14.4594C11.3644 14.5573 11.3096 14.69 11.3096 14.8283V17.1732C11.31 17.3112 11.3651 17.4434 11.4627 17.541C11.5602 17.6386 11.6925 17.6936 11.8305 17.6941Z" fill="#76BC2D"/>
<path d="M11.8305 11.8311H20.1682C20.3062 11.8307 20.4385 11.7756 20.536 11.678C20.6336 11.5805 20.6887 11.4482 20.6891 11.3102V8.96535C20.6887 8.82734 20.6336 8.69512 20.536 8.59754C20.4385 8.49996 20.3062 8.44493 20.1682 8.44446H11.8305C11.6925 8.44493 11.5602 8.49996 11.4627 8.59754C11.3651 8.69512 11.31 8.82734 11.3096 8.96535V11.3102C11.31 11.4482 11.3651 11.5805 11.4627 11.678C11.5602 11.7756 11.6925 11.8307 11.8305 11.8311Z" fill="#86D633"/>
<defs>
<linearGradient id="paint0_linear_4001_2979" x1="15.9995" y1="28.7667" x2="15.9995" y2="3.23423" gradientUnits="userSpaceOnUse">
<stop stop-color="#198AB3"/>
<stop offset="0.619" stop-color="#31D0F1"/>
<stop offset="1" stop-color="#32D4F5"/>
</linearGradient>
</defs>
</svg>
