<svg width="38" height="38" viewBox="0 0 38 38" fill="none" xmlns="http://www.w3.org/2000/svg">
<path d="M37.2823 6.03793L32.2367 1.0346C32.1199 0.911912 31.9789 0.814794 31.8227 0.749386C31.6664 0.683977 31.4983 0.651701 31.3289 0.654598L21.9767 1.01349C21.8149 1.00574 21.6534 1.03389 21.5037 1.09594C21.3541 1.15799 21.22 1.25239 21.1112 1.37238L0.71783 21.6813C0.487062 21.9145 0.35762 22.2293 0.35762 22.5574C0.35762 22.8855 0.487062 23.2003 0.71783 23.4335L14.3134 36.9657C14.5502 37.1978 14.8685 37.3278 15.2001 37.3278C15.5316 37.3278 15.8499 37.1978 16.0867 36.9657L36.5434 16.6357C36.7535 16.4273 36.881 16.1498 36.9023 15.8546L37.6412 7.00904C37.6574 6.83067 37.6336 6.65092 37.5715 6.48292C37.5094 6.31491 37.4106 6.16289 37.2823 6.03793ZM31.2023 9.35238C30.7504 9.35236 30.3088 9.21809 29.9334 8.96661C29.558 8.71514 29.2658 8.3578 29.0939 7.93995C28.922 7.5221 28.8781 7.06259 28.9678 6.61975C29.0575 6.17691 29.2767 5.7707 29.5977 5.45269C29.9187 5.13468 30.3269 4.91922 30.7706 4.83364C31.2142 4.74807 31.6733 4.79624 32.0895 4.97205C32.5058 5.14786 32.8604 5.44338 33.1083 5.82109C33.3563 6.1988 33.4865 6.64167 33.4823 7.09349C33.4823 7.39191 33.4232 7.68738 33.3083 7.96283C33.1935 8.23828 33.0252 8.48824 32.8132 8.69827C32.6012 8.90831 32.3497 9.07426 32.0732 9.18653C31.7967 9.2988 31.5007 9.35516 31.2023 9.35238Z" fill="url(#paint0_linear)"/>
<path d="M31.2023 3.03995C30.4016 3.04412 29.62 3.28538 28.9562 3.7333C28.2924 4.18121 27.7762 4.8157 27.4726 5.55671C27.1691 6.29772 27.0918 7.11203 27.2506 7.89691C27.4094 8.68178 27.7971 9.40204 28.3648 9.9668C28.9325 10.5316 29.6547 10.9155 30.4404 11.0702C31.2261 11.2249 32.04 11.1434 32.7794 10.836C33.5188 10.5286 34.1506 10.0091 34.5951 9.34298C35.0396 8.67688 35.2768 7.89405 35.2768 7.09328C35.2712 6.01633 34.8395 4.9854 34.076 4.22585C33.3125 3.4663 32.2793 3.03993 31.2023 3.03995V3.03995ZM33.4401 7.53661C33.3595 7.94154 33.1705 8.317 32.8932 8.6229C32.616 8.9288 32.2608 9.15367 31.8657 9.27351C31.4706 9.39335 31.0504 9.40365 30.6499 9.30333C30.2494 9.203 29.8837 8.99581 29.5917 8.70387C29.2998 8.41193 29.0926 8.04619 28.9923 7.6457C28.892 7.2452 28.9023 6.82498 29.0221 6.42989C29.1419 6.03479 29.3668 5.67965 29.6727 5.40237C29.9786 5.12509 30.3541 4.93608 30.759 4.8555C31.1268 4.78233 31.5069 4.80098 31.8657 4.90982C32.2246 5.01866 32.551 5.21432 32.8161 5.47946C33.0813 5.74461 33.277 6.07106 33.3858 6.42989C33.4946 6.78872 33.5133 7.16885 33.4401 7.53661V7.53661Z" fill="#552F99"/>
<defs>
<linearGradient id="paint0_linear" x1="19.0001" y1="0.654598" x2="19.0001" y2="37.3457" gradientUnits="userSpaceOnUse">
<stop stop-color="#C69AEB"/>
<stop offset="0.09" stop-color="#BB90E4"/>
<stop offset="0.49" stop-color="#926BC9"/>
<stop offset="0.81" stop-color="#7854B8"/>
<stop offset="1" stop-color="#6F4BB2"/>
</linearGradient>
</defs>
</svg>
