<svg width="50" height="50" viewBox="0 0 50 50" fill="none" xmlns="http://www.w3.org/2000/svg">
<path d="M48.6111 26.2222C48.5625 23.6762 47.607 21.231 45.9164 19.3265C44.2259 17.4221 41.9112 16.1834 39.3889 15.8333C39.2798 12.2844 37.7742 8.92199 35.1994 6.47719C32.6246 4.03239 29.1887 2.7029 25.6389 2.77778C22.7642 2.74822 19.9512 3.61143 17.5879 5.24833C15.2246 6.88523 13.4275 9.21514 12.4444 11.9167C9.41329 12.3031 6.6225 13.7676 4.58231 16.0425C2.54212 18.3173 1.38884 21.2504 1.33331 24.3056C1.38008 26.0057 1.76141 27.6799 2.45552 29.2325C3.14962 30.7852 4.14289 32.1858 5.37856 33.3544C6.61423 34.523 8.06808 35.4367 9.65701 36.0431C11.2459 36.6496 12.9388 36.937 14.6389 36.8889C15.0273 36.9161 15.4171 36.9161 15.8055 36.8889H37.3333C37.5174 36.918 37.7048 36.918 37.8889 36.8889C40.7141 36.8602 43.4164 35.729 45.4194 33.7363C47.4225 31.7437 48.5678 29.0473 48.6111 26.2222Z" fill="url(#paint0_linear)"/>
<path d="M40.3611 42.0555L34.8056 48C34.7119 48.0935 34.5944 48.1595 34.4657 48.1908C34.3371 48.222 34.2024 48.2174 34.0762 48.1772C33.9501 48.1371 33.8374 48.063 33.7505 47.9632C33.6636 47.8634 33.6057 47.7416 33.5834 47.6111L30.2223 31.2222C30.212 31.0913 30.2375 30.96 30.2963 30.8425C30.355 30.7251 30.4447 30.6258 30.5556 30.5555L34.2223 29.0555C34.3924 28.9885 34.5816 28.9885 34.7517 29.0555C34.9219 29.1225 35.0602 29.2516 35.1389 29.4166L40.5556 41.3611C40.5932 41.4833 40.5949 41.6137 40.5604 41.7369C40.5259 41.86 40.4567 41.9706 40.3611 42.0555Z" fill="#37C2B1"/>
<path d="M22.2222 42.0555L27.7778 47.9999C27.8714 48.0935 27.989 48.1595 28.1176 48.1908C28.2463 48.222 28.381 48.2173 28.5072 48.1772C28.6333 48.137 28.746 48.063 28.8329 47.9632C28.9198 47.8633 28.9776 47.7415 29 47.611L32.3611 31.2222C32.3874 31.0647 32.3608 30.903 32.2854 30.7622C32.21 30.6215 32.0901 30.5097 31.9445 30.4444L28.2778 28.9444C28.1077 28.8774 27.9184 28.8773 27.7483 28.9444C27.5782 29.0114 27.4398 29.1404 27.3611 29.3055L21.9445 41.2499C21.8895 41.3955 21.8871 41.5558 21.9378 41.7029C21.9886 41.85 22.0892 41.9748 22.2222 42.0555Z" fill="#42E8CA"/>
<path d="M32.1666 16.6667L32.8889 16.0555C33.1188 15.8678 33.413 15.7772 33.7088 15.8031C34.0045 15.8291 34.2785 15.9695 34.4722 16.1944C34.5575 16.2923 34.6235 16.4054 34.6666 16.5278L35 17.4167C35.0971 17.6599 35.2731 17.8633 35.4999 17.9943C35.7266 18.1253 35.9908 18.1762 36.25 18.1389L37.1666 17.9722C37.461 17.9236 37.7626 17.9924 38.0067 18.1638C38.2509 18.3352 38.418 18.5956 38.4722 18.8889C38.5 19.017 38.5 19.1496 38.4722 19.2778L38.3055 20.1944C38.2682 20.4536 38.3191 20.7178 38.4501 20.9446C38.5811 21.1713 38.7846 21.3474 39.0278 21.4444L39.9166 21.75C40.1963 21.8619 40.4219 22.0776 40.5462 22.352C40.6704 22.6264 40.6838 22.9382 40.5833 23.2222C40.529 23.3391 40.4639 23.4507 40.3889 23.5555L39.7778 24.25C39.6155 24.4558 39.5273 24.7102 39.5273 24.9722C39.5273 25.2342 39.6155 25.4887 39.7778 25.6944L40.3889 26.4167C40.4838 26.5308 40.5548 26.6627 40.5979 26.8047C40.641 26.9467 40.6552 27.0959 40.6396 27.2435C40.6241 27.3911 40.5792 27.5341 40.5075 27.664C40.4358 27.7939 40.3388 27.9082 40.2222 28C40.1314 28.0807 40.0282 28.1463 39.9166 28.1944L39.0278 28.5278C38.7782 28.616 38.5684 28.7903 38.436 29.0195C38.3036 29.2487 38.2573 29.5175 38.3055 29.7778L38.4722 30.6944C38.5 30.8389 38.498 30.9876 38.4665 31.1313C38.4349 31.2751 38.3744 31.4108 38.2886 31.5304C38.2028 31.65 38.0936 31.7508 37.9675 31.8268C37.8415 31.9027 37.7013 31.9522 37.5555 31.9722C37.4274 32 37.2948 32 37.1666 31.9722H36.25C35.9898 31.924 35.7209 31.9703 35.4917 32.1027C35.2626 32.2351 35.0882 32.4449 35 32.6944L34.6666 33.5555C34.6171 33.6953 34.5402 33.8237 34.4403 33.9332C34.3404 34.0428 34.2196 34.1312 34.0849 34.1933C33.9503 34.2555 33.8047 34.29 33.6565 34.295C33.5083 34.2999 33.3607 34.2752 33.2222 34.2222C33.0998 34.179 32.9867 34.1131 32.8889 34.0278L32.1944 33.3333C31.9932 33.1612 31.737 33.0666 31.4722 33.0666C31.2074 33.0666 30.9512 33.1612 30.75 33.3333L30.0278 33.9167C29.9154 34.0131 29.7849 34.0862 29.6439 34.1315C29.503 34.1768 29.3544 34.1935 29.2069 34.1805C29.0593 34.1676 28.9159 34.1253 28.785 34.0561C28.654 33.987 28.5383 33.8923 28.4444 33.7778C28.3482 33.6883 28.2805 33.5723 28.25 33.4444L27.9166 32.5833C27.8335 32.3304 27.66 32.1169 27.4295 31.9837C27.1989 31.8504 26.9273 31.8068 26.6666 31.8611L25.75 32.0278C25.6022 32.0515 25.4513 32.046 25.3057 32.0114C25.1601 31.9768 25.0227 31.9138 24.9015 31.8261C24.7802 31.7384 24.6775 31.6277 24.599 31.5002C24.5206 31.3728 24.4681 31.2311 24.4444 31.0833C24.4171 30.9645 24.4171 30.841 24.4444 30.7222L24.6111 29.8055C24.6593 29.5453 24.613 29.2764 24.4806 29.0473C24.3482 28.8181 24.1384 28.6437 23.8889 28.5555L23.0278 28.2222C22.7412 28.1378 22.4979 27.9468 22.3481 27.6884C22.1982 27.43 22.1531 27.1239 22.2222 26.8333C22.2766 26.7164 22.3417 26.6048 22.4166 26.5L23.0278 25.7778C23.19 25.572 23.2782 25.3176 23.2782 25.0555C23.2782 24.7935 23.19 24.5391 23.0278 24.3333L22.4166 23.6389C22.321 23.5225 22.2494 23.3883 22.2059 23.2441C22.1625 23.0998 22.1481 22.9484 22.1636 22.7985C22.1791 22.6487 22.2242 22.5034 22.2963 22.3711C22.3683 22.2388 22.4659 22.1221 22.5833 22.0278C22.6754 21.9403 22.7914 21.8823 22.9166 21.8611L23.7778 21.5278C24.021 21.4307 24.2244 21.2546 24.3554 21.0279C24.4864 20.8012 24.5373 20.5369 24.5 20.2778L24.4444 19.4444C24.3958 19.1501 24.4646 18.8485 24.636 18.6044C24.8074 18.3602 25.0678 18.1931 25.3611 18.1389H25.75L26.6666 18.3055C26.9264 18.3481 27.1928 18.2995 27.4207 18.1678C27.6486 18.0361 27.8238 17.8296 27.9166 17.5833L28.25 16.6667C28.3561 16.389 28.5666 16.1639 28.8365 16.0393C29.1064 15.9148 29.4143 15.9006 29.6944 16L30.0278 16.1944L30.75 16.8055C30.9668 16.9468 31.2252 17.0099 31.4827 16.9847C31.7402 16.9595 31.9814 16.8473 32.1666 16.6667Z" fill="#005BA1"/>
<path d="M31.4722 31.6111C35.0927 31.6111 38.0277 28.6761 38.0277 25.0556C38.0277 21.435 35.0927 18.5 31.4722 18.5C27.8516 18.5 24.9166 21.435 24.9166 25.0556C24.9166 28.6761 27.8516 31.6111 31.4722 31.6111Z" fill="#FFCA00"/>
<defs>
<linearGradient id="paint0_linear" x1="25" y1="-2.44444" x2="25" y2="44.4722" gradientUnits="userSpaceOnUse">
<stop offset="0.22" stop-color="#32D4F5"/>
<stop offset="0.43" stop-color="#31D1F2"/>
<stop offset="0.6" stop-color="#2DC6E9"/>
<stop offset="0.76" stop-color="#28B5D9"/>
<stop offset="0.91" stop-color="#1F9DC4"/>
<stop offset="1" stop-color="#198AB3"/>
</linearGradient>
</defs>
</svg>
