<svg viewBox="0 0 18 18" class="" role="presentation" focusable="false" xmlns="http://www.w3.org/2000/svg" xmlns:xlink="http://www.w3.org/1999/xlink" id="FxSymbol0-01b" data-type="1"><g><path fill="#86d633" d="M12.191 1.009 8.598 7.403 4.797 3.53.88 8.609l.918.721 3.107-4.008L8.85 9.348l4.359-7.754-1.018-.585z"></path><ellipse cx="4.842" cy="4.422" rx="1.477" ry="1.486" fill="url(#aefbabcb-78d2-41e6-b685-56399f103020)"></ellipse><ellipse cx="8.85" cy="8.105" rx="1.477" ry="1.486" fill="url(#aefbabcb-78d2-41e6-b685-56399f103021)"></ellipse><ellipse cx="12.569" cy="1.486" rx="1.477" ry="1.486" fill="url(#aefbabcb-78d2-41e6-b685-56399f103022)"></ellipse><ellipse cx="1.492" cy="8.754" rx="1.477" ry="1.486" fill="url(#aefbabcb-78d2-41e6-b685-56399f103023)"></ellipse><rect x="4.032" y="8.483" width="2.323" height="6.826" rx=".252" ry=".252" fill="#0078d4"></rect><rect x=".33" y="10.843" width="2.323" height="4.467" rx=".252" ry=".252" fill="#5ea0ef"></rect><path d="m9.337 14.909-.254-.852a3.38 3.38 0 0 1-.139-.961c0-.751.317-1.556.878-2.251l-.017-.002H7.986a.252.252 0 0 0-.252.252v3.963c0 .139.113.252.252.252h1.142c.066-.134.134-.268.21-.4Zm3.595-5.804c.28-.037.556-.067.826-.089V6.448a.252.252 0 0 0-.252-.252h-1.819a.252.252 0 0 0-.252.252V9.56a4.883 4.883 0 0 1 1.498-.455Z" fill="#005ba1"></path><path d="M8.991 17.35c.048-.789.404-1.751 1.008-2.657.195-.331.436-.668.724-.995a7.268 7.268 0 0 1 3.674-2.248.408.408 0 1 0-.199-.792 8.09 8.09 0 0 0-4.09 2.502 7.515 7.515 0 0 0-.594.77 2.92 2.92 0 0 1-.121-.833c0-.749.381-1.564.986-2.209a4.353 4.353 0 0 1 2.611-1.335c2.289-.303 3.709-.05 4.546.186a.614.614 0 0 1 .173 1.101c-.047.031-.122.106-.213.278-.09.17-.174.393-.261.674-.072.232-.14.483-.214.756l-.047.173c-.091.335-.191.695-.312 1.051-.239.705-.575 1.456-1.142 2.033-.588.599-1.385.972-2.451.972-1.086 0-1.845-.44-2.329-.947-.33.605-.502 1.174-.527 1.594a.614.614 0 0 1-1.224-.074Z" fill="url(#aefbabcb-78d2-41e6-b685-56399f103024)"></path><path d="M8.991 17.35c.048-.789.404-1.751 1.008-2.657.195-.331.436-.668.724-.995a7.268 7.268 0 0 1 3.674-2.248c1.572-.37 3.124-1.292 2.009-1.944.567.071.934.18 1.132.233a.613.613 0 0 1 .173 1.101c-.047.031-.122.106-.213.278-.09.17-.174.393-.261.674-.072.232-.14.483-.214.756l-.047.173c-.091.335-.191.695-.312 1.051-.239.705-.575 1.456-1.142 2.033-.588.599-1.385.972-2.451.972-1.086 0-1.845-.44-2.329-.947-.33.605-.502 1.174-.527 1.594a.614.614 0 0 1-1.224-.074Z" fill="url(#aefbabcb-78d2-41e6-b685-56399f103025)"></path></g><defs>
<linearGradient id="aefbabcb-78d2-41e6-b685-56399f103020" x1="-559.158" y1="1019.608" x2="-559.158" y2="1022.58" gradientTransform="matrix(1 0 0 -1 564 1025.516)" gradientUnits="userSpaceOnUse"><stop offset="0" stop-color="#5e9624"></stop><stop offset=".999" stop-color="#76bc2d"></stop></linearGradient>
<linearGradient id="aefbabcb-78d2-41e6-b685-56399f103021" x1="-555.15" y1="1015.925" x2="-555.15" y2="1018.888" gradientTransform="matrix(1 0 0 -1 564 1025.516)" gradientUnits="userSpaceOnUse"><stop offset="0" stop-color="#5e9624"></stop><stop offset=".999" stop-color="#76bc2d"></stop></linearGradient>
<linearGradient id="aefbabcb-78d2-41e6-b685-56399f103022" x1="-551.431" y1="1022.553" x2="-551.431" y2="1025.516" gradientTransform="matrix(1 0 0 -1 564 1025.516)" gradientUnits="userSpaceOnUse"><stop offset="0" stop-color="#5e9624"></stop><stop offset=".999" stop-color="#76bc2d"></stop></linearGradient>
<linearGradient id="aefbabcb-78d2-41e6-b685-56399f103023" x1="-562.508" y1="1015.285" x2="-562.508" y2="1018.248" gradientTransform="matrix(1 0 0 -1 564 1025.516)" gradientUnits="userSpaceOnUse"><stop offset="0" stop-color="#5e9624"></stop><stop offset=".999" stop-color="#76bc2d"></stop></linearGradient>
<linearGradient id="aefbabcb-78d2-41e6-b685-56399f103024" x1="7.751" y1="13.706" x2="16.745" y2="13.706" gradientUnits="userSpaceOnUse"><stop offset=".496" stop-color="#5e9624"></stop><stop offset=".999" stop-color="#365615"></stop></linearGradient>
<linearGradient id="aefbabcb-78d2-41e6-b685-56399f103025" x1="13.488" y1="18" x2="13.488" y2="9.505" gradientUnits="userSpaceOnUse"><stop offset=".001" stop-color="#76bc2d"></stop><stop offset="1" stop-color="#86d633"></stop></linearGradient>
</defs>
</svg>