<svg width="32" height="32" viewBox="0 0 32 32" fill="none" xmlns="http://www.w3.org/2000/svg">
<path d="M25.6887 15.6445H6.54199V24.2668C6.54199 26.5068 10.8264 28.3379 16.2131 28.3379C21.5998 28.3379 25.8842 26.5601 25.8842 24.2668L25.6887 15.6445Z" fill="#773ADC"/>
<path d="M14.9154 3.84033L0.69315 11.1114C0.42029 11.2811 0.222401 11.5484 0.139818 11.8589C0.057236 12.1694 0.0961775 12.4998 0.248705 12.7826C0.34186 12.9904 0.497126 13.1643 0.69315 13.2803L14.9154 19.467C15.1205 19.5545 15.3412 19.5997 15.5643 19.5997C15.7873 19.5997 16.008 19.5545 16.2132 19.467L31.2887 13.2448C31.5675 13.0807 31.7738 12.8171 31.8662 12.5071C31.9585 12.1971 31.93 11.8636 31.7865 11.5737C31.6847 11.3453 31.5095 11.1576 31.2887 11.0403L16.2487 3.80478C16.0382 3.70958 15.8089 3.66333 15.578 3.66949C15.347 3.67565 15.1205 3.73406 14.9154 3.84033Z" fill="url(#paint0_linear_359_25674)"/>
<path d="M28.16 18.1337C28.0959 17.7984 27.956 17.4822 27.7511 17.2092C26.7395 15.4269 25.1633 14.032 23.2711 13.2448L17.0844 10.667L15.1111 12.0714L21.3333 14.7203C23.5 15.606 25.2351 17.3028 26.1689 19.4492C26.4422 20.4239 26.6091 21.4253 26.6666 22.4359L28.16 18.1337ZM26.9511 22.4359L27.6978 20.9603L28.64 22.1692H28.8177C28.9094 20.7898 28.6781 19.408 28.1422 18.1337L26.9511 22.4359Z" fill="#50E6FF"/>
<path d="M15.893 12.6932C17.2086 12.6932 18.2752 12.1519 18.2752 11.4843C18.2752 10.8166 17.2086 10.2754 15.893 10.2754C14.5773 10.2754 13.5107 10.8166 13.5107 11.4843C13.5107 12.1519 14.5773 12.6932 15.893 12.6932Z" fill="#552F99"/>
<defs>
<linearGradient id="paint0_linear_359_25674" x1="15.9998" y1="-1.58189" x2="15.9998" y2="22.9159" gradientUnits="userSpaceOnUse">
<stop offset="0.13" stop-color="#773ADC"/>
<stop offset="0.23" stop-color="#8249E2"/>
<stop offset="0.43" stop-color="#9664EC"/>
<stop offset="0.6" stop-color="#A274F2"/>
<stop offset="0.74" stop-color="#A67AF4"/>
</linearGradient>
</defs>
</svg>
