<svg width="276" height="276" viewBox="0 0 276 276" fill="none" xmlns="http://www.w3.org/2000/svg">
<path d="M130.145 4.46016L24.6027 64.4294C19.6292 67.2557 16.5601 72.5328 16.5601 78.2515V197.748C16.5601 203.467 19.6292 208.744 24.6027 211.571L130.145 271.54C135.014 274.305 140.981 274.305 145.855 271.54L251.397 211.571C256.371 208.744 259.44 203.467 259.44 197.748V78.2515C259.44 72.5328 256.371 67.2557 251.397 64.4294L145.855 4.46016C140.981 1.69464 135.019 1.69464 130.145 4.46016Z" fill="url(#paint0_linear_710_3)"/>
<g style="mix-blend-mode:luminosity" filter="url(#filter0_d_710_3)">
<path d="M120.045 95.1143L208.358 183.428C214.547 189.617 214.547 199.652 208.358 205.841C202.169 212.03 192.134 212.03 185.945 205.841L97.6317 117.527L120.045 95.1143Z" fill="url(#paint1_linear_710_3)"/>
<path d="M68.9772 110.337C73.1262 106.188 78.1758 107.796 83.6013 110.662C83.7753 110.754 83.9346 110.873 84.0738 111.012L101.002 127.94C101.102 128.04 101.191 128.15 101.267 128.269C104.788 133.822 105.166 139.511 101.912 142.766L95.9501 148.559C95.4231 149.086 94.5687 149.086 94.0417 148.559L63.3952 117.912C62.8683 117.385 62.8683 116.531 63.3952 116.004L68.9772 110.337Z" fill="white"/>
<path d="M125.222 88.1315C124.172 89.1861 124.174 90.8918 125.226 91.9442L136.779 103.497C137.623 104.34 137.623 105.707 136.779 106.551L109.007 134.323C108.164 135.166 106.797 135.166 105.954 134.323L80.9085 109.278C79.3275 107.697 79.3275 105.134 80.9085 103.553L116.3 68.1618C118.543 65.919 121.659 64.7759 124.82 65.0365L141.813 66.4369C143.644 66.5877 144.462 68.8104 143.165 70.112L125.222 88.1315Z" fill="white"/>
<path d="M125.222 88.1315C124.172 89.1861 124.174 90.8918 125.226 91.9442L136.779 103.497C137.623 104.34 137.623 105.707 136.779 106.551L109.007 134.323C108.164 135.166 106.797 135.166 105.954 134.323L80.9085 109.278C79.3275 107.697 79.3275 105.134 80.9085 103.553L116.3 68.1618C118.543 65.919 121.659 64.7759 124.82 65.0365L141.813 66.4369C143.644 66.5877 144.462 68.8104 143.165 70.112L125.222 88.1315Z" fill="white"/>
<path d="M88.5165 116.83C88.2997 116.624 88.3111 116.275 88.5409 116.083L121.55 88.587C121.75 88.42 122.046 88.4353 122.228 88.6221L137.981 104.774C138.171 104.97 138.17 105.282 137.978 105.476L108.514 135.16C108.322 135.353 108.012 135.358 107.815 135.17L88.5165 116.83Z" fill="white"/>
<path d="M192.882 70.5084C194.727 70.995 195.176 73.2705 193.827 74.6194L180.744 87.7022C179.163 89.2832 179.163 91.8464 180.744 93.4273L189.104 101.787C190.685 103.368 193.248 103.368 194.829 101.787L207.959 88.6563C209.305 87.3112 211.574 87.7531 212.069 89.5896C212.676 91.8395 212.999 94.2054 212.999 96.6469C212.999 111.575 200.897 123.677 185.969 123.677C183.623 123.677 181.346 123.379 179.176 122.817C177.981 122.508 176.692 122.792 175.819 123.665L129.459 170.025C128.592 170.892 128.305 172.17 128.604 173.358C129.137 175.475 129.42 177.691 129.42 179.974C129.42 194.902 117.318 207.004 102.389 207.004C99.9994 207.004 97.6821 206.694 95.4754 206.112C93.6308 205.626 93.1815 203.35 94.5306 202.001L107.613 188.918C109.194 187.337 109.194 184.774 107.613 183.193L99.2539 174.834C97.6728 173.253 95.1097 173.253 93.5287 174.834L80.3982 187.964C79.053 189.309 76.7841 188.867 76.2886 187.031C75.6818 184.781 75.3583 182.415 75.3583 179.974C75.3583 165.045 87.4602 152.943 102.389 152.943C104.714 152.943 106.97 153.237 109.123 153.788C110.316 154.094 111.601 153.809 112.472 152.938L158.882 106.529C159.747 105.664 160.034 104.389 159.739 103.203C159.216 101.104 158.938 98.9078 158.938 96.6469C158.938 81.7183 171.04 69.6162 185.969 69.6162C188.358 69.6162 190.676 69.9263 192.882 70.5084Z" fill="white"/>
<rect x="160.899" y="104.554" width="24.0931" height="69.7748" transform="rotate(45 160.899 104.554)" fill="white"/>
<path d="M94.5306 202.001C93.1816 203.35 93.6308 205.626 95.4754 206.112C97.6822 206.694 99.9994 207.004 102.389 207.004C117.318 207.004 129.42 194.902 129.42 179.974C129.42 165.045 117.318 152.943 102.389 152.943C87.4602 152.943 75.3583 165.045 75.3583 179.974C75.3583 182.415 75.6819 184.781 76.2887 187.031C76.7841 188.868 79.0529 189.309 80.398 187.964L93.5287 174.834C95.1097 173.253 97.6728 173.253 99.2539 174.834L107.613 183.193C109.194 184.774 109.194 187.337 107.613 188.918L94.5306 202.001Z" fill="white"/>
<path d="M192.882 70.5084C194.727 70.995 195.176 73.2705 193.827 74.6194L180.744 87.7021C179.163 89.2832 179.163 91.8464 180.744 93.4273L189.104 101.787C190.685 103.368 193.248 103.368 194.829 101.787L207.959 88.6563C209.305 87.3112 211.573 87.753 212.069 89.5896C212.676 91.8394 212.999 94.2054 212.999 96.6468C212.999 111.575 200.897 123.677 185.969 123.677C184.055 123.677 182.188 123.479 180.387 123.1C179.458 122.905 178.624 122.411 177.953 121.74L160.876 104.663C160.204 103.991 159.71 103.158 159.515 102.229C159.137 100.428 158.938 98.5604 158.938 96.6468C158.938 81.7183 171.04 69.6162 185.969 69.6162C188.358 69.6162 190.676 69.9263 192.882 70.5084Z" fill="white"/>
</g>
<defs>
<filter id="filter0_d_710_3" x="43" y="43" width="190" height="190" filterUnits="userSpaceOnUse" color-interpolation-filters="sRGB">
<feFlood flood-opacity="0" result="BackgroundImageFix"/>
<feColorMatrix in="SourceAlpha" type="matrix" values="0 0 0 0 0 0 0 0 0 0 0 0 0 0 0 0 0 0 127 0" result="hardAlpha"/>
<feOffset/>
<feGaussianBlur stdDeviation="10"/>
<feColorMatrix type="matrix" values="0 0 0 0 0 0 0 0 0 0 0 0 0 0 0 0 0 0 0.4 0"/>
<feBlend mode="normal" in2="BackgroundImageFix" result="effect1_dropShadow_710_3"/>
<feBlend mode="normal" in="SourceGraphic" in2="effect1_dropShadow_710_3" result="shape"/>
</filter>
<linearGradient id="paint0_linear_710_3" x1="67.424" y1="34.4399" x2="135.531" y2="271.171" gradientUnits="userSpaceOnUse">
<stop stop-color="#7B33C0"/>
<stop offset="1" stop-color="#4E2E7A"/>
</linearGradient>
<linearGradient id="paint1_linear_710_3" x1="203" y1="166.5" x2="165" y2="200.5" gradientUnits="userSpaceOnUse">
<stop offset="0.245" stop-color="white" stop-opacity="0.95"/>
<stop offset="1" stop-color="white" stop-opacity="0.75"/>
</linearGradient>
</defs>
</svg>
