<svg width="34" height="34" viewBox="0 0 34 34" fill="none" xmlns="http://www.w3.org/2000/svg">
<g clip-path="url(#clip0_711_24)">
<path d="M5.44313 2.63132L7.42457 0.33065C7.51488 0.226982 7.62634 0.143847 7.75145 0.0868317C7.87655 0.0298162 8.01242 0.00024106 8.14991 9.40184e-05H27.137C27.3242 -0.0182727 27.5131 0.00350631 27.6912 0.0639768C27.8693 0.124447 28.0325 0.222218 28.1698 0.35076C28.3071 0.479302 28.4154 0.635657 28.4875 0.809386C28.5595 0.983115 28.5937 1.17022 28.5877 1.3582V25.0562C28.588 25.1902 28.5603 25.3228 28.5063 25.4455C28.4523 25.5681 28.3732 25.6781 28.2741 25.7683L26.1359 27.7158H6.72757L5.41479 27.1642L5.44313 2.63132Z" fill="#005BA1"/>
<path d="M7.03894 2.61999L8.25161 1.23733C8.33167 1.14566 8.43038 1.07212 8.54112 1.02164C8.65187 0.971148 8.77212 0.944867 8.89383 0.94455H26.6362C26.7482 0.944549 26.8591 0.966646 26.9626 1.00958C27.0661 1.05251 27.1601 1.11542 27.2392 1.19473C27.3183 1.27403 27.381 1.36817 27.4237 1.47174C27.4664 1.57532 27.4883 1.6863 27.488 1.79833V24.3328C27.4884 24.4515 27.4639 24.569 27.416 24.6776C27.3682 24.7863 27.2982 24.8837 27.2104 24.9637L25.3215 26.6901L7.03894 2.61999Z" fill="white"/>
<path d="M14.4584 24.3666H8.43286C8.34703 24.3671 8.26487 24.4016 8.20435 24.4624C8.14383 24.5233 8.10986 24.6057 8.10986 24.6915V33.8111C8.11012 33.8414 8.11886 33.871 8.13511 33.8967C8.15135 33.9223 8.17444 33.9428 8.20177 33.956C8.22909 33.9692 8.25956 33.9744 8.28972 33.9712C8.31988 33.9679 8.34853 33.9563 8.37242 33.9376L11.3455 31.6067C11.3656 31.5919 11.3889 31.5822 11.4135 31.5784H11.4022L14.7833 28.9339V24.6877C14.7823 24.6022 14.7476 24.5205 14.6868 24.4604C14.626 24.4003 14.5439 24.3666 14.4584 24.3666Z" fill="url(#paint0_linear_711_24)"/>
<path d="M11.4026 31.5672L14.7837 28.9227V33.8338C14.7835 33.864 14.775 33.8935 14.7589 33.9191C14.7429 33.9447 14.7201 33.9653 14.6931 33.9786C14.666 33.9919 14.6358 33.9975 14.6057 33.9946C14.5757 33.9917 14.5471 33.9805 14.523 33.9623L11.4026 31.5672Z" fill="#76BC2D"/>
<path d="M25.1877 2.60472H5.50546C5.49356 2.60472 5.48177 2.60707 5.47077 2.61162C5.45977 2.61618 5.44977 2.62286 5.44135 2.63128C5.43293 2.6397 5.42625 2.64969 5.4217 2.66069C5.41714 2.67169 5.41479 2.68348 5.41479 2.69539V27.1641C5.41479 27.3309 5.48106 27.4909 5.59902 27.6088C5.71699 27.7268 5.87697 27.7931 6.04379 27.7931H25.1877C25.3547 27.7931 25.5149 27.7268 25.6331 27.6089C25.7514 27.491 25.8181 27.331 25.8186 27.1641V3.23372C25.8181 3.06673 25.7514 2.90674 25.6331 2.78884C25.5149 2.67093 25.3547 2.60472 25.1877 2.60472V2.60472Z" fill="url(#paint1_linear_711_24)"/>
<path d="M11.4448 11.6018V18.2961H10.0111V13.2225C9.92362 13.2944 9.82937 13.3576 9.72969 13.4114C9.61912 13.4753 9.50425 13.5315 9.38591 13.5795C9.26277 13.6301 9.1366 13.673 9.00813 13.708C8.88052 13.7429 8.75045 13.7682 8.61902 13.7835V12.5841C8.98518 12.4787 9.34011 12.3376 9.67869 12.1628C9.99525 12.0011 10.2968 11.8114 10.5797 11.5962L11.4448 11.6018Z" fill="white"/>
<path d="M15.6785 18.4112C14.1183 18.4112 13.3388 17.3163 13.34 15.1265C13.2822 14.2164 13.505 13.3105 13.9785 12.5311C14.1833 12.2393 14.4588 12.0042 14.7793 11.848C15.0998 11.6917 15.4546 11.6194 15.8107 11.6377C17.3331 11.6377 18.0944 12.7509 18.0944 14.9772C18.1503 15.8702 17.9329 16.759 17.471 17.5254C17.2728 17.8138 17.0039 18.0467 16.6901 18.2017C16.3763 18.3568 16.0281 18.4289 15.6785 18.4112V18.4112ZM15.7427 12.7446C15.1131 12.7446 14.7983 13.5285 14.7983 15.0962C14.7983 16.5734 15.1043 17.3119 15.7163 17.3119C16.3283 17.3119 16.6305 16.5488 16.6229 15.0226C16.6229 13.5001 16.3301 12.7389 15.7446 12.7389L15.7427 12.7446Z" fill="white"/>
<path d="M22.2063 11.6018V18.2961H20.7669V13.2225C20.6797 13.2948 20.5854 13.3581 20.4855 13.4114C20.3749 13.4753 20.26 13.5315 20.1417 13.5795C20.0187 13.6304 19.8925 13.6733 19.7639 13.708C19.6369 13.7427 19.5075 13.768 19.3767 13.7835V12.5841C19.7426 12.478 20.0975 12.337 20.4364 12.1628C20.7521 12.0006 21.053 11.811 21.3355 11.5962L22.2063 11.6018Z" fill="white"/>
</g>
<defs>
<linearGradient id="paint0_linear_711_24" x1="11.4475" y1="35.2372" x2="11.4475" y2="24.7028" gradientUnits="userSpaceOnUse">
<stop stop-color="#76BC2D"/>
<stop offset="0.192" stop-color="#7FCB30"/>
<stop offset="0.42" stop-color="#84D332"/>
<stop offset="0.775" stop-color="#86D633"/>
</linearGradient>
<linearGradient id="paint1_linear_711_24" x1="15.6167" y1="27.7931" x2="15.6167" y2="2.60472" gradientUnits="userSpaceOnUse">
<stop stop-color="#1988D9"/>
<stop offset="0.9" stop-color="#54AEF0"/>
</linearGradient>
<clipPath id="clip0_711_24">
<rect width="34" height="34" fill="white"/>
</clipPath>
</defs>
</svg>
