<svg width="16" height="16" viewBox="0 0 16 16" fill="none" xmlns="http://www.w3.org/2000/svg">
<g clip-path="url(#clip0_37_209)">
<path d="M14.3 1.5H10V0.5H16V6.5H15V2.2L7 10.2L6.3 9.5L14.3 1.5Z" fill="#ffffff"/>
<path d="M11 8.5V13.5C11.0161 13.6352 11.0013 13.7723 10.9567 13.9009C10.9121 14.0296 10.839 14.1464 10.7427 14.2427C10.6464 14.339 10.5296 14.4121 10.4009 14.4567C10.2723 14.5013 10.1352 14.5161 10 14.5H2C1.86481 14.5161 1.72772 14.5013 1.59908 14.4567C1.47043 14.4121 1.35358 14.339 1.2573 14.2427C1.16103 14.1464 1.08786 14.0296 1.04329 13.9009C0.998721 13.7723 0.98392 13.6352 1 13.5V6.5C0.98392 6.36481 0.998721 6.22772 1.04329 6.09908C1.08786 5.97043 1.16103 5.85357 1.2573 5.7573C1.35358 5.66103 1.47043 5.58786 1.59908 5.54329C1.72772 5.49872 1.86481 5.48392 2 5.5H8L9 4.5H2C1.46957 4.5 0.960859 4.71071 0.585786 5.08579C0.210714 5.46086 0 5.96957 0 6.5V13.5C0 14.0304 0.210714 14.5391 0.585786 14.9142C0.960859 15.2893 1.46957 15.5 2 15.5H10C10.5304 15.5 11.0391 15.2893 11.4142 14.9142C11.7893 14.5391 12 14.0304 12 13.5V7.5L11 8.5Z" fill="#ffffff"/>
</g>
<defs>
<clipPath id="clip0_37_209">
<rect width="16" height="16" fill="#ffffff"/>
</clipPath>
</defs>
</svg>
