<svg width="50" height="50" viewBox="0 0 50 50" fill="none" xmlns="http://www.w3.org/2000/svg">
<g clip-path="url(#clip0_1176_1139)">
<path d="M5.83015 0.000118555H38.4721C41.6999 -0.0174815 44.0002 1.92556 44.0002 5.13845V28.2104C44.0002 31.4717 41.6559 34.3572 38.4246 34.3959L18.8807 34.3202L8.30928 44.0003V34.3202L5.92079 34.4452C2.69558 34.4716 0.0502919 31.8641 0.0502919 28.6424L0.000133583 5.48342C-0.0218665 2.27933 2.60054 0.000118555 5.83015 0.000118555Z" fill="#7FBA00"/>
<path d="M50 37.1111V33.8611L49.8334 33.7222L46.4445 32.5555L45.5834 30.3333L47.3056 27L47.4722 26.6389L46.4445 25.5278L45.2222 24.2222L44.7778 24.4444L41.5278 26.1111L39.3056 25.4722L37.8889 21.8611H34.6667L34.5 22.0278L33.3889 25.3333L31.1111 26.1944L27.3611 24.4166L25.0834 26.6944L25.3056 27.1389L27 30.3611L26.0834 32.5833L22.1667 34V37.25L22.6389 37.3889L26.0834 38.5277L27 40.8889L25.2222 44.6389L27.5 46.9444L27.9445 46.75L31.1945 45.0833L33.4167 46L34.8334 49.9166H38.1111V49.2222L39.25 45.7778L41.4445 44.8611L45.25 46.6111L47.5278 44.3333L47.3056 43.8889L45.7222 40.8889L46.3611 38.6111L50 37.1111ZM36.3611 40.1111C35.4602 40.1166 34.5778 39.8547 33.8256 39.3587C33.0734 38.8627 32.4852 38.1548 32.1353 37.3245C31.7855 36.4942 31.6897 35.5788 31.8601 34.6941C32.0305 33.8094 32.4594 32.995 33.0926 32.354C33.7258 31.7131 34.5349 31.2743 35.4174 31.0931C36.3 30.9119 37.2165 30.9966 38.051 31.3363C38.8855 31.676 39.6006 32.2555 40.1057 33.0016C40.6108 33.7477 40.8834 34.6268 40.8889 35.5277V35.5277C40.889 36.7338 40.4138 37.8912 39.5662 38.7492C38.7186 39.6071 37.5671 40.0965 36.3611 40.1111V40.1111Z" fill="url(#paint0_radial_1176_1139)"/>
</g>
<defs>
<radialGradient id="paint0_radial_1176_1139" cx="0" cy="0" r="1" gradientUnits="userSpaceOnUse" gradientTransform="translate(36.5 35.5) rotate(90) scale(14.5 14.5)">
<stop offset="0.291667" stop-color="#3E3E3E"/>
<stop offset="0.40625" stop-color="#707070"/>
<stop offset="0.510417" stop-color="#666666"/>
<stop offset="0.729167" stop-color="#5E5E5E"/>
<stop offset="1" stop-color="#3E3E3E"/>
</radialGradient>
<clipPath id="clip0_1176_1139">
<rect width="50" height="50" fill="white"/>
</clipPath>
</defs>
</svg>
