<svg width="100" height="100" viewBox="0 0 100 100" fill="none" xmlns="http://www.w3.org/2000/svg">
<path d="M67.9801 25.454C67.9941 25.142 68.0281 24.834 68.0281 24.518C68.0281 13.186 58.8281 4 47.4801 4C39.5121 4 32.6181 8.538 29.2101 15.158C27.5241 14.692 25.7561 14.424 23.9201 14.424C12.9741 14.424 4.1021 23.284 4.1021 34.212C4.1021 34.428 4.1281 34.636 4.1341 34.85C4.1261 35.06 4.1001 35.264 4.1001 35.474C4.1001 45.706 12.5841 54 23.0501 54H65.1621C73.3021 54 79.9001 47.55 79.9001 39.592C79.9001 32.578 74.7701 26.74 67.9801 25.454Z" fill="#EDEDED"/>
<path opacity="0.2" d="M67.9801 25.454C67.9941 25.142 68.0281 24.834 68.0281 24.518C68.0281 13.186 58.8281 4 47.4801 4C39.5121 4 32.6181 8.538 29.2101 15.158C27.5241 14.692 25.7561 14.424 23.9201 14.424C12.9741 14.424 4.1021 23.284 4.1021 34.212C4.1021 34.428 4.1281 34.636 4.1341 34.85C4.1261 35.06 4.1001 35.264 4.1001 35.474C4.1001 45.706 12.5841 54 23.0501 54H65.1621C73.3021 54 79.9001 47.55 79.9001 39.592C79.9001 32.578 74.7701 26.74 67.9801 25.454Z" fill="white"/>
<path opacity="0.4" d="M54.3637 57.172L31.7437 34.5519C31.7537 34.3659 31.7997 34.1899 31.7997 34C31.7997 28.596 27.4037 24.2 21.9997 24.2C16.5957 24.2 12.1997 28.596 12.1997 34C12.1997 39.4039 16.5957 43.7999 21.9997 43.7999C22.1897 43.7999 22.3657 43.754 22.5517 43.7439L45.1717 66.3639L54.3637 57.172Z" fill="#DADADA"/>
<path d="M23.9757 63C23.9597 62.638 23.9217 62.282 23.9217 61.918C23.9217 48.82 34.5537 38.2 47.6677 38.2C56.8757 38.2 64.8437 43.446 68.7837 51.098C70.7317 50.56 72.7757 50.248 74.8977 50.248C87.5477 50.248 97.8017 60.49 97.8017 73.124C97.8017 73.374 97.7717 73.614 97.7637 73.862C97.7717 74.104 97.8017 74.34 97.8017 74.584C97.7997 86.412 87.9957 96 75.8997 96H27.2337C17.8257 96 10.1997 88.542 10.1997 79.344C10.1997 71.236 16.1277 64.488 23.9757 63Z" fill="#CFCFCF"/>
<path d="M48.0001 50.2C46.7701 50.2 45.6061 50.452 44.5221 50.866L29.6461 35.99C29.7961 35.382 29.9001 34.754 29.9001 34.0999C29.9001 29.7359 26.3641 26.2 22.0001 26.2C17.6361 26.2 14.1001 29.7359 14.1001 34.0999C14.1001 38.464 17.6361 42 22.0001 42C22.7121 42 23.3881 41.876 24.0441 41.7L38.8661 56.522C38.4521 57.606 38.2001 58.77 38.2001 60C38.2001 65.412 42.5881 69.8 48.0001 69.8C53.4121 69.8 57.8001 65.412 57.8001 60C57.8001 54.588 53.4121 50.2 48.0001 50.2Z" fill="white"/>
</svg>
