<svg width="15" height="15" viewBox="0 0 15 15" fill="none" xmlns="http://www.w3.org/2000/svg">
<g clip-path="url(#clip0_359_25107)">
<path d="M5.39994 10.2415H9.39994V14.2415H5.39994V10.2415ZM0.733276 4.9082H4.73328V0.908203H1.29161C1.14353 0.908203 1.00152 0.967027 0.896808 1.07174C0.792101 1.17644 0.733276 1.31846 0.733276 1.46654V4.9082ZM1.29161 14.2415H4.73328V10.2415H0.733276V13.6832C0.733276 13.8313 0.792101 13.9733 0.896808 14.078C1.00152 14.1827 1.14353 14.2415 1.29161 14.2415ZM0.733276 9.57487H4.73328V5.57487H0.733276V9.57487ZM10.0666 14.2415H13.5166C13.6632 14.2393 13.8031 14.1796 13.906 14.0751C14.0089 13.9706 14.0666 13.8298 14.0666 13.6832V10.2415H10.0666V14.2415ZM5.39994 9.57487H9.39994V5.57487H5.39994V9.57487ZM10.0666 9.57487H14.0666V5.57487H10.0666V9.57487ZM10.0666 0.908203V4.9082H14.0666V1.46654C14.0666 1.31989 14.0089 1.17912 13.906 1.07465C13.8031 0.970181 13.6632 0.910392 13.5166 0.908203H10.0666ZM5.39994 4.9082H9.39994V0.908203H5.39994V4.9082Z" fill="url(#paint0_linear_359_25107)"/>
</g>
<defs>
<linearGradient id="paint0_linear_359_25107" x1="7.39634" y1="-3.48652" x2="7.39634" y2="17.0171" gradientUnits="userSpaceOnUse">
<stop offset="0.13" stop-color="#773ADC"/>
<stop offset="0.23" stop-color="#8249E2"/>
<stop offset="0.43" stop-color="#9664EC"/>
<stop offset="0.6" stop-color="#A274F2"/>
<stop offset="0.74" stop-color="#A67AF4"/>
</linearGradient>
<clipPath id="clip0_359_25107">
<rect width="15" height="15" fill="white"/>
</clipPath>
</defs>
</svg>
