<svg id="bd7d8534-995b-47fe-b3b9-b5ba30c074bb" xmlns="http://www.w3.org/2000/svg" width="18" height="18" viewBox="0 0 18 18">
  <defs>
    <radialGradient id="bf53a664-f7b0-4897-9846-5d87511d1df5" cx="9" cy="7.35" r="6.416" gradientUnits="userSpaceOnUse">
      <stop offset="0" stop-color="#5ea0ef"/>
      <stop offset="1" stop-color="#005ba1"/>
    </radialGradient>
    <linearGradient id="b54a67ec-444f-4f30-98a0-cc8c1246fb0f" x1="9.015" y1="16.09" x2="9.075" y2="8.51" gradientTransform="matrix(1, 0, 0, -1, 0, 20)" gradientUnits="userSpaceOnUse">
      <stop offset="0" stop-color="#f2f2f2"/>
      <stop offset="0.23" stop-color="#f1f1f2" stop-opacity="0.99"/>
      <stop offset="0.37" stop-color="#ededf1" stop-opacity="0.95"/>
      <stop offset="0.48" stop-color="#e7e5f0" stop-opacity="0.89"/>
      <stop offset="0.58" stop-color="#dedbee" stop-opacity="0.81"/>
      <stop offset="0.67" stop-color="#d3ceeb" stop-opacity="0.7"/>
      <stop offset="0.76" stop-color="#c4bee8" stop-opacity="0.57"/>
      <stop offset="0.84" stop-color="#b4abe5" stop-opacity="0.41"/>
      <stop offset="0.92" stop-color="#a095e1" stop-opacity="0.22"/>
      <stop offset="0.99" stop-color="#8b7ddc" stop-opacity="0.02"/>
      <stop offset="1" stop-color="#897bdc" stop-opacity="0"/>
    </linearGradient>
  </defs>
  <path d="M10.23,17.39l.81-.87V14.2H7v2.32l.81.87A.319.319,0,0,0,8,17.5h2A.318.318,0,0,0,10.23,17.39Z" fill="#cecece"/>
  <path d="M9,.5A5.889,5.889,0,0,0,3.051,6.33a5.725,5.725,0,0,0,.039.74c.27,2.47,2.62,3.62,3.29,6.75a.49.49,0,0,0,.47.38h4.3a.49.49,0,0,0,.47-.38c.67-3.13,3-4.28,3.29-6.75A5.89,5.89,0,0,0,9.74.539,6.1,6.1,0,0,0,9,.5Z" fill="url(#bf53a664-f7b0-4897-9846-5d87511d1df5)"/>
  <path d="M11.46,3.79a1.4,1.4,0,0,0-1.35,1.44V6H8V5.23A1.41,1.41,0,0,0,6.62,3.79H6.59A1.4,1.4,0,0,0,5.24,5.23,1.41,1.41,0,0,0,6.59,6.68h.64v6a.36.36,0,0,0,.72,0v-6h2.16v6a.36.36,0,1,0,.72,0v-6h.63a1.4,1.4,0,0,0,1.35-1.448v0A1.4,1.4,0,0,0,11.46,3.79ZM7.23,6H6.55a.74.74,0,0,1-.68-.77.74.74,0,0,1,.68-.77.74.74,0,0,1,.68.77Zm4.28,0h-.68V5.19a.68.68,0,0,1,1.35-.165.651.651,0,0,1,0,.165A.73.73,0,0,1,11.537,6Z" fill="url(#b54a67ec-444f-4f30-98a0-cc8c1246fb0f)"/>
  <polygon points="6.96 15.8 11.04 15.01 11.04 14.56 6.96 15.36 6.96 15.8" fill="#999"/>
  <polygon points="11.04 16.11 11.04 15.67 6.96 16.48 6.96 16.52 7.27 16.86 11.04 16.11" fill="#999"/>
</svg>
