<svg width="37" height="37" viewBox="0 0 37 37" fill="none" xmlns="http://www.w3.org/2000/svg">
<g clip-path="url(#clip0)">
<path d="M21.7498 28.4612C21.5866 28.2986 21.4753 28.0912 21.4301 27.8653C21.3849 27.6394 21.4078 27.4051 21.4958 27.1922C21.5839 26.9793 21.7332 26.7974 21.9248 26.6694C22.1164 26.5415 22.3417 26.4733 22.5721 26.4735H26.2494V18.5391C26.2506 18.4424 26.2644 18.3464 26.2906 18.2533C26.2643 18.161 26.2504 18.0656 26.2494 17.9697V10.0332H22.5741C22.3441 10.033 22.1194 9.96466 21.9282 9.83681C21.7371 9.70896 21.5881 9.52732 21.5001 9.31484C21.4121 9.10236 21.3891 8.86857 21.4339 8.64301C21.4787 8.41744 21.5894 8.21022 21.7519 8.04751L24.5701 5.22934C22.4498 3.91756 20.0541 3.11555 17.5714 2.8864C15.0887 2.65725 12.5867 3.0072 10.2621 3.90873C7.93753 4.81027 5.85382 6.2388 4.17483 8.08198C2.49583 9.92517 1.26734 12.1327 0.585974 14.5311C-0.0953957 16.9294 -0.211067 19.4532 0.248058 21.9038C0.707183 24.3544 1.72858 26.6651 3.23193 28.6541C4.73528 30.6432 6.67959 32.2563 8.91193 33.3667C11.1443 34.4771 13.6038 35.0545 16.0971 35.0534C19.4247 35.055 22.6703 34.0213 25.3841 32.0955L21.7498 28.4612Z" fill="url(#paint0_linear)"/>
<path d="M24.2288 30.9402C22.3499 32.214 20.1984 33.0292 17.9471 33.3201C15.6958 33.6111 13.4077 33.3697 11.2667 32.6154C9.12571 31.8611 7.19158 30.6149 5.61983 28.9771C4.04809 27.3393 2.88259 25.3555 2.21705 23.1853C1.55152 21.0151 1.40451 18.719 1.78786 16.4816C2.17121 14.2442 3.07422 12.128 4.42427 10.3031C5.77432 8.47822 7.53375 6.99559 9.56108 5.97443C11.5884 4.95327 13.8271 4.42208 16.0971 4.42356C18.6625 4.42394 21.1812 5.11021 23.3922 6.41128L24.568 5.2355C22.4478 3.92165 20.0517 3.11779 17.5681 2.8872C15.0845 2.65661 12.5813 3.00558 10.2555 3.90665C7.92966 4.80771 5.84471 6.23628 4.16472 8.07991C2.48473 9.92354 1.25555 12.1319 0.573932 14.5312C-0.107689 16.9306 -0.223152 19.4553 0.236631 21.9069C0.696414 24.3584 1.71889 26.6697 3.2236 28.659C4.7283 30.6483 6.67416 32.2612 8.90803 33.3708C11.1419 34.4803 13.6028 35.0563 16.0971 35.0534C19.4247 35.055 22.6703 34.0213 25.3841 32.0954L24.2288 30.9402Z" fill="#86D633"/>
<path d="M17.3879 10.0846C17.3875 10.3529 17.3076 10.6151 17.1582 10.8379C17.0088 11.0608 16.7966 11.2344 16.5486 11.3367C16.3005 11.439 16.0277 11.4654 15.7646 11.4127C15.5015 11.3599 15.26 11.2304 15.0705 11.0404C14.8811 10.8503 14.7522 10.6084 14.7003 10.3452C14.6483 10.0819 14.6756 9.80917 14.7787 9.56143C14.8817 9.31368 15.0559 9.10206 15.2793 8.95333C15.5026 8.8046 15.765 8.72543 16.0333 8.72583C16.2116 8.72583 16.3881 8.761 16.5527 8.82934C16.7173 8.89767 16.8668 8.99782 16.9926 9.12404C17.1185 9.25026 17.2182 9.40008 17.286 9.5649C17.3538 9.72973 17.3885 9.90632 17.3879 10.0846ZM17.3345 28.6195C17.3337 28.8878 17.2533 29.1499 17.1036 29.3725C16.9538 29.5952 16.7414 29.7684 16.4932 29.8703C16.245 29.9723 15.9721 29.9983 15.7091 29.9452C15.4461 29.892 15.2048 29.7621 15.0156 29.5718C14.8265 29.3815 14.698 29.1393 14.6464 28.876C14.5949 28.6127 14.6226 28.34 14.726 28.0924C14.8295 27.8448 15.004 27.6335 15.2275 27.4851C15.4511 27.3367 15.7136 27.2579 15.9819 27.2587C16.1602 27.259 16.3366 27.2944 16.5011 27.363C16.6656 27.4316 16.815 27.532 16.9407 27.6584C17.0663 27.7848 17.1658 27.9348 17.2334 28.0997C17.3009 28.2646 17.3353 28.4413 17.3345 28.6195ZM11.5954 25.5259V22.4981C12.1245 22.9478 12.7294 23.3 13.3817 23.5382C14.006 23.767 14.6654 23.886 15.3303 23.8897C15.6696 23.8959 16.0083 23.8621 16.3396 23.7889C16.5936 23.7342 16.8367 23.6377 17.0591 23.5032C17.2371 23.3956 17.386 23.246 17.4928 23.0674C17.587 22.9022 17.6359 22.715 17.6346 22.5248C17.6391 22.2697 17.5604 22.02 17.4106 21.8136C17.2402 21.586 17.0316 21.3898 16.7939 21.2339C16.4977 21.038 16.1864 20.8661 15.8627 20.72C15.503 20.5556 15.1166 20.387 14.6993 20.2143C13.7902 19.8738 12.978 19.3163 12.3333 18.5904C11.8096 17.9356 11.535 17.1162 11.5584 16.2779C11.5428 15.6438 11.6915 15.0164 11.9901 14.4567C12.2732 13.9525 12.6728 13.5233 13.1556 13.2049C13.6757 12.866 14.252 12.6224 14.8576 12.4854C15.5282 12.3307 16.2146 12.2555 16.9028 12.2614C17.5315 12.2575 18.1596 12.3015 18.7816 12.3929C19.2971 12.4728 19.8028 12.6064 20.2904 12.7917V15.6222C20.0566 15.462 19.8081 15.3243 19.5483 15.2111C19.2825 15.0898 19.0076 14.9895 18.7261 14.911C18.4483 14.832 18.1653 14.7722 17.8792 14.7322C17.6084 14.6909 17.335 14.6689 17.0611 14.6664C16.7432 14.6617 16.4259 14.6942 16.1156 14.763C15.8617 14.8151 15.618 14.9081 15.3941 15.0384C15.2119 15.1452 15.0565 15.2921 14.9398 15.4681C14.8311 15.6356 14.7746 15.8316 14.7774 16.0313C14.7711 16.2502 14.8329 16.4656 14.9542 16.6479C15.0927 16.8478 15.2652 17.0217 15.4639 17.1618C15.7182 17.3422 15.987 17.501 16.2677 17.6367C16.5822 17.7929 16.9398 17.9532 17.3366 18.1177C17.8388 18.3281 18.3263 18.5719 18.796 18.8474C19.2037 19.0855 19.5772 19.378 19.906 19.7169C20.2117 20.035 20.452 20.41 20.6131 20.8207C20.7828 21.2811 20.8651 21.7691 20.8557 22.2596C20.876 22.9219 20.7252 23.5782 20.4178 24.1651C20.1372 24.6715 19.7344 25.0997 19.2462 25.4108C18.7195 25.742 18.1362 25.9734 17.5257 26.0932C16.8454 26.2333 16.1523 26.3022 15.4578 26.2988C14.7445 26.296 14.033 26.2272 13.3323 26.0932C12.729 25.9888 12.144 25.7978 11.5954 25.5259Z" fill="white"/>
<path d="M36.6156 9.22738H32.4901C32.4431 9.22738 32.3966 9.23663 32.3532 9.25461C32.3099 9.27258 32.2704 9.29893 32.2372 9.33214C32.204 9.36535 32.1777 9.40478 32.1597 9.44818C32.1417 9.49157 32.1325 9.53808 32.1325 9.58505V13.5091H27.0552V9.58505C27.0552 9.49019 27.0175 9.39922 26.9505 9.33214C26.8834 9.26507 26.7924 9.22738 26.6976 9.22738H22.5741C22.5021 9.22864 22.4314 9.20812 22.3712 9.16852C22.3111 9.12893 22.2643 9.07209 22.237 9.00545C22.2096 8.93882 22.2031 8.86548 22.2181 8.79505C22.2332 8.72462 22.2691 8.66037 22.3213 8.61072L29.0286 1.90961C29.1785 1.75973 29.3818 1.67554 29.5938 1.67554C29.8058 1.67554 30.0092 1.75973 30.1591 1.90961L36.8685 8.61688C36.9184 8.6669 36.9525 8.73062 36.9663 8.79998C36.9801 8.86934 36.973 8.94123 36.9459 9.00657C36.9189 9.07191 36.873 9.12775 36.8142 9.16706C36.7555 9.20636 36.6863 9.22735 36.6156 9.22738ZM22.3213 27.8898L29.0286 34.5991C29.1785 34.749 29.3818 34.8332 29.5938 34.8332C29.8058 34.8332 30.0092 34.749 30.1591 34.5991L36.8685 27.8898C36.9217 27.8406 36.9587 27.7762 36.9744 27.7054C36.9901 27.6346 36.9837 27.5607 36.9562 27.4936C36.9287 27.4265 36.8813 27.3694 36.8205 27.33C36.7596 27.2906 36.6881 27.2707 36.6156 27.2731H32.4901C32.3953 27.2731 32.3043 27.2354 32.2372 27.1683C32.1701 27.1013 32.1325 27.0103 32.1325 26.9154V22.9996H27.0552V26.9278C27.0552 27.0226 27.0175 27.1136 26.9505 27.1807C26.8834 27.2478 26.7924 27.2854 26.6976 27.2854H22.5741C22.5042 27.2857 22.436 27.3065 22.3778 27.3454C22.3197 27.3842 22.2744 27.4393 22.2474 27.5038C22.2204 27.5683 22.213 27.6393 22.2262 27.7079C22.2393 27.7766 22.2724 27.8398 22.3213 27.8898ZM32.1325 14.7342V16.2019C32.1325 16.245 32.0646 16.2821 31.9783 16.2821H27.2094C27.1251 16.2821 27.0552 16.245 27.0552 16.2019V14.7404C27.0552 14.6972 27.1251 14.6602 27.2094 14.6602H31.9783C32.0667 14.6602 32.1325 14.6972 32.1325 14.7404V14.7342ZM32.1325 17.5154V18.981C32.1325 19.0262 32.0646 19.0612 31.9783 19.0612H27.2094C27.1251 19.0612 27.0552 19.0262 27.0552 18.981V17.5215C27.0552 17.4763 27.1251 17.4393 27.2094 17.4393H31.9783C32.0667 17.4393 32.1325 17.4722 32.1325 17.5215V17.5154ZM32.1325 20.2945V21.7601C32.1325 21.8053 32.0646 21.8423 31.9783 21.8423H27.2094C27.1251 21.8423 27.0552 21.8053 27.0552 21.7601V20.3007C27.0552 20.2554 27.1251 20.2205 27.2094 20.2205H31.9783C32.0667 20.2205 32.1325 20.2554 32.1325 20.3007V20.2945Z" fill="url(#paint1_linear)"/>
</g>
<defs>
<linearGradient id="paint0_linear" x1="13.1329" y1="35.0534" x2="13.1329" y2="2.80584" gradientUnits="userSpaceOnUse">
<stop stop-color="#76BC2D"/>
<stop offset="1" stop-color="#86D633"/>
</linearGradient>
<linearGradient id="paint1_linear" x1="29.5938" y1="34.8334" x2="29.5938" y2="1.67527" gradientUnits="userSpaceOnUse">
<stop stop-color="#83B9F9"/>
<stop offset="0.999" stop-color="#0078D4"/>
</linearGradient>
<clipPath id="clip0">
<rect width="37" height="37" fill="white"/>
</clipPath>
</defs>
</svg>
