<svg xmlns="http://www.w3.org/2000/svg" x="0px" y="0px" width="16px" height="16px" viewBox="0 0 16 16">
  <circle fill="#57A300" cx="8" cy="8" r="7" />
  <path fill="#FFFFFF" d="M8,1.013c3.859,0,6.987,3.128,6.987,6.987S11.859,14.987,8,14.987S1.013,11.859,1.013,8S4.141,1.013,8,1.013M8,0C3.589,0,0,3.589,0,8s3.589,8,8,8s8-3.589,8-8S12.411,0,8,0L8,0z" />
  <path fill="#FFFFFF" d="M4.116,8.254C4.052,8.186,4.018,8.095,4.022,8c0.004-0.095,0.044-0.183,0.114-0.248l0.73-0.675c0.066-0.061,0.151-0.093,0.24-0.093c0.098,0,0.192,0.041,0.259,0.113L7.23,9.098l3.325-4.258c0.067-0.087,0.168-0.137,0.279-0.137c0.078,0,0.153,0.026,0.215,0.074l0.791,0.611c0.151,0.112,0.184,0.33,0.07,0.484l-4.252,5.444c-0.165,0.212-0.481,0.225-0.664,0.029L4.116,8.254z" />
</svg>