<svg width="34" height="34" viewBox="0 0 34 34" fill="none" xmlns="http://www.w3.org/2000/svg">
<path d="M33.607 21.3974C33.5552 19.6268 32.8751 17.9325 31.6884 16.6175C30.5018 15.3024 28.886 14.4524 27.13 14.2196C27.0215 11.7484 25.9439 9.4194 24.1306 7.73695C22.3173 6.05449 19.9143 5.15396 17.4419 5.23035C15.4426 5.19443 13.4816 5.78058 11.8299 6.90775C10.1782 8.03491 8.91758 9.6474 8.22227 11.5222C6.10912 11.7785 4.15765 12.7832 2.72139 14.3543C1.28512 15.9253 0.45905 17.9589 0.392822 20.0865C0.483348 22.4779 1.51882 24.7358 3.27204 26.3647C5.02527 27.9937 7.35307 28.8606 9.74471 28.7754C10.0224 28.7754 10.2963 28.7621 10.5683 28.7414H25.7134C25.849 28.7397 25.9837 28.7193 26.1138 28.6809C28.0606 28.6661 29.9266 27.9004 31.3226 26.5434C32.7187 25.1864 33.537 23.343 33.607 21.3974Z" fill="url(#paint0_linear)"/>
<path d="M16.2446 18.4998H12.4669C12.4137 18.5024 12.3616 18.4841 12.3217 18.4488C12.2818 18.4135 12.2573 18.364 12.2534 18.3109C12.2533 18.2833 12.2598 18.2561 12.2723 18.2316L16.8113 9.2839C16.8297 9.24975 16.8569 9.2212 16.8902 9.20125C16.9234 9.1813 16.9614 9.1707 17.0002 9.17056H21.4655C21.5187 9.16796 21.5708 9.18625 21.6107 9.22155C21.6506 9.25684 21.6751 9.30634 21.679 9.35945C21.6789 9.398 21.6655 9.43535 21.6412 9.46523L16.3278 16.4711H21.5109C21.5642 16.468 21.6166 16.4861 21.6565 16.5215C21.6965 16.5569 21.7209 16.6067 21.7243 16.66C21.7243 16.6837 21.7194 16.7072 21.71 16.729C21.7006 16.7507 21.6868 16.7703 21.6695 16.7866L13.0543 25.7474C12.975 25.7947 12.3989 26.2707 12.6765 25.5491L16.2446 18.4998Z" fill="url(#paint1_linear)"/>
<path d="M21.4691 9.17057C21.5223 9.16797 21.5744 9.18626 21.6143 9.22156C21.6542 9.25685 21.6787 9.30635 21.6826 9.35946C21.6825 9.39801 21.6691 9.43535 21.6448 9.46524L16.3276 16.4711H21.5107C21.564 16.468 21.6164 16.4861 21.6564 16.5215C21.6964 16.5569 21.7207 16.6067 21.7241 16.66C21.7241 16.6837 21.7192 16.7072 21.7098 16.729C21.7004 16.7507 21.6866 16.7703 21.6693 16.7866L13.0541 25.7475C13.0088 25.7758 12.7972 25.9458 12.6763 25.9458C12.5913 25.9458 12.5573 25.8551 12.6763 25.5491L16.2445 18.4998H12.4667C12.4135 18.5024 12.3614 18.4841 12.3215 18.4488C12.2816 18.4135 12.2571 18.364 12.2532 18.3109C12.2531 18.2833 12.2596 18.2561 12.2721 18.2316L16.8111 9.28391C16.8295 9.24976 16.8567 9.22121 16.89 9.20126C16.9232 9.18131 16.9612 9.17071 17 9.17057H21.4653H21.4691ZM21.4653 8.62846H17C16.8598 8.62695 16.7219 8.66449 16.6018 8.73688C16.4817 8.80927 16.3842 8.91366 16.32 9.03835L11.7867 17.986C11.7358 18.0861 11.7093 18.1968 11.7092 18.309C11.7151 18.5054 11.7973 18.6919 11.9384 18.8287C12.0794 18.9655 12.2683 19.042 12.4648 19.0419H15.3661L12.1966 25.3111L12.1852 25.3357V25.3584C12.1123 25.4922 12.0741 25.6422 12.0741 25.7947C12.0741 25.9471 12.1123 26.0971 12.1852 26.231C12.2416 26.3136 12.3174 26.3809 12.4061 26.427C12.4947 26.4732 12.5934 26.4967 12.6933 26.4955C12.9298 26.4767 13.1544 26.3842 13.3356 26.231L13.3545 26.2159L13.4073 26.1857L13.4583 26.1309L22.0698 17.1757C22.1368 17.1095 22.19 17.0307 22.2263 16.9438C22.2626 16.8569 22.2813 16.7636 22.2813 16.6695C22.2754 16.473 22.1932 16.2866 22.0522 16.1498C21.9111 16.013 21.7223 15.9365 21.5258 15.9366H17.4212L22.0773 9.80335C22.1729 9.67869 22.2247 9.52599 22.2247 9.36891C22.2188 9.17248 22.1366 8.98607 21.9955 8.84924C21.8545 8.71241 21.6656 8.63593 21.4691 8.63602L21.4653 8.62846Z" fill="white"/>
<defs>
<linearGradient id="paint0_linear" x1="16.9999" y1="28.7697" x2="16.9999" y2="5.23035" gradientUnits="userSpaceOnUse">
<stop stop-color="#198AB3"/>
<stop offset="0.132" stop-color="#21A0C7"/>
<stop offset="0.31" stop-color="#28B7DB"/>
<stop offset="0.502" stop-color="#2EC7EA"/>
<stop offset="0.717" stop-color="#31D1F2"/>
<stop offset="1" stop-color="#32D4F5"/>
</linearGradient>
<linearGradient id="paint1_linear" x1="16.996" y1="25.7207" x2="16.996" y2="8.93908" gradientUnits="userSpaceOnUse">
<stop stop-color="white"/>
<stop offset="0.269" stop-color="white" stop-opacity="0.986"/>
<stop offset="0.509" stop-color="white" stop-opacity="0.944"/>
<stop offset="0.738" stop-color="white" stop-opacity="0.872"/>
<stop offset="0.959" stop-color="white" stop-opacity="0.772"/>
<stop offset="1" stop-color="white" stop-opacity="0.75"/>
</linearGradient>
</defs>
</svg>
