<svg width="40" height="40" viewBox="0 0 40 40" fill="none" xmlns="http://www.w3.org/2000/svg">
<path d="M38.8889 22.04V17.7333L38.2845 17.5111L33.6756 16L32.4667 13.0489L34.8089 8.0622L31.7778 5.03997L31.1733 5.3422L26.8667 7.53331L23.92 6.32442L22.04 1.11108H17.7333L17.5111 1.71553L16 6.32442L13.0489 7.53331L8.13778 5.19108L5.11111 8.2222L5.41334 8.82664L7.60445 13.1333L6.4 16.0711L1.11111 17.96V22.2666L1.71556 22.4889L6.32445 24L7.53334 26.9466L5.19111 31.9378L8.21334 34.96L8.81778 34.6578L13.1244 32.4666L16.0711 33.6755L17.96 38.8889H22.2667L22.4889 38.2844L24 33.6755L26.9467 32.4666L31.9333 34.8089L34.9556 31.7866L34.6533 31.1822L32.4622 26.8755L33.6711 23.9289L38.8889 22.04ZM20 26.4555C18.7254 26.4555 17.4794 26.0776 16.4197 25.3694C15.3599 24.6613 14.5339 23.6548 14.0461 22.4773C13.5583 21.2997 13.4307 20.0039 13.6794 18.7538C13.928 17.5037 14.5418 16.3554 15.4431 15.4542C16.3444 14.5529 17.4927 13.9391 18.7428 13.6905C19.9929 13.4418 21.2886 13.5694 22.4662 14.0572C23.6438 14.545 24.6502 15.371 25.3584 16.4307C26.0665 17.4905 26.4444 18.7365 26.4444 20.0111C26.4444 21.7203 25.7655 23.3594 24.5569 24.568C23.3483 25.7766 21.7092 26.4555 20 26.4555Z" fill="url(#paint0_linear)"/>
<defs>
<linearGradient id="paint0_linear" x1="20" y1="38.8889" x2="20" y2="1.11108" gradientUnits="userSpaceOnUse">
<stop stop-color="#0078D4"/>
<stop offset="0.154" stop-color="#0D7ED8"/>
<stop offset="0.439" stop-color="#3090E1"/>
<stop offset="0.822" stop-color="#67ABF1"/>
<stop offset="1" stop-color="#83B9F9"/>
</linearGradient>
</defs>
</svg>
