<svg width="18" height="18" viewBox="0 0 18 18" fill="none" xmlns="http://www.w3.org/2000/svg">
<g clip-path="url(#clip0_395_25783)">
<path d="M17.091 17.5H0.909007C0.394007 17.5 0.0900071 16.676 0.382007 16.252L5.95801 8.123C6.03103 8.01641 6.07007 7.89021 6.07001 7.761V2.389C6.07001 2.30413 6.03629 2.22274 5.97628 2.16273C5.91627 2.10272 5.83488 2.069 5.75001 2.069H5.45001C5.36592 2.06913 5.28264 2.05267 5.20493 2.02055C5.12723 1.98844 5.05662 1.9413 4.99717 1.88184C4.93771 1.82239 4.89057 1.75178 4.85846 1.67407C4.82634 1.59637 4.80988 1.51308 4.81001 1.429V1.14C4.81001 1.05587 4.82659 0.972566 4.85882 0.894852C4.89105 0.817139 4.93828 0.746541 4.99781 0.687099C5.05735 0.627656 5.12802 0.580535 5.20578 0.548431C5.28355 0.516326 5.36688 0.499869 5.45101 0.500001H12.551C12.6351 0.500001 12.7183 0.516555 12.7959 0.548718C12.8736 0.580881 12.9441 0.628023 13.0036 0.687452C13.063 0.746882 13.1101 0.817435 13.1423 0.895083C13.1745 0.972732 13.191 1.05595 13.191 1.14V1.429C13.1911 1.51308 13.1747 1.59637 13.1426 1.67407C13.1104 1.75178 13.0633 1.82239 13.0038 1.88184C12.9444 1.9413 12.8738 1.98844 12.7961 2.02055C12.7184 2.05267 12.6351 2.06913 12.551 2.069H12.251C12.1661 2.069 12.0847 2.10272 12.0247 2.16273C11.9647 2.22274 11.931 2.30413 11.931 2.389V7.774C11.9309 7.90352 11.97 8.03004 12.043 8.137L17.621 16.251C17.91 16.676 17.606 17.5 17.091 17.5Z" fill="url(#paint0_linear_395_25783)"/>
<path d="M2.77202 15.329L7.01002 9.15299C7.18635 8.89486 7.28079 8.58959 7.28102 8.27699V5.78899C7.28207 5.65893 7.33448 5.53456 7.42682 5.44297C7.51916 5.35137 7.64396 5.29998 7.77402 5.29999H10.174C10.3045 5.29999 10.4296 5.35182 10.5219 5.44409C10.6142 5.53636 10.666 5.6615 10.666 5.79199V8.44599C10.6661 8.6563 10.7299 8.86165 10.849 9.03499L15.176 15.329C15.2138 15.3842 15.2359 15.4486 15.24 15.5154C15.2441 15.5822 15.23 15.6488 15.1992 15.7082C15.1685 15.7677 15.1222 15.8176 15.0652 15.8528C15.0083 15.8879 14.9429 15.907 14.876 15.908H3.07702C3.00969 15.9079 2.94365 15.8895 2.88602 15.8547C2.8284 15.8199 2.78136 15.77 2.74998 15.7104C2.7186 15.6509 2.70407 15.5839 2.70795 15.5166C2.71184 15.4494 2.73399 15.3845 2.77202 15.329Z" fill="white"/>
<path d="M5 12C6 12 6 12 7 12C7.93778 12 9 12 9.77602 12C10.5 12 10.5 12 11 12C11.5 12 12 12 13 12L15.289 15.4C15.3231 15.4484 15.3432 15.5052 15.3472 15.5642C15.3512 15.6232 15.3389 15.6822 15.3117 15.7347C15.2844 15.7872 15.2433 15.8313 15.1928 15.862C15.1422 15.8927 15.0842 15.909 15.025 15.909H2.92502C2.86594 15.9088 2.80805 15.8924 2.75765 15.8616C2.70724 15.8308 2.66625 15.7868 2.63913 15.7343C2.61201 15.6818 2.59981 15.6229 2.60384 15.564C2.60788 15.505 2.628 15.4483 2.66202 15.4L5 12Z" fill="url(#paint1_linear_395_25783)"/>
</g>
<defs>
<linearGradient id="paint0_linear_395_25783" x1="9.00039" y1="-1.58086" x2="9.00039" y2="21.7013" gradientUnits="userSpaceOnUse">
<stop offset="0.1" stop-color="#54AEF0"/>
<stop offset="1" stop-color="#1988D9"/>
</linearGradient>
<linearGradient id="paint1_linear_395_25783" x1="8.97552" y1="15.9089" x2="8.97552" y2="12.0003" gradientUnits="userSpaceOnUse">
<stop stop-color="#5E9624"/>
<stop offset="1" stop-color="#86D633"/>
</linearGradient>
<clipPath id="clip0_395_25783">
<rect width="18" height="18" fill="white"/>
</clipPath>
</defs>
</svg>
