<?xml version="1.0" encoding="utf-8"?>
<!-- Generator: Adobe Illustrator 22.1.0, SVG Export Plug-In . SVG Version: 6.00 Build 0)  -->
<svg version="1.1" xmlns="http://www.w3.org/2000/svg" xmlns:xlink="http://www.w3.org/1999/xlink" x="0px" y="0px"
	 viewBox="0 0 15 15" style="enable-background:new 0 0 15 15;" xml:space="preserve">
<style type="text/css">
	.st0{display:none;}
	.st1{display:inline;}
	.st2{fill:#7EBA28;}
	.st3{opacity:0.4;fill:#B8CF39;enable-background:new    ;}
	.st4{fill:#FFFFFF;}
	.st5{opacity:0.2;fill:#7EBA28;enable-background:new    ;}
	.st6{fill:none;stroke:#7EBA28;stroke-miterlimit:10;}
	.st7{fill:none;stroke:#7EBA28;stroke-miterlimit:10;stroke-dasharray:1.8775,1.4081;}
	.st8{fill:none;stroke:#7EBA28;stroke-miterlimit:10;stroke-dasharray:1.9249,1.4437;}
	.st9{fill:#7EBA28;enable-background:new    ;}
	.st10{display:inline;fill:#7EBA28;}
</style>
<g id="Layer_1" class="st0">
	<g class="st1">
		<path class="st2" d="M7,0.2L1.2,3.5C1,3.6,0.8,3.9,0.8,4.2v6.6c0,0.3,0.2,0.6,0.4,0.8L7,14.8c0.3,0.2,0.6,0.2,0.9,0l5.8-3.3
			c0.3-0.2,0.4-0.4,0.4-0.8V4.2c0-0.3-0.2-0.6-0.4-0.8L7.9,0.2C7.6,0,7.3,0,7,0.2z"/>
		<path class="st3" d="M9.7,1.2l-1.8-1C7.6,0,7.3,0,7,0.2L1.2,3.5C1,3.6,0.8,3.9,0.8,4.2v6.6c0,0.3,0.2,0.6,0.4,0.8l3.9,2.2L9.7,1.2
			z"/>
		<circle class="st4" cx="7.5" cy="2.3" r="0.9"/>
		<circle class="st4" cx="7.5" cy="12.7" r="0.9"/>
		<path class="st4" d="M10.5,9.2c0,1.3-1.3,2.2-3,2.2c-1.5,0-2.5-0.6-3-1.8L6,9.4c0.2,0.4,0.6,0.9,1.6,0.9c1,0,1.3-0.6,1.3-0.9
			c0-0.7-0.9-1-1.3-1.1C6,7.9,4.8,7.6,4.8,5.7c0-1.5,1.4-2.1,2.7-2.1c1.3,0,2.2,0.4,2.7,1.4L8.8,5.3C8.6,4.9,8.1,4.6,7.5,4.6
			c-0.9,0-1.1,0.6-1.1,0.9c0,0.4,0.4,0.8,1.1,1C8.4,6.8,9,6.9,9.3,7.1C9.9,7.3,10.5,8,10.5,9.2"/>
		<circle class="st5" cx="7.5" cy="2.3" r="0.9"/>
		<circle class="st5" cx="7.5" cy="12.7" r="0.9"/>
		<path class="st5" d="M10.5,9.2c0,1.3-1.3,2.2-3,2.2c-1.5,0-2.5-0.6-3-1.8L6,9.4c0.2,0.4,0.6,0.9,1.6,0.9c1,0,1.3-0.6,1.3-0.9
			c0-0.7-0.9-1-1.3-1.1C6,7.9,4.8,7.6,4.8,5.7c0-1.5,1.4-2.1,2.7-2.1c1.3,0,2.2,0.4,2.7,1.4L8.8,5.3C8.6,4.9,8.1,4.6,7.5,4.6
			c-0.9,0-1.1,0.6-1.1,0.9c0,0.4,0.4,0.8,1.1,1C8.4,6.8,9,6.9,9.3,7.1C9.9,7.3,10.5,8,10.5,9.2"/>
	</g>
</g>
<g id="Layer_2" class="st0">
	<g class="st1">
		<g>
			<g>
				<polyline class="st6" points="3.3,3.7 2.4,4.1 2.4,5.1 				"/>
				<line class="st7" x1="2.4" y1="6.6" x2="2.4" y2="9.1"/>
				<polyline class="st6" points="2.4,9.8 2.4,10.8 3.3,11.3 				"/>
				<polyline class="st8" points="4.5,12.1 8.3,14.2 8.3,14.2 12.7,11.7 				"/>
				<polyline class="st6" points="13.3,11.3 14.2,10.8 14.2,9.8 				"/>
				<line class="st7" x1="14.2" y1="8.4" x2="14.2" y2="5.9"/>
				<polyline class="st6" points="14.2,5.1 14.2,4.1 13.3,3.7 				"/>
				<polyline class="st8" points="12,2.9 8.3,0.8 8.3,0.8 3.9,3.3 				"/>
			</g>
		</g>
		<path class="st6" d="M8.7,14l5.5-3.1V4.1L8.3,0.8c0,0,0,0,0,0L2.4,4.1v2.3"/>
		<g>
			<circle class="st2" cx="8.2" cy="3.7" r="0.6"/>
			<circle class="st2" cx="8.2" cy="10.9" r="0.6"/>
			<path class="st2" d="M10.4,8.5c0,0.9-0.9,1.6-2.1,1.6c-1.1,0-1.8-0.4-2.1-1.2l1.1-0.2c0.1,0.3,0.4,0.6,1.1,0.6
				c0.7,0,0.9-0.4,0.9-0.7c0-0.5-0.6-0.7-0.9-0.8c-1.2-0.2-2-0.5-2-1.8c0-1.1,1-1.5,1.9-1.5c0.9,0,1.6,0.3,1.9,1L9.2,5.8
				C9,5.4,8.7,5.3,8.3,5.3c-0.6,0-0.8,0.4-0.8,0.7c0,0.3,0.3,0.6,0.8,0.7c0.6,0.1,1,0.2,1.3,0.4C10,7.2,10.4,7.6,10.4,8.5"/>
			<circle class="st9" cx="8.2" cy="3.7" r="0.6"/>
			<circle class="st9" cx="8.2" cy="10.9" r="0.6"/>
		</g>
		<polygon class="st2" points="2.4,9.1 4.5,6.5 0.3,6.5 		"/>
	</g>
</g>
<g id="Layer_3">
	<path class="st2" d="M7.1,0.2L1.4,3.5C1.1,3.6,1,3.9,1,4.3v6.5c0,0.3,0.2,0.6,0.4,0.8l5.7,3.3C7.4,15,7.7,15,8,14.8l5.7-3.3
		c0.3-0.2,0.4-0.4,0.4-0.8V4.3c0-0.3-0.2-0.6-0.4-0.8L8,0.2C7.7,0.1,7.4,0.1,7.1,0.2z"/>
	<rect x="7" y="3.1" transform="matrix(6.123234e-17 -1 1 6.123234e-17 0.7398 13.8261)" class="st4" width="0.6" height="6.9"/>
	<rect x="7" y="4.5" transform="matrix(-1 -1.224647e-16 1.224647e-16 -1 14.6699 10.7231)" class="st4" width="0.7" height="1.8"/>
	<rect x="3.8" y="6.8" transform="matrix(-1 -1.224647e-16 1.224647e-16 -1 8.4118 15.307)" class="st4" width="0.7" height="1.8"/>
	<rect x="10" y="6.8" transform="matrix(-1 -1.224647e-16 1.224647e-16 -1 20.7201 15.307)" class="st4" width="0.7" height="1.8"/>
	<ellipse class="st4" cx="7.3" cy="2.9" rx="1.7" ry="1.7"/>
	<ellipse class="st4" cx="4.2" cy="10.2" rx="1.7" ry="1.7"/>
	<ellipse class="st4" cx="10.4" cy="10.2" rx="1.7" ry="1.7"/>
</g>
<g id="Layer_4" class="st0">
	<g class="st1">
		<polygon class="st2" points="7.5,15 0,7.9 14.9,7.9 		"/>
		<rect x="2.5" y="0.1" class="st2" width="9.9" height="7.8"/>
		<g>
			<circle class="st4" cx="7.4" cy="3.1" r="0.7"/>
			<circle class="st4" cx="7.4" cy="10.8" r="0.7"/>
			<path class="st4" d="M9.7,8.2c0,1-0.9,1.6-2.2,1.6c-1.1,0-1.9-0.4-2.2-1.3l1.1-0.2C6.5,8.6,6.8,9,7.5,9c0.7,0,1-0.4,1-0.7
				c0-0.6-0.7-0.7-1-0.8C6.3,7.3,5.5,7,5.5,5.6c0-1.1,1.1-1.6,2-1.6c1,0,1.6,0.3,2,1l-1,0.3C8.3,5,7.9,4.8,7.5,4.8
				c-0.7,0-0.8,0.5-0.8,0.7c0,0.3,0.3,0.6,0.8,0.7c0.6,0.1,1.1,0.3,1.4,0.4C9.3,6.8,9.7,7.3,9.7,8.2"/>
		</g>
	</g>
</g>
<g id="Layer_5" class="st0">
	<path class="st10" d="M13,0.4H2c-1.1,0-1.9,0.8-1.9,1.9v7.8c0,1.1,0.8,1.6,1.9,1.6h4L9.3,15l0-3.2H13c1.1,0,2-0.6,2-1.7l0-7.8
		C15,1.2,14.1,0.4,13,0.4z"/>
	<g class="st1">
		<circle class="st4" cx="7.5" cy="1.9" r="0.7"/>
		<circle class="st4" cx="7.5" cy="9.6" r="0.7"/>
		<path class="st4" d="M9.7,7c0,1-0.9,1.6-2.3,1.6c-1.1,0-1.9-0.4-2.2-1.3l1.1-0.2c0.1,0.3,0.5,0.7,1.2,0.7c0.7,0,1-0.4,1-0.7
			c0-0.6-0.7-0.7-1-0.8C6.4,6.1,5.5,5.8,5.5,4.4c0-1.2,1.1-1.6,2-1.6c1,0,1.7,0.3,2,1l-1,0.3C8.3,3.8,8,3.6,7.5,3.6
			c-0.7,0-0.8,0.5-0.8,0.7c0,0.3,0.3,0.6,0.8,0.7c0.6,0.1,1.1,0.3,1.4,0.4C9.3,5.6,9.7,6.1,9.7,7"/>
	</g>
</g>
</svg>
