<svg width="36" height="36" viewBox="0 0 36 36" xmlns="http://www.w3.org/2000/svg">
  <path fill="rgb(0, 120, 212)" d="M11.457 25.51a2.672 2.672 0 0 0 3.08.008c.405-.288.723-.682.917-1.139l1.236-3.769a6.159 6.159 0 0 1 3.9-3.9l3.631-1.183a2.67 2.67 0 0 0 0-5.036l-3.7-1.193a6.176 6.176 0 0 1-3.895-3.888l-1.179-3.629A2.663 2.663 0 0 0 14.471.49a2.713 2.713 0 0 0-3.085 0 2.68 2.68 0 0 0-.987 1.32L9.206 5.477A6.167 6.167 0 0 1 5.41 9.295l-3.627 1.178a2.67 2.67 0 0 0 .03 5.047L5.4 16.685a6.186 6.186 0 0 1 3.902 3.91l1.18 3.623c.183.521.524.973.976 1.292Zm1.705-2.122-.062.081a.179.179 0 0 1-.199-.006.195.195 0 0 1-.052-.052l-1.17-3.6a8.61 8.61 0 0 0-2.092-3.401 8.705 8.705 0 0 0-3.405-2.1l-3.569-1.154a.185.185 0 0 1-.083-.064.164.164 0 0 1-.03-.1.18.18 0 0 1 .032-.1.22.22 0 0 1 .052-.051l3.62-1.175a8.7 8.7 0 0 0 3.344-2.109 8.726 8.726 0 0 0 2.027-3.28l1.188-3.661a.17.17 0 0 1 .163-.114.179.179 0 0 1 .153.085l1.172 3.6a8.693 8.693 0 0 0 2.093 3.385 8.715 8.715 0 0 0 3.4 2.1l3.6 1.168.066.019a.17.17 0 0 1 .06.051c.02.03.03.064.03.1 0 .036-.01.07-.03.1a.29.29 0 0 1-.049.05l-3.61 1.171a8.654 8.654 0 0 0-5.489 5.49l-1.16 3.567Zm13.714 11.254a1.95 1.95 0 0 0 1.124.359l.005.003a1.946 1.946 0 0 0 1.844-1.328l.569-1.75a2.382 2.382 0 0 1 1.499-1.502l1.79-.582a1.947 1.947 0 0 0 .94-2.958 1.961 1.961 0 0 0-1.005-.73l-1.757-.569a2.374 2.374 0 0 1-1.5-1.5l-.582-1.789a1.944 1.944 0 0 0-3.679.03l-.572 1.757a2.377 2.377 0 0 1-1.46 1.495l-1.79.582a1.944 1.944 0 0 0 .029 3.677l1.752.57a2.369 2.369 0 0 1 1.5 1.506l.582 1.788c.134.38.382.709.71.941ZM24.86 28.04l-.118-.039.14-.049a4.876 4.876 0 0 0 3.043-3.091l.04-.121.04.128a4.87 4.87 0 0 0 3.092 3.089l.156.05-.121.04a4.871 4.871 0 0 0-3.093 3.095l-.04.121-.04-.123a4.873 4.873 0 0 0-3.1-3.1Z"/>
</svg>
