<svg width="50" height="50" viewBox="0 0 50 50" fill="none" xmlns="http://www.w3.org/2000/svg">
<path d="M39.9167 11.5833L40.1389 11.7778C40.2108 11.8442 40.305 11.881 40.4028 11.881C40.5006 11.881 40.5949 11.8442 40.6667 11.7778L42.7223 10.0556L46.4445 3.91668C46.4963 3.84887 46.5244 3.7659 46.5244 3.68057C46.5244 3.59523 46.4963 3.51226 46.4445 3.44445L45.8056 2.77779C45.7378 2.72598 45.6548 2.69791 45.5695 2.69791C45.4842 2.69791 45.4012 2.72598 45.3334 2.77779L39.4723 6.75001L37.8056 8.8889C37.7468 8.95894 37.7146 9.04746 37.7146 9.1389C37.7146 9.23034 37.7468 9.31886 37.8056 9.3889L38.0278 9.61112L25.9167 22.2222L23.4167 19.4445L20.6389 22.2222C20.7676 22.9662 20.727 23.7296 20.5202 24.4557C20.3134 25.1818 19.9458 25.8521 19.4445 26.4167C18.9699 26.9388 18.3756 27.3379 17.7128 27.5798C17.0499 27.8217 16.3383 27.8992 15.6389 27.8056L3.72228 39.8889C3.64918 39.9589 3.591 40.043 3.55126 40.1361C3.51152 40.2292 3.49103 40.3293 3.49103 40.4306C3.49103 40.5318 3.51152 40.632 3.55126 40.725C3.591 40.8181 3.64918 40.9022 3.72228 40.9722L9.50006 46.9722C9.57036 47.0498 9.65611 47.1117 9.75179 47.1541C9.84747 47.1965 9.95096 47.2184 10.0556 47.2184C10.1603 47.2184 10.2638 47.1965 10.3594 47.1541C10.4551 47.1117 10.5409 47.0498 10.6112 46.9722L22.2223 34.8611C22.1308 34.1325 22.2085 33.3926 22.4494 32.6989C22.6903 32.0051 23.0878 31.3763 23.6112 30.8611C24.0901 30.3446 24.6848 29.9494 25.3465 29.7079C26.0082 29.4664 26.7177 29.3856 27.4167 29.4722L30.1945 26.6945L27.7778 24L39.9167 11.5833Z" fill="url(#paint0_linear)"/>
<path d="M44.7223 39.0833L41.9445 36.1111L23.3889 17.0833L22.4723 16.0833C22.9988 14.3347 23.0526 12.4779 22.628 10.7017C22.2035 8.92562 21.3159 7.29372 20.0556 5.97222C18.9658 4.83612 17.6114 3.98778 16.1135 3.50304C14.6157 3.0183 13.0211 2.91228 11.4723 3.19444C11.4043 3.21148 11.3418 3.24537 11.2904 3.29298C11.239 3.34059 11.2005 3.40038 11.1783 3.46683C11.1562 3.53328 11.1511 3.60424 11.1637 3.67316C11.1762 3.74207 11.2059 3.80671 11.25 3.86111L16.0834 8.77778C16.115 8.83771 16.1315 8.90445 16.1315 8.97222C16.1315 9.03999 16.115 9.10673 16.0834 9.16666L14.9167 14.1944C14.8992 14.2612 14.8643 14.3222 14.8155 14.371C14.7667 14.4198 14.7057 14.4547 14.6389 14.4722L9.69448 15.8333C9.63537 15.8675 9.5683 15.8854 9.50004 15.8854C9.43178 15.8854 9.36471 15.8675 9.3056 15.8333L4.61115 10.8611C4.55844 10.8071 4.49114 10.7695 4.41746 10.7531C4.34378 10.7367 4.26691 10.742 4.19623 10.7685C4.12554 10.795 4.0641 10.8415 4.0194 10.9024C3.9747 10.9632 3.94867 11.0357 3.94448 11.1111C3.66814 12.6983 3.77614 14.3286 4.25944 15.8655C4.74273 17.4024 5.58725 18.8011 6.72226 19.9444C7.9061 21.1754 9.40416 22.0591 11.0542 22.4998C12.7043 22.9405 14.4434 22.9213 16.0834 22.4444L16.25 22.6389L17.3056 23.7222L38.4445 45.9444C39.2363 46.7856 40.3277 47.2806 41.4822 47.3222C42.6366 47.3638 43.7609 46.9486 44.6111 46.1667L44.8334 45.9444C45.2597 45.5021 45.5944 44.98 45.8185 44.4079C46.0425 43.8359 46.1514 43.2253 46.1389 42.6111C46.135 41.2973 45.6281 40.0349 44.7223 39.0833Z" fill="url(#paint1_linear)"/>
<defs>
<linearGradient id="paint0_linear" x1="25.0001" y1="2.77779" x2="25.0001" y2="47.2222" gradientUnits="userSpaceOnUse">
<stop stop-color="#198AB3"/>
<stop offset="0.29" stop-color="#1786B1"/>
<stop offset="0.59" stop-color="#1079AD"/>
<stop offset="0.89" stop-color="#0565A5"/>
<stop offset="1" stop-color="#005BA1"/>
</linearGradient>
<linearGradient id="paint1_linear" x1="24.8889" y1="3.05555" x2="24.8889" y2="47.1667" gradientUnits="userSpaceOnUse">
<stop stop-color="#32D4F5"/>
<stop offset="0.23" stop-color="#31D0F1"/>
<stop offset="0.46" stop-color="#2CC3E6"/>
<stop offset="0.7" stop-color="#25AFD4"/>
<stop offset="0.94" stop-color="#1C92BA"/>
<stop offset="1" stop-color="#198AB3"/>
</linearGradient>
</defs>
</svg>
