<svg width="36" height="36" viewBox="0 0 36 36" fill="none" xmlns="http://www.w3.org/2000/svg">
<path d="M34.22 4.65405H1.78C0.796933 4.65405 0 5.45099 0 6.43405V29.5661C0 30.5491 0.796933 31.3461 1.78 31.3461H34.22C35.2031 31.3461 36 30.5491 36 29.5661V6.43405C36 5.45099 35.2031 4.65405 34.22 4.65405Z" fill="url(#paint0_linear_408_4425)"/>
<path d="M11.902 29.248C12.8221 29.248 13.568 28.5021 13.568 27.582C13.568 26.6619 12.8221 25.916 11.902 25.916C10.9819 25.916 10.236 26.6619 10.236 27.582C10.236 28.5021 10.9819 29.248 11.902 29.248Z" fill="#C3F1FF"/>
<path d="M8.79997 27.582C8.8007 27.2965 8.84109 27.0125 8.91997 26.738H4.14997C3.92613 26.738 3.71145 26.827 3.55317 26.9852C3.39489 27.1435 3.30597 27.3582 3.30597 27.582C3.30597 27.8059 3.39489 28.0206 3.55317 28.1788C3.71145 28.3371 3.92613 28.426 4.14997 28.426H8.92797C8.84654 28.152 8.80346 27.8679 8.79997 27.582Z" fill="#83B9F9" stroke="#83B9F9" stroke-width="0.3" stroke-miterlimit="10"/>
<path d="M31.868 26.738H14.868C15.028 27.2893 15.028 27.8747 14.868 28.426H31.868C31.9788 28.426 32.0886 28.4042 32.191 28.3618C32.2934 28.3194 32.3864 28.2572 32.4648 28.1788C32.5432 28.1005 32.6053 28.0074 32.6477 27.905C32.6902 27.8026 32.712 27.6929 32.712 27.582C32.712 27.4712 32.6902 27.3615 32.6477 27.2591C32.6053 27.1567 32.5432 27.0636 32.4648 26.9852C32.3864 26.9069 32.2934 26.8447 32.191 26.8023C32.0886 26.7599 31.9788 26.738 31.868 26.738Z" fill="#83B9F9" stroke="#83B9F9" stroke-width="0.3" stroke-miterlimit="10"/>
<path fill-rule="evenodd" clip-rule="evenodd" d="M19.86 13.8499L20.478 12.7399L25.246 15.5999L20.478 18.4459L19.86 17.3359L22.774 15.5999L19.86 13.8499ZM13.92 8.81592L18.694 11.6719L18.076 12.7819L15.156 11.0359V14.5239H13.92V8.81592ZM13.92 16.6599H15.156V20.1499L18.076 18.3999L18.694 19.5099L13.92 22.3679V16.6599Z" fill="#C3F1FF"/>
<defs>
<linearGradient id="paint0_linear_408_4425" x1="18.198" y1="42.1941" x2="17.856" y2="0.392053" gradientUnits="userSpaceOnUse">
<stop stop-color="#0078D4"/>
<stop offset="1" stop-color="#83B9F9"/>
</linearGradient>
</defs>
</svg>
