<svg width="16" height="16" viewBox="0 0 16 16" fill="none" xmlns="http://www.w3.org/2000/svg">
<g clip-path="url(#clip0_37327_171)">
<path d="M7.99997 0.531248C8.68747 0.531248 9.34893 0.61979 9.98434 0.796873C10.6198 0.973957 11.2135 1.22396 11.7656 1.54687C12.3177 1.86979 12.8229 2.26042 13.2812 2.71875C13.7396 3.17708 14.1276 3.67969 14.4453 4.22656C14.763 4.77344 15.0156 5.36979 15.2031 6.01562C15.3906 6.66146 15.4791 7.32292 15.4687 8C15.4687 8.6875 15.3802 9.34896 15.2031 9.98437C15.026 10.6198 14.776 11.2135 14.4531 11.7656C14.1302 12.3177 13.7396 12.8229 13.2812 13.2812C12.8229 13.7396 12.3203 14.1276 11.7734 14.4453C11.2265 14.763 10.6302 15.0156 9.98434 15.2031C9.33851 15.3906 8.67705 15.4792 7.99997 15.4688C7.31247 15.4688 6.65101 15.3802 6.01559 15.2031C5.38018 15.026 4.78643 14.776 4.23434 14.4531C3.68226 14.1302 3.17705 13.7396 2.71872 13.2812C2.26038 12.8229 1.87236 12.3203 1.55466 11.7734C1.23695 11.2266 0.984343 10.6302 0.796843 9.98437C0.609343 9.33854 0.520801 8.67708 0.531218 8C0.531218 7.3125 0.61976 6.65104 0.796843 6.01562C0.973926 5.38021 1.22393 4.78646 1.54684 4.23437C1.86976 3.68229 2.26038 3.17708 2.71872 2.71875C3.17705 2.26042 3.67966 1.87239 4.22653 1.55469C4.77341 1.23698 5.36976 0.984373 6.01559 0.796873C6.66143 0.609373 7.32289 0.520832 7.99997 0.531248ZM7.99997 14.5312C8.59893 14.5312 9.17705 14.4531 9.73434 14.2969C10.2916 14.1406 10.8125 13.9219 11.2968 13.6406C11.7812 13.3594 12.2213 13.0182 12.6172 12.6172C13.013 12.2161 13.3515 11.776 13.6328 11.2969C13.914 10.8177 14.1354 10.2969 14.2968 9.73437C14.4583 9.17187 14.5364 8.59375 14.5312 8C14.5312 7.40104 14.4531 6.82292 14.2968 6.26562C14.1406 5.70833 13.9218 5.1875 13.6406 4.70312C13.3593 4.21875 13.0182 3.77864 12.6172 3.38281C12.2161 2.98698 11.776 2.64844 11.2968 2.36719C10.8177 2.08594 10.2968 1.86458 9.73434 1.70312C9.17184 1.54167 8.59372 1.46354 7.99997 1.46875C7.40101 1.46875 6.82289 1.54687 6.26559 1.70312C5.7083 1.85937 5.18747 2.07812 4.70309 2.35937C4.21872 2.64062 3.77861 2.98177 3.38278 3.38281C2.98695 3.78385 2.64841 4.22396 2.36716 4.70312C2.08591 5.18229 1.86455 5.70312 1.70309 6.26562C1.54163 6.82812 1.46351 7.40625 1.46872 8C1.46872 8.59896 1.54684 9.17708 1.70309 9.73437C1.85934 10.2917 2.07809 10.8125 2.35934 11.2969C2.64059 11.7812 2.98174 12.2214 3.38278 12.6172C3.78382 13.013 4.22393 13.3516 4.70309 13.6328C5.18226 13.9141 5.70309 14.1354 6.26559 14.2969C6.82809 14.4583 7.40622 14.5365 7.99997 14.5312ZM7.49997 11.5H8.49997V12.5H7.49997V11.5ZM7.99997 4C8.34372 4 8.66664 4.0651 8.96872 4.19531C9.2708 4.32552 9.53382 4.50521 9.75778 4.73437C9.98174 4.96354 10.1614 5.22917 10.2968 5.53125C10.4323 5.83333 10.5 6.15625 10.5 6.5C10.5 6.8125 10.4505 7.08333 10.3515 7.3125C10.2526 7.54167 10.1302 7.7526 9.98434 7.94531C9.83851 8.13802 9.67705 8.30729 9.49997 8.45312C9.32289 8.59896 9.16403 8.7526 9.02341 8.91406C8.88278 9.07552 8.75778 9.23958 8.64841 9.40625C8.53903 9.57292 8.48955 9.77083 8.49997 10V10.5H7.49997V10C7.49997 9.6875 7.54945 9.41667 7.64841 9.1875C7.74736 8.95833 7.86976 8.74739 8.01559 8.55469C8.16143 8.36198 8.32289 8.19271 8.49997 8.04687C8.67705 7.90104 8.83591 7.7474 8.97653 7.58594C9.11716 7.42448 9.24216 7.26042 9.35153 7.09375C9.46091 6.92708 9.51039 6.72917 9.49997 6.5C9.49997 6.29167 9.46091 6.09635 9.38278 5.91406C9.30466 5.73177 9.19789 5.57292 9.06247 5.4375C8.92705 5.30208 8.7682 5.19531 8.58591 5.11719C8.40361 5.03906 8.2083 5 7.99997 5C7.79164 5 7.59632 5.03906 7.41403 5.11719C7.23174 5.19531 7.07289 5.30208 6.93747 5.4375C6.80205 5.57292 6.69528 5.73177 6.61716 5.91406C6.53903 6.09635 6.49997 6.29167 6.49997 6.5H5.49997C5.49997 6.15625 5.56507 5.83333 5.69528 5.53125C5.82549 5.22917 6.00257 4.96615 6.22653 4.74219C6.45049 4.51823 6.71611 4.33854 7.02341 4.20312C7.3307 4.06771 7.65622 4 7.99997 4Z" fill="#fff"/>
</g>
<defs>
<clipPath id="clip0_37327_171">
<rect width="16" height="16" fill="white"/>
</clipPath>
</defs>
</svg>
