<?xml version="1.0" encoding="utf-8"?>
<!-- Generator: Adobe Illustrator 22.1.0, SVG Export Plug-In . SVG Version: 6.00 Build 0)  -->
<svg version="1.1" id="Layer_1" xmlns="http://www.w3.org/2000/svg" xmlns:xlink="http://www.w3.org/1999/xlink" x="0px" y="0px"
	 width="16px" height="16px" viewBox="0 0 16 16" enable-background="new 0 0 16 16" xml:space="preserve">
<g>
	<path fill="#3999C6" d="M8.9,5l2-2h5v11.5c0,0.828-0.672,1.5-1.5,1.5h-11c-0.828,0-1.5-0.672-1.5-1.5V5H8.9z"/>
	<path opacity="0.8" fill="#FFFFFF" d="M14.9,6v8.5c0,0.276-0.225,0.5-0.5,0.5h-11c-0.275,0-0.5-0.224-0.5-0.5V6H14.9z"/>
</g>
<polygon fill="#804998" points="6.9,14 11.8,10.5 6.9,7 "/>
<path fill="#804998" d="M8.9,9h-2c-7,0-5-7-4.119-8.119C1.056,1.935,0,3.83,0,6c0,3.314,3.586,6,6.9,6c2,0,2,0,2,0V9z"/>
</svg>
