<svg width="223" height="48" viewBox="0 0 223 48" fill="none" xmlns="http://www.w3.org/2000/svg">
<rect width="223" height="48" rx="10" fill="url(#paint0_linear_1950_920)"/>
<path d="M31.7628 14.0385C31.9168 13.9872 32.0832 13.9872 32.2372 14.0385L35.9872 15.2885C36.2934 15.3906 36.5 15.6772 36.5 16V21C36.5 21.3228 36.2934 21.6094 35.9872 21.7115L32.75 22.7906V25H34.5C35.7426 25 36.75 26.0074 36.75 27.25V28.0945C38.0439 28.4275 39 29.6021 39 31C39 32.6569 37.6569 34 36 34C34.3431 34 33 32.6569 33 31C33 29.6021 33.9561 28.4275 35.25 28.0945V27.25C35.25 26.8358 34.9142 26.5 34.5 26.5H29.5C29.0858 26.5 28.75 26.8358 28.75 27.25V28.0945C30.0439 28.4275 31 29.6021 31 31C31 32.6569 29.6569 34 28 34C26.3431 34 25 32.6569 25 31C25 29.6021 25.9561 28.4275 27.25 28.0945V27.25C27.25 26.0074 28.2574 25 29.5 25H31.25V22.7906L28.0128 21.7115C27.7066 21.6094 27.5 21.3228 27.5 21V16C27.5 15.6772 27.7066 15.3906 28.0128 15.2885L31.7628 14.0385ZM29.7885 17.5128C29.6575 17.9058 29.8699 18.3305 30.2628 18.4615L31.25 18.7906V19.75C31.25 20.1642 31.5858 20.5 32 20.5C32.4142 20.5 32.75 20.1642 32.75 19.75V18.7906L33.7372 18.4615C34.1301 18.3305 34.3425 17.9058 34.2115 17.5128C34.0805 17.1199 33.6558 16.9075 33.2628 17.0385L32 17.4594L30.7372 17.0385C30.3442 16.9075 29.9195 17.1199 29.7885 17.5128Z" fill="white"/>
<path d="M70.6992 34H66.5742L65.3789 30.2617H59.4023L58.2188 34H54.1172L60.2344 17.1953H64.7227L70.6992 34ZM64.5117 27.3555L62.707 21.707C62.5742 21.2852 62.4805 20.7812 62.4258 20.1953H62.332C62.293 20.6875 62.1953 21.1758 62.0391 21.6602L60.2109 27.3555H64.5117ZM82.8047 34H72.7969V17.1953H76.582V30.9297H82.8047V34ZM95.0859 34H85.0781V17.1953H88.8633V30.9297H95.0859V34ZM103.852 34.293C101.445 34.293 99.4844 33.5117 97.9688 31.9492C96.4531 30.3789 95.6953 28.3359 95.6953 25.8203C95.6953 23.1641 96.4648 21.0156 98.0039 19.375C99.543 17.7344 101.582 16.9141 104.121 16.9141C106.52 16.9141 108.457 17.6992 109.934 19.2695C111.418 20.8398 112.16 22.9102 112.16 25.4805C112.16 28.1211 111.391 30.25 109.852 31.8672C108.32 33.4844 106.32 34.293 103.852 34.293ZM104.016 20.1719C102.688 20.1719 101.633 20.6719 100.852 21.6719C100.07 22.6641 99.6797 23.9805 99.6797 25.6211C99.6797 27.2852 100.07 28.6016 100.852 29.5703C101.633 30.5391 102.656 31.0234 103.922 31.0234C105.227 31.0234 106.262 30.5547 107.027 29.6172C107.793 28.6719 108.176 27.3633 108.176 25.6914C108.176 23.9492 107.805 22.5938 107.062 21.625C106.32 20.6562 105.305 20.1719 104.016 20.1719ZM127.008 33.4023C125.781 33.9961 124.18 34.293 122.203 34.293C119.625 34.293 117.598 33.5352 116.121 32.0195C114.645 30.5039 113.906 28.4844 113.906 25.9609C113.906 23.2734 114.734 21.0938 116.391 19.4219C118.055 17.75 120.211 16.9141 122.859 16.9141C124.5 16.9141 125.883 17.1211 127.008 17.5352V21.1797C125.883 20.5078 124.602 20.1719 123.164 20.1719C121.586 20.1719 120.312 20.668 119.344 21.6602C118.375 22.6523 117.891 23.9961 117.891 25.6914C117.891 27.3164 118.348 28.6133 119.262 29.582C120.176 30.543 121.406 31.0234 122.953 31.0234C124.43 31.0234 125.781 30.6641 127.008 29.9453V33.4023ZM144.715 34H140.59L139.395 30.2617H133.418L132.234 34H128.133L134.25 17.1953H138.738L144.715 34ZM138.527 27.3555L136.723 21.707C136.59 21.2852 136.496 20.7812 136.441 20.1953H136.348C136.309 20.6875 136.211 21.1758 136.055 21.6602L134.227 27.3555H138.527ZM156.926 20.2773H152.133V34H148.336V20.2773H143.566V17.1953H156.926V20.2773ZM162.973 34H159.188V17.1953H162.973V34ZM173.906 34.293C171.5 34.293 169.539 33.5117 168.023 31.9492C166.508 30.3789 165.75 28.3359 165.75 25.8203C165.75 23.1641 166.52 21.0156 168.059 19.375C169.598 17.7344 171.637 16.9141 174.176 16.9141C176.574 16.9141 178.512 17.6992 179.988 19.2695C181.473 20.8398 182.215 22.9102 182.215 25.4805C182.215 28.1211 181.445 30.25 179.906 31.8672C178.375 33.4844 176.375 34.293 173.906 34.293ZM174.07 20.1719C172.742 20.1719 171.688 20.6719 170.906 21.6719C170.125 22.6641 169.734 23.9805 169.734 25.6211C169.734 27.2852 170.125 28.6016 170.906 29.5703C171.688 30.5391 172.711 31.0234 173.977 31.0234C175.281 31.0234 176.316 30.5547 177.082 29.6172C177.848 28.6719 178.23 27.3633 178.23 25.6914C178.23 23.9492 177.859 22.5938 177.117 21.625C176.375 20.6562 175.359 20.1719 174.07 20.1719ZM200.133 34H196.312L189.387 23.4414C188.98 22.8242 188.699 22.3594 188.543 22.0469H188.496C188.559 22.6406 188.59 23.5469 188.59 24.7656V34H185.016V17.1953H189.094L195.762 27.4258C196.066 27.8867 196.348 28.3438 196.605 28.7969H196.652C196.59 28.4062 196.559 27.6367 196.559 26.4883V17.1953H200.133V34Z" fill="white"/>
<defs>
<linearGradient id="paint0_linear_1950_920" x1="0" y1="24" x2="223" y2="24" gradientUnits="userSpaceOnUse">
<stop stop-color="#0078D4"/>
<stop offset="0.505" stop-color="#118BCC"/>
<stop offset="1" stop-color="#2BA5C0"/>
</linearGradient>
</defs>
</svg>
