<svg width="374" height="48" viewBox="0 0 374 48" fill="none" xmlns="http://www.w3.org/2000/svg">
<rect width="374" height="48" rx="10" fill="url(#paint0_linear_1950_926)"/>
<path d="M26 33.25C26 33.6642 26.3358 34 26.75 34H37.25L37.3518 33.9932C37.7178 33.9435 38 33.6297 38 33.25C38 32.8358 37.6642 32.5 37.25 32.5L35.499 32.4996V30.0017L39.7488 30.0019L39.9029 29.9967C41.0737 29.9176 41.9988 28.9428 41.9988 27.752L42 24H38C37.4289 24 36.713 24.1483 36.3856 23.6805L35.3033 22.1344L33.4163 25.3278C33.0769 25.9021 32.6076 27.0491 31.9426 26.9981C31.5 27 31.3281 26.5289 31.3036 26.5289L28.9602 20.6703L28.059 22.6778C27.7767 23.3065 27.669 24.0004 26.9798 24.0004H22V27.752L22.0052 27.906C22.0844 29.0768 23.0591 30.0019 24.25 30.0019L28.499 30.0017V32.4996L26.75 32.5L26.6482 32.5069C26.2822 32.5565 26 32.8703 26 33.25ZM29.998 30.0017H33.998L33.999 32.5H29.999L29.998 30.0017ZM41.9988 17.2499L42 22.5L37.3905 22.5004L35.8644 20.3203C35.5 20 35.5 20 35.2211 20.0009C35 20 34.8602 19.9357 34.6043 20.3688L32.13 24.556L29.6964 18.4719C29.5 18 28.9845 17.9994 29 18C28.9845 17.9994 28.5 18 28.3158 18.4432L26.4944 22.5004H22V17.2499C22 16.0591 22.9252 15.0844 24.096 15.0052L24.25 15H39.7488C40.9397 15 41.9145 15.9251 41.9936 17.0959L41.9988 17.2499Z" fill="white"/>
<path d="M70.6992 34H66.5742L65.3789 30.2617H59.4023L58.2188 34H54.1172L60.2344 17.1953H64.7227L70.6992 34ZM64.5117 27.3555L62.707 21.707C62.5742 21.2852 62.4805 20.7812 62.4258 20.1953H62.332C62.293 20.6875 62.1953 21.1758 62.0391 21.6602L60.2109 27.3555H64.5117ZM87.9141 34H84.0938L77.168 23.4414C76.7617 22.8242 76.4805 22.3594 76.3242 22.0469H76.2773C76.3398 22.6406 76.3711 23.5469 76.3711 24.7656V34H72.7969V17.1953H76.875L83.543 27.4258C83.8477 27.8867 84.1289 28.3438 84.3867 28.7969H84.4336C84.3711 28.4062 84.3398 27.6367 84.3398 26.4883V17.1953H87.9141V34ZM98.8594 34.293C96.4531 34.293 94.4922 33.5117 92.9766 31.9492C91.4609 30.3789 90.7031 28.3359 90.7031 25.8203C90.7031 23.1641 91.4727 21.0156 93.0117 19.375C94.5508 17.7344 96.5898 16.9141 99.1289 16.9141C101.527 16.9141 103.465 17.6992 104.941 19.2695C106.426 20.8398 107.168 22.9102 107.168 25.4805C107.168 28.1211 106.398 30.25 104.859 31.8672C103.328 33.4844 101.328 34.293 98.8594 34.293ZM99.0234 20.1719C97.6953 20.1719 96.6406 20.6719 95.8594 21.6719C95.0781 22.6641 94.6875 23.9805 94.6875 25.6211C94.6875 27.2852 95.0781 28.6016 95.8594 29.5703C96.6406 30.5391 97.6641 31.0234 98.9297 31.0234C100.234 31.0234 101.27 30.5547 102.035 29.6172C102.801 28.6719 103.184 27.3633 103.184 25.6914C103.184 23.9492 102.812 22.5938 102.07 21.625C101.328 20.6562 100.312 20.1719 99.0234 20.1719ZM129.117 34H125.379V23.9453C125.379 22.8594 125.426 21.6602 125.52 20.3477H125.426C125.23 21.3789 125.055 22.1211 124.898 22.5742L120.961 34H117.867L113.859 22.6914C113.75 22.3867 113.574 21.6055 113.332 20.3477H113.227C113.328 22.0039 113.379 23.457 113.379 24.707V34H109.969V17.1953H115.512L118.945 27.1562C119.219 27.9531 119.418 28.7539 119.543 29.5586H119.613C119.824 28.6289 120.047 27.8203 120.281 27.1328L123.715 17.1953H129.117V34ZM147.715 34H143.59L142.395 30.2617H136.418L135.234 34H131.133L137.25 17.1953H141.738L147.715 34ZM141.527 27.3555L139.723 21.707C139.59 21.2852 139.496 20.7812 139.441 20.1953H139.348C139.309 20.6875 139.211 21.1758 139.055 21.6602L137.227 27.3555H141.527ZM159.82 34H149.812V17.1953H153.598V30.9297H159.82V34ZM173.051 17.1953L167.578 28.0234V34H163.793V28.0938L158.461 17.1953H162.785L165.492 23.4648C165.539 23.582 165.668 24.0391 165.879 24.8359H165.926C166.027 24.2734 166.148 23.832 166.289 23.5117L169.043 17.1953H173.051ZM200.742 34H197.004V23.9453C197.004 22.8594 197.051 21.6602 197.145 20.3477H197.051C196.855 21.3789 196.68 22.1211 196.523 22.5742L192.586 34H189.492L185.484 22.6914C185.375 22.3867 185.199 21.6055 184.957 20.3477H184.852C184.953 22.0039 185.004 23.457 185.004 24.707V34H181.594V17.1953H187.137L190.57 27.1562C190.844 27.9531 191.043 28.7539 191.168 29.5586H191.238C191.449 28.6289 191.672 27.8203 191.906 27.1328L195.34 17.1953H200.742V34ZM219.34 34H215.215L214.02 30.2617H208.043L206.859 34H202.758L208.875 17.1953H213.363L219.34 34ZM213.152 27.3555L211.348 21.707C211.215 21.2852 211.121 20.7812 211.066 20.1953H210.973C210.934 20.6875 210.836 21.1758 210.68 21.6602L208.852 27.3555H213.152ZM236.555 34H232.734L225.809 23.4414C225.402 22.8242 225.121 22.3594 224.965 22.0469H224.918C224.98 22.6406 225.012 23.5469 225.012 24.7656V34H221.438V17.1953H225.516L232.184 27.4258C232.488 27.8867 232.77 28.3438 233.027 28.7969H233.074C233.012 28.4062 232.98 27.6367 232.98 26.4883V17.1953H236.555V34ZM255.176 34H251.051L249.855 30.2617H243.879L242.695 34H238.594L244.711 17.1953H249.199L255.176 34ZM248.988 27.3555L247.184 21.707C247.051 21.2852 246.957 20.7812 246.902 20.1953H246.809C246.77 20.6875 246.672 21.1758 246.516 21.6602L244.688 27.3555H248.988ZM270.832 32.875C269.191 33.8203 267.152 34.293 264.715 34.293C262.012 34.293 259.879 33.5469 258.316 32.0547C256.762 30.5547 255.984 28.4922 255.984 25.8672C255.984 23.2266 256.836 21.0742 258.539 19.4102C260.242 17.7461 262.508 16.9141 265.336 16.9141C267.117 16.9141 268.688 17.1602 270.047 17.6523V21.2031C268.75 20.4531 267.164 20.0781 265.289 20.0781C263.719 20.0781 262.438 20.5898 261.445 21.6133C260.461 22.6289 259.969 23.9883 259.969 25.6914C259.969 27.418 260.41 28.7539 261.293 29.6992C262.184 30.6445 263.383 31.1172 264.891 31.1172C265.797 31.1172 266.516 30.9883 267.047 30.7305V27.4492H263.684V24.4258H270.832V32.875ZM284.18 34H274.102V17.1953H283.793V20.2773H277.887V24.0156H283.383V27.0859H277.887V30.9297H284.18V34ZM306.023 34H302.285V23.9453C302.285 22.8594 302.332 21.6602 302.426 20.3477H302.332C302.137 21.3789 301.961 22.1211 301.805 22.5742L297.867 34H294.773L290.766 22.6914C290.656 22.3867 290.48 21.6055 290.238 20.3477H290.133C290.234 22.0039 290.285 23.457 290.285 24.707V34H286.875V17.1953H292.418L295.852 27.1562C296.125 27.9531 296.324 28.7539 296.449 29.5586H296.52C296.73 28.6289 296.953 27.8203 297.188 27.1328L300.621 17.1953H306.023V34ZM319.922 34H309.844V17.1953H319.535V20.2773H313.629V24.0156H319.125V27.0859H313.629V30.9297H319.922V34ZM337.734 34H333.914L326.988 23.4414C326.582 22.8242 326.301 22.3594 326.145 22.0469H326.098C326.16 22.6406 326.191 23.5469 326.191 24.7656V34H322.617V17.1953H326.695L333.363 27.4258C333.668 27.8867 333.949 28.3438 334.207 28.7969H334.254C334.191 28.4062 334.16 27.6367 334.16 26.4883V17.1953H337.734V34ZM353.379 20.2773H348.586V34H344.789V20.2773H340.02V17.1953H353.379V20.2773Z" fill="white"/>
<defs>
<linearGradient id="paint0_linear_1950_926" x1="0" y1="24" x2="374" y2="24" gradientUnits="userSpaceOnUse">
<stop stop-color="#0078D4"/>
<stop offset="0.505" stop-color="#118BCC"/>
<stop offset="1" stop-color="#2BA5C0"/>
</linearGradient>
</defs>
</svg>
