<svg width="393" height="48" viewBox="0 0 393 48" fill="none" xmlns="http://www.w3.org/2000/svg">
<rect width="393" height="48" rx="10" fill="url(#paint0_linear_1950_951)"/>
<path d="M26.75 30H28.2571C28.3669 27.9862 29.7336 26.3084 31.5863 25.7352C32.3914 23.505 34.5034 21.9001 37 21.8481V20.75C37 19.7835 36.2165 19 35.25 19H34.25C34.1119 19 34 18.8881 34 18.75V15.75C34 14.7835 33.2165 14 32.25 14H26.75C25.7835 14 25 14.7835 25 15.75V28.25C25 29.2165 25.7835 30 26.75 30ZM29 20.75C29 21.1642 28.6642 21.5 28.25 21.5C27.8358 21.5 27.5 21.1642 27.5 20.75C27.5 20.3358 27.8358 20 28.25 20C28.6642 20 29 20.3358 29 20.75ZM31.5 17.75C31.5 18.1642 31.1642 18.5 30.75 18.5C30.3358 18.5 30 18.1642 30 17.75C30 17.3358 30.3358 17 30.75 17C31.1642 17 31.5 17.3358 31.5 17.75ZM30.75 21.5C30.3358 21.5 30 21.1642 30 20.75C30 20.3358 30.3358 20 30.75 20C31.1642 20 31.5 20.3358 31.5 20.75C31.5 21.1642 31.1642 21.5 30.75 21.5ZM31.5 23.75C31.5 24.1642 31.1642 24.5 30.75 24.5C30.3358 24.5 30 24.1642 30 23.75C30 23.3358 30.3358 23 30.75 23C31.1642 23 31.5 23.3358 31.5 23.75ZM29 23.75C29 24.1642 28.6642 24.5 28.25 24.5C27.8358 24.5 27.5 24.1642 27.5 23.75C27.5 23.3358 27.8358 23 28.25 23C28.6642 23 29 23.3358 29 23.75ZM28.25 18.5C27.8358 18.5 27.5 18.1642 27.5 17.75C27.5 17.3358 27.8358 17 28.25 17C28.6642 17 29 17.3358 29 17.75C29 18.1642 28.6642 18.5 28.25 18.5ZM37.125 22.8468C34.8254 22.8468 32.8975 24.4346 32.3765 26.574C30.603 26.8658 29.25 28.4059 29.25 30.2621C29.25 32.3265 30.9235 34 32.9879 34H41.2621C43.3265 34 45 32.3265 45 30.2621C45 28.4059 43.647 26.8658 41.8735 26.574C41.3525 24.4346 39.4246 22.8468 37.125 22.8468ZM33.7586 27.3567C33.9457 25.6639 35.382 24.3468 37.125 24.3468C38.868 24.3468 40.3043 25.6639 40.4914 27.3567L40.5655 28.0272L41.2621 28.0242H41.2635C42.4988 28.025 43.5 29.0266 43.5 30.2621C43.5 31.4981 42.4981 32.5 41.2621 32.5H32.9879C31.7519 32.5 30.75 31.4981 30.75 30.2621C30.75 29.0266 31.7512 28.025 32.9865 28.0242H32.9879L33.6845 28.0271L33.7586 27.3567Z" fill="white"/>
<path d="M73.6992 34H69.5742L68.3789 30.2617H62.4023L61.2188 34H57.1172L63.2344 17.1953H67.7227L73.6992 34ZM67.5117 27.3555L65.707 21.707C65.5742 21.2852 65.4805 20.7812 65.4258 20.1953H65.332C65.293 20.6875 65.1953 21.1758 65.0391 21.6602L63.2109 27.3555H67.5117ZM89.8945 34H85.5469L82.9336 29.6758C82.7383 29.3477 82.5508 29.0547 82.3711 28.7969C82.1914 28.5391 82.0078 28.3203 81.8203 28.1406C81.6406 27.9531 81.4492 27.8125 81.2461 27.7188C81.0508 27.6172 80.8359 27.5664 80.6016 27.5664H79.582V34H75.7969V17.1953H81.7969C85.875 17.1953 87.9141 18.7188 87.9141 21.7656C87.9141 22.3516 87.8242 22.8945 87.6445 23.3945C87.4648 23.8867 87.2109 24.332 86.8828 24.7305C86.5547 25.1289 86.1562 25.4727 85.6875 25.7617C85.2266 26.0508 84.7109 26.2773 84.1406 26.4414V26.4883C84.3906 26.5664 84.6328 26.6953 84.8672 26.875C85.1016 27.0469 85.3281 27.25 85.5469 27.4844C85.7656 27.7188 85.9727 27.9727 86.168 28.2461C86.3711 28.5117 86.5547 28.7734 86.7188 29.0312L89.8945 34ZM79.582 20.0312V24.707H81.2227C82.0352 24.707 82.6875 24.4727 83.1797 24.0039C83.6797 23.5273 83.9297 22.9375 83.9297 22.2344C83.9297 20.7656 83.0508 20.0312 81.293 20.0312H79.582ZM103.289 33.4023C102.062 33.9961 100.461 34.293 98.4844 34.293C95.9062 34.293 93.8789 33.5352 92.4023 32.0195C90.9258 30.5039 90.1875 28.4844 90.1875 25.9609C90.1875 23.2734 91.0156 21.0938 92.6719 19.4219C94.3359 17.75 96.4922 16.9141 99.1406 16.9141C100.781 16.9141 102.164 17.1211 103.289 17.5352V21.1797C102.164 20.5078 100.883 20.1719 99.4453 20.1719C97.8672 20.1719 96.5938 20.668 95.625 21.6602C94.6562 22.6523 94.1719 23.9961 94.1719 25.6914C94.1719 27.3164 94.6289 28.6133 95.543 29.582C96.457 30.543 97.6875 31.0234 99.2344 31.0234C100.711 31.0234 102.062 30.6641 103.289 29.9453V33.4023ZM120.762 34H116.965V27.1562H110.004V34H106.219V17.1953H110.004V23.8984H116.965V17.1953H120.762V34ZM128.402 34H124.617V17.1953H128.402V34ZM144.035 20.2773H139.242V34H135.445V20.2773H130.676V17.1953H144.035V20.2773ZM156.375 34H146.297V17.1953H155.988V20.2773H150.082V24.0156H155.578V27.0859H150.082V30.9297H156.375V34ZM171.117 33.4023C169.891 33.9961 168.289 34.293 166.312 34.293C163.734 34.293 161.707 33.5352 160.23 32.0195C158.754 30.5039 158.016 28.4844 158.016 25.9609C158.016 23.2734 158.844 21.0938 160.5 19.4219C162.164 17.75 164.32 16.9141 166.969 16.9141C168.609 16.9141 169.992 17.1211 171.117 17.5352V21.1797C169.992 20.5078 168.711 20.1719 167.273 20.1719C165.695 20.1719 164.422 20.668 163.453 21.6602C162.484 22.6523 162 23.9961 162 25.6914C162 27.3164 162.457 28.6133 163.371 29.582C164.285 30.543 165.516 31.0234 167.062 31.0234C168.539 31.0234 169.891 30.6641 171.117 29.9453V33.4023ZM185.848 20.2773H181.055V34H177.258V20.2773H172.488V17.1953H185.848V20.2773ZM191.895 34H188.109V17.1953H191.895V34ZM210.844 34H207.023L200.098 23.4414C199.691 22.8242 199.41 22.3594 199.254 22.0469H199.207C199.27 22.6406 199.301 23.5469 199.301 24.7656V34H195.727V17.1953H199.805L206.473 27.4258C206.777 27.8867 207.059 28.3438 207.316 28.7969H207.363C207.301 28.4062 207.27 27.6367 207.27 26.4883V17.1953H210.844V34ZM228.48 32.875C226.84 33.8203 224.801 34.293 222.363 34.293C219.66 34.293 217.527 33.5469 215.965 32.0547C214.41 30.5547 213.633 28.4922 213.633 25.8672C213.633 23.2266 214.484 21.0742 216.188 19.4102C217.891 17.7461 220.156 16.9141 222.984 16.9141C224.766 16.9141 226.336 17.1602 227.695 17.6523V21.2031C226.398 20.4531 224.812 20.0781 222.938 20.0781C221.367 20.0781 220.086 20.5898 219.094 21.6133C218.109 22.6289 217.617 23.9883 217.617 25.6914C217.617 27.418 218.059 28.7539 218.941 29.6992C219.832 30.6445 221.031 31.1172 222.539 31.1172C223.445 31.1172 224.164 30.9883 224.695 30.7305V27.4492H221.332V24.4258H228.48V32.875ZM248.098 20.2773H242.168V24.4023H247.617V27.4727H242.168V34H238.383V17.1953H248.098V20.2773ZM257.977 34.293C255.57 34.293 253.609 33.5117 252.094 31.9492C250.578 30.3789 249.82 28.3359 249.82 25.8203C249.82 23.1641 250.59 21.0156 252.129 19.375C253.668 17.7344 255.707 16.9141 258.246 16.9141C260.645 16.9141 262.582 17.6992 264.059 19.2695C265.543 20.8398 266.285 22.9102 266.285 25.4805C266.285 28.1211 265.516 30.25 263.977 31.8672C262.445 33.4844 260.445 34.293 257.977 34.293ZM258.141 20.1719C256.812 20.1719 255.758 20.6719 254.977 21.6719C254.195 22.6641 253.805 23.9805 253.805 25.6211C253.805 27.2852 254.195 28.6016 254.977 29.5703C255.758 30.5391 256.781 31.0234 258.047 31.0234C259.352 31.0234 260.387 30.5547 261.152 29.6172C261.918 28.6719 262.301 27.3633 262.301 25.6914C262.301 23.9492 261.93 22.5938 261.188 21.625C260.445 20.6562 259.43 20.1719 258.141 20.1719ZM283.184 34H278.836L276.223 29.6758C276.027 29.3477 275.84 29.0547 275.66 28.7969C275.48 28.5391 275.297 28.3203 275.109 28.1406C274.93 27.9531 274.738 27.8125 274.535 27.7188C274.34 27.6172 274.125 27.5664 273.891 27.5664H272.871V34H269.086V17.1953H275.086C279.164 17.1953 281.203 18.7188 281.203 21.7656C281.203 22.3516 281.113 22.8945 280.934 23.3945C280.754 23.8867 280.5 24.332 280.172 24.7305C279.844 25.1289 279.445 25.4727 278.977 25.7617C278.516 26.0508 278 26.2773 277.43 26.4414V26.4883C277.68 26.5664 277.922 26.6953 278.156 26.875C278.391 27.0469 278.617 27.25 278.836 27.4844C279.055 27.7188 279.262 27.9727 279.457 28.2461C279.66 28.5117 279.844 28.7734 280.008 29.0312L283.184 34ZM272.871 20.0312V24.707H274.512C275.324 24.707 275.977 24.4727 276.469 24.0039C276.969 23.5273 277.219 22.9375 277.219 22.2344C277.219 20.7656 276.34 20.0312 274.582 20.0312H272.871ZM303.445 33.4023C302.219 33.9961 300.617 34.293 298.641 34.293C296.062 34.293 294.035 33.5352 292.559 32.0195C291.082 30.5039 290.344 28.4844 290.344 25.9609C290.344 23.2734 291.172 21.0938 292.828 19.4219C294.492 17.75 296.648 16.9141 299.297 16.9141C300.938 16.9141 302.32 17.1211 303.445 17.5352V21.1797C302.32 20.5078 301.039 20.1719 299.602 20.1719C298.023 20.1719 296.75 20.668 295.781 21.6602C294.812 22.6523 294.328 23.9961 294.328 25.6914C294.328 27.3164 294.785 28.6133 295.699 29.582C296.613 30.543 297.844 31.0234 299.391 31.0234C300.867 31.0234 302.219 30.6641 303.445 29.9453V33.4023ZM316.383 34H306.375V17.1953H310.16V30.9297H316.383V34ZM325.148 34.293C322.742 34.293 320.781 33.5117 319.266 31.9492C317.75 30.3789 316.992 28.3359 316.992 25.8203C316.992 23.1641 317.762 21.0156 319.301 19.375C320.84 17.7344 322.879 16.9141 325.418 16.9141C327.816 16.9141 329.754 17.6992 331.23 19.2695C332.715 20.8398 333.457 22.9102 333.457 25.4805C333.457 28.1211 332.688 30.25 331.148 31.8672C329.617 33.4844 327.617 34.293 325.148 34.293ZM325.312 20.1719C323.984 20.1719 322.93 20.6719 322.148 21.6719C321.367 22.6641 320.977 23.9805 320.977 25.6211C320.977 27.2852 321.367 28.6016 322.148 29.5703C322.93 30.5391 323.953 31.0234 325.219 31.0234C326.523 31.0234 327.559 30.5547 328.324 29.6172C329.09 28.6719 329.473 27.3633 329.473 25.6914C329.473 23.9492 329.102 22.5938 328.359 21.625C327.617 20.6562 326.602 20.1719 325.312 20.1719ZM349.957 26.7227C349.957 31.7695 347.605 34.293 342.902 34.293C338.34 34.293 336.059 31.8281 336.059 26.8984V17.1953H339.855V26.9453C339.855 29.6641 340.918 31.0234 343.043 31.0234C345.129 31.0234 346.172 29.7109 346.172 27.0859V17.1953H349.957V26.7227ZM353.625 34V17.1953H359.578C365.547 17.1953 368.531 19.9258 368.531 25.3867C368.531 28.0039 367.715 30.0938 366.082 31.6562C364.457 33.2188 362.289 34 359.578 34H353.625ZM357.41 20.2773V30.9297H359.285C360.926 30.9297 362.211 30.4375 363.141 29.4531C364.078 28.4688 364.547 27.1289 364.547 25.4336C364.547 23.832 364.082 22.5742 363.152 21.6602C362.23 20.7383 360.934 20.2773 359.262 20.2773H357.41Z" fill="white"/>
<defs>
<linearGradient id="paint0_linear_1950_951" x1="0" y1="24" x2="393" y2="24" gradientUnits="userSpaceOnUse">
<stop stop-color="#FF5C39"/>
<stop offset="0.505" stop-color="#FF5C39"/>
<stop offset="1" stop-color="#FF871F"/>
</linearGradient>
</defs>
</svg>
