<svg width="319" height="48" viewBox="0 0 319 48" fill="none" xmlns="http://www.w3.org/2000/svg">
<rect width="319" height="48" rx="10" fill="url(#paint0_linear_1950_979)"/>
<path d="M37.7499 14.001C38.9407 14.001 39.9155 14.9261 39.9947 16.0969L39.9999 16.251V26.3785C39.8794 26.4591 39.7651 26.5526 39.6587 26.659L36.2504 30.0673L35.3417 29.1579C34.9254 28.7413 34.3865 28.522 33.8411 28.5H36.2499C36.6642 28.5 36.9999 28.1642 36.9999 27.75C36.9999 27.3358 36.6642 27 36.2499 27H31.2461C30.8319 27 30.4961 27.3358 30.4961 27.75C30.4961 28.1642 30.8319 28.5 31.2461 28.5H33.6589C33.1141 28.5219 32.5758 28.7407 32.1597 29.1565C31.2806 30.0348 31.28 31.4594 32.1583 32.3385L33.8175 33.999H26.25C25.0591 33.999 24.0844 33.0739 24.0052 31.9031L24 31.749V16.251C24 15.0601 24.9252 14.0853 26.096 14.0062L26.25 14.001H37.7499ZM29 19.7516C29 19.1993 28.5523 18.7516 28 18.7516C27.4477 18.7516 27 19.1993 27 19.7516C27 20.3039 27.4477 20.7516 28 20.7516C28.5523 20.7516 29 20.3039 29 19.7516ZM31.2461 19C30.8319 19 30.4961 19.3358 30.4961 19.75C30.4961 20.1642 30.8319 20.5 31.2461 20.5H36.2499C36.6642 20.5 36.9999 20.1642 36.9999 19.75C36.9999 19.3358 36.6642 19 36.2499 19H31.2461ZM30.4961 23.75C30.4961 24.1642 30.8319 24.5 31.2461 24.5H36.2499C36.6642 24.5 36.9999 24.1642 36.9999 23.75C36.9999 23.3358 36.6642 23 36.2499 23H31.2461C30.8319 23 30.4961 23.3358 30.4961 23.75ZM29 23.75C29 23.1977 28.5523 22.75 28 22.75C27.4477 22.75 27 23.1977 27 23.75C27 24.3023 27.4477 24.75 28 24.75C28.5523 24.75 29 24.3023 29 23.75ZM29 27.748C29 27.1957 28.5523 26.748 28 26.748C27.4477 26.748 27 27.1957 27 27.748C27 28.3003 27.4477 28.748 28 28.748C28.5523 28.748 29 28.3003 29 27.748ZM36.2499 32.1891L40.7194 27.7197C41.0122 27.4268 41.4871 27.4268 41.78 27.7197C42.0729 28.0126 42.0729 28.4874 41.78 28.7803L36.78 33.7803C36.7636 33.7968 36.7464 33.8124 36.7286 33.8272C36.6043 33.9304 36.4496 33.9909 36.2876 33.999C36.2749 33.9997 36.2622 34 36.2495 34C36.2369 34 36.2243 33.9997 36.2118 33.999C36.0266 33.9897 35.8508 33.9119 35.7191 33.7801L33.2198 31.2786C32.927 30.9856 32.9269 30.5104 33.2199 30.2176C33.5129 29.9248 33.9878 29.925 34.2806 30.2181L36.2499 32.1891Z" fill="white"/>
<path d="M65.6367 20.2773H59.707V24.4023H65.1562V27.4727H59.707V34H55.9219V17.1953H65.6367V20.2773ZM72.1992 34H68.4141V17.1953H72.1992V34ZM91.1484 34H87.3281L80.4023 23.4414C79.9961 22.8242 79.7148 22.3594 79.5586 22.0469H79.5117C79.5742 22.6406 79.6055 23.5469 79.6055 24.7656V34H76.0312V17.1953H80.1094L86.7773 27.4258C87.082 27.8867 87.3633 28.3438 87.6211 28.7969H87.668C87.6055 28.4062 87.5742 27.6367 87.5742 26.4883V17.1953H91.1484V34ZM102.094 34.293C99.6875 34.293 97.7266 33.5117 96.2109 31.9492C94.6953 30.3789 93.9375 28.3359 93.9375 25.8203C93.9375 23.1641 94.707 21.0156 96.2461 19.375C97.7852 17.7344 99.8242 16.9141 102.363 16.9141C104.762 16.9141 106.699 17.6992 108.176 19.2695C109.66 20.8398 110.402 22.9102 110.402 25.4805C110.402 28.1211 109.633 30.25 108.094 31.8672C106.562 33.4844 104.562 34.293 102.094 34.293ZM102.258 20.1719C100.93 20.1719 99.875 20.6719 99.0938 21.6719C98.3125 22.6641 97.9219 23.9805 97.9219 25.6211C97.9219 27.2852 98.3125 28.6016 99.0938 29.5703C99.875 30.5391 100.898 31.0234 102.164 31.0234C103.469 31.0234 104.504 30.5547 105.27 29.6172C106.035 28.6719 106.418 27.3633 106.418 25.6914C106.418 23.9492 106.047 22.5938 105.305 21.625C104.562 20.6562 103.547 20.1719 102.258 20.1719ZM116.988 28.2109V34H113.203V17.1953H119.133C123.367 17.1953 125.484 18.9805 125.484 22.5508C125.484 24.2383 124.875 25.6055 123.656 26.6523C122.445 27.6914 120.824 28.2109 118.793 28.2109H116.988ZM116.988 20.1016V25.3398H118.477C120.492 25.3398 121.5 24.457 121.5 22.6914C121.5 20.9648 120.492 20.1016 118.477 20.1016H116.988ZM127.172 33.3555V29.6055C127.852 30.1758 128.59 30.6055 129.387 30.8945C130.184 31.1758 130.988 31.3164 131.801 31.3164C132.277 31.3164 132.691 31.2734 133.043 31.1875C133.402 31.1016 133.699 30.9844 133.934 30.8359C134.176 30.6797 134.355 30.5 134.473 30.2969C134.59 30.0859 134.648 29.8594 134.648 29.6172C134.648 29.2891 134.555 28.9961 134.367 28.7383C134.18 28.4805 133.922 28.2422 133.594 28.0234C133.273 27.8047 132.891 27.5938 132.445 27.3906C132 27.1875 131.52 26.9805 131.004 26.7695C129.691 26.2227 128.711 25.5547 128.062 24.7656C127.422 23.9766 127.102 23.0234 127.102 21.9062C127.102 21.0312 127.277 20.2812 127.629 19.6562C127.98 19.0234 128.457 18.5039 129.059 18.0977C129.668 17.6914 130.371 17.3945 131.168 17.207C131.965 17.0117 132.809 16.9141 133.699 16.9141C134.574 16.9141 135.348 16.9688 136.02 17.0781C136.699 17.1797 137.324 17.3398 137.895 17.5586V21.0625C137.613 20.8672 137.305 20.6953 136.969 20.5469C136.641 20.3984 136.301 20.2773 135.949 20.1836C135.598 20.082 135.246 20.0078 134.895 19.9609C134.551 19.9141 134.223 19.8906 133.91 19.8906C133.48 19.8906 133.09 19.9336 132.738 20.0195C132.387 20.0977 132.09 20.2109 131.848 20.3594C131.605 20.5078 131.418 20.6875 131.285 20.8984C131.152 21.1016 131.086 21.332 131.086 21.5898C131.086 21.8711 131.16 22.125 131.309 22.3516C131.457 22.5703 131.668 22.7812 131.941 22.9844C132.215 23.1797 132.547 23.375 132.938 23.5703C133.328 23.7578 133.77 23.9531 134.262 24.1562C134.934 24.4375 135.535 24.7383 136.066 25.0586C136.605 25.3711 137.066 25.7266 137.449 26.125C137.832 26.5234 138.125 26.9805 138.328 27.4961C138.531 28.0039 138.633 28.5977 138.633 29.2773C138.633 30.2148 138.453 31.0039 138.094 31.6445C137.742 32.2773 137.262 32.793 136.652 33.1914C136.043 33.582 135.332 33.8633 134.52 34.0352C133.715 34.207 132.863 34.293 131.965 34.293C131.043 34.293 130.164 34.2148 129.328 34.0586C128.5 33.9023 127.781 33.668 127.172 33.3555ZM162.809 34H158.684L157.488 30.2617H151.512L150.328 34H146.227L152.344 17.1953H156.832L162.809 34ZM156.621 27.3555L154.816 21.707C154.684 21.2852 154.59 20.7812 154.535 20.1953H154.441C154.402 20.6875 154.305 21.1758 154.148 21.6602L152.32 27.3555H156.621ZM164.133 33.3555V29.6055C164.812 30.1758 165.551 30.6055 166.348 30.8945C167.145 31.1758 167.949 31.3164 168.762 31.3164C169.238 31.3164 169.652 31.2734 170.004 31.1875C170.363 31.1016 170.66 30.9844 170.895 30.8359C171.137 30.6797 171.316 30.5 171.434 30.2969C171.551 30.0859 171.609 29.8594 171.609 29.6172C171.609 29.2891 171.516 28.9961 171.328 28.7383C171.141 28.4805 170.883 28.2422 170.555 28.0234C170.234 27.8047 169.852 27.5938 169.406 27.3906C168.961 27.1875 168.48 26.9805 167.965 26.7695C166.652 26.2227 165.672 25.5547 165.023 24.7656C164.383 23.9766 164.062 23.0234 164.062 21.9062C164.062 21.0312 164.238 20.2812 164.59 19.6562C164.941 19.0234 165.418 18.5039 166.02 18.0977C166.629 17.6914 167.332 17.3945 168.129 17.207C168.926 17.0117 169.77 16.9141 170.66 16.9141C171.535 16.9141 172.309 16.9688 172.98 17.0781C173.66 17.1797 174.285 17.3398 174.855 17.5586V21.0625C174.574 20.8672 174.266 20.6953 173.93 20.5469C173.602 20.3984 173.262 20.2773 172.91 20.1836C172.559 20.082 172.207 20.0078 171.855 19.9609C171.512 19.9141 171.184 19.8906 170.871 19.8906C170.441 19.8906 170.051 19.9336 169.699 20.0195C169.348 20.0977 169.051 20.2109 168.809 20.3594C168.566 20.5078 168.379 20.6875 168.246 20.8984C168.113 21.1016 168.047 21.332 168.047 21.5898C168.047 21.8711 168.121 22.125 168.27 22.3516C168.418 22.5703 168.629 22.7812 168.902 22.9844C169.176 23.1797 169.508 23.375 169.898 23.5703C170.289 23.7578 170.73 23.9531 171.223 24.1562C171.895 24.4375 172.496 24.7383 173.027 25.0586C173.566 25.3711 174.027 25.7266 174.41 26.125C174.793 26.5234 175.086 26.9805 175.289 27.4961C175.492 28.0039 175.594 28.5977 175.594 29.2773C175.594 30.2148 175.414 31.0039 175.055 31.6445C174.703 32.2773 174.223 32.793 173.613 33.1914C173.004 33.582 172.293 33.8633 171.48 34.0352C170.676 34.207 169.824 34.293 168.926 34.293C168.004 34.293 167.125 34.2148 166.289 34.0586C165.461 33.9023 164.742 33.668 164.133 33.3555ZM177.586 33.3555V29.6055C178.266 30.1758 179.004 30.6055 179.801 30.8945C180.598 31.1758 181.402 31.3164 182.215 31.3164C182.691 31.3164 183.105 31.2734 183.457 31.1875C183.816 31.1016 184.113 30.9844 184.348 30.8359C184.59 30.6797 184.77 30.5 184.887 30.2969C185.004 30.0859 185.062 29.8594 185.062 29.6172C185.062 29.2891 184.969 28.9961 184.781 28.7383C184.594 28.4805 184.336 28.2422 184.008 28.0234C183.688 27.8047 183.305 27.5938 182.859 27.3906C182.414 27.1875 181.934 26.9805 181.418 26.7695C180.105 26.2227 179.125 25.5547 178.477 24.7656C177.836 23.9766 177.516 23.0234 177.516 21.9062C177.516 21.0312 177.691 20.2812 178.043 19.6562C178.395 19.0234 178.871 18.5039 179.473 18.0977C180.082 17.6914 180.785 17.3945 181.582 17.207C182.379 17.0117 183.223 16.9141 184.113 16.9141C184.988 16.9141 185.762 16.9688 186.434 17.0781C187.113 17.1797 187.738 17.3398 188.309 17.5586V21.0625C188.027 20.8672 187.719 20.6953 187.383 20.5469C187.055 20.3984 186.715 20.2773 186.363 20.1836C186.012 20.082 185.66 20.0078 185.309 19.9609C184.965 19.9141 184.637 19.8906 184.324 19.8906C183.895 19.8906 183.504 19.9336 183.152 20.0195C182.801 20.0977 182.504 20.2109 182.262 20.3594C182.02 20.5078 181.832 20.6875 181.699 20.8984C181.566 21.1016 181.5 21.332 181.5 21.5898C181.5 21.8711 181.574 22.125 181.723 22.3516C181.871 22.5703 182.082 22.7812 182.355 22.9844C182.629 23.1797 182.961 23.375 183.352 23.5703C183.742 23.7578 184.184 23.9531 184.676 24.1562C185.348 24.4375 185.949 24.7383 186.48 25.0586C187.02 25.3711 187.48 25.7266 187.863 26.125C188.246 26.5234 188.539 26.9805 188.742 27.4961C188.945 28.0039 189.047 28.5977 189.047 29.2773C189.047 30.2148 188.867 31.0039 188.508 31.6445C188.156 32.2773 187.676 32.793 187.066 33.1914C186.457 33.582 185.746 33.8633 184.934 34.0352C184.129 34.207 183.277 34.293 182.379 34.293C181.457 34.293 180.578 34.2148 179.742 34.0586C178.914 33.9023 178.195 33.668 177.586 33.3555ZM201.891 34H191.812V17.1953H201.504V20.2773H195.598V24.0156H201.094V27.0859H195.598V30.9297H201.891V34ZM203.812 33.3555V29.6055C204.492 30.1758 205.23 30.6055 206.027 30.8945C206.824 31.1758 207.629 31.3164 208.441 31.3164C208.918 31.3164 209.332 31.2734 209.684 31.1875C210.043 31.1016 210.34 30.9844 210.574 30.8359C210.816 30.6797 210.996 30.5 211.113 30.2969C211.23 30.0859 211.289 29.8594 211.289 29.6172C211.289 29.2891 211.195 28.9961 211.008 28.7383C210.82 28.4805 210.562 28.2422 210.234 28.0234C209.914 27.8047 209.531 27.5938 209.086 27.3906C208.641 27.1875 208.16 26.9805 207.645 26.7695C206.332 26.2227 205.352 25.5547 204.703 24.7656C204.062 23.9766 203.742 23.0234 203.742 21.9062C203.742 21.0312 203.918 20.2812 204.27 19.6562C204.621 19.0234 205.098 18.5039 205.699 18.0977C206.309 17.6914 207.012 17.3945 207.809 17.207C208.605 17.0117 209.449 16.9141 210.34 16.9141C211.215 16.9141 211.988 16.9688 212.66 17.0781C213.34 17.1797 213.965 17.3398 214.535 17.5586V21.0625C214.254 20.8672 213.945 20.6953 213.609 20.5469C213.281 20.3984 212.941 20.2773 212.59 20.1836C212.238 20.082 211.887 20.0078 211.535 19.9609C211.191 19.9141 210.863 19.8906 210.551 19.8906C210.121 19.8906 209.73 19.9336 209.379 20.0195C209.027 20.0977 208.73 20.2109 208.488 20.3594C208.246 20.5078 208.059 20.6875 207.926 20.8984C207.793 21.1016 207.727 21.332 207.727 21.5898C207.727 21.8711 207.801 22.125 207.949 22.3516C208.098 22.5703 208.309 22.7812 208.582 22.9844C208.855 23.1797 209.188 23.375 209.578 23.5703C209.969 23.7578 210.41 23.9531 210.902 24.1562C211.574 24.4375 212.176 24.7383 212.707 25.0586C213.246 25.3711 213.707 25.7266 214.09 26.125C214.473 26.5234 214.766 26.9805 214.969 27.4961C215.172 28.0039 215.273 28.5977 215.273 29.2773C215.273 30.2148 215.094 31.0039 214.734 31.6445C214.383 32.2773 213.902 32.793 213.293 33.1914C212.684 33.582 211.973 33.8633 211.16 34.0352C210.355 34.207 209.504 34.293 208.605 34.293C207.684 34.293 206.805 34.2148 205.969 34.0586C205.141 33.9023 204.422 33.668 203.812 33.3555ZM217.266 33.3555V29.6055C217.945 30.1758 218.684 30.6055 219.48 30.8945C220.277 31.1758 221.082 31.3164 221.895 31.3164C222.371 31.3164 222.785 31.2734 223.137 31.1875C223.496 31.1016 223.793 30.9844 224.027 30.8359C224.27 30.6797 224.449 30.5 224.566 30.2969C224.684 30.0859 224.742 29.8594 224.742 29.6172C224.742 29.2891 224.648 28.9961 224.461 28.7383C224.273 28.4805 224.016 28.2422 223.688 28.0234C223.367 27.8047 222.984 27.5938 222.539 27.3906C222.094 27.1875 221.613 26.9805 221.098 26.7695C219.785 26.2227 218.805 25.5547 218.156 24.7656C217.516 23.9766 217.195 23.0234 217.195 21.9062C217.195 21.0312 217.371 20.2812 217.723 19.6562C218.074 19.0234 218.551 18.5039 219.152 18.0977C219.762 17.6914 220.465 17.3945 221.262 17.207C222.059 17.0117 222.902 16.9141 223.793 16.9141C224.668 16.9141 225.441 16.9688 226.113 17.0781C226.793 17.1797 227.418 17.3398 227.988 17.5586V21.0625C227.707 20.8672 227.398 20.6953 227.062 20.5469C226.734 20.3984 226.395 20.2773 226.043 20.1836C225.691 20.082 225.34 20.0078 224.988 19.9609C224.645 19.9141 224.316 19.8906 224.004 19.8906C223.574 19.8906 223.184 19.9336 222.832 20.0195C222.48 20.0977 222.184 20.2109 221.941 20.3594C221.699 20.5078 221.512 20.6875 221.379 20.8984C221.246 21.1016 221.18 21.332 221.18 21.5898C221.18 21.8711 221.254 22.125 221.402 22.3516C221.551 22.5703 221.762 22.7812 222.035 22.9844C222.309 23.1797 222.641 23.375 223.031 23.5703C223.422 23.7578 223.863 23.9531 224.355 24.1562C225.027 24.4375 225.629 24.7383 226.16 25.0586C226.699 25.3711 227.16 25.7266 227.543 26.125C227.926 26.5234 228.219 26.9805 228.422 27.4961C228.625 28.0039 228.727 28.5977 228.727 29.2773C228.727 30.2148 228.547 31.0039 228.188 31.6445C227.836 32.2773 227.355 32.793 226.746 33.1914C226.137 33.582 225.426 33.8633 224.613 34.0352C223.809 34.207 222.957 34.293 222.059 34.293C221.137 34.293 220.258 34.2148 219.422 34.0586C218.594 33.9023 217.875 33.668 217.266 33.3555ZM250.641 34H246.902V23.9453C246.902 22.8594 246.949 21.6602 247.043 20.3477H246.949C246.754 21.3789 246.578 22.1211 246.422 22.5742L242.484 34H239.391L235.383 22.6914C235.273 22.3867 235.098 21.6055 234.855 20.3477H234.75C234.852 22.0039 234.902 23.457 234.902 24.707V34H231.492V17.1953H237.035L240.469 27.1562C240.742 27.9531 240.941 28.7539 241.066 29.5586H241.137C241.348 28.6289 241.57 27.8203 241.805 27.1328L245.238 17.1953H250.641V34ZM264.539 34H254.461V17.1953H264.152V20.2773H258.246V24.0156H263.742V27.0859H258.246V30.9297H264.539V34ZM282.352 34H278.531L271.605 23.4414C271.199 22.8242 270.918 22.3594 270.762 22.0469H270.715C270.777 22.6406 270.809 23.5469 270.809 24.7656V34H267.234V17.1953H271.312L277.98 27.4258C278.285 27.8867 278.566 28.3438 278.824 28.7969H278.871C278.809 28.4062 278.777 27.6367 278.777 26.4883V17.1953H282.352V34ZM297.996 20.2773H293.203V34H289.406V20.2773H284.637V17.1953H297.996V20.2773Z" fill="white"/>
<defs>
<linearGradient id="paint0_linear_1950_979" x1="0" y1="24" x2="319" y2="24" gradientUnits="userSpaceOnUse">
<stop stop-color="#C03BC4"/>
<stop offset="0.495" stop-color="#D7398F"/>
<stop offset="1" stop-color="#DF387C"/>
</linearGradient>
</defs>
</svg>
