<svg width="270" height="48" viewBox="0 0 270 48" fill="none" xmlns="http://www.w3.org/2000/svg">
<rect width="270" height="48" rx="10" fill="url(#paint0_linear_1950_942)"/>
<path d="M23.75 15C23.3358 15 23 15.3358 23 15.75C23 16.1642 23.3358 16.5 23.75 16.5H24.792L22.0554 23.217C22.0188 23.3069 22 23.403 22 23.5C22 25.433 23.567 27 25.5 27C27.433 27 29 25.433 29 23.5C29 23.403 28.9812 23.3069 28.9446 23.217L26.208 16.5H31.25L31.25 28.5H27.2529C26.0103 28.5 25.0029 29.5074 25.0029 30.75C25.0029 31.9926 26.0103 33 27.2529 33H36.75C37.9926 33 39 31.9926 39 30.75C39 29.5074 37.9926 28.5 36.75 28.5H32.75L32.75 16.5H37.792L35.0554 23.217C35.0188 23.3069 35 23.403 35 23.5C35 25.433 36.567 27 38.5 27C40.433 27 42 25.433 42 23.5C42 23.403 41.9812 23.3069 41.9446 23.217L39.208 16.5H40.25C40.6642 16.5 41 16.1642 41 15.75C41 15.3358 40.6642 15 40.25 15H23.75ZM25.5 18.7378L27.1346 22.75H23.8654L25.5 18.7378ZM36.8654 22.75L38.5 18.7378L40.1346 22.75H36.8654Z" fill="white"/>
<path d="M55.9219 34V17.1953H62.0391C63.9141 17.1953 65.3555 17.5391 66.3633 18.2266C67.3711 18.9141 67.875 19.8828 67.875 21.1328C67.875 22.0391 67.5664 22.832 66.9492 23.5117C66.3398 24.1914 65.5586 24.6641 64.6055 24.9297V24.9766C65.8008 25.125 66.7539 25.5664 67.4648 26.3008C68.1836 27.0352 68.543 27.9297 68.543 28.9844C68.543 30.5234 67.9922 31.7461 66.8906 32.6523C65.7891 33.5508 64.2852 34 62.3789 34H55.9219ZM59.707 19.9844V23.9688H61.3711C62.1523 23.9688 62.7656 23.7812 63.2109 23.4062C63.6641 23.0234 63.8906 22.5 63.8906 21.8359C63.8906 20.6016 62.9688 19.9844 61.125 19.9844H59.707ZM59.707 26.7812V31.2109H61.7578C62.6328 31.2109 63.3164 31.0078 63.8086 30.6016C64.3086 30.1953 64.5586 29.6406 64.5586 28.9375C64.5586 28.2656 64.3125 27.7383 63.8203 27.3555C63.3359 26.9727 62.6562 26.7812 61.7812 26.7812H59.707ZM81.3984 34H71.3203V17.1953H81.0117V20.2773H75.1055V24.0156H80.6016V27.0859H75.1055V30.9297H81.3984V34ZM99.2109 34H95.3906L88.4648 23.4414C88.0586 22.8242 87.7773 22.3594 87.6211 22.0469H87.5742C87.6367 22.6406 87.668 23.5469 87.668 24.7656V34H84.0938V17.1953H88.1719L94.8398 27.4258C95.1445 27.8867 95.4258 28.3438 95.6836 28.7969H95.7305C95.668 28.4062 95.6367 27.6367 95.6367 26.4883V17.1953H99.2109V34ZM115.102 33.4023C113.875 33.9961 112.273 34.293 110.297 34.293C107.719 34.293 105.691 33.5352 104.215 32.0195C102.738 30.5039 102 28.4844 102 25.9609C102 23.2734 102.828 21.0938 104.484 19.4219C106.148 17.75 108.305 16.9141 110.953 16.9141C112.594 16.9141 113.977 17.1211 115.102 17.5352V21.1797C113.977 20.5078 112.695 20.1719 111.258 20.1719C109.68 20.1719 108.406 20.668 107.438 21.6602C106.469 22.6523 105.984 23.9961 105.984 25.6914C105.984 27.3164 106.441 28.6133 107.355 29.582C108.27 30.543 109.5 31.0234 111.047 31.0234C112.523 31.0234 113.875 30.6641 115.102 29.9453V33.4023ZM132.574 34H128.777V27.1562H121.816V34H118.031V17.1953H121.816V23.8984H128.777V17.1953H132.574V34ZM155.578 34H151.84V23.9453C151.84 22.8594 151.887 21.6602 151.98 20.3477H151.887C151.691 21.3789 151.516 22.1211 151.359 22.5742L147.422 34H144.328L140.32 22.6914C140.211 22.3867 140.035 21.6055 139.793 20.3477H139.688C139.789 22.0039 139.84 23.457 139.84 24.707V34H136.43V17.1953H141.973L145.406 27.1562C145.68 27.9531 145.879 28.7539 146.004 29.5586H146.074C146.285 28.6289 146.508 27.8203 146.742 27.1328L150.176 17.1953H155.578V34ZM174.176 34H170.051L168.855 30.2617H162.879L161.695 34H157.594L163.711 17.1953H168.199L174.176 34ZM167.988 27.3555L166.184 21.707C166.051 21.2852 165.957 20.7812 165.902 20.1953H165.809C165.77 20.6875 165.672 21.1758 165.516 21.6602L163.688 27.3555H167.988ZM190.371 34H186.023L183.41 29.6758C183.215 29.3477 183.027 29.0547 182.848 28.7969C182.668 28.5391 182.484 28.3203 182.297 28.1406C182.117 27.9531 181.926 27.8125 181.723 27.7188C181.527 27.6172 181.312 27.5664 181.078 27.5664H180.059V34H176.273V17.1953H182.273C186.352 17.1953 188.391 18.7188 188.391 21.7656C188.391 22.3516 188.301 22.8945 188.121 23.3945C187.941 23.8867 187.688 24.332 187.359 24.7305C187.031 25.1289 186.633 25.4727 186.164 25.7617C185.703 26.0508 185.188 26.2773 184.617 26.4414V26.4883C184.867 26.5664 185.109 26.6953 185.344 26.875C185.578 27.0469 185.805 27.25 186.023 27.4844C186.242 27.7188 186.449 27.9727 186.645 28.2461C186.848 28.5117 187.031 28.7734 187.195 29.0312L190.371 34ZM180.059 20.0312V24.707H181.699C182.512 24.707 183.164 24.4727 183.656 24.0039C184.156 23.5273 184.406 22.9375 184.406 22.2344C184.406 20.7656 183.527 20.0312 181.77 20.0312H180.059ZM205.922 34H201.141L196.242 26.6992C196.148 26.5586 196 26.25 195.797 25.7734H195.738V34H191.953V17.1953H195.738V25.1406H195.797C195.891 24.9219 196.047 24.6094 196.266 24.2031L200.906 17.1953H205.418L199.559 25.2109L205.922 34ZM211.324 34H207.539V17.1953H211.324V34ZM230.273 34H226.453L219.527 23.4414C219.121 22.8242 218.84 22.3594 218.684 22.0469H218.637C218.699 22.6406 218.73 23.5469 218.73 24.7656V34H215.156V17.1953H219.234L225.902 27.4258C226.207 27.8867 226.488 28.3438 226.746 28.7969H226.793C226.73 28.4062 226.699 27.6367 226.699 26.4883V17.1953H230.273V34ZM247.91 32.875C246.27 33.8203 244.23 34.293 241.793 34.293C239.09 34.293 236.957 33.5469 235.395 32.0547C233.84 30.5547 233.062 28.4922 233.062 25.8672C233.062 23.2266 233.914 21.0742 235.617 19.4102C237.32 17.7461 239.586 16.9141 242.414 16.9141C244.195 16.9141 245.766 17.1602 247.125 17.6523V21.2031C245.828 20.4531 244.242 20.0781 242.367 20.0781C240.797 20.0781 239.516 20.5898 238.523 21.6133C237.539 22.6289 237.047 23.9883 237.047 25.6914C237.047 27.418 237.488 28.7539 238.371 29.6992C239.262 30.6445 240.461 31.1172 241.969 31.1172C242.875 31.1172 243.594 30.9883 244.125 30.7305V27.4492H240.762V24.4258H247.91V32.875Z" fill="white"/>
<defs>
<linearGradient id="paint0_linear_1950_942" x1="0" y1="24" x2="270" y2="24" gradientUnits="userSpaceOnUse">
<stop stop-color="#3DA699"/>
<stop offset="0.495" stop-color="#328882"/>
<stop offset="1" stop-color="#236065"/>
</linearGradient>
</defs>
</svg>
