<svg width="213" height="48" viewBox="0 0 213 48" fill="none" xmlns="http://www.w3.org/2000/svg">
<rect width="213" height="48" rx="10" fill="url(#paint0_linear_1950_939)"/>
<path d="M22 18.75C22 17.7835 22.7835 17 23.75 17H37.25C38.2165 17 39 17.7835 39 18.75V27.25C39 28.2165 38.2165 29 37.25 29H23.75C22.7835 29 22 28.2165 22 27.25V18.75ZM25 18.25V19.25C25 19.6642 24.6642 20 24.25 20H23.25V21.5H24.25C25.4926 21.5 26.5 20.4926 26.5 19.25V18.25H25ZM30.5 25.5C31.7426 25.5 32.75 24.4926 32.75 23.25C32.75 22.0074 31.7426 21 30.5 21C29.2574 21 28.25 22.0074 28.25 23.25C28.25 24.4926 29.2574 25.5 30.5 25.5ZM23.25 26H24.25C24.6642 26 25 26.3358 25 26.75V27.75H26.5V26.75C26.5 25.5074 25.4926 24.5 24.25 24.5H23.25V26ZM36 26.75C36 26.3358 36.3358 26 36.75 26H37.75V24.5H36.75C35.5074 24.5 34.5 25.5074 34.5 26.75V27.75H36V26.75ZM36 19.25V18.25H34.5V19.25C34.5 20.4926 35.5074 21.5 36.75 21.5H37.75V20H36.75C36.3358 20 36 19.6642 36 19.25ZM24.4013 30.5C24.9201 31.3967 25.8896 32 27 32H37.25C39.8734 32 42 29.8734 42 27.25V22C42 20.8896 41.3967 19.9201 40.5 19.4013V27.25C40.5 29.0449 39.0449 30.5 37.25 30.5H24.4013Z" fill="white"/>
<path d="M55.9219 34V17.1953H62.0391C63.9141 17.1953 65.3555 17.5391 66.3633 18.2266C67.3711 18.9141 67.875 19.8828 67.875 21.1328C67.875 22.0391 67.5664 22.832 66.9492 23.5117C66.3398 24.1914 65.5586 24.6641 64.6055 24.9297V24.9766C65.8008 25.125 66.7539 25.5664 67.4648 26.3008C68.1836 27.0352 68.543 27.9297 68.543 28.9844C68.543 30.5234 67.9922 31.7461 66.8906 32.6523C65.7891 33.5508 64.2852 34 62.3789 34H55.9219ZM59.707 19.9844V23.9688H61.3711C62.1523 23.9688 62.7656 23.7812 63.2109 23.4062C63.6641 23.0234 63.8906 22.5 63.8906 21.8359C63.8906 20.6016 62.9688 19.9844 61.125 19.9844H59.707ZM59.707 26.7812V31.2109H61.7578C62.6328 31.2109 63.3164 31.0078 63.8086 30.6016C64.3086 30.1953 64.5586 29.6406 64.5586 28.9375C64.5586 28.2656 64.3125 27.7383 63.8203 27.3555C63.3359 26.9727 62.6562 26.7812 61.7812 26.7812H59.707ZM85.0195 26.7227C85.0195 31.7695 82.668 34.293 77.9648 34.293C73.4023 34.293 71.1211 31.8281 71.1211 26.8984V17.1953H74.918V26.9453C74.918 29.6641 75.9805 31.0234 78.1055 31.0234C80.1914 31.0234 81.2344 29.7109 81.2344 27.0859V17.1953H85.0195V26.7227ZM88.6875 34V17.1953H94.6406C100.609 17.1953 103.594 19.9258 103.594 25.3867C103.594 28.0039 102.777 30.0938 101.145 31.6562C99.5195 33.2188 97.3516 34 94.6406 34H88.6875ZM92.4727 20.2773V30.9297H94.3477C95.9883 30.9297 97.2734 30.4375 98.2031 29.4531C99.1406 28.4688 99.6094 27.1289 99.6094 25.4336C99.6094 23.832 99.1445 22.5742 98.2148 21.6602C97.293 20.7383 95.9961 20.2773 94.3242 20.2773H92.4727ZM120.176 32.875C118.535 33.8203 116.496 34.293 114.059 34.293C111.355 34.293 109.223 33.5469 107.66 32.0547C106.105 30.5547 105.328 28.4922 105.328 25.8672C105.328 23.2266 106.18 21.0742 107.883 19.4102C109.586 17.7461 111.852 16.9141 114.68 16.9141C116.461 16.9141 118.031 17.1602 119.391 17.6523V21.2031C118.094 20.4531 116.508 20.0781 114.633 20.0781C113.062 20.0781 111.781 20.5898 110.789 21.6133C109.805 22.6289 109.312 23.9883 109.312 25.6914C109.312 27.418 109.754 28.7539 110.637 29.6992C111.527 30.6445 112.727 31.1172 114.234 31.1172C115.141 31.1172 115.859 30.9883 116.391 30.7305V27.4492H113.027V24.4258H120.176V32.875ZM133.523 34H123.445V17.1953H133.137V20.2773H127.23V24.0156H132.727V27.0859H127.23V30.9297H133.523V34ZM148.23 20.2773H143.438V34H139.641V20.2773H134.871V17.1953H148.23V20.2773ZM154.277 34H150.492V17.1953H154.277V34ZM173.227 34H169.406L162.48 23.4414C162.074 22.8242 161.793 22.3594 161.637 22.0469H161.59C161.652 22.6406 161.684 23.5469 161.684 24.7656V34H158.109V17.1953H162.188L168.855 27.4258C169.16 27.8867 169.441 28.3438 169.699 28.7969H169.746C169.684 28.4062 169.652 27.6367 169.652 26.4883V17.1953H173.227V34ZM190.863 32.875C189.223 33.8203 187.184 34.293 184.746 34.293C182.043 34.293 179.91 33.5469 178.348 32.0547C176.793 30.5547 176.016 28.4922 176.016 25.8672C176.016 23.2266 176.867 21.0742 178.57 19.4102C180.273 17.7461 182.539 16.9141 185.367 16.9141C187.148 16.9141 188.719 17.1602 190.078 17.6523V21.2031C188.781 20.4531 187.195 20.0781 185.32 20.0781C183.75 20.0781 182.469 20.5898 181.477 21.6133C180.492 22.6289 180 23.9883 180 25.6914C180 27.418 180.441 28.7539 181.324 29.6992C182.215 30.6445 183.414 31.1172 184.922 31.1172C185.828 31.1172 186.547 30.9883 187.078 30.7305V27.4492H183.715V24.4258H190.863V32.875Z" fill="white"/>
<defs>
<linearGradient id="paint0_linear_1950_939" x1="0" y1="24" x2="213" y2="24" gradientUnits="userSpaceOnUse">
<stop stop-color="#3DA699"/>
<stop offset="0.495" stop-color="#328882"/>
<stop offset="1" stop-color="#236065"/>
</linearGradient>
</defs>
</svg>
