<svg width="390" height="48" viewBox="0 0 390 48" fill="none" xmlns="http://www.w3.org/2000/svg">
<rect width="390" height="48" rx="10" fill="url(#paint0_linear_1950_985)"/>
<path d="M24 17.25C24 16.0074 25.0074 15 26.25 15H35.75C36.9926 15 38 16.0074 38 17.25V26H42V29.75C42 31.5449 40.5449 33 38.75 33H31.6668C31.8811 32.6276 32 32.1993 32 31.753V27.25C32 26.3031 31.465 25.4374 30.618 25.0139L29.5902 24.5H33.75C34.1642 24.5 34.5 24.1642 34.5 23.75C34.5 23.3358 34.1642 23 33.75 23H28.25C27.931 23 27.6585 23.1992 27.5501 23.48L27.118 23.2639C26.4142 22.912 25.5858 22.912 24.882 23.2639L24 23.7049V17.25ZM38 31.5H38.75C39.7165 31.5 40.5 30.7165 40.5 29.75V27.5H38V31.5ZM27.5 19.75C27.5 20.1642 27.8358 20.5 28.25 20.5H33.75C34.1642 20.5 34.5 20.1642 34.5 19.75C34.5 19.3358 34.1642 19 33.75 19H28.25C27.8358 19 27.5 19.3358 27.5 19.75ZM30.1708 25.9084L26.6708 24.1584C26.2485 23.9472 25.7515 23.9472 25.3292 24.1584L21.8292 25.9084C21.321 26.1624 21 26.6818 21 27.25V31.753C21 32.3211 21.321 32.8405 21.8292 33.0946L25.3292 34.8446C25.7515 35.0557 26.2485 35.0557 26.6708 34.8446L30.1708 33.0946C30.679 32.8405 31 32.3211 31 31.753V27.25C31 26.6818 30.679 26.1624 30.1708 25.9084ZM22.5528 27.2764C22.6763 27.0294 22.9766 26.9293 23.2236 27.0528L26 28.441L28.7764 27.0528C29.0234 26.9293 29.3237 27.0294 29.4472 27.2764C29.5707 27.5234 29.4706 27.8237 29.2236 27.9472L26.5 29.3091V32.5C26.5 32.7762 26.2761 33 26 33C25.7239 33 25.5 32.7762 25.5 32.5V29.3091L22.7764 27.9472C22.5294 27.8237 22.4293 27.5234 22.5528 27.2764Z" fill="white"/>
<path d="M59.707 34H55.9219V17.1953H59.707V34ZM78.6562 34H74.8359L67.9102 23.4414C67.5039 22.8242 67.2227 22.3594 67.0664 22.0469H67.0195C67.082 22.6406 67.1133 23.5469 67.1133 24.7656V34H63.5391V17.1953H67.6172L74.2852 27.4258C74.5898 27.8867 74.8711 28.3438 75.1289 28.7969H75.1758C75.1133 28.4062 75.082 27.6367 75.082 26.4883V17.1953H78.6562V34ZM96.4922 17.1953L90.7031 34H86.4141L80.6953 17.1953H84.7734L88.2773 28.8906C88.4648 29.5234 88.5781 30.082 88.6172 30.5664H88.6875C88.7422 30.043 88.8633 29.4688 89.0508 28.8438L92.5312 17.1953H96.4922ZM105.562 34.293C103.156 34.293 101.195 33.5117 99.6797 31.9492C98.1641 30.3789 97.4062 28.3359 97.4062 25.8203C97.4062 23.1641 98.1758 21.0156 99.7148 19.375C101.254 17.7344 103.293 16.9141 105.832 16.9141C108.23 16.9141 110.168 17.6992 111.645 19.2695C113.129 20.8398 113.871 22.9102 113.871 25.4805C113.871 28.1211 113.102 30.25 111.562 31.8672C110.031 33.4844 108.031 34.293 105.562 34.293ZM105.727 20.1719C104.398 20.1719 103.344 20.6719 102.562 21.6719C101.781 22.6641 101.391 23.9805 101.391 25.6211C101.391 27.2852 101.781 28.6016 102.562 29.5703C103.344 30.5391 104.367 31.0234 105.633 31.0234C106.938 31.0234 107.973 30.5547 108.738 29.6172C109.504 28.6719 109.887 27.3633 109.887 25.6914C109.887 23.9492 109.516 22.5938 108.773 21.625C108.031 20.6562 107.016 20.1719 105.727 20.1719ZM120.457 34H116.672V17.1953H120.457V34ZM136.336 33.4023C135.109 33.9961 133.508 34.293 131.531 34.293C128.953 34.293 126.926 33.5352 125.449 32.0195C123.973 30.5039 123.234 28.4844 123.234 25.9609C123.234 23.2734 124.062 21.0938 125.719 19.4219C127.383 17.75 129.539 16.9141 132.188 16.9141C133.828 16.9141 135.211 17.1211 136.336 17.5352V21.1797C135.211 20.5078 133.93 20.1719 132.492 20.1719C130.914 20.1719 129.641 20.668 128.672 21.6602C127.703 22.6523 127.219 23.9961 127.219 25.6914C127.219 27.3164 127.676 28.6133 128.59 29.582C129.504 30.543 130.734 31.0234 132.281 31.0234C133.758 31.0234 135.109 30.6641 136.336 29.9453V33.4023ZM143.051 34H139.266V17.1953H143.051V34ZM162 34H158.18L151.254 23.4414C150.848 22.8242 150.566 22.3594 150.41 22.0469H150.363C150.426 22.6406 150.457 23.5469 150.457 24.7656V34H146.883V17.1953H150.961L157.629 27.4258C157.934 27.8867 158.215 28.3438 158.473 28.7969H158.52C158.457 28.4062 158.426 27.6367 158.426 26.4883V17.1953H162V34ZM179.637 32.875C177.996 33.8203 175.957 34.293 173.52 34.293C170.816 34.293 168.684 33.5469 167.121 32.0547C165.566 30.5547 164.789 28.4922 164.789 25.8672C164.789 23.2266 165.641 21.0742 167.344 19.4102C169.047 17.7461 171.312 16.9141 174.141 16.9141C175.922 16.9141 177.492 17.1602 178.852 17.6523V21.2031C177.555 20.4531 175.969 20.0781 174.094 20.0781C172.523 20.0781 171.242 20.5898 170.25 21.6133C169.266 22.6289 168.773 23.9883 168.773 25.6914C168.773 27.418 169.215 28.7539 170.098 29.6992C170.988 30.6445 172.188 31.1172 173.695 31.1172C174.602 31.1172 175.32 30.9883 175.852 30.7305V27.4492H172.488V24.4258H179.637V32.875ZM201.82 28.3164H197.309V32.8281H194.941V28.3164H190.406V25.9375H194.941V21.4023H197.309V25.9375H201.82V28.3164ZM225.188 33.4023C223.961 33.9961 222.359 34.293 220.383 34.293C217.805 34.293 215.777 33.5352 214.301 32.0195C212.824 30.5039 212.086 28.4844 212.086 25.9609C212.086 23.2734 212.914 21.0938 214.57 19.4219C216.234 17.75 218.391 16.9141 221.039 16.9141C222.68 16.9141 224.062 17.1211 225.188 17.5352V21.1797C224.062 20.5078 222.781 20.1719 221.344 20.1719C219.766 20.1719 218.492 20.668 217.523 21.6602C216.555 22.6523 216.07 23.9961 216.07 25.6914C216.07 27.3164 216.527 28.6133 217.441 29.582C218.355 30.543 219.586 31.0234 221.133 31.0234C222.609 31.0234 223.961 30.6641 225.188 29.9453V33.4023ZM242.66 34H238.863V27.1562H231.902V34H228.117V17.1953H231.902V23.8984H238.863V17.1953H242.66V34ZM261.293 34H257.168L255.973 30.2617H249.996L248.812 34H244.711L250.828 17.1953H255.316L261.293 34ZM255.105 27.3555L253.301 21.707C253.168 21.2852 253.074 20.7812 253.02 20.1953H252.926C252.887 20.6875 252.789 21.1758 252.633 21.6602L250.805 27.3555H255.105ZM277.488 34H273.141L270.527 29.6758C270.332 29.3477 270.145 29.0547 269.965 28.7969C269.785 28.5391 269.602 28.3203 269.414 28.1406C269.234 27.9531 269.043 27.8125 268.84 27.7188C268.645 27.6172 268.43 27.5664 268.195 27.5664H267.176V34H263.391V17.1953H269.391C273.469 17.1953 275.508 18.7188 275.508 21.7656C275.508 22.3516 275.418 22.8945 275.238 23.3945C275.059 23.8867 274.805 24.332 274.477 24.7305C274.148 25.1289 273.75 25.4727 273.281 25.7617C272.82 26.0508 272.305 26.2773 271.734 26.4414V26.4883C271.984 26.5664 272.227 26.6953 272.461 26.875C272.695 27.0469 272.922 27.25 273.141 27.4844C273.359 27.7188 273.566 27.9727 273.762 28.2461C273.965 28.5117 274.148 28.7734 274.312 29.0312L277.488 34ZM267.176 20.0312V24.707H268.816C269.629 24.707 270.281 24.4727 270.773 24.0039C271.273 23.5273 271.523 22.9375 271.523 22.2344C271.523 20.7656 270.645 20.0312 268.887 20.0312H267.176ZM292.629 32.875C290.988 33.8203 288.949 34.293 286.512 34.293C283.809 34.293 281.676 33.5469 280.113 32.0547C278.559 30.5547 277.781 28.4922 277.781 25.8672C277.781 23.2266 278.633 21.0742 280.336 19.4102C282.039 17.7461 284.305 16.9141 287.133 16.9141C288.914 16.9141 290.484 17.1602 291.844 17.6523V21.2031C290.547 20.4531 288.961 20.0781 287.086 20.0781C285.516 20.0781 284.234 20.5898 283.242 21.6133C282.258 22.6289 281.766 23.9883 281.766 25.6914C281.766 27.418 282.207 28.7539 283.09 29.6992C283.98 30.6445 285.18 31.1172 286.688 31.1172C287.594 31.1172 288.312 30.9883 288.844 30.7305V27.4492H285.48V24.4258H292.629V32.875ZM305.977 34H295.898V17.1953H305.59V20.2773H299.684V24.0156H305.18V27.0859H299.684V30.9297H305.977V34ZM308.672 34V17.1953H314.789C316.664 17.1953 318.105 17.5391 319.113 18.2266C320.121 18.9141 320.625 19.8828 320.625 21.1328C320.625 22.0391 320.316 22.832 319.699 23.5117C319.09 24.1914 318.309 24.6641 317.355 24.9297V24.9766C318.551 25.125 319.504 25.5664 320.215 26.3008C320.934 27.0352 321.293 27.9297 321.293 28.9844C321.293 30.5234 320.742 31.7461 319.641 32.6523C318.539 33.5508 317.035 34 315.129 34H308.672ZM312.457 19.9844V23.9688H314.121C314.902 23.9688 315.516 23.7812 315.961 23.4062C316.414 23.0234 316.641 22.5 316.641 21.8359C316.641 20.6016 315.719 19.9844 313.875 19.9844H312.457ZM312.457 26.7812V31.2109H314.508C315.383 31.2109 316.066 31.0078 316.559 30.6016C317.059 30.1953 317.309 29.6406 317.309 28.9375C317.309 28.2656 317.062 27.7383 316.57 27.3555C316.086 26.9727 315.406 26.7812 314.531 26.7812H312.457ZM338.848 34H334.723L333.527 30.2617H327.551L326.367 34H322.266L328.383 17.1953H332.871L338.848 34ZM332.66 27.3555L330.855 21.707C330.723 21.2852 330.629 20.7812 330.574 20.1953H330.48C330.441 20.6875 330.344 21.1758 330.188 21.6602L328.359 27.3555H332.66ZM352.617 33.4023C351.391 33.9961 349.789 34.293 347.812 34.293C345.234 34.293 343.207 33.5352 341.73 32.0195C340.254 30.5039 339.516 28.4844 339.516 25.9609C339.516 23.2734 340.344 21.0938 342 19.4219C343.664 17.75 345.82 16.9141 348.469 16.9141C350.109 16.9141 351.492 17.1211 352.617 17.5352V21.1797C351.492 20.5078 350.211 20.1719 348.773 20.1719C347.195 20.1719 345.922 20.668 344.953 21.6602C343.984 22.6523 343.5 23.9961 343.5 25.6914C343.5 27.3164 343.957 28.6133 344.871 29.582C345.785 30.543 347.016 31.0234 348.562 31.0234C350.039 31.0234 351.391 30.6641 352.617 29.9453V33.4023ZM369.516 34H364.734L359.836 26.6992C359.742 26.5586 359.594 26.25 359.391 25.7734H359.332V34H355.547V17.1953H359.332V25.1406H359.391C359.484 24.9219 359.641 24.6094 359.859 24.2031L364.5 17.1953H369.012L363.152 25.2109L369.516 34Z" fill="white"/>
<defs>
<linearGradient id="paint0_linear_1950_985" x1="0" y1="24" x2="390" y2="24" gradientUnits="userSpaceOnUse">
<stop stop-color="#C03BC4"/>
<stop offset="0.495" stop-color="#D7398F"/>
<stop offset="1" stop-color="#DF387C"/>
</linearGradient>
</defs>
</svg>
