<svg width="492" height="48" viewBox="0 0 492 48" fill="none" xmlns="http://www.w3.org/2000/svg">
<rect width="492" height="48" rx="10" fill="url(#paint0_linear_1950_976)"/>
<path d="M25 29.75V25.9843L29.0602 28.6369C30.8463 29.8039 33.1537 29.8039 34.9398 28.6369L39 25.9843V29.75C39 29.9123 38.9474 30.0702 38.85 30.2L38.8489 30.2014L38.8477 30.2031L38.8446 30.2071L38.8364 30.2178L38.8243 30.2331L38.8111 30.2496C38.7904 30.2752 38.7619 30.3095 38.7253 30.3513C38.6522 30.4348 38.5469 30.5484 38.4081 30.6817C38.1305 30.9481 37.7176 31.2948 37.1587 31.6387C36.0359 32.3297 34.3387 33 32 33C29.6613 33 27.9641 32.3297 26.8413 31.6387C26.2824 31.2948 25.8695 30.9481 25.5919 30.6817C25.4531 30.5484 25.3478 30.4348 25.2747 30.3513C25.2381 30.3095 25.2096 30.2752 25.1889 30.2496C25.1785 30.2367 25.1701 30.2261 25.1636 30.2178L25.1554 30.2071L25.1523 30.2031L25.1511 30.2014C25.0537 30.0716 25 29.9123 25 29.75ZM42.1602 22.1279L34.1194 27.3812C32.8317 28.2225 31.1683 28.2225 29.8806 27.3812L23 22.8859L23 28.25C23 28.6642 22.6642 29 22.25 29C21.8358 29 21.5 28.6642 21.5 28.25V22C21.5 21.9122 21.5151 21.828 21.5428 21.7497C21.5145 21.6696 21.4996 21.5842 21.5 21.4968C21.5011 21.2424 21.6311 21.0059 21.8452 20.8686L29.9088 15.6996C31.1832 14.8827 32.8168 14.8827 34.0912 15.6996L42.1548 20.8686C42.3689 21.0059 42.4989 21.2424 42.5 21.4968C42.501 21.7194 42.4031 21.9291 42.236 22.0713C42.2121 22.0916 42.1868 22.1105 42.1602 22.1279Z" fill="white"/>
<path d="M65.6367 20.2773H59.707V24.4023H65.1562V27.4727H59.707V34H55.9219V17.1953H65.6367V20.2773ZM72.1992 34H68.4141V17.1953H72.1992V34ZM91.1484 34H87.3281L80.4023 23.4414C79.9961 22.8242 79.7148 22.3594 79.5586 22.0469H79.5117C79.5742 22.6406 79.6055 23.5469 79.6055 24.7656V34H76.0312V17.1953H80.1094L86.7773 27.4258C87.082 27.8867 87.3633 28.3438 87.6211 28.7969H87.668C87.6055 28.4062 87.5742 27.6367 87.5742 26.4883V17.1953H91.1484V34ZM102.094 34.293C99.6875 34.293 97.7266 33.5117 96.2109 31.9492C94.6953 30.3789 93.9375 28.3359 93.9375 25.8203C93.9375 23.1641 94.707 21.0156 96.2461 19.375C97.7852 17.7344 99.8242 16.9141 102.363 16.9141C104.762 16.9141 106.699 17.6992 108.176 19.2695C109.66 20.8398 110.402 22.9102 110.402 25.4805C110.402 28.1211 109.633 30.25 108.094 31.8672C106.562 33.4844 104.562 34.293 102.094 34.293ZM102.258 20.1719C100.93 20.1719 99.875 20.6719 99.0938 21.6719C98.3125 22.6641 97.9219 23.9805 97.9219 25.6211C97.9219 27.2852 98.3125 28.6016 99.0938 29.5703C99.875 30.5391 100.898 31.0234 102.164 31.0234C103.469 31.0234 104.504 30.5547 105.27 29.6172C106.035 28.6719 106.418 27.3633 106.418 25.6914C106.418 23.9492 106.047 22.5938 105.305 21.625C104.562 20.6562 103.547 20.1719 102.258 20.1719ZM116.988 28.2109V34H113.203V17.1953H119.133C123.367 17.1953 125.484 18.9805 125.484 22.5508C125.484 24.2383 124.875 25.6055 123.656 26.6523C122.445 27.6914 120.824 28.2109 118.793 28.2109H116.988ZM116.988 20.1016V25.3398H118.477C120.492 25.3398 121.5 24.457 121.5 22.6914C121.5 20.9648 120.492 20.1016 118.477 20.1016H116.988ZM127.172 33.3555V29.6055C127.852 30.1758 128.59 30.6055 129.387 30.8945C130.184 31.1758 130.988 31.3164 131.801 31.3164C132.277 31.3164 132.691 31.2734 133.043 31.1875C133.402 31.1016 133.699 30.9844 133.934 30.8359C134.176 30.6797 134.355 30.5 134.473 30.2969C134.59 30.0859 134.648 29.8594 134.648 29.6172C134.648 29.2891 134.555 28.9961 134.367 28.7383C134.18 28.4805 133.922 28.2422 133.594 28.0234C133.273 27.8047 132.891 27.5938 132.445 27.3906C132 27.1875 131.52 26.9805 131.004 26.7695C129.691 26.2227 128.711 25.5547 128.062 24.7656C127.422 23.9766 127.102 23.0234 127.102 21.9062C127.102 21.0312 127.277 20.2812 127.629 19.6562C127.98 19.0234 128.457 18.5039 129.059 18.0977C129.668 17.6914 130.371 17.3945 131.168 17.207C131.965 17.0117 132.809 16.9141 133.699 16.9141C134.574 16.9141 135.348 16.9688 136.02 17.0781C136.699 17.1797 137.324 17.3398 137.895 17.5586V21.0625C137.613 20.8672 137.305 20.6953 136.969 20.5469C136.641 20.3984 136.301 20.2773 135.949 20.1836C135.598 20.082 135.246 20.0078 134.895 19.9609C134.551 19.9141 134.223 19.8906 133.91 19.8906C133.48 19.8906 133.09 19.9336 132.738 20.0195C132.387 20.0977 132.09 20.2109 131.848 20.3594C131.605 20.5078 131.418 20.6875 131.285 20.8984C131.152 21.1016 131.086 21.332 131.086 21.5898C131.086 21.8711 131.16 22.125 131.309 22.3516C131.457 22.5703 131.668 22.7812 131.941 22.9844C132.215 23.1797 132.547 23.375 132.938 23.5703C133.328 23.7578 133.77 23.9531 134.262 24.1562C134.934 24.4375 135.535 24.7383 136.066 25.0586C136.605 25.3711 137.066 25.7266 137.449 26.125C137.832 26.5234 138.125 26.9805 138.328 27.4961C138.531 28.0039 138.633 28.5977 138.633 29.2773C138.633 30.2148 138.453 31.0039 138.094 31.6445C137.742 32.2773 137.262 32.793 136.652 33.1914C136.043 33.582 135.332 33.8633 134.52 34.0352C133.715 34.207 132.863 34.293 131.965 34.293C131.043 34.293 130.164 34.2148 129.328 34.0586C128.5 33.9023 127.781 33.668 127.172 33.3555ZM158.109 34H148.031V17.1953H157.723V20.2773H151.816V24.0156H157.312V27.0859H151.816V30.9297H158.109V34ZM160.805 34V17.1953H166.758C172.727 17.1953 175.711 19.9258 175.711 25.3867C175.711 28.0039 174.895 30.0938 173.262 31.6562C171.637 33.2188 169.469 34 166.758 34H160.805ZM164.59 20.2773V30.9297H166.465C168.105 30.9297 169.391 30.4375 170.32 29.4531C171.258 28.4688 171.727 27.1289 171.727 25.4336C171.727 23.832 171.262 22.5742 170.332 21.6602C169.41 20.7383 168.113 20.2773 166.441 20.2773H164.59ZM192.199 26.7227C192.199 31.7695 189.848 34.293 185.145 34.293C180.582 34.293 178.301 31.8281 178.301 26.8984V17.1953H182.098V26.9453C182.098 29.6641 183.16 31.0234 185.285 31.0234C187.371 31.0234 188.414 29.7109 188.414 27.0859V17.1953H192.199V26.7227ZM207.914 33.4023C206.688 33.9961 205.086 34.293 203.109 34.293C200.531 34.293 198.504 33.5352 197.027 32.0195C195.551 30.5039 194.812 28.4844 194.812 25.9609C194.812 23.2734 195.641 21.0938 197.297 19.4219C198.961 17.75 201.117 16.9141 203.766 16.9141C205.406 16.9141 206.789 17.1211 207.914 17.5352V21.1797C206.789 20.5078 205.508 20.1719 204.07 20.1719C202.492 20.1719 201.219 20.668 200.25 21.6602C199.281 22.6523 198.797 23.9961 198.797 25.6914C198.797 27.3164 199.254 28.6133 200.168 29.582C201.082 30.543 202.312 31.0234 203.859 31.0234C205.336 31.0234 206.688 30.6641 207.914 29.9453V33.4023ZM225.621 34H221.496L220.301 30.2617H214.324L213.141 34H209.039L215.156 17.1953H219.645L225.621 34ZM219.434 27.3555L217.629 21.707C217.496 21.2852 217.402 20.7812 217.348 20.1953H217.254C217.215 20.6875 217.117 21.1758 216.961 21.6602L215.133 27.3555H219.434ZM237.832 20.2773H233.039V34H229.242V20.2773H224.473V17.1953H237.832V20.2773ZM243.879 34H240.094V17.1953H243.879V34ZM254.812 34.293C252.406 34.293 250.445 33.5117 248.93 31.9492C247.414 30.3789 246.656 28.3359 246.656 25.8203C246.656 23.1641 247.426 21.0156 248.965 19.375C250.504 17.7344 252.543 16.9141 255.082 16.9141C257.48 16.9141 259.418 17.6992 260.895 19.2695C262.379 20.8398 263.121 22.9102 263.121 25.4805C263.121 28.1211 262.352 30.25 260.812 31.8672C259.281 33.4844 257.281 34.293 254.812 34.293ZM254.977 20.1719C253.648 20.1719 252.594 20.6719 251.812 21.6719C251.031 22.6641 250.641 23.9805 250.641 25.6211C250.641 27.2852 251.031 28.6016 251.812 29.5703C252.594 30.5391 253.617 31.0234 254.883 31.0234C256.188 31.0234 257.223 30.5547 257.988 29.6172C258.754 28.6719 259.137 27.3633 259.137 25.6914C259.137 23.9492 258.766 22.5938 258.023 21.625C257.281 20.6562 256.266 20.1719 254.977 20.1719ZM281.039 34H277.219L270.293 23.4414C269.887 22.8242 269.605 22.3594 269.449 22.0469H269.402C269.465 22.6406 269.496 23.5469 269.496 24.7656V34H265.922V17.1953H270L276.668 27.4258C276.973 27.8867 277.254 28.3438 277.512 28.7969H277.559C277.496 28.4062 277.465 27.6367 277.465 26.4883V17.1953H281.039V34ZM303.797 28.3164H299.285V32.8281H296.918V28.3164H292.383V25.9375H296.918V21.4023H299.285V25.9375H303.797V28.3164ZM325.195 34H315.117V17.1953H324.809V20.2773H318.902V24.0156H324.398V27.0859H318.902V30.9297H325.195V34ZM343.008 34H339.188L332.262 23.4414C331.855 22.8242 331.574 22.3594 331.418 22.0469H331.371C331.434 22.6406 331.465 23.5469 331.465 24.7656V34H327.891V17.1953H331.969L338.637 27.4258C338.941 27.8867 339.223 28.3438 339.48 28.7969H339.527C339.465 28.4062 339.434 27.6367 339.434 26.4883V17.1953H343.008V34ZM361.629 34H357.504L356.309 30.2617H350.332L349.148 34H345.047L351.164 17.1953H355.652L361.629 34ZM355.441 27.3555L353.637 21.707C353.504 21.2852 353.41 20.7812 353.355 20.1953H353.262C353.223 20.6875 353.125 21.1758 352.969 21.6602L351.141 27.3555H355.441ZM363.727 34V17.1953H369.844C371.719 17.1953 373.16 17.5391 374.168 18.2266C375.176 18.9141 375.68 19.8828 375.68 21.1328C375.68 22.0391 375.371 22.832 374.754 23.5117C374.145 24.1914 373.363 24.6641 372.41 24.9297V24.9766C373.605 25.125 374.559 25.5664 375.27 26.3008C375.988 27.0352 376.348 27.9297 376.348 28.9844C376.348 30.5234 375.797 31.7461 374.695 32.6523C373.594 33.5508 372.09 34 370.184 34H363.727ZM367.512 19.9844V23.9688H369.176C369.957 23.9688 370.57 23.7812 371.016 23.4062C371.469 23.0234 371.695 22.5 371.695 21.8359C371.695 20.6016 370.773 19.9844 368.93 19.9844H367.512ZM367.512 26.7812V31.2109H369.562C370.438 31.2109 371.121 31.0078 371.613 30.6016C372.113 30.1953 372.363 29.6406 372.363 28.9375C372.363 28.2656 372.117 27.7383 371.625 27.3555C371.141 26.9727 370.461 26.7812 369.586 26.7812H367.512ZM389.133 34H379.125V17.1953H382.91V30.9297H389.133V34ZM401.484 34H391.406V17.1953H401.098V20.2773H395.191V24.0156H400.688V27.0859H395.191V30.9297H401.484V34ZM423.328 34H419.59V23.9453C419.59 22.8594 419.637 21.6602 419.73 20.3477H419.637C419.441 21.3789 419.266 22.1211 419.109 22.5742L415.172 34H412.078L408.07 22.6914C407.961 22.3867 407.785 21.6055 407.543 20.3477H407.438C407.539 22.0039 407.59 23.457 407.59 24.707V34H404.18V17.1953H409.723L413.156 27.1562C413.43 27.9531 413.629 28.7539 413.754 29.5586H413.824C414.035 28.6289 414.258 27.8203 414.492 27.1328L417.926 17.1953H423.328V34ZM437.227 34H427.148V17.1953H436.84V20.2773H430.934V24.0156H436.43V27.0859H430.934V30.9297H437.227V34ZM455.039 34H451.219L444.293 23.4414C443.887 22.8242 443.605 22.3594 443.449 22.0469H443.402C443.465 22.6406 443.496 23.5469 443.496 24.7656V34H439.922V17.1953H444L450.668 27.4258C450.973 27.8867 451.254 28.3438 451.512 28.7969H451.559C451.496 28.4062 451.465 27.6367 451.465 26.4883V17.1953H455.039V34ZM470.684 20.2773H465.891V34H462.094V20.2773H457.324V17.1953H470.684V20.2773Z" fill="white"/>
<defs>
<linearGradient id="paint0_linear_1950_976" x1="0" y1="24" x2="492" y2="24" gradientUnits="userSpaceOnUse">
<stop stop-color="#C03BC4"/>
<stop offset="0.495" stop-color="#D7398F"/>
<stop offset="1" stop-color="#DF387C"/>
</linearGradient>
</defs>
</svg>
