<svg width="237" height="48" viewBox="0 0 237 48" fill="none" xmlns="http://www.w3.org/2000/svg">
<rect width="237" height="48" rx="10" fill="url(#paint0_linear_1950_936)"/>
<path d="M36.6825 26.926L37.9673 30.7802C38.2336 31.5789 37.8933 32.4541 37.1573 32.8632C35.7856 33.6256 34.0643 34 32 34C29.9358 34 28.2144 33.6256 26.8427 32.8632C26.1068 32.4541 25.7664 31.579 26.0327 30.7802L27.3175 26.926C28.6183 27.9138 30.2407 28.5 32 28.5C33.7593 28.5 35.3817 27.9138 36.6825 26.926ZM32 14C33.3366 14 34.5824 14.3885 35.6308 15.0587C35.5482 15.372 35.4224 15.6028 35.2626 15.7626C35.01 16.0151 34.5804 16.1827 33.9379 16.2336L33.7158 16.2463L33.3373 16.2559C31.168 16.4147 31.2222 19.75 33.5 19.75C34.3902 19.75 34.9565 19.9313 35.2626 20.2374C35.5151 20.49 35.6827 20.9196 35.7336 21.5621L35.7463 21.7842L35.7559 22.1627C35.8521 23.4768 37.114 23.975 38.094 23.6571C37.0078 25.9296 34.6873 27.5 32 27.5C28.2721 27.5 25.25 24.4779 25.25 20.75C25.25 17.0221 28.2721 14 32 14ZM38.25 14C38.25 15.1496 38.5199 15.9592 39.0303 16.4697C39.5015 16.9409 40.2276 17.2071 41.2407 17.2452L41.5 17.25C42.4583 17.25 42.4983 18.6276 41.6198 18.7424L41.5 18.75C40.3504 18.75 39.5408 19.0199 39.0303 19.5303C38.5591 20.0015 38.2929 20.7276 38.2548 21.7407L38.25 22C38.25 23 36.75 23 36.75 22C36.75 20.8504 36.4801 20.0408 35.9697 19.5303C35.4985 19.0591 34.7724 18.7929 33.7593 18.7548L33.5 18.75C32.5417 18.75 32.5017 17.3724 33.3802 17.2576L33.5 17.25C34.6496 17.25 35.4592 16.9801 35.9697 16.4697C36.4801 15.9592 36.75 15.1496 36.75 14C36.75 13 38.25 13 38.25 14Z" fill="white"/>
<path d="M65.6367 20.2773H59.707V24.4023H65.1562V27.4727H59.707V34H55.9219V17.1953H65.6367V20.2773ZM75.5156 34.293C73.1094 34.293 71.1484 33.5117 69.6328 31.9492C68.1172 30.3789 67.3594 28.3359 67.3594 25.8203C67.3594 23.1641 68.1289 21.0156 69.668 19.375C71.207 17.7344 73.2461 16.9141 75.7852 16.9141C78.1836 16.9141 80.1211 17.6992 81.5977 19.2695C83.082 20.8398 83.8242 22.9102 83.8242 25.4805C83.8242 28.1211 83.0547 30.25 81.5156 31.8672C79.9844 33.4844 77.9844 34.293 75.5156 34.293ZM75.6797 20.1719C74.3516 20.1719 73.2969 20.6719 72.5156 21.6719C71.7344 22.6641 71.3438 23.9805 71.3438 25.6211C71.3438 27.2852 71.7344 28.6016 72.5156 29.5703C73.2969 30.5391 74.3203 31.0234 75.5859 31.0234C76.8906 31.0234 77.9258 30.5547 78.6914 29.6172C79.457 28.6719 79.8398 27.3633 79.8398 25.6914C79.8398 23.9492 79.4688 22.5938 78.7266 21.625C77.9844 20.6562 76.9688 20.1719 75.6797 20.1719ZM100.723 34H96.375L93.7617 29.6758C93.5664 29.3477 93.3789 29.0547 93.1992 28.7969C93.0195 28.5391 92.8359 28.3203 92.6484 28.1406C92.4688 27.9531 92.2773 27.8125 92.0742 27.7188C91.8789 27.6172 91.6641 27.5664 91.4297 27.5664H90.4102V34H86.625V17.1953H92.625C96.7031 17.1953 98.7422 18.7188 98.7422 21.7656C98.7422 22.3516 98.6523 22.8945 98.4727 23.3945C98.293 23.8867 98.0391 24.332 97.7109 24.7305C97.3828 25.1289 96.9844 25.4727 96.5156 25.7617C96.0547 26.0508 95.5391 26.2773 94.9688 26.4414V26.4883C95.2188 26.5664 95.4609 26.6953 95.6953 26.875C95.9297 27.0469 96.1562 27.25 96.375 27.4844C96.5938 27.7188 96.8008 27.9727 96.9961 28.2461C97.1992 28.5117 97.3828 28.7734 97.5469 29.0312L100.723 34ZM90.4102 20.0312V24.707H92.0508C92.8633 24.707 93.5156 24.4727 94.0078 24.0039C94.5078 23.5273 94.7578 22.9375 94.7578 22.2344C94.7578 20.7656 93.8789 20.0312 92.1211 20.0312H90.4102ZM112.383 34H102.305V17.1953H111.996V20.2773H106.09V24.0156H111.586V27.0859H106.09V30.9297H112.383V34ZM127.125 33.4023C125.898 33.9961 124.297 34.293 122.32 34.293C119.742 34.293 117.715 33.5352 116.238 32.0195C114.762 30.5039 114.023 28.4844 114.023 25.9609C114.023 23.2734 114.852 21.0938 116.508 19.4219C118.172 17.75 120.328 16.9141 122.977 16.9141C124.617 16.9141 126 17.1211 127.125 17.5352V21.1797C126 20.5078 124.719 20.1719 123.281 20.1719C121.703 20.1719 120.43 20.668 119.461 21.6602C118.492 22.6523 118.008 23.9961 118.008 25.6914C118.008 27.3164 118.465 28.6133 119.379 29.582C120.293 30.543 121.523 31.0234 123.07 31.0234C124.547 31.0234 125.898 30.6641 127.125 29.9453V33.4023ZM144.832 34H140.707L139.512 30.2617H133.535L132.352 34H128.25L134.367 17.1953H138.855L144.832 34ZM138.645 27.3555L136.84 21.707C136.707 21.2852 136.613 20.7812 136.559 20.1953H136.465C136.426 20.6875 136.328 21.1758 136.172 21.6602L134.344 27.3555H138.645ZM146.156 33.3555V29.6055C146.836 30.1758 147.574 30.6055 148.371 30.8945C149.168 31.1758 149.973 31.3164 150.785 31.3164C151.262 31.3164 151.676 31.2734 152.027 31.1875C152.387 31.1016 152.684 30.9844 152.918 30.8359C153.16 30.6797 153.34 30.5 153.457 30.2969C153.574 30.0859 153.633 29.8594 153.633 29.6172C153.633 29.2891 153.539 28.9961 153.352 28.7383C153.164 28.4805 152.906 28.2422 152.578 28.0234C152.258 27.8047 151.875 27.5938 151.43 27.3906C150.984 27.1875 150.504 26.9805 149.988 26.7695C148.676 26.2227 147.695 25.5547 147.047 24.7656C146.406 23.9766 146.086 23.0234 146.086 21.9062C146.086 21.0312 146.262 20.2812 146.613 19.6562C146.965 19.0234 147.441 18.5039 148.043 18.0977C148.652 17.6914 149.355 17.3945 150.152 17.207C150.949 17.0117 151.793 16.9141 152.684 16.9141C153.559 16.9141 154.332 16.9688 155.004 17.0781C155.684 17.1797 156.309 17.3398 156.879 17.5586V21.0625C156.598 20.8672 156.289 20.6953 155.953 20.5469C155.625 20.3984 155.285 20.2773 154.934 20.1836C154.582 20.082 154.23 20.0078 153.879 19.9609C153.535 19.9141 153.207 19.8906 152.895 19.8906C152.465 19.8906 152.074 19.9336 151.723 20.0195C151.371 20.0977 151.074 20.2109 150.832 20.3594C150.59 20.5078 150.402 20.6875 150.27 20.8984C150.137 21.1016 150.07 21.332 150.07 21.5898C150.07 21.8711 150.145 22.125 150.293 22.3516C150.441 22.5703 150.652 22.7812 150.926 22.9844C151.199 23.1797 151.531 23.375 151.922 23.5703C152.312 23.7578 152.754 23.9531 153.246 24.1562C153.918 24.4375 154.52 24.7383 155.051 25.0586C155.59 25.3711 156.051 25.7266 156.434 26.125C156.816 26.5234 157.109 26.9805 157.312 27.4961C157.516 28.0039 157.617 28.5977 157.617 29.2773C157.617 30.2148 157.438 31.0039 157.078 31.6445C156.727 32.2773 156.246 32.793 155.637 33.1914C155.027 33.582 154.316 33.8633 153.504 34.0352C152.699 34.207 151.848 34.293 150.949 34.293C150.027 34.293 149.148 34.2148 148.312 34.0586C147.484 33.9023 146.766 33.668 146.156 33.3555ZM172.184 20.2773H167.391V34H163.594V20.2773H158.824V17.1953H172.184V20.2773ZM178.23 34H174.445V17.1953H178.23V34ZM197.18 34H193.359L186.434 23.4414C186.027 22.8242 185.746 22.3594 185.59 22.0469H185.543C185.605 22.6406 185.637 23.5469 185.637 24.7656V34H182.062V17.1953H186.141L192.809 27.4258C193.113 27.8867 193.395 28.3438 193.652 28.7969H193.699C193.637 28.4062 193.605 27.6367 193.605 26.4883V17.1953H197.18V34ZM214.816 32.875C213.176 33.8203 211.137 34.293 208.699 34.293C205.996 34.293 203.863 33.5469 202.301 32.0547C200.746 30.5547 199.969 28.4922 199.969 25.8672C199.969 23.2266 200.82 21.0742 202.523 19.4102C204.227 17.7461 206.492 16.9141 209.32 16.9141C211.102 16.9141 212.672 17.1602 214.031 17.6523V21.2031C212.734 20.4531 211.148 20.0781 209.273 20.0781C207.703 20.0781 206.422 20.5898 205.43 21.6133C204.445 22.6289 203.953 23.9883 203.953 25.6914C203.953 27.418 204.395 28.7539 205.277 29.6992C206.168 30.6445 207.367 31.1172 208.875 31.1172C209.781 31.1172 210.5 30.9883 211.031 30.7305V27.4492H207.668V24.4258H214.816V32.875Z" fill="white"/>
<defs>
<linearGradient id="paint0_linear_1950_936" x1="0" y1="24" x2="237" y2="24" gradientUnits="userSpaceOnUse">
<stop stop-color="#3DA699"/>
<stop offset="0.495" stop-color="#328882"/>
<stop offset="1" stop-color="#236065"/>
</linearGradient>
</defs>
</svg>
