<svg width="390" height="48" viewBox="0 0 390 48" fill="none" xmlns="http://www.w3.org/2000/svg">
<rect width="390" height="48" rx="10" fill="url(#paint0_linear_1950_988)"/>
<path d="M22 17.25C22 15.4551 23.4551 14 25.25 14H33.25C35.0449 14 36.5 15.4551 36.5 17.25V19.5H38.75C40.5449 19.5 42 20.9551 42 22.75V30.75C42 32.5449 40.5449 34 38.75 34H30.75C28.9551 34 27.5 32.5449 27.5 30.75V28.5H25.25C23.4551 28.5 22 27.0449 22 25.25V17.25ZM35 17.25C35 16.2835 34.2165 15.5 33.25 15.5H25.25C24.2835 15.5 23.5 16.2835 23.5 17.25V25.25C23.5 26.2165 24.2835 27 25.25 27H27.5V22.75C27.5 22.113 27.6833 21.5187 28 21.0172C28.241 20.6355 28.5593 20.3074 28.9329 20.055C28.9607 20.0363 28.9888 20.0179 29.0172 20C29.5187 19.6833 30.113 19.5 30.75 19.5H35V17.25ZM36 26.9828C35.9821 27.0112 35.9637 27.0393 35.945 27.0671C35.6926 27.4407 35.3645 27.759 34.9828 28C34.4813 28.3167 33.887 28.5 33.25 28.5H29V30.75C29 31.7165 29.7835 32.5 30.75 32.5H38.75C39.7165 32.5 40.5 31.7165 40.5 30.75V22.75C40.5 21.7835 39.7165 21 38.75 21H36.5V25.25C36.5 25.887 36.3167 26.4813 36 26.9828Z" fill="white"/>
<path d="M59.707 34H55.9219V17.1953H59.707V34ZM78.6562 34H74.8359L67.9102 23.4414C67.5039 22.8242 67.2227 22.3594 67.0664 22.0469H67.0195C67.082 22.6406 67.1133 23.5469 67.1133 24.7656V34H63.5391V17.1953H67.6172L74.2852 27.4258C74.5898 27.8867 74.8711 28.3438 75.1289 28.7969H75.1758C75.1133 28.4062 75.082 27.6367 75.082 26.4883V17.1953H78.6562V34ZM94.3008 20.2773H89.5078V34H85.7109V20.2773H80.9414V17.1953H94.3008V20.2773ZM106.641 34H96.5625V17.1953H106.254V20.2773H100.348V24.0156H105.844V27.0859H100.348V30.9297H106.641V34ZM123.434 34H119.086L116.473 29.6758C116.277 29.3477 116.09 29.0547 115.91 28.7969C115.73 28.5391 115.547 28.3203 115.359 28.1406C115.18 27.9531 114.988 27.8125 114.785 27.7188C114.59 27.6172 114.375 27.5664 114.141 27.5664H113.121V34H109.336V17.1953H115.336C119.414 17.1953 121.453 18.7188 121.453 21.7656C121.453 22.3516 121.363 22.8945 121.184 23.3945C121.004 23.8867 120.75 24.332 120.422 24.7305C120.094 25.1289 119.695 25.4727 119.227 25.7617C118.766 26.0508 118.25 26.2773 117.68 26.4414V26.4883C117.93 26.5664 118.172 26.6953 118.406 26.875C118.641 27.0469 118.867 27.25 119.086 27.4844C119.305 27.7188 119.512 27.9727 119.707 28.2461C119.91 28.5117 120.094 28.7734 120.258 29.0312L123.434 34ZM113.121 20.0312V24.707H114.762C115.574 24.707 116.227 24.4727 116.719 24.0039C117.219 23.5273 117.469 22.9375 117.469 22.2344C117.469 20.7656 116.59 20.0312 114.832 20.0312H113.121ZM124.242 33.3555V29.6055C124.922 30.1758 125.66 30.6055 126.457 30.8945C127.254 31.1758 128.059 31.3164 128.871 31.3164C129.348 31.3164 129.762 31.2734 130.113 31.1875C130.473 31.1016 130.77 30.9844 131.004 30.8359C131.246 30.6797 131.426 30.5 131.543 30.2969C131.66 30.0859 131.719 29.8594 131.719 29.6172C131.719 29.2891 131.625 28.9961 131.438 28.7383C131.25 28.4805 130.992 28.2422 130.664 28.0234C130.344 27.8047 129.961 27.5938 129.516 27.3906C129.07 27.1875 128.59 26.9805 128.074 26.7695C126.762 26.2227 125.781 25.5547 125.133 24.7656C124.492 23.9766 124.172 23.0234 124.172 21.9062C124.172 21.0312 124.348 20.2812 124.699 19.6562C125.051 19.0234 125.527 18.5039 126.129 18.0977C126.738 17.6914 127.441 17.3945 128.238 17.207C129.035 17.0117 129.879 16.9141 130.77 16.9141C131.645 16.9141 132.418 16.9688 133.09 17.0781C133.77 17.1797 134.395 17.3398 134.965 17.5586V21.0625C134.684 20.8672 134.375 20.6953 134.039 20.5469C133.711 20.3984 133.371 20.2773 133.02 20.1836C132.668 20.082 132.316 20.0078 131.965 19.9609C131.621 19.9141 131.293 19.8906 130.98 19.8906C130.551 19.8906 130.16 19.9336 129.809 20.0195C129.457 20.0977 129.16 20.2109 128.918 20.3594C128.676 20.5078 128.488 20.6875 128.355 20.8984C128.223 21.1016 128.156 21.332 128.156 21.5898C128.156 21.8711 128.23 22.125 128.379 22.3516C128.527 22.5703 128.738 22.7812 129.012 22.9844C129.285 23.1797 129.617 23.375 130.008 23.5703C130.398 23.7578 130.84 23.9531 131.332 24.1562C132.004 24.4375 132.605 24.7383 133.137 25.0586C133.676 25.3711 134.137 25.7266 134.52 26.125C134.902 26.5234 135.195 26.9805 135.398 27.4961C135.602 28.0039 135.703 28.5977 135.703 29.2773C135.703 30.2148 135.523 31.0039 135.164 31.6445C134.812 32.2773 134.332 32.793 133.723 33.1914C133.113 33.582 132.402 33.8633 131.59 34.0352C130.785 34.207 129.934 34.293 129.035 34.293C128.113 34.293 127.234 34.2148 126.398 34.0586C125.57 33.9023 124.852 33.668 124.242 33.3555ZM148.547 34H138.469V17.1953H148.16V20.2773H142.254V24.0156H147.75V27.0859H142.254V30.9297H148.547V34ZM163.289 33.4023C162.062 33.9961 160.461 34.293 158.484 34.293C155.906 34.293 153.879 33.5352 152.402 32.0195C150.926 30.5039 150.188 28.4844 150.188 25.9609C150.188 23.2734 151.016 21.0938 152.672 19.4219C154.336 17.75 156.492 16.9141 159.141 16.9141C160.781 16.9141 162.164 17.1211 163.289 17.5352V21.1797C162.164 20.5078 160.883 20.1719 159.445 20.1719C157.867 20.1719 156.594 20.668 155.625 21.6602C154.656 22.6523 154.172 23.9961 154.172 25.6914C154.172 27.3164 154.629 28.6133 155.543 29.582C156.457 30.543 157.688 31.0234 159.234 31.0234C160.711 31.0234 162.062 30.6641 163.289 29.9453V33.4023ZM178.02 20.2773H173.227V34H169.43V20.2773H164.66V17.1953H178.02V20.2773ZM184.066 34H180.281V17.1953H184.066V34ZM203.016 34H199.195L192.27 23.4414C191.863 22.8242 191.582 22.3594 191.426 22.0469H191.379C191.441 22.6406 191.473 23.5469 191.473 24.7656V34H187.898V17.1953H191.977L198.645 27.4258C198.949 27.8867 199.23 28.3438 199.488 28.7969H199.535C199.473 28.4062 199.441 27.6367 199.441 26.4883V17.1953H203.016V34ZM220.652 32.875C219.012 33.8203 216.973 34.293 214.535 34.293C211.832 34.293 209.699 33.5469 208.137 32.0547C206.582 30.5547 205.805 28.4922 205.805 25.8672C205.805 23.2266 206.656 21.0742 208.359 19.4102C210.062 17.7461 212.328 16.9141 215.156 16.9141C216.938 16.9141 218.508 17.1602 219.867 17.6523V21.2031C218.57 20.4531 216.984 20.0781 215.109 20.0781C213.539 20.0781 212.258 20.5898 211.266 21.6133C210.281 22.6289 209.789 23.9883 209.789 25.6914C209.789 27.418 210.23 28.7539 211.113 29.6992C212.004 30.6445 213.203 31.1172 214.711 31.1172C215.617 31.1172 216.336 30.9883 216.867 30.7305V27.4492H213.504V24.4258H220.652V32.875ZM230.555 34V17.1953H236.508C242.477 17.1953 245.461 19.9258 245.461 25.3867C245.461 28.0039 244.645 30.0938 243.012 31.6562C241.387 33.2188 239.219 34 236.508 34H230.555ZM234.34 20.2773V30.9297H236.215C237.855 30.9297 239.141 30.4375 240.07 29.4531C241.008 28.4688 241.477 27.1289 241.477 25.4336C241.477 23.832 241.012 22.5742 240.082 21.6602C239.16 20.7383 237.863 20.2773 236.191 20.2773H234.34ZM252.035 34H248.25V17.1953H252.035V34ZM255.094 33.3555V29.6055C255.773 30.1758 256.512 30.6055 257.309 30.8945C258.105 31.1758 258.91 31.3164 259.723 31.3164C260.199 31.3164 260.613 31.2734 260.965 31.1875C261.324 31.1016 261.621 30.9844 261.855 30.8359C262.098 30.6797 262.277 30.5 262.395 30.2969C262.512 30.0859 262.57 29.8594 262.57 29.6172C262.57 29.2891 262.477 28.9961 262.289 28.7383C262.102 28.4805 261.844 28.2422 261.516 28.0234C261.195 27.8047 260.812 27.5938 260.367 27.3906C259.922 27.1875 259.441 26.9805 258.926 26.7695C257.613 26.2227 256.633 25.5547 255.984 24.7656C255.344 23.9766 255.023 23.0234 255.023 21.9062C255.023 21.0312 255.199 20.2812 255.551 19.6562C255.902 19.0234 256.379 18.5039 256.98 18.0977C257.59 17.6914 258.293 17.3945 259.09 17.207C259.887 17.0117 260.73 16.9141 261.621 16.9141C262.496 16.9141 263.27 16.9688 263.941 17.0781C264.621 17.1797 265.246 17.3398 265.816 17.5586V21.0625C265.535 20.8672 265.227 20.6953 264.891 20.5469C264.562 20.3984 264.223 20.2773 263.871 20.1836C263.52 20.082 263.168 20.0078 262.816 19.9609C262.473 19.9141 262.145 19.8906 261.832 19.8906C261.402 19.8906 261.012 19.9336 260.66 20.0195C260.309 20.0977 260.012 20.2109 259.77 20.3594C259.527 20.5078 259.34 20.6875 259.207 20.8984C259.074 21.1016 259.008 21.332 259.008 21.5898C259.008 21.8711 259.082 22.125 259.23 22.3516C259.379 22.5703 259.59 22.7812 259.863 22.9844C260.137 23.1797 260.469 23.375 260.859 23.5703C261.25 23.7578 261.691 23.9531 262.184 24.1562C262.855 24.4375 263.457 24.7383 263.988 25.0586C264.527 25.3711 264.988 25.7266 265.371 26.125C265.754 26.5234 266.047 26.9805 266.25 27.4961C266.453 28.0039 266.555 28.5977 266.555 29.2773C266.555 30.2148 266.375 31.0039 266.016 31.6445C265.664 32.2773 265.184 32.793 264.574 33.1914C263.965 33.582 263.254 33.8633 262.441 34.0352C261.637 34.207 260.785 34.293 259.887 34.293C258.965 34.293 258.086 34.2148 257.25 34.0586C256.422 33.9023 255.703 33.668 255.094 33.3555ZM281.367 33.4023C280.141 33.9961 278.539 34.293 276.562 34.293C273.984 34.293 271.957 33.5352 270.48 32.0195C269.004 30.5039 268.266 28.4844 268.266 25.9609C268.266 23.2734 269.094 21.0938 270.75 19.4219C272.414 17.75 274.57 16.9141 277.219 16.9141C278.859 16.9141 280.242 17.1211 281.367 17.5352V21.1797C280.242 20.5078 278.961 20.1719 277.523 20.1719C275.945 20.1719 274.672 20.668 273.703 21.6602C272.734 22.6523 272.25 23.9961 272.25 25.6914C272.25 27.3164 272.707 28.6133 273.621 29.582C274.535 30.543 275.766 31.0234 277.312 31.0234C278.789 31.0234 280.141 30.6641 281.367 29.9453V33.4023ZM288.082 34H284.297V17.1953H288.082V34ZM295.699 28.2109V34H291.914V17.1953H297.844C302.078 17.1953 304.195 18.9805 304.195 22.5508C304.195 24.2383 303.586 25.6055 302.367 26.6523C301.156 27.6914 299.535 28.2109 297.504 28.2109H295.699ZM295.699 20.1016V25.3398H297.188C299.203 25.3398 300.211 24.457 300.211 22.6914C300.211 20.9648 299.203 20.1016 297.188 20.1016H295.699ZM316.664 34H306.656V17.1953H310.441V30.9297H316.664V34ZM322.723 34H318.938V17.1953H322.723V34ZM341.672 34H337.852L330.926 23.4414C330.52 22.8242 330.238 22.3594 330.082 22.0469H330.035C330.098 22.6406 330.129 23.5469 330.129 24.7656V34H326.555V17.1953H330.633L337.301 27.4258C337.605 27.8867 337.887 28.3438 338.145 28.7969H338.191C338.129 28.4062 338.098 27.6367 338.098 26.4883V17.1953H341.672V34ZM355.594 34H345.516V17.1953H355.207V20.2773H349.301V24.0156H354.797V27.0859H349.301V30.9297H355.594V34ZM357.516 33.3555V29.6055C358.195 30.1758 358.934 30.6055 359.73 30.8945C360.527 31.1758 361.332 31.3164 362.145 31.3164C362.621 31.3164 363.035 31.2734 363.387 31.1875C363.746 31.1016 364.043 30.9844 364.277 30.8359C364.52 30.6797 364.699 30.5 364.816 30.2969C364.934 30.0859 364.992 29.8594 364.992 29.6172C364.992 29.2891 364.898 28.9961 364.711 28.7383C364.523 28.4805 364.266 28.2422 363.938 28.0234C363.617 27.8047 363.234 27.5938 362.789 27.3906C362.344 27.1875 361.863 26.9805 361.348 26.7695C360.035 26.2227 359.055 25.5547 358.406 24.7656C357.766 23.9766 357.445 23.0234 357.445 21.9062C357.445 21.0312 357.621 20.2812 357.973 19.6562C358.324 19.0234 358.801 18.5039 359.402 18.0977C360.012 17.6914 360.715 17.3945 361.512 17.207C362.309 17.0117 363.152 16.9141 364.043 16.9141C364.918 16.9141 365.691 16.9688 366.363 17.0781C367.043 17.1797 367.668 17.3398 368.238 17.5586V21.0625C367.957 20.8672 367.648 20.6953 367.312 20.5469C366.984 20.3984 366.645 20.2773 366.293 20.1836C365.941 20.082 365.59 20.0078 365.238 19.9609C364.895 19.9141 364.566 19.8906 364.254 19.8906C363.824 19.8906 363.434 19.9336 363.082 20.0195C362.73 20.0977 362.434 20.2109 362.191 20.3594C361.949 20.5078 361.762 20.6875 361.629 20.8984C361.496 21.1016 361.43 21.332 361.43 21.5898C361.43 21.8711 361.504 22.125 361.652 22.3516C361.801 22.5703 362.012 22.7812 362.285 22.9844C362.559 23.1797 362.891 23.375 363.281 23.5703C363.672 23.7578 364.113 23.9531 364.605 24.1562C365.277 24.4375 365.879 24.7383 366.41 25.0586C366.949 25.3711 367.41 25.7266 367.793 26.125C368.176 26.5234 368.469 26.9805 368.672 27.4961C368.875 28.0039 368.977 28.5977 368.977 29.2773C368.977 30.2148 368.797 31.0039 368.438 31.6445C368.086 32.2773 367.605 32.793 366.996 33.1914C366.387 33.582 365.676 33.8633 364.863 34.0352C364.059 34.207 363.207 34.293 362.309 34.293C361.387 34.293 360.508 34.2148 359.672 34.0586C358.844 33.9023 358.125 33.668 357.516 33.3555Z" fill="white"/>
<defs>
<linearGradient id="paint0_linear_1950_988" x1="0" y1="24" x2="390" y2="24" gradientUnits="userSpaceOnUse">
<stop stop-color="#C03BC4"/>
<stop offset="0.495" stop-color="#D7398F"/>
<stop offset="1" stop-color="#DF387C"/>
</linearGradient>
</defs>
</svg>
