<svg width="268" height="48" viewBox="0 0 268 48" fill="none" xmlns="http://www.w3.org/2000/svg">
<rect width="268" height="48" rx="10" fill="url(#paint0_linear_1950_917)"/>
<path d="M38 18C38 19.6569 35.3137 21 32 21C28.6863 21 26 19.6569 26 18C26 16.3431 28.6863 15 32 15C35.3137 15 38 16.3431 38 18ZM38 20.1203C37.6173 20.4823 37.1593 20.781 36.6899 21.0157C35.4379 21.6417 33.7784 22 32 22C31.3775 22 30.7697 21.9561 30.1887 21.8722C31.1238 22.4001 31.9127 23.2135 31.9932 24.3138L32.0023 24.3056L32.0013 26.5531C32.0008 27.7321 32 29.5956 32 30.4994C32 30.6729 31.9822 30.8397 31.949 30.9999L32 31C35.3137 31 38 29.6569 38 28V20.1203ZM27.3101 21.0157L27.3602 21.0405C27.0796 21.0138 26.7922 21 26.5 21C26.332 21 26.1652 21.0046 26 21.0136V20.1203C26.3827 20.4823 26.8407 20.781 27.3101 21.0157ZM28.9998 22.4209C28.6567 22.2933 28.2803 22.1913 27.8793 22.1196C27.4446 22.0419 26.9811 22 26.5 22C24.0147 22 22 23.1193 22 24.5C22 25.8807 24.0147 27 26.5 27C28.9853 27 31 25.8807 31 24.5C31 23.6332 30.2059 22.8694 28.9998 22.4209ZM30.1676 27.1419C29.1785 27.6914 27.8799 28 26.5 28C25.1201 28 23.8215 27.6914 22.8324 27.1419C22.54 26.9794 22.2549 26.7831 22 26.5538V30.4994C22 31.8802 24.0147 32.9994 26.5 32.9994C28.9853 32.9994 31 31.8802 31 30.4994C31 29.5953 31.0008 27.7315 31.0013 26.5526C30.7461 26.7824 30.4605 26.9792 30.1676 27.1419Z" fill="white"/>
<path d="M51.9219 34V17.1953H57.875C63.8438 17.1953 66.8281 19.9258 66.8281 25.3867C66.8281 28.0039 66.0117 30.0938 64.3789 31.6562C62.7539 33.2188 60.5859 34 57.875 34H51.9219ZM55.707 20.2773V30.9297H57.582C59.2227 30.9297 60.5078 30.4375 61.4375 29.4531C62.375 28.4688 62.8438 27.1289 62.8438 25.4336C62.8438 23.832 62.3789 22.5742 61.4492 21.6602C60.5273 20.7383 59.2305 20.2773 57.5586 20.2773H55.707ZM84.0195 34H79.8945L78.6992 30.2617H72.7227L71.5391 34H67.4375L73.5547 17.1953H78.043L84.0195 34ZM77.832 27.3555L76.0273 21.707C75.8945 21.2852 75.8008 20.7812 75.7461 20.1953H75.6523C75.6133 20.6875 75.5156 21.1758 75.3594 21.6602L73.5312 27.3555H77.832ZM96.2305 20.2773H91.4375V34H87.6406V20.2773H82.8711V17.1953H96.2305V20.2773ZM111.582 34H107.457L106.262 30.2617H100.285L99.1016 34H95L101.117 17.1953H105.605L111.582 34ZM105.395 27.3555L103.59 21.707C103.457 21.2852 103.363 20.7812 103.309 20.1953H103.215C103.176 20.6875 103.078 21.1758 102.922 21.6602L101.094 27.3555H105.395ZM124.098 34H120.312V17.1953H124.098V34ZM143.047 34H139.227L132.301 23.4414C131.895 22.8242 131.613 22.3594 131.457 22.0469H131.41C131.473 22.6406 131.504 23.5469 131.504 24.7656V34H127.93V17.1953H132.008L138.676 27.4258C138.98 27.8867 139.262 28.3438 139.52 28.7969H139.566C139.504 28.4062 139.473 27.6367 139.473 26.4883V17.1953H143.047V34ZM160.684 32.875C159.043 33.8203 157.004 34.293 154.566 34.293C151.863 34.293 149.73 33.5469 148.168 32.0547C146.613 30.5547 145.836 28.4922 145.836 25.8672C145.836 23.2266 146.688 21.0742 148.391 19.4102C150.094 17.7461 152.359 16.9141 155.188 16.9141C156.969 16.9141 158.539 17.1602 159.898 17.6523V21.2031C158.602 20.4531 157.016 20.0781 155.141 20.0781C153.57 20.0781 152.289 20.5898 151.297 21.6133C150.312 22.6289 149.82 23.9883 149.82 25.6914C149.82 27.418 150.262 28.7539 151.145 29.6992C152.035 30.6445 153.234 31.1172 154.742 31.1172C155.648 31.1172 156.367 30.9883 156.898 30.7305V27.4492H153.535V24.4258H160.684V32.875ZM174.031 34H163.953V17.1953H173.645V20.2773H167.738V24.0156H173.234V27.0859H167.738V30.9297H174.031V34ZM175.953 33.3555V29.6055C176.633 30.1758 177.371 30.6055 178.168 30.8945C178.965 31.1758 179.77 31.3164 180.582 31.3164C181.059 31.3164 181.473 31.2734 181.824 31.1875C182.184 31.1016 182.48 30.9844 182.715 30.8359C182.957 30.6797 183.137 30.5 183.254 30.2969C183.371 30.0859 183.43 29.8594 183.43 29.6172C183.43 29.2891 183.336 28.9961 183.148 28.7383C182.961 28.4805 182.703 28.2422 182.375 28.0234C182.055 27.8047 181.672 27.5938 181.227 27.3906C180.781 27.1875 180.301 26.9805 179.785 26.7695C178.473 26.2227 177.492 25.5547 176.844 24.7656C176.203 23.9766 175.883 23.0234 175.883 21.9062C175.883 21.0312 176.059 20.2812 176.41 19.6562C176.762 19.0234 177.238 18.5039 177.84 18.0977C178.449 17.6914 179.152 17.3945 179.949 17.207C180.746 17.0117 181.59 16.9141 182.48 16.9141C183.355 16.9141 184.129 16.9688 184.801 17.0781C185.48 17.1797 186.105 17.3398 186.676 17.5586V21.0625C186.395 20.8672 186.086 20.6953 185.75 20.5469C185.422 20.3984 185.082 20.2773 184.73 20.1836C184.379 20.082 184.027 20.0078 183.676 19.9609C183.332 19.9141 183.004 19.8906 182.691 19.8906C182.262 19.8906 181.871 19.9336 181.52 20.0195C181.168 20.0977 180.871 20.2109 180.629 20.3594C180.387 20.5078 180.199 20.6875 180.066 20.8984C179.934 21.1016 179.867 21.332 179.867 21.5898C179.867 21.8711 179.941 22.125 180.09 22.3516C180.238 22.5703 180.449 22.7812 180.723 22.9844C180.996 23.1797 181.328 23.375 181.719 23.5703C182.109 23.7578 182.551 23.9531 183.043 24.1562C183.715 24.4375 184.316 24.7383 184.848 25.0586C185.387 25.3711 185.848 25.7266 186.23 26.125C186.613 26.5234 186.906 26.9805 187.109 27.4961C187.312 28.0039 187.414 28.5977 187.414 29.2773C187.414 30.2148 187.234 31.0039 186.875 31.6445C186.523 32.2773 186.043 32.793 185.434 33.1914C184.824 33.582 184.113 33.8633 183.301 34.0352C182.496 34.207 181.645 34.293 180.746 34.293C179.824 34.293 178.945 34.2148 178.109 34.0586C177.281 33.9023 176.562 33.668 175.953 33.3555ZM201.98 20.2773H197.188V34H193.391V20.2773H188.621V17.1953H201.98V20.2773ZM208.027 34H204.242V17.1953H208.027V34ZM218.961 34.293C216.555 34.293 214.594 33.5117 213.078 31.9492C211.562 30.3789 210.805 28.3359 210.805 25.8203C210.805 23.1641 211.574 21.0156 213.113 19.375C214.652 17.7344 216.691 16.9141 219.23 16.9141C221.629 16.9141 223.566 17.6992 225.043 19.2695C226.527 20.8398 227.27 22.9102 227.27 25.4805C227.27 28.1211 226.5 30.25 224.961 31.8672C223.43 33.4844 221.43 34.293 218.961 34.293ZM219.125 20.1719C217.797 20.1719 216.742 20.6719 215.961 21.6719C215.18 22.6641 214.789 23.9805 214.789 25.6211C214.789 27.2852 215.18 28.6016 215.961 29.5703C216.742 30.5391 217.766 31.0234 219.031 31.0234C220.336 31.0234 221.371 30.5547 222.137 29.6172C222.902 28.6719 223.285 27.3633 223.285 25.6914C223.285 23.9492 222.914 22.5938 222.172 21.625C221.43 20.6562 220.414 20.1719 219.125 20.1719ZM245.188 34H241.367L234.441 23.4414C234.035 22.8242 233.754 22.3594 233.598 22.0469H233.551C233.613 22.6406 233.645 23.5469 233.645 24.7656V34H230.07V17.1953H234.148L240.816 27.4258C241.121 27.8867 241.402 28.3438 241.66 28.7969H241.707C241.645 28.4062 241.613 27.6367 241.613 26.4883V17.1953H245.188V34Z" fill="white"/>
<defs>
<linearGradient id="paint0_linear_1950_917" x1="0" y1="24" x2="268" y2="24" gradientUnits="userSpaceOnUse">
<stop stop-color="#0078D4"/>
<stop offset="0.505" stop-color="#118BCC"/>
<stop offset="1" stop-color="#2BA5C0"/>
</linearGradient>
</defs>
</svg>
