<svg width="289" height="48" viewBox="0 0 289 48" fill="none" xmlns="http://www.w3.org/2000/svg">
<rect width="289" height="48" rx="10" fill="url(#paint0_linear_1950_960)"/>
<path d="M25.25 16C23.4551 16 22 17.4551 22 19.25V28.75C22 30.5449 23.4551 32 25.25 32H38.75C40.5449 32 42 30.5449 42 28.75V19.25C42 17.4551 40.5449 16 38.75 16H25.25ZM25 19.75C25 19.3358 25.3358 19 25.75 19H31.25C31.6642 19 32 19.3358 32 19.75C32 20.1642 31.6642 20.5 31.25 20.5H25.75C25.3358 20.5 25 20.1642 25 19.75ZM26 25H33C33.5523 25 34 25.4477 34 26V28C34 28.5523 33.5523 29 33 29H26C25.4477 29 25 28.5523 25 28V26C25 25.4477 25.4477 25 26 25ZM25.75 21.5H36.25C36.6642 21.5 37 21.8358 37 22.25C37 22.6642 36.6642 23 36.25 23H25.75C25.3358 23 25 22.6642 25 22.25C25 21.8358 25.3358 21.5 25.75 21.5Z" fill="white"/>
<path d="M65.9297 34H55.9219V17.1953H59.707V30.9297H65.9297V34ZM71.9883 34H68.2031V17.1953H71.9883V34ZM87.8672 33.4023C86.6406 33.9961 85.0391 34.293 83.0625 34.293C80.4844 34.293 78.457 33.5352 76.9805 32.0195C75.5039 30.5039 74.7656 28.4844 74.7656 25.9609C74.7656 23.2734 75.5938 21.0938 77.25 19.4219C78.9141 17.75 81.0703 16.9141 83.7188 16.9141C85.3594 16.9141 86.7422 17.1211 87.8672 17.5352V21.1797C86.7422 20.5078 85.4609 20.1719 84.0234 20.1719C82.4453 20.1719 81.1719 20.668 80.2031 21.6602C79.2344 22.6523 78.75 23.9961 78.75 25.6914C78.75 27.3164 79.207 28.6133 80.1211 29.582C81.0352 30.543 82.2656 31.0234 83.8125 31.0234C85.2891 31.0234 86.6406 30.6641 87.8672 29.9453V33.4023ZM100.875 34H90.7969V17.1953H100.488V20.2773H94.582V24.0156H100.078V27.0859H94.582V30.9297H100.875V34ZM118.688 34H114.867L107.941 23.4414C107.535 22.8242 107.254 22.3594 107.098 22.0469H107.051C107.113 22.6406 107.145 23.5469 107.145 24.7656V34H103.57V17.1953H107.648L114.316 27.4258C114.621 27.8867 114.902 28.3438 115.16 28.7969H115.207C115.145 28.4062 115.113 27.6367 115.113 26.4883V17.1953H118.688V34ZM121.758 33.3555V29.6055C122.438 30.1758 123.176 30.6055 123.973 30.8945C124.77 31.1758 125.574 31.3164 126.387 31.3164C126.863 31.3164 127.277 31.2734 127.629 31.1875C127.988 31.1016 128.285 30.9844 128.52 30.8359C128.762 30.6797 128.941 30.5 129.059 30.2969C129.176 30.0859 129.234 29.8594 129.234 29.6172C129.234 29.2891 129.141 28.9961 128.953 28.7383C128.766 28.4805 128.508 28.2422 128.18 28.0234C127.859 27.8047 127.477 27.5938 127.031 27.3906C126.586 27.1875 126.105 26.9805 125.59 26.7695C124.277 26.2227 123.297 25.5547 122.648 24.7656C122.008 23.9766 121.688 23.0234 121.688 21.9062C121.688 21.0312 121.863 20.2812 122.215 19.6562C122.566 19.0234 123.043 18.5039 123.645 18.0977C124.254 17.6914 124.957 17.3945 125.754 17.207C126.551 17.0117 127.395 16.9141 128.285 16.9141C129.16 16.9141 129.934 16.9688 130.605 17.0781C131.285 17.1797 131.91 17.3398 132.48 17.5586V21.0625C132.199 20.8672 131.891 20.6953 131.555 20.5469C131.227 20.3984 130.887 20.2773 130.535 20.1836C130.184 20.082 129.832 20.0078 129.48 19.9609C129.137 19.9141 128.809 19.8906 128.496 19.8906C128.066 19.8906 127.676 19.9336 127.324 20.0195C126.973 20.0977 126.676 20.2109 126.434 20.3594C126.191 20.5078 126.004 20.6875 125.871 20.8984C125.738 21.1016 125.672 21.332 125.672 21.5898C125.672 21.8711 125.746 22.125 125.895 22.3516C126.043 22.5703 126.254 22.7812 126.527 22.9844C126.801 23.1797 127.133 23.375 127.523 23.5703C127.914 23.7578 128.355 23.9531 128.848 24.1562C129.52 24.4375 130.121 24.7383 130.652 25.0586C131.191 25.3711 131.652 25.7266 132.035 26.125C132.418 26.5234 132.711 26.9805 132.914 27.4961C133.117 28.0039 133.219 28.5977 133.219 29.2773C133.219 30.2148 133.039 31.0039 132.68 31.6445C132.328 32.2773 131.848 32.793 131.238 33.1914C130.629 33.582 129.918 33.8633 129.105 34.0352C128.301 34.207 127.449 34.293 126.551 34.293C125.629 34.293 124.75 34.2148 123.914 34.0586C123.086 33.9023 122.367 33.668 121.758 33.3555ZM139.77 34H135.984V17.1953H139.77V34ZM158.719 34H154.898L147.973 23.4414C147.566 22.8242 147.285 22.3594 147.129 22.0469H147.082C147.145 22.6406 147.176 23.5469 147.176 24.7656V34H143.602V17.1953H147.68L154.348 27.4258C154.652 27.8867 154.934 28.3438 155.191 28.7969H155.238C155.176 28.4062 155.145 27.6367 155.145 26.4883V17.1953H158.719V34ZM176.355 32.875C174.715 33.8203 172.676 34.293 170.238 34.293C167.535 34.293 165.402 33.5469 163.84 32.0547C162.285 30.5547 161.508 28.4922 161.508 25.8672C161.508 23.2266 162.359 21.0742 164.062 19.4102C165.766 17.7461 168.031 16.9141 170.859 16.9141C172.641 16.9141 174.211 17.1602 175.57 17.6523V21.2031C174.273 20.4531 172.688 20.0781 170.812 20.0781C169.242 20.0781 167.961 20.5898 166.969 21.6133C165.984 22.6289 165.492 23.9883 165.492 25.6914C165.492 27.418 165.934 28.7539 166.816 29.6992C167.707 30.6445 168.906 31.1172 170.414 31.1172C171.32 31.1172 172.039 30.9883 172.57 30.7305V27.4492H169.207V24.4258H176.355V32.875ZM198.539 28.3164H194.027V32.8281H191.66V28.3164H187.125V25.9375H191.66V21.4023H194.027V25.9375H198.539V28.3164ZM209.086 33.3555V29.6055C209.766 30.1758 210.504 30.6055 211.301 30.8945C212.098 31.1758 212.902 31.3164 213.715 31.3164C214.191 31.3164 214.605 31.2734 214.957 31.1875C215.316 31.1016 215.613 30.9844 215.848 30.8359C216.09 30.6797 216.27 30.5 216.387 30.2969C216.504 30.0859 216.562 29.8594 216.562 29.6172C216.562 29.2891 216.469 28.9961 216.281 28.7383C216.094 28.4805 215.836 28.2422 215.508 28.0234C215.188 27.8047 214.805 27.5938 214.359 27.3906C213.914 27.1875 213.434 26.9805 212.918 26.7695C211.605 26.2227 210.625 25.5547 209.977 24.7656C209.336 23.9766 209.016 23.0234 209.016 21.9062C209.016 21.0312 209.191 20.2812 209.543 19.6562C209.895 19.0234 210.371 18.5039 210.973 18.0977C211.582 17.6914 212.285 17.3945 213.082 17.207C213.879 17.0117 214.723 16.9141 215.613 16.9141C216.488 16.9141 217.262 16.9688 217.934 17.0781C218.613 17.1797 219.238 17.3398 219.809 17.5586V21.0625C219.527 20.8672 219.219 20.6953 218.883 20.5469C218.555 20.3984 218.215 20.2773 217.863 20.1836C217.512 20.082 217.16 20.0078 216.809 19.9609C216.465 19.9141 216.137 19.8906 215.824 19.8906C215.395 19.8906 215.004 19.9336 214.652 20.0195C214.301 20.0977 214.004 20.2109 213.762 20.3594C213.52 20.5078 213.332 20.6875 213.199 20.8984C213.066 21.1016 213 21.332 213 21.5898C213 21.8711 213.074 22.125 213.223 22.3516C213.371 22.5703 213.582 22.7812 213.855 22.9844C214.129 23.1797 214.461 23.375 214.852 23.5703C215.242 23.7578 215.684 23.9531 216.176 24.1562C216.848 24.4375 217.449 24.7383 217.98 25.0586C218.52 25.3711 218.98 25.7266 219.363 26.125C219.746 26.5234 220.039 26.9805 220.242 27.4961C220.445 28.0039 220.547 28.5977 220.547 29.2773C220.547 30.2148 220.367 31.0039 220.008 31.6445C219.656 32.2773 219.176 32.793 218.566 33.1914C217.957 33.582 217.246 33.8633 216.434 34.0352C215.629 34.207 214.777 34.293 213.879 34.293C212.957 34.293 212.078 34.2148 211.242 34.0586C210.414 33.9023 209.695 33.668 209.086 33.3555ZM238.09 34H233.965L232.77 30.2617H226.793L225.609 34H221.508L227.625 17.1953H232.113L238.09 34ZM231.902 27.3555L230.098 21.707C229.965 21.2852 229.871 20.7812 229.816 20.1953H229.723C229.684 20.6875 229.586 21.1758 229.43 21.6602L227.602 27.3555H231.902ZM254.965 34H250.84L249.645 30.2617H243.668L242.484 34H238.383L244.5 17.1953H248.988L254.965 34ZM248.777 27.3555L246.973 21.707C246.84 21.2852 246.746 20.7812 246.691 20.1953H246.598C246.559 20.6875 246.461 21.1758 246.305 21.6602L244.477 27.3555H248.777ZM256.289 33.3555V29.6055C256.969 30.1758 257.707 30.6055 258.504 30.8945C259.301 31.1758 260.105 31.3164 260.918 31.3164C261.395 31.3164 261.809 31.2734 262.16 31.1875C262.52 31.1016 262.816 30.9844 263.051 30.8359C263.293 30.6797 263.473 30.5 263.59 30.2969C263.707 30.0859 263.766 29.8594 263.766 29.6172C263.766 29.2891 263.672 28.9961 263.484 28.7383C263.297 28.4805 263.039 28.2422 262.711 28.0234C262.391 27.8047 262.008 27.5938 261.562 27.3906C261.117 27.1875 260.637 26.9805 260.121 26.7695C258.809 26.2227 257.828 25.5547 257.18 24.7656C256.539 23.9766 256.219 23.0234 256.219 21.9062C256.219 21.0312 256.395 20.2812 256.746 19.6562C257.098 19.0234 257.574 18.5039 258.176 18.0977C258.785 17.6914 259.488 17.3945 260.285 17.207C261.082 17.0117 261.926 16.9141 262.816 16.9141C263.691 16.9141 264.465 16.9688 265.137 17.0781C265.816 17.1797 266.441 17.3398 267.012 17.5586V21.0625C266.73 20.8672 266.422 20.6953 266.086 20.5469C265.758 20.3984 265.418 20.2773 265.066 20.1836C264.715 20.082 264.363 20.0078 264.012 19.9609C263.668 19.9141 263.34 19.8906 263.027 19.8906C262.598 19.8906 262.207 19.9336 261.855 20.0195C261.504 20.0977 261.207 20.2109 260.965 20.3594C260.723 20.5078 260.535 20.6875 260.402 20.8984C260.27 21.1016 260.203 21.332 260.203 21.5898C260.203 21.8711 260.277 22.125 260.426 22.3516C260.574 22.5703 260.785 22.7812 261.059 22.9844C261.332 23.1797 261.664 23.375 262.055 23.5703C262.445 23.7578 262.887 23.9531 263.379 24.1562C264.051 24.4375 264.652 24.7383 265.184 25.0586C265.723 25.3711 266.184 25.7266 266.566 26.125C266.949 26.5234 267.242 26.9805 267.445 27.4961C267.648 28.0039 267.75 28.5977 267.75 29.2773C267.75 30.2148 267.57 31.0039 267.211 31.6445C266.859 32.2773 266.379 32.793 265.77 33.1914C265.16 33.582 264.449 33.8633 263.637 34.0352C262.832 34.207 261.98 34.293 261.082 34.293C260.16 34.293 259.281 34.2148 258.445 34.0586C257.617 33.9023 256.898 33.668 256.289 33.3555Z" fill="white"/>
<defs>
<linearGradient id="paint0_linear_1950_960" x1="0" y1="24" x2="289" y2="24" gradientUnits="userSpaceOnUse">
<stop stop-color="#FF5C39"/>
<stop offset="0.505" stop-color="#FF5C39"/>
<stop offset="1" stop-color="#FF871F"/>
</linearGradient>
</defs>
</svg>
