<svg width="393" height="48" viewBox="0 0 393 48" fill="none" xmlns="http://www.w3.org/2000/svg">
<rect width="393" height="48" rx="10" fill="url(#paint0_linear_1950_970)"/>
<path d="M28.7001 16.4818C29.5346 16.148 30.4654 16.148 31.2999 16.4818L37.0571 18.7847C37.6266 19.0125 38 19.564 38 20.1774V24.2572C37.0491 23.4718 35.8296 23 34.5 23C32.9238 23 31.5025 23.663 30.4998 24.7253V22.8253L34.7029 20.9573C34.9553 20.8451 35.0689 20.5496 34.9568 20.2973C34.8446 20.045 34.5492 19.9313 34.2968 20.0435L29.9998 21.9532L25.703 20.0435C25.4506 19.9313 25.1551 20.045 25.043 20.2973C24.9308 20.5496 25.0445 20.8451 25.2968 20.9573L29.4997 22.8253V26.2061C29.1789 26.9043 29 27.6812 29 28.5C29 29.724 29.3999 30.8547 30.0761 31.7684C29.6095 31.7786 29.1413 31.6954 28.7001 31.5189L22.9429 29.216C22.3734 28.9882 22 28.4367 22 27.8233V20.1774C22 19.564 22.3734 19.0125 22.9429 18.7847L28.7001 16.4818ZM37.0001 32.2416C36.26 32.7361 35.39 33 34.5 33C33.3065 33 32.1619 32.5259 31.318 31.682C30.4741 30.8381 30 29.6935 30 28.5C30 27.61 30.2639 26.74 30.7584 25.9999C31.2529 25.2599 31.9557 24.6831 32.7779 24.3425C33.6002 24.0019 34.505 23.9128 35.3779 24.0865C36.2508 24.2601 37.0526 24.6887 37.682 25.318C38.3113 25.9474 38.7399 26.7492 38.9135 27.6221C39.0872 28.495 38.9981 29.3998 38.6575 30.2221C38.3169 31.0443 37.7401 31.7471 37.0001 32.2416ZM34.8536 26.1464C34.7598 26.0527 34.6326 26 34.5 26C34.3674 26 34.2402 26.0527 34.1464 26.1464C34.0527 26.2402 34 26.3674 34 26.5V28H32.5C32.3674 28 32.2402 28.0527 32.1464 28.1464C32.0527 28.2402 32 28.3674 32 28.5C32 28.6326 32.0527 28.7598 32.1464 28.8536C32.2402 28.9473 32.3674 29 32.5 29H34V30.5C34 30.6326 34.0527 30.7598 34.1464 30.8536C34.2402 30.9473 34.3674 31 34.5 31C34.6326 31 34.7598 30.9473 34.8536 30.8536C34.9473 30.7598 35 30.6326 35 30.5V29H36.5C36.6326 29 36.7598 28.9473 36.8536 28.8536C36.9473 28.7598 37 28.6326 37 28.5C37 28.3674 36.9473 28.2402 36.8536 28.1464C36.7598 28.0527 36.6326 28 36.5 28H35V26.5C35 26.3674 34.9473 26.2402 34.8536 26.1464Z" fill="white"/>
<path d="M59.0234 34.293C56.6172 34.293 54.6562 33.5117 53.1406 31.9492C51.625 30.3789 50.8672 28.3359 50.8672 25.8203C50.8672 23.1641 51.6367 21.0156 53.1758 19.375C54.7148 17.7344 56.7539 16.9141 59.293 16.9141C61.6914 16.9141 63.6289 17.6992 65.1055 19.2695C66.5898 20.8398 67.332 22.9102 67.332 25.4805C67.332 28.1211 66.5625 30.25 65.0234 31.8672C63.4922 33.4844 61.4922 34.293 59.0234 34.293ZM59.1875 20.1719C57.8594 20.1719 56.8047 20.6719 56.0234 21.6719C55.2422 22.6641 54.8516 23.9805 54.8516 25.6211C54.8516 27.2852 55.2422 28.6016 56.0234 29.5703C56.8047 30.5391 57.8281 31.0234 59.0938 31.0234C60.3984 31.0234 61.4336 30.5547 62.1992 29.6172C62.9648 28.6719 63.3477 27.3633 63.3477 25.6914C63.3477 23.9492 62.9766 22.5938 62.2344 21.625C61.4922 20.6562 60.4766 20.1719 59.1875 20.1719ZM85.25 34H81.4297L74.5039 23.4414C74.0977 22.8242 73.8164 22.3594 73.6602 22.0469H73.6133C73.6758 22.6406 73.707 23.5469 73.707 24.7656V34H70.1328V17.1953H74.2109L80.8789 27.4258C81.1836 27.8867 81.4648 28.3438 81.7227 28.7969H81.7695C81.707 28.4062 81.6758 27.6367 81.6758 26.4883V17.1953H85.25V34ZM89.0938 34V17.1953H95.2109C97.0859 17.1953 98.5273 17.5391 99.5352 18.2266C100.543 18.9141 101.047 19.8828 101.047 21.1328C101.047 22.0391 100.738 22.832 100.121 23.5117C99.5117 24.1914 98.7305 24.6641 97.7773 24.9297V24.9766C98.9727 25.125 99.9258 25.5664 100.637 26.3008C101.355 27.0352 101.715 27.9297 101.715 28.9844C101.715 30.5234 101.164 31.7461 100.062 32.6523C98.9609 33.5508 97.457 34 95.5508 34H89.0938ZM92.8789 19.9844V23.9688H94.543C95.3242 23.9688 95.9375 23.7812 96.3828 23.4062C96.8359 23.0234 97.0625 22.5 97.0625 21.8359C97.0625 20.6016 96.1406 19.9844 94.2969 19.9844H92.8789ZM92.8789 26.7812V31.2109H94.9297C95.8047 31.2109 96.4883 31.0078 96.9805 30.6016C97.4805 30.1953 97.7305 29.6406 97.7305 28.9375C97.7305 28.2656 97.4844 27.7383 96.9922 27.3555C96.5078 26.9727 95.8281 26.7812 94.9531 26.7812H92.8789ZM111.594 34.293C109.188 34.293 107.227 33.5117 105.711 31.9492C104.195 30.3789 103.438 28.3359 103.438 25.8203C103.438 23.1641 104.207 21.0156 105.746 19.375C107.285 17.7344 109.324 16.9141 111.863 16.9141C114.262 16.9141 116.199 17.6992 117.676 19.2695C119.16 20.8398 119.902 22.9102 119.902 25.4805C119.902 28.1211 119.133 30.25 117.594 31.8672C116.062 33.4844 114.062 34.293 111.594 34.293ZM111.758 20.1719C110.43 20.1719 109.375 20.6719 108.594 21.6719C107.812 22.6641 107.422 23.9805 107.422 25.6211C107.422 27.2852 107.812 28.6016 108.594 29.5703C109.375 30.5391 110.398 31.0234 111.664 31.0234C112.969 31.0234 114.004 30.5547 114.77 29.6172C115.535 28.6719 115.918 27.3633 115.918 25.6914C115.918 23.9492 115.547 22.5938 114.805 21.625C114.062 20.6562 113.047 20.1719 111.758 20.1719ZM137.105 34H132.98L131.785 30.2617H125.809L124.625 34H120.523L126.641 17.1953H131.129L137.105 34ZM130.918 27.3555L129.113 21.707C128.98 21.2852 128.887 20.7812 128.832 20.1953H128.738C128.699 20.6875 128.602 21.1758 128.445 21.6602L126.617 27.3555H130.918ZM153.301 34H148.953L146.34 29.6758C146.145 29.3477 145.957 29.0547 145.777 28.7969C145.598 28.5391 145.414 28.3203 145.227 28.1406C145.047 27.9531 144.855 27.8125 144.652 27.7188C144.457 27.6172 144.242 27.5664 144.008 27.5664H142.988V34H139.203V17.1953H145.203C149.281 17.1953 151.32 18.7188 151.32 21.7656C151.32 22.3516 151.23 22.8945 151.051 23.3945C150.871 23.8867 150.617 24.332 150.289 24.7305C149.961 25.1289 149.562 25.4727 149.094 25.7617C148.633 26.0508 148.117 26.2773 147.547 26.4414V26.4883C147.797 26.5664 148.039 26.6953 148.273 26.875C148.508 27.0469 148.734 27.25 148.953 27.4844C149.172 27.7188 149.379 27.9727 149.574 28.2461C149.777 28.5117 149.961 28.7734 150.125 29.0312L153.301 34ZM142.988 20.0312V24.707H144.629C145.441 24.707 146.094 24.4727 146.586 24.0039C147.086 23.5273 147.336 22.9375 147.336 22.2344C147.336 20.7656 146.457 20.0312 144.699 20.0312H142.988ZM154.883 34V17.1953H160.836C166.805 17.1953 169.789 19.9258 169.789 25.3867C169.789 28.0039 168.973 30.0938 167.34 31.6562C165.715 33.2188 163.547 34 160.836 34H154.883ZM158.668 20.2773V30.9297H160.543C162.184 30.9297 163.469 30.4375 164.398 29.4531C165.336 28.4688 165.805 27.1289 165.805 25.4336C165.805 23.832 165.34 22.5742 164.41 21.6602C163.488 20.7383 162.191 20.2773 160.52 20.2773H158.668ZM176.363 34H172.578V17.1953H176.363V34ZM195.312 34H191.492L184.566 23.4414C184.16 22.8242 183.879 22.3594 183.723 22.0469H183.676C183.738 22.6406 183.77 23.5469 183.77 24.7656V34H180.195V17.1953H184.273L190.941 27.4258C191.246 27.8867 191.527 28.3438 191.785 28.7969H191.832C191.77 28.4062 191.738 27.6367 191.738 26.4883V17.1953H195.312V34ZM212.949 32.875C211.309 33.8203 209.27 34.293 206.832 34.293C204.129 34.293 201.996 33.5469 200.434 32.0547C198.879 30.5547 198.102 28.4922 198.102 25.8672C198.102 23.2266 198.953 21.0742 200.656 19.4102C202.359 17.7461 204.625 16.9141 207.453 16.9141C209.234 16.9141 210.805 17.1602 212.164 17.6523V21.2031C210.867 20.4531 209.281 20.0781 207.406 20.0781C205.836 20.0781 204.555 20.5898 203.562 21.6133C202.578 22.6289 202.086 23.9883 202.086 25.6914C202.086 27.418 202.527 28.7539 203.41 29.6992C204.301 30.6445 205.5 31.1172 207.008 31.1172C207.914 31.1172 208.633 30.9883 209.164 30.7305V27.4492H205.801V24.4258H212.949V32.875ZM244.836 17.1953L240.395 34H236.199L233.41 23.2188C233.262 22.6562 233.172 22.0273 233.141 21.332H233.094C233.023 22.0977 232.922 22.7266 232.789 23.2188L229.93 34H225.559L221.141 17.1953H225.277L227.645 28.3867C227.746 28.8633 227.82 29.5039 227.867 30.3086H227.938C227.969 29.707 228.082 29.0508 228.277 28.3398L231.324 17.1953H235.379L238.133 28.4805C238.234 28.8945 238.324 29.4961 238.402 30.2852H238.449C238.48 29.668 238.562 29.043 238.695 28.4102L241.016 17.1953H244.836ZM254.07 34.293C251.664 34.293 249.703 33.5117 248.188 31.9492C246.672 30.3789 245.914 28.3359 245.914 25.8203C245.914 23.1641 246.684 21.0156 248.223 19.375C249.762 17.7344 251.801 16.9141 254.34 16.9141C256.738 16.9141 258.676 17.6992 260.152 19.2695C261.637 20.8398 262.379 22.9102 262.379 25.4805C262.379 28.1211 261.609 30.25 260.07 31.8672C258.539 33.4844 256.539 34.293 254.07 34.293ZM254.234 20.1719C252.906 20.1719 251.852 20.6719 251.07 21.6719C250.289 22.6641 249.898 23.9805 249.898 25.6211C249.898 27.2852 250.289 28.6016 251.07 29.5703C251.852 30.5391 252.875 31.0234 254.141 31.0234C255.445 31.0234 256.48 30.5547 257.246 29.6172C258.012 28.6719 258.395 27.3633 258.395 25.6914C258.395 23.9492 258.023 22.5938 257.281 21.625C256.539 20.6562 255.523 20.1719 254.234 20.1719ZM279.277 34H274.93L272.316 29.6758C272.121 29.3477 271.934 29.0547 271.754 28.7969C271.574 28.5391 271.391 28.3203 271.203 28.1406C271.023 27.9531 270.832 27.8125 270.629 27.7188C270.434 27.6172 270.219 27.5664 269.984 27.5664H268.965V34H265.18V17.1953H271.18C275.258 17.1953 277.297 18.7188 277.297 21.7656C277.297 22.3516 277.207 22.8945 277.027 23.3945C276.848 23.8867 276.594 24.332 276.266 24.7305C275.938 25.1289 275.539 25.4727 275.07 25.7617C274.609 26.0508 274.094 26.2773 273.523 26.4414V26.4883C273.773 26.5664 274.016 26.6953 274.25 26.875C274.484 27.0469 274.711 27.25 274.93 27.4844C275.148 27.7188 275.355 27.9727 275.551 28.2461C275.754 28.5117 275.938 28.7734 276.102 29.0312L279.277 34ZM268.965 20.0312V24.707H270.605C271.418 24.707 272.07 24.4727 272.562 24.0039C273.062 23.5273 273.312 22.9375 273.312 22.2344C273.312 20.7656 272.434 20.0312 270.676 20.0312H268.965ZM294.828 34H290.047L285.148 26.6992C285.055 26.5586 284.906 26.25 284.703 25.7734H284.645V34H280.859V17.1953H284.645V25.1406H284.703C284.797 24.9219 284.953 24.6094 285.172 24.2031L289.812 17.1953H294.324L288.465 25.2109L294.828 34ZM306.453 34H296.445V17.1953H300.23V30.9297H306.453V34ZM315.219 34.293C312.812 34.293 310.852 33.5117 309.336 31.9492C307.82 30.3789 307.062 28.3359 307.062 25.8203C307.062 23.1641 307.832 21.0156 309.371 19.375C310.91 17.7344 312.949 16.9141 315.488 16.9141C317.887 16.9141 319.824 17.6992 321.301 19.2695C322.785 20.8398 323.527 22.9102 323.527 25.4805C323.527 28.1211 322.758 30.25 321.219 31.8672C319.688 33.4844 317.688 34.293 315.219 34.293ZM315.383 20.1719C314.055 20.1719 313 20.6719 312.219 21.6719C311.438 22.6641 311.047 23.9805 311.047 25.6211C311.047 27.2852 311.438 28.6016 312.219 29.5703C313 30.5391 314.023 31.0234 315.289 31.0234C316.594 31.0234 317.629 30.5547 318.395 29.6172C319.16 28.6719 319.543 27.3633 319.543 25.6914C319.543 23.9492 319.172 22.5938 318.43 21.625C317.688 20.6562 316.672 20.1719 315.383 20.1719ZM340.73 34H336.605L335.41 30.2617H329.434L328.25 34H324.148L330.266 17.1953H334.754L340.73 34ZM334.543 27.3555L332.738 21.707C332.605 21.2852 332.512 20.7812 332.457 20.1953H332.363C332.324 20.6875 332.227 21.1758 332.07 21.6602L330.242 27.3555H334.543ZM342.828 34V17.1953H348.781C354.75 17.1953 357.734 19.9258 357.734 25.3867C357.734 28.0039 356.918 30.0938 355.285 31.6562C353.66 33.2188 351.492 34 348.781 34H342.828ZM346.613 20.2773V30.9297H348.488C350.129 30.9297 351.414 30.4375 352.344 29.4531C353.281 28.4688 353.75 27.1289 353.75 25.4336C353.75 23.832 353.285 22.5742 352.355 21.6602C351.434 20.7383 350.137 20.2773 348.465 20.2773H346.613ZM359.75 33.3555V29.6055C360.43 30.1758 361.168 30.6055 361.965 30.8945C362.762 31.1758 363.566 31.3164 364.379 31.3164C364.855 31.3164 365.27 31.2734 365.621 31.1875C365.98 31.1016 366.277 30.9844 366.512 30.8359C366.754 30.6797 366.934 30.5 367.051 30.2969C367.168 30.0859 367.227 29.8594 367.227 29.6172C367.227 29.2891 367.133 28.9961 366.945 28.7383C366.758 28.4805 366.5 28.2422 366.172 28.0234C365.852 27.8047 365.469 27.5938 365.023 27.3906C364.578 27.1875 364.098 26.9805 363.582 26.7695C362.27 26.2227 361.289 25.5547 360.641 24.7656C360 23.9766 359.68 23.0234 359.68 21.9062C359.68 21.0312 359.855 20.2812 360.207 19.6562C360.559 19.0234 361.035 18.5039 361.637 18.0977C362.246 17.6914 362.949 17.3945 363.746 17.207C364.543 17.0117 365.387 16.9141 366.277 16.9141C367.152 16.9141 367.926 16.9688 368.598 17.0781C369.277 17.1797 369.902 17.3398 370.473 17.5586V21.0625C370.191 20.8672 369.883 20.6953 369.547 20.5469C369.219 20.3984 368.879 20.2773 368.527 20.1836C368.176 20.082 367.824 20.0078 367.473 19.9609C367.129 19.9141 366.801 19.8906 366.488 19.8906C366.059 19.8906 365.668 19.9336 365.316 20.0195C364.965 20.0977 364.668 20.2109 364.426 20.3594C364.184 20.5078 363.996 20.6875 363.863 20.8984C363.73 21.1016 363.664 21.332 363.664 21.5898C363.664 21.8711 363.738 22.125 363.887 22.3516C364.035 22.5703 364.246 22.7812 364.52 22.9844C364.793 23.1797 365.125 23.375 365.516 23.5703C365.906 23.7578 366.348 23.9531 366.84 24.1562C367.512 24.4375 368.113 24.7383 368.645 25.0586C369.184 25.3711 369.645 25.7266 370.027 26.125C370.41 26.5234 370.703 26.9805 370.906 27.4961C371.109 28.0039 371.211 28.5977 371.211 29.2773C371.211 30.2148 371.031 31.0039 370.672 31.6445C370.32 32.2773 369.84 32.793 369.23 33.1914C368.621 33.582 367.91 33.8633 367.098 34.0352C366.293 34.207 365.441 34.293 364.543 34.293C363.621 34.293 362.742 34.2148 361.906 34.0586C361.078 33.9023 360.359 33.668 359.75 33.3555Z" fill="white"/>
<defs>
<linearGradient id="paint0_linear_1950_970" x1="0" y1="24" x2="393" y2="24" gradientUnits="userSpaceOnUse">
<stop stop-color="#C03BC4"/>
<stop offset="0.495" stop-color="#D7398F"/>
<stop offset="1" stop-color="#DF387C"/>
</linearGradient>
</defs>
</svg>
