<svg width="433" height="48" viewBox="0 0 433 48" fill="none" xmlns="http://www.w3.org/2000/svg">
<rect width="433" height="48" rx="10" fill="url(#paint0_linear_1950_967)"/>
<path d="M27.5 19.9998C29.1569 19.9998 30.5 18.6567 30.5 16.9999C30.5 15.3431 29.1569 14 27.5 14C25.8431 14 24.5 15.3431 24.5 16.9999C24.5 18.6567 25.8431 19.9998 27.5 19.9998ZM22 22.7678C22 21.7915 22.7915 21 23.7678 21H28.5351C28.1948 21.5883 28 22.2714 28 23C28 24.1947 28.5238 25.2671 29.3542 26H28.2678C27.081 26 26.0687 26.747 25.6753 27.7964C24.1766 27.4301 23.2477 26.6128 22.7009 25.7027C21.9999 24.536 22 23.3355 22 23.1272V22.7678ZM36.0001 23C36.0001 22.2714 35.8054 21.5883 35.465 21H40.2322C41.2085 21 42 21.7915 42 22.7678V23.1272C42 23.3355 42.0001 24.536 41.2991 25.7027C40.7523 26.6128 39.8234 27.4301 38.3247 27.7964C37.9313 26.747 36.919 26 35.7322 26H34.6459C35.4764 25.2671 36.0001 24.1947 36.0001 23ZM39.5 16.9999C39.5 18.6567 38.1569 19.9998 36.5 19.9998C34.8431 19.9998 33.5 18.6567 33.5 16.9999C33.5 15.3431 34.8431 14 36.5 14C38.1569 14 39.5 15.3431 39.5 16.9999ZM26.5 28.7678C26.5 27.7915 27.2915 27 28.2678 27H35.7322C36.7085 27 37.5 27.7915 37.5 28.7678V29.1272C37.5 29.3355 37.5001 30.536 36.7991 31.7027C36.0578 32.9367 34.614 34 32 34C29.386 34 27.9422 32.9367 27.2009 31.7027C26.4999 30.536 26.5 29.3355 26.5 29.1272V28.7678ZM32 25.9998C33.6569 25.9998 35 24.6567 35 22.9999C35 21.3431 33.6569 20 32 20C30.3431 20 29 21.3431 29 22.9999C29 24.6567 30.3431 25.9998 32 25.9998Z" fill="white"/>
<path d="M65.6367 20.2773H59.707V24.4023H65.1562V27.4727H59.707V34H55.9219V17.1953H65.6367V20.2773ZM72.1992 34H68.4141V17.1953H72.1992V34ZM91.1484 34H87.3281L80.4023 23.4414C79.9961 22.8242 79.7148 22.3594 79.5586 22.0469H79.5117C79.5742 22.6406 79.6055 23.5469 79.6055 24.7656V34H76.0312V17.1953H80.1094L86.7773 27.4258C87.082 27.8867 87.3633 28.3438 87.6211 28.7969H87.668C87.6055 28.4062 87.5742 27.6367 87.5742 26.4883V17.1953H91.1484V34ZM102.094 34.293C99.6875 34.293 97.7266 33.5117 96.2109 31.9492C94.6953 30.3789 93.9375 28.3359 93.9375 25.8203C93.9375 23.1641 94.707 21.0156 96.2461 19.375C97.7852 17.7344 99.8242 16.9141 102.363 16.9141C104.762 16.9141 106.699 17.6992 108.176 19.2695C109.66 20.8398 110.402 22.9102 110.402 25.4805C110.402 28.1211 109.633 30.25 108.094 31.8672C106.562 33.4844 104.562 34.293 102.094 34.293ZM102.258 20.1719C100.93 20.1719 99.875 20.6719 99.0938 21.6719C98.3125 22.6641 97.9219 23.9805 97.9219 25.6211C97.9219 27.2852 98.3125 28.6016 99.0938 29.5703C99.875 30.5391 100.898 31.0234 102.164 31.0234C103.469 31.0234 104.504 30.5547 105.27 29.6172C106.035 28.6719 106.418 27.3633 106.418 25.6914C106.418 23.9492 106.047 22.5938 105.305 21.625C104.562 20.6562 103.547 20.1719 102.258 20.1719ZM116.988 28.2109V34H113.203V17.1953H119.133C123.367 17.1953 125.484 18.9805 125.484 22.5508C125.484 24.2383 124.875 25.6055 123.656 26.6523C122.445 27.6914 120.824 28.2109 118.793 28.2109H116.988ZM116.988 20.1016V25.3398H118.477C120.492 25.3398 121.5 24.457 121.5 22.6914C121.5 20.9648 120.492 20.1016 118.477 20.1016H116.988ZM127.172 33.3555V29.6055C127.852 30.1758 128.59 30.6055 129.387 30.8945C130.184 31.1758 130.988 31.3164 131.801 31.3164C132.277 31.3164 132.691 31.2734 133.043 31.1875C133.402 31.1016 133.699 30.9844 133.934 30.8359C134.176 30.6797 134.355 30.5 134.473 30.2969C134.59 30.0859 134.648 29.8594 134.648 29.6172C134.648 29.2891 134.555 28.9961 134.367 28.7383C134.18 28.4805 133.922 28.2422 133.594 28.0234C133.273 27.8047 132.891 27.5938 132.445 27.3906C132 27.1875 131.52 26.9805 131.004 26.7695C129.691 26.2227 128.711 25.5547 128.062 24.7656C127.422 23.9766 127.102 23.0234 127.102 21.9062C127.102 21.0312 127.277 20.2812 127.629 19.6562C127.98 19.0234 128.457 18.5039 129.059 18.0977C129.668 17.6914 130.371 17.3945 131.168 17.207C131.965 17.0117 132.809 16.9141 133.699 16.9141C134.574 16.9141 135.348 16.9688 136.02 17.0781C136.699 17.1797 137.324 17.3398 137.895 17.5586V21.0625C137.613 20.8672 137.305 20.6953 136.969 20.5469C136.641 20.3984 136.301 20.2773 135.949 20.1836C135.598 20.082 135.246 20.0078 134.895 19.9609C134.551 19.9141 134.223 19.8906 133.91 19.8906C133.48 19.8906 133.09 19.9336 132.738 20.0195C132.387 20.0977 132.09 20.2109 131.848 20.3594C131.605 20.5078 131.418 20.6875 131.285 20.8984C131.152 21.1016 131.086 21.332 131.086 21.5898C131.086 21.8711 131.16 22.125 131.309 22.3516C131.457 22.5703 131.668 22.7812 131.941 22.9844C132.215 23.1797 132.547 23.375 132.938 23.5703C133.328 23.7578 133.77 23.9531 134.262 24.1562C134.934 24.4375 135.535 24.7383 136.066 25.0586C136.605 25.3711 137.066 25.7266 137.449 26.125C137.832 26.5234 138.125 26.9805 138.328 27.4961C138.531 28.0039 138.633 28.5977 138.633 29.2773C138.633 30.2148 138.453 31.0039 138.094 31.6445C137.742 32.2773 137.262 32.793 136.652 33.1914C136.043 33.582 135.332 33.8633 134.52 34.0352C133.715 34.207 132.863 34.293 131.965 34.293C131.043 34.293 130.164 34.2148 129.328 34.0586C128.5 33.9023 127.781 33.668 127.172 33.3555ZM151.816 28.2109V34H148.031V17.1953H153.961C158.195 17.1953 160.312 18.9805 160.312 22.5508C160.312 24.2383 159.703 25.6055 158.484 26.6523C157.273 27.6914 155.652 28.2109 153.621 28.2109H151.816ZM151.816 20.1016V25.3398H153.305C155.32 25.3398 156.328 24.457 156.328 22.6914C156.328 20.9648 155.32 20.1016 153.305 20.1016H151.816ZM176.871 34H172.523L169.91 29.6758C169.715 29.3477 169.527 29.0547 169.348 28.7969C169.168 28.5391 168.984 28.3203 168.797 28.1406C168.617 27.9531 168.426 27.8125 168.223 27.7188C168.027 27.6172 167.812 27.5664 167.578 27.5664H166.559V34H162.773V17.1953H168.773C172.852 17.1953 174.891 18.7188 174.891 21.7656C174.891 22.3516 174.801 22.8945 174.621 23.3945C174.441 23.8867 174.188 24.332 173.859 24.7305C173.531 25.1289 173.133 25.4727 172.664 25.7617C172.203 26.0508 171.688 26.2773 171.117 26.4414V26.4883C171.367 26.5664 171.609 26.6953 171.844 26.875C172.078 27.0469 172.305 27.25 172.523 27.4844C172.742 27.7188 172.949 27.9727 173.145 28.2461C173.348 28.5117 173.531 28.7734 173.695 29.0312L176.871 34ZM166.559 20.0312V24.707H168.199C169.012 24.707 169.664 24.4727 170.156 24.0039C170.656 23.5273 170.906 22.9375 170.906 22.2344C170.906 20.7656 170.027 20.0312 168.27 20.0312H166.559ZM193.23 34H189.105L187.91 30.2617H181.934L180.75 34H176.648L182.766 17.1953H187.254L193.23 34ZM187.043 27.3555L185.238 21.707C185.105 21.2852 185.012 20.7812 184.957 20.1953H184.863C184.824 20.6875 184.727 21.1758 184.57 21.6602L182.742 27.3555H187.043ZM207 33.4023C205.773 33.9961 204.172 34.293 202.195 34.293C199.617 34.293 197.59 33.5352 196.113 32.0195C194.637 30.5039 193.898 28.4844 193.898 25.9609C193.898 23.2734 194.727 21.0938 196.383 19.4219C198.047 17.75 200.203 16.9141 202.852 16.9141C204.492 16.9141 205.875 17.1211 207 17.5352V21.1797C205.875 20.5078 204.594 20.1719 203.156 20.1719C201.578 20.1719 200.305 20.668 199.336 21.6602C198.367 22.6523 197.883 23.9961 197.883 25.6914C197.883 27.3164 198.34 28.6133 199.254 29.582C200.168 30.543 201.398 31.0234 202.945 31.0234C204.422 31.0234 205.773 30.6641 207 29.9453V33.4023ZM221.73 20.2773H216.938V34H213.141V20.2773H208.371V17.1953H221.73V20.2773ZM227.777 34H223.992V17.1953H227.777V34ZM243.656 33.4023C242.43 33.9961 240.828 34.293 238.852 34.293C236.273 34.293 234.246 33.5352 232.77 32.0195C231.293 30.5039 230.555 28.4844 230.555 25.9609C230.555 23.2734 231.383 21.0938 233.039 19.4219C234.703 17.75 236.859 16.9141 239.508 16.9141C241.148 16.9141 242.531 17.1211 243.656 17.5352V21.1797C242.531 20.5078 241.25 20.1719 239.812 20.1719C238.234 20.1719 236.961 20.668 235.992 21.6602C235.023 22.6523 234.539 23.9961 234.539 25.6914C234.539 27.3164 234.996 28.6133 235.91 29.582C236.824 30.543 238.055 31.0234 239.602 31.0234C241.078 31.0234 242.43 30.6641 243.656 29.9453V33.4023ZM256.664 34H246.586V17.1953H256.277V20.2773H250.371V24.0156H255.867V27.0859H250.371V30.9297H256.664V34ZM273.094 34.293C270.688 34.293 268.727 33.5117 267.211 31.9492C265.695 30.3789 264.938 28.3359 264.938 25.8203C264.938 23.1641 265.707 21.0156 267.246 19.375C268.785 17.7344 270.824 16.9141 273.363 16.9141C275.762 16.9141 277.699 17.6992 279.176 19.2695C280.66 20.8398 281.402 22.9102 281.402 25.4805C281.402 28.1211 280.633 30.25 279.094 31.8672C277.562 33.4844 275.562 34.293 273.094 34.293ZM273.258 20.1719C271.93 20.1719 270.875 20.6719 270.094 21.6719C269.312 22.6641 268.922 23.9805 268.922 25.6211C268.922 27.2852 269.312 28.6016 270.094 29.5703C270.875 30.5391 271.898 31.0234 273.164 31.0234C274.469 31.0234 275.504 30.5547 276.27 29.6172C277.035 28.6719 277.418 27.3633 277.418 25.6914C277.418 23.9492 277.047 22.5938 276.305 21.625C275.562 20.6562 274.547 20.1719 273.258 20.1719ZM287.988 28.2109V34H284.203V17.1953H290.133C294.367 17.1953 296.484 18.9805 296.484 22.5508C296.484 24.2383 295.875 25.6055 294.656 26.6523C293.445 27.6914 291.824 28.2109 289.793 28.2109H287.988ZM287.988 20.1016V25.3398H289.477C291.492 25.3398 292.5 24.457 292.5 22.6914C292.5 20.9648 291.492 20.1016 289.477 20.1016H287.988ZM309.023 34H298.945V17.1953H308.637V20.2773H302.73V24.0156H308.227V27.0859H302.73V30.9297H309.023V34ZM325.816 34H321.469L318.855 29.6758C318.66 29.3477 318.473 29.0547 318.293 28.7969C318.113 28.5391 317.93 28.3203 317.742 28.1406C317.562 27.9531 317.371 27.8125 317.168 27.7188C316.973 27.6172 316.758 27.5664 316.523 27.5664H315.504V34H311.719V17.1953H317.719C321.797 17.1953 323.836 18.7188 323.836 21.7656C323.836 22.3516 323.746 22.8945 323.566 23.3945C323.387 23.8867 323.133 24.332 322.805 24.7305C322.477 25.1289 322.078 25.4727 321.609 25.7617C321.148 26.0508 320.633 26.2773 320.062 26.4414V26.4883C320.312 26.5664 320.555 26.6953 320.789 26.875C321.023 27.0469 321.25 27.25 321.469 27.4844C321.688 27.7188 321.895 27.9727 322.09 28.2461C322.293 28.5117 322.477 28.7734 322.641 29.0312L325.816 34ZM315.504 20.0312V24.707H317.145C317.957 24.707 318.609 24.4727 319.102 24.0039C319.602 23.5273 319.852 22.9375 319.852 22.2344C319.852 20.7656 318.973 20.0312 317.215 20.0312H315.504ZM342.176 34H338.051L336.855 30.2617H330.879L329.695 34H325.594L331.711 17.1953H336.199L342.176 34ZM335.988 27.3555L334.184 21.707C334.051 21.2852 333.957 20.7812 333.902 20.1953H333.809C333.77 20.6875 333.672 21.1758 333.516 21.6602L331.688 27.3555H335.988ZM354.387 20.2773H349.594V34H345.797V20.2773H341.027V17.1953H354.387V20.2773ZM360.434 34H356.648V17.1953H360.434V34ZM371.367 34.293C368.961 34.293 367 33.5117 365.484 31.9492C363.969 30.3789 363.211 28.3359 363.211 25.8203C363.211 23.1641 363.98 21.0156 365.52 19.375C367.059 17.7344 369.098 16.9141 371.637 16.9141C374.035 16.9141 375.973 17.6992 377.449 19.2695C378.934 20.8398 379.676 22.9102 379.676 25.4805C379.676 28.1211 378.906 30.25 377.367 31.8672C375.836 33.4844 373.836 34.293 371.367 34.293ZM371.531 20.1719C370.203 20.1719 369.148 20.6719 368.367 21.6719C367.586 22.6641 367.195 23.9805 367.195 25.6211C367.195 27.2852 367.586 28.6016 368.367 29.5703C369.148 30.5391 370.172 31.0234 371.438 31.0234C372.742 31.0234 373.777 30.5547 374.543 29.6172C375.309 28.6719 375.691 27.3633 375.691 25.6914C375.691 23.9492 375.32 22.5938 374.578 21.625C373.836 20.6562 372.82 20.1719 371.531 20.1719ZM397.594 34H393.773L386.848 23.4414C386.441 22.8242 386.16 22.3594 386.004 22.0469H385.957C386.02 22.6406 386.051 23.5469 386.051 24.7656V34H382.477V17.1953H386.555L393.223 27.4258C393.527 27.8867 393.809 28.3438 394.066 28.7969H394.113C394.051 28.4062 394.02 27.6367 394.02 26.4883V17.1953H397.594V34ZM400.664 33.3555V29.6055C401.344 30.1758 402.082 30.6055 402.879 30.8945C403.676 31.1758 404.48 31.3164 405.293 31.3164C405.77 31.3164 406.184 31.2734 406.535 31.1875C406.895 31.1016 407.191 30.9844 407.426 30.8359C407.668 30.6797 407.848 30.5 407.965 30.2969C408.082 30.0859 408.141 29.8594 408.141 29.6172C408.141 29.2891 408.047 28.9961 407.859 28.7383C407.672 28.4805 407.414 28.2422 407.086 28.0234C406.766 27.8047 406.383 27.5938 405.938 27.3906C405.492 27.1875 405.012 26.9805 404.496 26.7695C403.184 26.2227 402.203 25.5547 401.555 24.7656C400.914 23.9766 400.594 23.0234 400.594 21.9062C400.594 21.0312 400.77 20.2812 401.121 19.6562C401.473 19.0234 401.949 18.5039 402.551 18.0977C403.16 17.6914 403.863 17.3945 404.66 17.207C405.457 17.0117 406.301 16.9141 407.191 16.9141C408.066 16.9141 408.84 16.9688 409.512 17.0781C410.191 17.1797 410.816 17.3398 411.387 17.5586V21.0625C411.105 20.8672 410.797 20.6953 410.461 20.5469C410.133 20.3984 409.793 20.2773 409.441 20.1836C409.09 20.082 408.738 20.0078 408.387 19.9609C408.043 19.9141 407.715 19.8906 407.402 19.8906C406.973 19.8906 406.582 19.9336 406.23 20.0195C405.879 20.0977 405.582 20.2109 405.34 20.3594C405.098 20.5078 404.91 20.6875 404.777 20.8984C404.645 21.1016 404.578 21.332 404.578 21.5898C404.578 21.8711 404.652 22.125 404.801 22.3516C404.949 22.5703 405.16 22.7812 405.434 22.9844C405.707 23.1797 406.039 23.375 406.43 23.5703C406.82 23.7578 407.262 23.9531 407.754 24.1562C408.426 24.4375 409.027 24.7383 409.559 25.0586C410.098 25.3711 410.559 25.7266 410.941 26.125C411.324 26.5234 411.617 26.9805 411.82 27.4961C412.023 28.0039 412.125 28.5977 412.125 29.2773C412.125 30.2148 411.945 31.0039 411.586 31.6445C411.234 32.2773 410.754 32.793 410.145 33.1914C409.535 33.582 408.824 33.8633 408.012 34.0352C407.207 34.207 406.355 34.293 405.457 34.293C404.535 34.293 403.656 34.2148 402.82 34.0586C401.992 33.9023 401.273 33.668 400.664 33.3555Z" fill="white"/>
<defs>
<linearGradient id="paint0_linear_1950_967" x1="0" y1="24" x2="433" y2="24" gradientUnits="userSpaceOnUse">
<stop stop-color="#C03BC4"/>
<stop offset="0.495" stop-color="#D7398F"/>
<stop offset="1" stop-color="#DF387C"/>
</linearGradient>
</defs>
</svg>
