<svg width="374" height="48" viewBox="0 0 374 48" fill="none" xmlns="http://www.w3.org/2000/svg">
<rect width="374" height="48" rx="10" fill="url(#paint0_linear_1950_933)"/>
<path d="M22 17.75C22 16.7835 22.7835 16 23.75 16H37.25C38.2165 16 39 16.7835 39 17.75V23H36C34.8954 23 34 23.8954 34 25V28H23.75C22.7835 28 22 27.2165 22 26.25V17.75ZM25 18.25C25 18.6642 24.6642 19 24.25 19H23.25V20.5H24.25C25.4926 20.5 26.5 19.4926 26.5 18.25V17.25H25V18.25ZM30.5 24.5C31.7426 24.5 32.75 23.4926 32.75 22.25C32.75 21.0074 31.7426 20 30.5 20C29.2574 20 28.25 21.0074 28.25 22.25C28.25 23.4926 29.2574 24.5 30.5 24.5ZM24.25 25C24.6642 25 25 25.3358 25 25.75V26.75H26.5V25.75C26.5 24.5074 25.4926 23.5 24.25 23.5H23.25V25H24.25ZM36.75 19C36.3358 19 36 18.6642 36 18.25V17.25H34.5V18.25C34.5 19.4926 35.5074 20.5 36.75 20.5H37.75V19H36.75ZM24.4013 29.5H34V31H27C25.8896 31 24.9201 30.3967 24.4013 29.5ZM42 21V23H40.5V18.4013C41.3967 18.9201 42 19.8896 42 21ZM36.5 24C35.6716 24 35 24.6716 35 25.5V33.5C35 34.3284 35.6716 35 36.5 35H41.4998C42.3282 35 42.9998 34.3284 42.9998 33.5V25.5C42.9998 24.6716 42.3282 24 41.4998 24H36.5ZM37 28.5H37.9998C38.2759 28.5 38.4998 28.7239 38.4998 29C38.4998 29.2761 38.2759 29.5 37.9998 29.5H37C36.7239 29.5 36.5 29.2761 36.5 29C36.5 28.7239 36.7239 28.5 37 28.5ZM40 28.5H41C41.2761 28.5 41.5 28.7239 41.5 29C41.5 29.2761 41.2761 29.5 41 29.5H40C39.7239 29.5 39.5 29.2761 39.5 29C39.5 28.7239 39.7239 28.5 40 28.5ZM37 30.5H37.9998C38.2759 30.5 38.4998 30.7239 38.4998 31C38.4998 31.2761 38.2759 31.5 37.9998 31.5H37C36.7239 31.5 36.5 31.2761 36.5 31C36.5 30.7239 36.7239 30.5 37 30.5ZM40 30.5H41C41.2761 30.5 41.5 30.7239 41.5 31C41.5 31.2761 41.2761 31.5 41 31.5H40C39.7239 31.5 39.5 31.2761 39.5 31C39.5 30.7239 39.7239 30.5 40 30.5ZM37 32.5H37.9998C38.2759 32.5 38.4998 32.7239 38.4998 33C38.4998 33.2761 38.2759 33.5 37.9998 33.5H37C36.7239 33.5 36.5 33.2761 36.5 33C36.5 32.7239 36.7239 32.5 37 32.5ZM40 32.5H41C41.2761 32.5 41.5 32.7239 41.5 33C41.5 33.2761 41.2761 33.5 41 33.5H40C39.7239 33.5 39.5 33.2761 39.5 33C39.5 32.7239 39.7239 32.5 40 32.5ZM36.4999 25.9999C36.4999 25.7238 36.7238 25.4999 36.9999 25.4999H40.9999C41.276 25.4999 41.4999 25.7238 41.4999 25.9999V26.9999C41.4999 27.276 41.276 27.4999 40.9999 27.4999H36.9999C36.7238 27.4999 36.4999 27.276 36.4999 26.9999V25.9999Z" fill="white"/>
<path d="M59.707 28.2109V34H55.9219V17.1953H61.8516C66.0859 17.1953 68.2031 18.9805 68.2031 22.5508C68.2031 24.2383 67.5938 25.6055 66.375 26.6523C65.1641 27.6914 63.543 28.2109 61.5117 28.2109H59.707ZM59.707 20.1016V25.3398H61.1953C63.2109 25.3398 64.2188 24.457 64.2188 22.6914C64.2188 20.9648 63.2109 20.1016 61.1953 20.1016H59.707ZM80.6719 34H70.6641V17.1953H74.4492V30.9297H80.6719V34ZM98.2617 34H94.1367L92.9414 30.2617H86.9648L85.7812 34H81.6797L87.7969 17.1953H92.2852L98.2617 34ZM92.0742 27.3555L90.2695 21.707C90.1367 21.2852 90.043 20.7812 89.9883 20.1953H89.8945C89.8555 20.6875 89.7578 21.1758 89.6016 21.6602L87.7734 27.3555H92.0742ZM115.477 34H111.656L104.73 23.4414C104.324 22.8242 104.043 22.3594 103.887 22.0469H103.84C103.902 22.6406 103.934 23.5469 103.934 24.7656V34H100.359V17.1953H104.438L111.105 27.4258C111.41 27.8867 111.691 28.3438 111.949 28.7969H111.996C111.934 28.4062 111.902 27.6367 111.902 26.4883V17.1953H115.477V34ZM134.438 34H130.617L123.691 23.4414C123.285 22.8242 123.004 22.3594 122.848 22.0469H122.801C122.863 22.6406 122.895 23.5469 122.895 24.7656V34H119.32V17.1953H123.398L130.066 27.4258C130.371 27.8867 130.652 28.3438 130.91 28.7969H130.957C130.895 28.4062 130.863 27.6367 130.863 26.4883V17.1953H134.438V34ZM142.066 34H138.281V17.1953H142.066V34ZM161.016 34H157.195L150.27 23.4414C149.863 22.8242 149.582 22.3594 149.426 22.0469H149.379C149.441 22.6406 149.473 23.5469 149.473 24.7656V34H145.898V17.1953H149.977L156.645 27.4258C156.949 27.8867 157.23 28.3438 157.488 28.7969H157.535C157.473 28.4062 157.441 27.6367 157.441 26.4883V17.1953H161.016V34ZM178.652 32.875C177.012 33.8203 174.973 34.293 172.535 34.293C169.832 34.293 167.699 33.5469 166.137 32.0547C164.582 30.5547 163.805 28.4922 163.805 25.8672C163.805 23.2266 164.656 21.0742 166.359 19.4102C168.062 17.7461 170.328 16.9141 173.156 16.9141C174.938 16.9141 176.508 17.1602 177.867 17.6523V21.2031C176.57 20.4531 174.984 20.0781 173.109 20.0781C171.539 20.0781 170.258 20.5898 169.266 21.6133C168.281 22.6289 167.789 23.9883 167.789 25.6914C167.789 27.418 168.23 28.7539 169.113 29.6992C170.004 30.6445 171.203 31.1172 172.711 31.1172C173.617 31.1172 174.336 30.9883 174.867 30.7305V27.4492H171.504V24.4258H178.652V32.875ZM200.836 28.3164H196.324V32.8281H193.957V28.3164H189.422V25.9375H193.957V21.4023H196.324V25.9375H200.836V28.3164ZM222.234 34H212.156V17.1953H221.848V20.2773H215.941V24.0156H221.438V27.0859H215.941V30.9297H222.234V34ZM224.156 33.3555V29.6055C224.836 30.1758 225.574 30.6055 226.371 30.8945C227.168 31.1758 227.973 31.3164 228.785 31.3164C229.262 31.3164 229.676 31.2734 230.027 31.1875C230.387 31.1016 230.684 30.9844 230.918 30.8359C231.16 30.6797 231.34 30.5 231.457 30.2969C231.574 30.0859 231.633 29.8594 231.633 29.6172C231.633 29.2891 231.539 28.9961 231.352 28.7383C231.164 28.4805 230.906 28.2422 230.578 28.0234C230.258 27.8047 229.875 27.5938 229.43 27.3906C228.984 27.1875 228.504 26.9805 227.988 26.7695C226.676 26.2227 225.695 25.5547 225.047 24.7656C224.406 23.9766 224.086 23.0234 224.086 21.9062C224.086 21.0312 224.262 20.2812 224.613 19.6562C224.965 19.0234 225.441 18.5039 226.043 18.0977C226.652 17.6914 227.355 17.3945 228.152 17.207C228.949 17.0117 229.793 16.9141 230.684 16.9141C231.559 16.9141 232.332 16.9688 233.004 17.0781C233.684 17.1797 234.309 17.3398 234.879 17.5586V21.0625C234.598 20.8672 234.289 20.6953 233.953 20.5469C233.625 20.3984 233.285 20.2773 232.934 20.1836C232.582 20.082 232.23 20.0078 231.879 19.9609C231.535 19.9141 231.207 19.8906 230.895 19.8906C230.465 19.8906 230.074 19.9336 229.723 20.0195C229.371 20.0977 229.074 20.2109 228.832 20.3594C228.59 20.5078 228.402 20.6875 228.27 20.8984C228.137 21.1016 228.07 21.332 228.07 21.5898C228.07 21.8711 228.145 22.125 228.293 22.3516C228.441 22.5703 228.652 22.7812 228.926 22.9844C229.199 23.1797 229.531 23.375 229.922 23.5703C230.312 23.7578 230.754 23.9531 231.246 24.1562C231.918 24.4375 232.52 24.7383 233.051 25.0586C233.59 25.3711 234.051 25.7266 234.434 26.125C234.816 26.5234 235.109 26.9805 235.312 27.4961C235.516 28.0039 235.617 28.5977 235.617 29.2773C235.617 30.2148 235.438 31.0039 235.078 31.6445C234.727 32.2773 234.246 32.793 233.637 33.1914C233.027 33.582 232.316 33.8633 231.504 34.0352C230.699 34.207 229.848 34.293 228.949 34.293C228.027 34.293 227.148 34.2148 226.312 34.0586C225.484 33.9023 224.766 33.668 224.156 33.3555ZM250.184 20.2773H245.391V34H241.594V20.2773H236.824V17.1953H250.184V20.2773ZM256.23 34H252.445V17.1953H256.23V34ZM279.211 34H275.473V23.9453C275.473 22.8594 275.52 21.6602 275.613 20.3477H275.52C275.324 21.3789 275.148 22.1211 274.992 22.5742L271.055 34H267.961L263.953 22.6914C263.844 22.3867 263.668 21.6055 263.426 20.3477H263.32C263.422 22.0039 263.473 23.457 263.473 24.707V34H260.062V17.1953H265.605L269.039 27.1562C269.312 27.9531 269.512 28.7539 269.637 29.5586H269.707C269.918 28.6289 270.141 27.8203 270.375 27.1328L273.809 17.1953H279.211V34ZM297.809 34H293.684L292.488 30.2617H286.512L285.328 34H281.227L287.344 17.1953H291.832L297.809 34ZM291.621 27.3555L289.816 21.707C289.684 21.2852 289.59 20.7812 289.535 20.1953H289.441C289.402 20.6875 289.305 21.1758 289.148 21.6602L287.32 27.3555H291.621ZM310.02 20.2773H305.227V34H301.43V20.2773H296.66V17.1953H310.02V20.2773ZM316.066 34H312.281V17.1953H316.066V34ZM335.016 34H331.195L324.27 23.4414C323.863 22.8242 323.582 22.3594 323.426 22.0469H323.379C323.441 22.6406 323.473 23.5469 323.473 24.7656V34H319.898V17.1953H323.977L330.645 27.4258C330.949 27.8867 331.23 28.3438 331.488 28.7969H331.535C331.473 28.4062 331.441 27.6367 331.441 26.4883V17.1953H335.016V34ZM352.652 32.875C351.012 33.8203 348.973 34.293 346.535 34.293C343.832 34.293 341.699 33.5469 340.137 32.0547C338.582 30.5547 337.805 28.4922 337.805 25.8672C337.805 23.2266 338.656 21.0742 340.359 19.4102C342.062 17.7461 344.328 16.9141 347.156 16.9141C348.938 16.9141 350.508 17.1602 351.867 17.6523V21.2031C350.57 20.4531 348.984 20.0781 347.109 20.0781C345.539 20.0781 344.258 20.5898 343.266 21.6133C342.281 22.6289 341.789 23.9883 341.789 25.6914C341.789 27.418 342.23 28.7539 343.113 29.6992C344.004 30.6445 345.203 31.1172 346.711 31.1172C347.617 31.1172 348.336 30.9883 348.867 30.7305V27.4492H345.504V24.4258H352.652V32.875Z" fill="white"/>
<defs>
<linearGradient id="paint0_linear_1950_933" x1="0" y1="24" x2="374" y2="24" gradientUnits="userSpaceOnUse">
<stop stop-color="#3DA699"/>
<stop offset="0.495" stop-color="#328882"/>
<stop offset="1" stop-color="#236065"/>
</linearGradient>
</defs>
</svg>
