<svg width="433" height="48" viewBox="0 0 433 48" fill="none" xmlns="http://www.w3.org/2000/svg">
<rect width="433" height="48" rx="10" fill="url(#paint0_linear_1950_973)"/>
<path d="M20 16.6488C20 14.5223 21.7239 12.7983 23.8505 12.7983H35.7521C37.8786 12.7983 39.6026 14.5223 39.6026 16.6488V23.1838C38.8835 22.9936 38.1787 22.5584 37.4685 21.7977C37.11 21.4138 36.6176 21.2018 36.1073 21.1994H36.0942C35.5839 21.2018 35.0915 21.4138 34.733 21.7977C34.4301 22.1221 34.1282 22.3874 33.8257 22.5996H29.1012C28.7145 22.5996 28.4011 22.9131 28.4011 23.2997C28.4011 23.6864 28.7145 23.9998 29.1012 23.9998H30.2344C29.9575 24.3462 29.8013 24.7839 29.8013 25.2249V28.3879L29.807 28.7449L29.8074 28.7564C29.8504 30.084 30.1227 31.3102 30.6505 32.4009H23.8505C21.7239 32.4009 20 30.677 20 28.5504V16.6488ZM25.2507 19.7993C25.8307 19.7993 26.3008 19.3291 26.3008 18.7491C26.3008 18.1691 25.8307 17.699 25.2507 17.699C24.6707 17.699 24.2005 18.1691 24.2005 18.7491C24.2005 19.3291 24.6707 19.7993 25.2507 19.7993ZM26.3008 22.9497C26.3008 22.3697 25.8307 21.8995 25.2507 21.8995C24.6707 21.8995 24.2005 22.3697 24.2005 22.9497C24.2005 23.5296 24.6707 23.9998 25.2507 23.9998C25.8307 23.9998 26.3008 23.5296 26.3008 22.9497ZM25.2507 28.2003C25.8307 28.2003 26.3008 27.7302 26.3008 27.1502C26.3008 26.5702 25.8307 26.1001 25.2507 26.1001C24.6707 26.1001 24.2005 26.5702 24.2005 27.1502C24.2005 27.7302 24.6707 28.2003 25.2507 28.2003ZM28.4011 19.0992C28.4011 19.4858 28.7145 19.7993 29.1012 19.7993H34.7019C35.0886 19.7993 35.402 19.4858 35.402 19.0992C35.402 18.7125 35.0886 18.3991 34.7019 18.3991H29.1012C28.7145 18.3991 28.4011 18.7125 28.4011 19.0992ZM36.1007 35.2013C36.0489 35.2011 35.997 35.1921 35.9472 35.1743C34.9785 34.8284 34.1556 34.3702 33.4808 33.8026L33.479 33.8011C32.9923 33.3915 32.5828 32.9249 32.2512 32.4024L32.2502 32.4009C31.6034 31.3812 31.2534 30.1486 31.2068 28.711L31.2015 28.3767V25.225C31.2015 24.935 31.4209 24.6999 31.6915 24.6999C33.1904 24.6999 34.538 24.0583 35.7564 22.7533C35.8516 22.6514 35.9761 22.6002 36.1007 22.5996C36.2254 22.6002 36.3499 22.6514 36.445 22.7533C37.6635 24.0583 39.0111 24.6999 40.5099 24.6999C40.7806 24.6999 41 24.935 41 25.225V28.3767L40.9946 28.711C40.9481 30.1486 40.5981 31.3812 39.9513 32.4009L39.9503 32.4024C39.6187 32.9249 39.2091 33.3915 38.7225 33.8011L38.7206 33.8026C38.0458 34.3702 37.2229 34.8284 36.2543 35.1743C36.2045 35.1921 36.1526 35.2011 36.1007 35.2013Z" fill="white"/>
<path d="M64.9688 33.4023C63.7422 33.9961 62.1406 34.293 60.1641 34.293C57.5859 34.293 55.5586 33.5352 54.082 32.0195C52.6055 30.5039 51.8672 28.4844 51.8672 25.9609C51.8672 23.2734 52.6953 21.0938 54.3516 19.4219C56.0156 17.75 58.1719 16.9141 60.8203 16.9141C62.4609 16.9141 63.8438 17.1211 64.9688 17.5352V21.1797C63.8438 20.5078 62.5625 20.1719 61.125 20.1719C59.5469 20.1719 58.2734 20.668 57.3047 21.6602C56.3359 22.6523 55.8516 23.9961 55.8516 25.6914C55.8516 27.3164 56.3086 28.6133 57.2227 29.582C58.1367 30.543 59.3672 31.0234 60.9141 31.0234C62.3906 31.0234 63.7422 30.6641 64.9688 29.9453V33.4023ZM77.9062 34H67.8984V17.1953H71.6836V30.9297H77.9062V34ZM86.6719 34.293C84.2656 34.293 82.3047 33.5117 80.7891 31.9492C79.2734 30.3789 78.5156 28.3359 78.5156 25.8203C78.5156 23.1641 79.2852 21.0156 80.8242 19.375C82.3633 17.7344 84.4023 16.9141 86.9414 16.9141C89.3398 16.9141 91.2773 17.6992 92.7539 19.2695C94.2383 20.8398 94.9805 22.9102 94.9805 25.4805C94.9805 28.1211 94.2109 30.25 92.6719 31.8672C91.1406 33.4844 89.1406 34.293 86.6719 34.293ZM86.8359 20.1719C85.5078 20.1719 84.4531 20.6719 83.6719 21.6719C82.8906 22.6641 82.5 23.9805 82.5 25.6211C82.5 27.2852 82.8906 28.6016 83.6719 29.5703C84.4531 30.5391 85.4766 31.0234 86.7422 31.0234C88.0469 31.0234 89.082 30.5547 89.8477 29.6172C90.6133 28.6719 90.9961 27.3633 90.9961 25.6914C90.9961 23.9492 90.625 22.5938 89.8828 21.625C89.1406 20.6562 88.125 20.1719 86.8359 20.1719ZM111.48 26.7227C111.48 31.7695 109.129 34.293 104.426 34.293C99.8633 34.293 97.582 31.8281 97.582 26.8984V17.1953H101.379V26.9453C101.379 29.6641 102.441 31.0234 104.566 31.0234C106.652 31.0234 107.695 29.7109 107.695 27.0859V17.1953H111.48V26.7227ZM115.148 34V17.1953H121.102C127.07 17.1953 130.055 19.9258 130.055 25.3867C130.055 28.0039 129.238 30.0938 127.605 31.6562C125.98 33.2188 123.812 34 121.102 34H115.148ZM118.934 20.2773V30.9297H120.809C122.449 30.9297 123.734 30.4375 124.664 29.4531C125.602 28.4688 126.07 27.1289 126.07 25.4336C126.07 23.832 125.605 22.5742 124.676 21.6602C123.754 20.7383 122.457 20.2773 120.785 20.2773H118.934ZM143.262 28.2109V34H139.477V17.1953H145.406C149.641 17.1953 151.758 18.9805 151.758 22.5508C151.758 24.2383 151.148 25.6055 149.93 26.6523C148.719 27.6914 147.098 28.2109 145.066 28.2109H143.262ZM143.262 20.1016V25.3398H144.75C146.766 25.3398 147.773 24.457 147.773 22.6914C147.773 20.9648 146.766 20.1016 144.75 20.1016H143.262ZM161.32 34.293C158.914 34.293 156.953 33.5117 155.438 31.9492C153.922 30.3789 153.164 28.3359 153.164 25.8203C153.164 23.1641 153.934 21.0156 155.473 19.375C157.012 17.7344 159.051 16.9141 161.59 16.9141C163.988 16.9141 165.926 17.6992 167.402 19.2695C168.887 20.8398 169.629 22.9102 169.629 25.4805C169.629 28.1211 168.859 30.25 167.32 31.8672C165.789 33.4844 163.789 34.293 161.32 34.293ZM161.484 20.1719C160.156 20.1719 159.102 20.6719 158.32 21.6719C157.539 22.6641 157.148 23.9805 157.148 25.6211C157.148 27.2852 157.539 28.6016 158.32 29.5703C159.102 30.5391 160.125 31.0234 161.391 31.0234C162.695 31.0234 163.73 30.5547 164.496 29.6172C165.262 28.6719 165.645 27.3633 165.645 25.6914C165.645 23.9492 165.273 22.5938 164.531 21.625C163.789 20.6562 162.773 20.1719 161.484 20.1719ZM182.438 34H172.43V17.1953H176.215V30.9297H182.438V34ZM188.496 34H184.711V17.1953H188.496V34ZM204.375 33.4023C203.148 33.9961 201.547 34.293 199.57 34.293C196.992 34.293 194.965 33.5352 193.488 32.0195C192.012 30.5039 191.273 28.4844 191.273 25.9609C191.273 23.2734 192.102 21.0938 193.758 19.4219C195.422 17.75 197.578 16.9141 200.227 16.9141C201.867 16.9141 203.25 17.1211 204.375 17.5352V21.1797C203.25 20.5078 201.969 20.1719 200.531 20.1719C198.953 20.1719 197.68 20.668 196.711 21.6602C195.742 22.6523 195.258 23.9961 195.258 25.6914C195.258 27.3164 195.715 28.6133 196.629 29.582C197.543 30.543 198.773 31.0234 200.32 31.0234C201.797 31.0234 203.148 30.6641 204.375 29.9453V33.4023ZM219.973 17.1953L214.5 28.0234V34H210.715V28.0938L205.383 17.1953H209.707L212.414 23.4648C212.461 23.582 212.59 24.0391 212.801 24.8359H212.848C212.949 24.2734 213.07 23.832 213.211 23.5117L215.965 17.1953H219.973ZM240.797 28.3164H236.285V32.8281H233.918V28.3164H229.383V25.9375H233.918V21.4023H236.285V25.9375H240.797V28.3164ZM265.91 32.875C264.27 33.8203 262.23 34.293 259.793 34.293C257.09 34.293 254.957 33.5469 253.395 32.0547C251.84 30.5547 251.062 28.4922 251.062 25.8672C251.062 23.2266 251.914 21.0742 253.617 19.4102C255.32 17.7461 257.586 16.9141 260.414 16.9141C262.195 16.9141 263.766 17.1602 265.125 17.6523V21.2031C263.828 20.4531 262.242 20.0781 260.367 20.0781C258.797 20.0781 257.516 20.5898 256.523 21.6133C255.539 22.6289 255.047 23.9883 255.047 25.6914C255.047 27.418 255.488 28.7539 256.371 29.6992C257.262 30.6445 258.461 31.1172 259.969 31.1172C260.875 31.1172 261.594 30.9883 262.125 30.7305V27.4492H258.762V24.4258H265.91V32.875ZM276.281 34.293C273.875 34.293 271.914 33.5117 270.398 31.9492C268.883 30.3789 268.125 28.3359 268.125 25.8203C268.125 23.1641 268.895 21.0156 270.434 19.375C271.973 17.7344 274.012 16.9141 276.551 16.9141C278.949 16.9141 280.887 17.6992 282.363 19.2695C283.848 20.8398 284.59 22.9102 284.59 25.4805C284.59 28.1211 283.82 30.25 282.281 31.8672C280.75 33.4844 278.75 34.293 276.281 34.293ZM276.445 20.1719C275.117 20.1719 274.062 20.6719 273.281 21.6719C272.5 22.6641 272.109 23.9805 272.109 25.6211C272.109 27.2852 272.5 28.6016 273.281 29.5703C274.062 30.5391 275.086 31.0234 276.352 31.0234C277.656 31.0234 278.691 30.5547 279.457 29.6172C280.223 28.6719 280.605 27.3633 280.605 25.6914C280.605 23.9492 280.234 22.5938 279.492 21.625C278.75 20.6562 277.734 20.1719 276.445 20.1719ZM301.383 17.1953L295.594 34H291.305L285.586 17.1953H289.664L293.168 28.8906C293.355 29.5234 293.469 30.082 293.508 30.5664H293.578C293.633 30.043 293.754 29.4688 293.941 28.8438L297.422 17.1953H301.383ZM313.477 34H303.398V17.1953H313.09V20.2773H307.184V24.0156H312.68V27.0859H307.184V30.9297H313.477V34ZM330.27 34H325.922L323.309 29.6758C323.113 29.3477 322.926 29.0547 322.746 28.7969C322.566 28.5391 322.383 28.3203 322.195 28.1406C322.016 27.9531 321.824 27.8125 321.621 27.7188C321.426 27.6172 321.211 27.5664 320.977 27.5664H319.957V34H316.172V17.1953H322.172C326.25 17.1953 328.289 18.7188 328.289 21.7656C328.289 22.3516 328.199 22.8945 328.02 23.3945C327.84 23.8867 327.586 24.332 327.258 24.7305C326.93 25.1289 326.531 25.4727 326.062 25.7617C325.602 26.0508 325.086 26.2773 324.516 26.4414V26.4883C324.766 26.5664 325.008 26.6953 325.242 26.875C325.477 27.0469 325.703 27.25 325.922 27.4844C326.141 27.7188 326.348 27.9727 326.543 28.2461C326.746 28.5117 326.93 28.7734 327.094 29.0312L330.27 34ZM319.957 20.0312V24.707H321.598C322.41 24.707 323.062 24.4727 323.555 24.0039C324.055 23.5273 324.305 22.9375 324.305 22.2344C324.305 20.7656 323.426 20.0312 321.668 20.0312H319.957ZM346.969 34H343.148L336.223 23.4414C335.816 22.8242 335.535 22.3594 335.379 22.0469H335.332C335.395 22.6406 335.426 23.5469 335.426 24.7656V34H331.852V17.1953H335.93L342.598 27.4258C342.902 27.8867 343.184 28.3438 343.441 28.7969H343.488C343.426 28.4062 343.395 27.6367 343.395 26.4883V17.1953H346.969V34ZM365.59 34H361.465L360.27 30.2617H354.293L353.109 34H349.008L355.125 17.1953H359.613L365.59 34ZM359.402 27.3555L357.598 21.707C357.465 21.2852 357.371 20.7812 357.316 20.1953H357.223C357.184 20.6875 357.086 21.1758 356.93 21.6602L355.102 27.3555H359.402ZM382.805 34H378.984L372.059 23.4414C371.652 22.8242 371.371 22.3594 371.215 22.0469H371.168C371.23 22.6406 371.262 23.5469 371.262 24.7656V34H367.688V17.1953H371.766L378.434 27.4258C378.738 27.8867 379.02 28.3438 379.277 28.7969H379.324C379.262 28.4062 379.23 27.6367 379.23 26.4883V17.1953H382.805V34ZM398.695 33.4023C397.469 33.9961 395.867 34.293 393.891 34.293C391.312 34.293 389.285 33.5352 387.809 32.0195C386.332 30.5039 385.594 28.4844 385.594 25.9609C385.594 23.2734 386.422 21.0938 388.078 19.4219C389.742 17.75 391.898 16.9141 394.547 16.9141C396.188 16.9141 397.57 17.1211 398.695 17.5352V21.1797C397.57 20.5078 396.289 20.1719 394.852 20.1719C393.273 20.1719 392 20.668 391.031 21.6602C390.062 22.6523 389.578 23.9961 389.578 25.6914C389.578 27.3164 390.035 28.6133 390.949 29.582C391.863 30.543 393.094 31.0234 394.641 31.0234C396.117 31.0234 397.469 30.6641 398.695 29.9453V33.4023ZM411.703 34H401.625V17.1953H411.316V20.2773H405.41V24.0156H410.906V27.0859H405.41V30.9297H411.703V34Z" fill="white"/>
<defs>
<linearGradient id="paint0_linear_1950_973" x1="0" y1="24" x2="433" y2="24" gradientUnits="userSpaceOnUse">
<stop stop-color="#C03BC4"/>
<stop offset="0.495" stop-color="#D7398F"/>
<stop offset="1" stop-color="#DF387C"/>
</linearGradient>
</defs>
</svg>
