<svg width="313" height="48" viewBox="0 0 313 48" fill="none" xmlns="http://www.w3.org/2000/svg">
<rect width="313" height="48" rx="10" fill="url(#paint0_linear_1950_957)"/>
<path d="M22 18.75C22 17.7835 22.7835 17 23.75 17H37.25C38.2165 17 39 17.7835 39 18.75V23.1739C38.5185 23.0602 38.0163 23 37.5 23C34.0784 23 31.2743 25.6438 31.0189 29H23.75C22.7835 29 22 28.2165 22 27.25V18.75ZM24.4013 30.5H31.0764C31.1572 31.0232 31.3004 31.5258 31.4982 32H27C25.8896 32 24.9201 31.3967 24.4013 30.5ZM40.5 23.7322C41.051 24.0194 41.5557 24.3832 42 24.8096V22C42 20.8896 41.3967 19.9201 40.5 19.4013V23.7322ZM25 19.25C25 19.6642 24.6642 20 24.25 20H23.25V21.5H24.25C25.4926 21.5 26.5 20.4926 26.5 19.25V18.25H25V19.25ZM30.5 25.5C31.7426 25.5 32.75 24.4926 32.75 23.25C32.75 22.0074 31.7426 21 30.5 21C29.2574 21 28.25 22.0074 28.25 23.25C28.25 24.4926 29.2574 25.5 30.5 25.5ZM24.25 26C24.6642 26 25 26.3358 25 26.75V27.75H26.5V26.75C26.5 25.5074 25.4926 24.5 24.25 24.5H23.25V26H24.25ZM36.75 20C36.3358 20 36 19.6642 36 19.25V18.25H34.5V19.25C34.5 20.4926 35.5074 21.5 36.75 21.5H37.75V20H36.75ZM34.2782 25.9756C34.593 27.0659 33.9386 28.1993 32.837 28.4718L32.2528 28.6164C32.2079 28.9041 32.1846 29.1992 32.1846 29.5001C32.1846 29.8147 32.2101 30.1232 32.2592 30.4235L32.7986 30.5534C33.9111 30.8213 34.5725 31.9663 34.2486 33.0639L34.0623 33.6951C34.5014 34.0808 35.0019 34.3939 35.5464 34.6167L36.0397 34.098C36.8283 33.2687 38.1506 33.2689 38.9388 34.0985L39.4375 34.6232C39.9811 34.403 40.4811 34.0928 40.9204 33.7103L40.7223 33.0244C40.4076 31.9342 41.062 30.8007 42.1635 30.5282L42.7472 30.3838C42.7922 30.0961 42.8155 29.8009 42.8155 29.5001C42.8155 29.1853 42.7899 28.8767 42.7409 28.5764L42.2019 28.4466C41.0894 28.1787 40.4281 27.0337 40.7519 25.9362L40.9381 25.3053C40.499 24.9196 39.9985 24.6064 39.4539 24.3835L38.9608 24.9021C38.1722 25.7313 36.85 25.7311 36.0617 24.9016L35.5629 24.3767C35.0193 24.5969 34.5194 24.9071 34.0801 25.2894L34.2782 25.9756ZM37.5 31.0001C36.6994 31.0001 36.0504 30.3285 36.0504 29.5001C36.0504 28.6716 36.6994 28.0001 37.5 28.0001C38.3007 28.0001 38.9497 28.6716 38.9497 29.5001C38.9497 30.3285 38.3007 31.0001 37.5 31.0001Z" fill="white"/>
<path d="M70.0195 34H65.6719L63.0586 29.6758C62.8633 29.3477 62.6758 29.0547 62.4961 28.7969C62.3164 28.5391 62.1328 28.3203 61.9453 28.1406C61.7656 27.9531 61.5742 27.8125 61.3711 27.7188C61.1758 27.6172 60.9609 27.5664 60.7266 27.5664H59.707V34H55.9219V17.1953H61.9219C66 17.1953 68.0391 18.7188 68.0391 21.7656C68.0391 22.3516 67.9492 22.8945 67.7695 23.3945C67.5898 23.8867 67.3359 24.332 67.0078 24.7305C66.6797 25.1289 66.2812 25.4727 65.8125 25.7617C65.3516 26.0508 64.8359 26.2773 64.2656 26.4414V26.4883C64.5156 26.5664 64.7578 26.6953 64.9922 26.875C65.2266 27.0469 65.4531 27.25 65.6719 27.4844C65.8906 27.7188 66.0977 27.9727 66.293 28.2461C66.4961 28.5117 66.6797 28.7734 66.8438 29.0312L70.0195 34ZM59.707 20.0312V24.707H61.3477C62.1602 24.707 62.8125 24.4727 63.3047 24.0039C63.8047 23.5273 64.0547 22.9375 64.0547 22.2344C64.0547 20.7656 63.1758 20.0312 61.418 20.0312H59.707ZM86.3789 34H82.2539L81.0586 30.2617H75.082L73.8984 34H69.7969L75.9141 17.1953H80.4023L86.3789 34ZM80.1914 27.3555L78.3867 21.707C78.2539 21.2852 78.1602 20.7812 78.1055 20.1953H78.0117C77.9727 20.6875 77.875 21.1758 77.7188 21.6602L75.8906 27.3555H80.1914ZM98.5898 20.2773H93.7969V34H90V20.2773H85.2305V17.1953H98.5898V20.2773ZM110.93 34H100.852V17.1953H110.543V20.2773H104.637V24.0156H110.133V27.0859H104.637V30.9297H110.93V34ZM127.359 34.293C124.953 34.293 122.992 33.5117 121.477 31.9492C119.961 30.3789 119.203 28.3359 119.203 25.8203C119.203 23.1641 119.973 21.0156 121.512 19.375C123.051 17.7344 125.09 16.9141 127.629 16.9141C130.027 16.9141 131.965 17.6992 133.441 19.2695C134.926 20.8398 135.668 22.9102 135.668 25.4805C135.668 28.1211 134.898 30.25 133.359 31.8672C131.828 33.4844 129.828 34.293 127.359 34.293ZM127.523 20.1719C126.195 20.1719 125.141 20.6719 124.359 21.6719C123.578 22.6641 123.188 23.9805 123.188 25.6211C123.188 27.2852 123.578 28.6016 124.359 29.5703C125.141 30.5391 126.164 31.0234 127.43 31.0234C128.734 31.0234 129.77 30.5547 130.535 29.6172C131.301 28.6719 131.684 27.3633 131.684 25.6914C131.684 23.9492 131.312 22.5938 130.57 21.625C129.828 20.6562 128.812 20.1719 127.523 20.1719ZM142.254 28.2109V34H138.469V17.1953H144.398C148.633 17.1953 150.75 18.9805 150.75 22.5508C150.75 24.2383 150.141 25.6055 148.922 26.6523C147.711 27.6914 146.09 28.2109 144.059 28.2109H142.254ZM142.254 20.1016V25.3398H143.742C145.758 25.3398 146.766 24.457 146.766 22.6914C146.766 20.9648 145.758 20.1016 143.742 20.1016H142.254ZM165.012 20.2773H160.219V34H156.422V20.2773H151.652V17.1953H165.012V20.2773ZM171.059 34H167.273V17.1953H171.059V34ZM194.039 34H190.301V23.9453C190.301 22.8594 190.348 21.6602 190.441 20.3477H190.348C190.152 21.3789 189.977 22.1211 189.82 22.5742L185.883 34H182.789L178.781 22.6914C178.672 22.3867 178.496 21.6055 178.254 20.3477H178.148C178.25 22.0039 178.301 23.457 178.301 24.707V34H174.891V17.1953H180.434L183.867 27.1562C184.141 27.9531 184.34 28.7539 184.465 29.5586H184.535C184.746 28.6289 184.969 27.8203 185.203 27.1328L188.637 17.1953H194.039V34ZM201.645 34H197.859V17.1953H201.645V34ZM217.57 34H204.035V31.8203L212.648 20.2773H204.656V17.1953H217.547V19.3164L209.121 30.9297H217.57V34ZM234.832 34H230.707L229.512 30.2617H223.535L222.352 34H218.25L224.367 17.1953H228.855L234.832 34ZM228.645 27.3555L226.84 21.707C226.707 21.2852 226.613 20.7812 226.559 20.1953H226.465C226.426 20.6875 226.328 21.1758 226.172 21.6602L224.344 27.3555H228.645ZM247.043 20.2773H242.25V34H238.453V20.2773H233.684V17.1953H247.043V20.2773ZM253.09 34H249.305V17.1953H253.09V34ZM264.023 34.293C261.617 34.293 259.656 33.5117 258.141 31.9492C256.625 30.3789 255.867 28.3359 255.867 25.8203C255.867 23.1641 256.637 21.0156 258.176 19.375C259.715 17.7344 261.754 16.9141 264.293 16.9141C266.691 16.9141 268.629 17.6992 270.105 19.2695C271.59 20.8398 272.332 22.9102 272.332 25.4805C272.332 28.1211 271.562 30.25 270.023 31.8672C268.492 33.4844 266.492 34.293 264.023 34.293ZM264.188 20.1719C262.859 20.1719 261.805 20.6719 261.023 21.6719C260.242 22.6641 259.852 23.9805 259.852 25.6211C259.852 27.2852 260.242 28.6016 261.023 29.5703C261.805 30.5391 262.828 31.0234 264.094 31.0234C265.398 31.0234 266.434 30.5547 267.199 29.6172C267.965 28.6719 268.348 27.3633 268.348 25.6914C268.348 23.9492 267.977 22.5938 267.234 21.625C266.492 20.6562 265.477 20.1719 264.188 20.1719ZM290.25 34H286.43L279.504 23.4414C279.098 22.8242 278.816 22.3594 278.66 22.0469H278.613C278.676 22.6406 278.707 23.5469 278.707 24.7656V34H275.133V17.1953H279.211L285.879 27.4258C286.184 27.8867 286.465 28.3438 286.723 28.7969H286.77C286.707 28.4062 286.676 27.6367 286.676 26.4883V17.1953H290.25V34Z" fill="white"/>
<defs>
<linearGradient id="paint0_linear_1950_957" x1="0" y1="24" x2="313" y2="24" gradientUnits="userSpaceOnUse">
<stop stop-color="#FF5C39"/>
<stop offset="0.505" stop-color="#FF5C39"/>
<stop offset="1" stop-color="#FF871F"/>
</linearGradient>
</defs>
</svg>
