<svg width="367" height="48" viewBox="0 0 367 48" fill="none" xmlns="http://www.w3.org/2000/svg">
<rect width="367" height="48" rx="10" fill="url(#paint0_linear_1950_923)"/>
<path d="M41 20.5V25.05C40.6306 25.125 40.2907 25.2815 40 25.4998C39.9999 24.1192 38.8807 23 37.5 23C36.1193 23 35 24.1193 35 25.5V27.4998C34.5822 27.186 34.0628 27 33.5 27C32.1193 27 31 28.1193 31 29.5V33H26.25C24.4551 33 23 31.5449 23 29.75V20.5H41ZM37.75 15C39.5449 15 41 16.4551 41 18.25V19H23V18.25C23 16.4551 24.4551 15 26.25 15H37.75ZM37.5 24C36.6716 24 36 24.6716 36 25.5V33.5C36 34.3284 36.6716 35 37.5 35C38.3284 35 39 34.3284 39 33.5V25.5C39 24.6716 38.3284 24 37.5 24ZM33.5 28C32.6716 28 32 28.6716 32 29.5V33.5C32 34.3284 32.6716 35 33.5 35C34.3284 35 35 34.3284 35 33.5V29.5C35 28.6716 34.3284 28 33.5 28ZM40 27.5C40 26.6716 40.6716 26 41.5 26C42.3284 26 43 26.6716 43 27.5V33.5C43 34.3284 42.3284 35 41.5 35C40.6716 35 40 34.3284 40 33.5V27.5Z" fill="white"/>
<path d="M70.0195 34H65.6719L63.0586 29.6758C62.8633 29.3477 62.6758 29.0547 62.4961 28.7969C62.3164 28.5391 62.1328 28.3203 61.9453 28.1406C61.7656 27.9531 61.5742 27.8125 61.3711 27.7188C61.1758 27.6172 60.9609 27.5664 60.7266 27.5664H59.707V34H55.9219V17.1953H61.9219C66 17.1953 68.0391 18.7188 68.0391 21.7656C68.0391 22.3516 67.9492 22.8945 67.7695 23.3945C67.5898 23.8867 67.3359 24.332 67.0078 24.7305C66.6797 25.1289 66.2812 25.4727 65.8125 25.7617C65.3516 26.0508 64.8359 26.2773 64.2656 26.4414V26.4883C64.5156 26.5664 64.7578 26.6953 64.9922 26.875C65.2266 27.0469 65.4531 27.25 65.6719 27.4844C65.8906 27.7188 66.0977 27.9727 66.293 28.2461C66.4961 28.5117 66.6797 28.7734 66.8438 29.0312L70.0195 34ZM59.707 20.0312V24.707H61.3477C62.1602 24.707 62.8125 24.4727 63.3047 24.0039C63.8047 23.5273 64.0547 22.9375 64.0547 22.2344C64.0547 20.7656 63.1758 20.0312 61.418 20.0312H59.707ZM81.6797 34H71.6016V17.1953H81.293V20.2773H75.3867V24.0156H80.8828V27.0859H75.3867V30.9297H81.6797V34ZM88.1602 28.2109V34H84.375V17.1953H90.3047C94.5391 17.1953 96.6562 18.9805 96.6562 22.5508C96.6562 24.2383 96.0469 25.6055 94.8281 26.6523C93.6172 27.6914 91.9961 28.2109 89.9648 28.2109H88.1602ZM88.1602 20.1016V25.3398H89.6484C91.6641 25.3398 92.6719 24.457 92.6719 22.6914C92.6719 20.9648 91.6641 20.1016 89.6484 20.1016H88.1602ZM106.219 34.293C103.812 34.293 101.852 33.5117 100.336 31.9492C98.8203 30.3789 98.0625 28.3359 98.0625 25.8203C98.0625 23.1641 98.832 21.0156 100.371 19.375C101.91 17.7344 103.949 16.9141 106.488 16.9141C108.887 16.9141 110.824 17.6992 112.301 19.2695C113.785 20.8398 114.527 22.9102 114.527 25.4805C114.527 28.1211 113.758 30.25 112.219 31.8672C110.688 33.4844 108.688 34.293 106.219 34.293ZM106.383 20.1719C105.055 20.1719 104 20.6719 103.219 21.6719C102.438 22.6641 102.047 23.9805 102.047 25.6211C102.047 27.2852 102.438 28.6016 103.219 29.5703C104 30.5391 105.023 31.0234 106.289 31.0234C107.594 31.0234 108.629 30.5547 109.395 29.6172C110.16 28.6719 110.543 27.3633 110.543 25.6914C110.543 23.9492 110.172 22.5938 109.43 21.625C108.688 20.6562 107.672 20.1719 106.383 20.1719ZM131.426 34H127.078L124.465 29.6758C124.27 29.3477 124.082 29.0547 123.902 28.7969C123.723 28.5391 123.539 28.3203 123.352 28.1406C123.172 27.9531 122.98 27.8125 122.777 27.7188C122.582 27.6172 122.367 27.5664 122.133 27.5664H121.113V34H117.328V17.1953H123.328C127.406 17.1953 129.445 18.7188 129.445 21.7656C129.445 22.3516 129.355 22.8945 129.176 23.3945C128.996 23.8867 128.742 24.332 128.414 24.7305C128.086 25.1289 127.688 25.4727 127.219 25.7617C126.758 26.0508 126.242 26.2773 125.672 26.4414V26.4883C125.922 26.5664 126.164 26.6953 126.398 26.875C126.633 27.0469 126.859 27.25 127.078 27.4844C127.297 27.7188 127.504 27.9727 127.699 28.2461C127.902 28.5117 128.086 28.7734 128.25 29.0312L131.426 34ZM121.113 20.0312V24.707H122.754C123.566 24.707 124.219 24.4727 124.711 24.0039C125.211 23.5273 125.461 22.9375 125.461 22.2344C125.461 20.7656 124.582 20.0312 122.824 20.0312H121.113ZM144.316 20.2773H139.523V34H135.727V20.2773H130.957V17.1953H144.316V20.2773ZM150.363 34H146.578V17.1953H150.363V34ZM169.312 34H165.492L158.566 23.4414C158.16 22.8242 157.879 22.3594 157.723 22.0469H157.676C157.738 22.6406 157.77 23.5469 157.77 24.7656V34H154.195V17.1953H158.273L164.941 27.4258C165.246 27.8867 165.527 28.3438 165.785 28.7969H165.832C165.77 28.4062 165.738 27.6367 165.738 26.4883V17.1953H169.312V34ZM186.949 32.875C185.309 33.8203 183.27 34.293 180.832 34.293C178.129 34.293 175.996 33.5469 174.434 32.0547C172.879 30.5547 172.102 28.4922 172.102 25.8672C172.102 23.2266 172.953 21.0742 174.656 19.4102C176.359 17.7461 178.625 16.9141 181.453 16.9141C183.234 16.9141 184.805 17.1602 186.164 17.6523V21.2031C184.867 20.4531 183.281 20.0781 181.406 20.0781C179.836 20.0781 178.555 20.5898 177.562 21.6133C176.578 22.6289 176.086 23.9883 176.086 25.6914C176.086 27.418 176.527 28.7539 177.41 29.6992C178.301 30.6445 179.5 31.1172 181.008 31.1172C181.914 31.1172 182.633 30.9883 183.164 30.7305V27.4492H179.801V24.4258H186.949V32.875ZM209.133 28.3164H204.621V32.8281H202.254V28.3164H197.719V25.9375H202.254V21.4023H204.621V25.9375H209.133V28.3164ZM235.23 34H231.105L229.91 30.2617H223.934L222.75 34H218.648L224.766 17.1953H229.254L235.23 34ZM229.043 27.3555L227.238 21.707C227.105 21.2852 227.012 20.7812 226.957 20.1953H226.863C226.824 20.6875 226.727 21.1758 226.57 21.6602L224.742 27.3555H229.043ZM252.445 34H248.625L241.699 23.4414C241.293 22.8242 241.012 22.3594 240.855 22.0469H240.809C240.871 22.6406 240.902 23.5469 240.902 24.7656V34H237.328V17.1953H241.406L248.074 27.4258C248.379 27.8867 248.66 28.3438 248.918 28.7969H248.965C248.902 28.4062 248.871 27.6367 248.871 26.4883V17.1953H252.445V34ZM271.066 34H266.941L265.746 30.2617H259.77L258.586 34H254.484L260.602 17.1953H265.09L271.066 34ZM264.879 27.3555L263.074 21.707C262.941 21.2852 262.848 20.7812 262.793 20.1953H262.699C262.66 20.6875 262.562 21.1758 262.406 21.6602L260.578 27.3555H264.879ZM283.172 34H273.164V17.1953H276.949V30.9297H283.172V34ZM296.402 17.1953L290.93 28.0234V34H287.145V28.0938L281.812 17.1953H286.137L288.844 23.4648C288.891 23.582 289.02 24.0391 289.23 24.8359H289.277C289.379 24.2734 289.5 23.832 289.641 23.5117L292.395 17.1953H296.402ZM310.605 20.2773H305.812V34H302.016V20.2773H297.246V17.1953H310.605V20.2773ZM316.652 34H312.867V17.1953H316.652V34ZM332.531 33.4023C331.305 33.9961 329.703 34.293 327.727 34.293C325.148 34.293 323.121 33.5352 321.645 32.0195C320.168 30.5039 319.43 28.4844 319.43 25.9609C319.43 23.2734 320.258 21.0938 321.914 19.4219C323.578 17.75 325.734 16.9141 328.383 16.9141C330.023 16.9141 331.406 17.1211 332.531 17.5352V21.1797C331.406 20.5078 330.125 20.1719 328.688 20.1719C327.109 20.1719 325.836 20.668 324.867 21.6602C323.898 22.6523 323.414 23.9961 323.414 25.6914C323.414 27.3164 323.871 28.6133 324.785 29.582C325.699 30.543 326.93 31.0234 328.477 31.0234C329.953 31.0234 331.305 30.6641 332.531 29.9453V33.4023ZM334.688 33.3555V29.6055C335.367 30.1758 336.105 30.6055 336.902 30.8945C337.699 31.1758 338.504 31.3164 339.316 31.3164C339.793 31.3164 340.207 31.2734 340.559 31.1875C340.918 31.1016 341.215 30.9844 341.449 30.8359C341.691 30.6797 341.871 30.5 341.988 30.2969C342.105 30.0859 342.164 29.8594 342.164 29.6172C342.164 29.2891 342.07 28.9961 341.883 28.7383C341.695 28.4805 341.438 28.2422 341.109 28.0234C340.789 27.8047 340.406 27.5938 339.961 27.3906C339.516 27.1875 339.035 26.9805 338.52 26.7695C337.207 26.2227 336.227 25.5547 335.578 24.7656C334.938 23.9766 334.617 23.0234 334.617 21.9062C334.617 21.0312 334.793 20.2812 335.145 19.6562C335.496 19.0234 335.973 18.5039 336.574 18.0977C337.184 17.6914 337.887 17.3945 338.684 17.207C339.48 17.0117 340.324 16.9141 341.215 16.9141C342.09 16.9141 342.863 16.9688 343.535 17.0781C344.215 17.1797 344.84 17.3398 345.41 17.5586V21.0625C345.129 20.8672 344.82 20.6953 344.484 20.5469C344.156 20.3984 343.816 20.2773 343.465 20.1836C343.113 20.082 342.762 20.0078 342.41 19.9609C342.066 19.9141 341.738 19.8906 341.426 19.8906C340.996 19.8906 340.605 19.9336 340.254 20.0195C339.902 20.0977 339.605 20.2109 339.363 20.3594C339.121 20.5078 338.934 20.6875 338.801 20.8984C338.668 21.1016 338.602 21.332 338.602 21.5898C338.602 21.8711 338.676 22.125 338.824 22.3516C338.973 22.5703 339.184 22.7812 339.457 22.9844C339.73 23.1797 340.062 23.375 340.453 23.5703C340.844 23.7578 341.285 23.9531 341.777 24.1562C342.449 24.4375 343.051 24.7383 343.582 25.0586C344.121 25.3711 344.582 25.7266 344.965 26.125C345.348 26.5234 345.641 26.9805 345.844 27.4961C346.047 28.0039 346.148 28.5977 346.148 29.2773C346.148 30.2148 345.969 31.0039 345.609 31.6445C345.258 32.2773 344.777 32.793 344.168 33.1914C343.559 33.582 342.848 33.8633 342.035 34.0352C341.23 34.207 340.379 34.293 339.48 34.293C338.559 34.293 337.68 34.2148 336.844 34.0586C336.016 33.9023 335.297 33.668 334.688 33.3555Z" fill="white"/>
<defs>
<linearGradient id="paint0_linear_1950_923" x1="0" y1="24" x2="367" y2="24" gradientUnits="userSpaceOnUse">
<stop stop-color="#0078D4"/>
<stop offset="0.505" stop-color="#118BCC"/>
<stop offset="1" stop-color="#2BA5C0"/>
</linearGradient>
</defs>
</svg>
