<svg width="350" height="48" viewBox="0 0 350 48" fill="none" xmlns="http://www.w3.org/2000/svg">
<rect width="350" height="48" rx="10" fill="url(#paint0_linear_1950_963)"/>
<path d="M30.9454 14.0471L30.9504 14.0544C31.2953 14.0184 31.6455 14 32 14C37.439 14 41.8639 18.3423 41.9969 23.7493C40.8314 23.5084 39.1493 23.3575 36.7686 23.6728C36.1338 23.7568 35.5465 23.9293 35.0128 24.1668C35.0055 24.1299 34.9984 24.0942 34.9915 24.0601C34.941 23.8103 34.8984 23.6318 34.8574 23.5209C34.8574 23.5209 34.8518 23.5073 34.8382 23.4825C34.8235 23.4555 34.8026 23.421 34.7742 23.3777C34.7162 23.2894 34.6404 23.1857 34.5465 23.0613C34.5124 23.0161 34.4757 22.968 34.4373 22.9176C34.2762 22.7064 34.0842 22.4548 33.921 22.206C33.7252 21.9076 33.5039 21.5177 33.4339 21.1018C33.3968 20.8815 33.3974 20.6269 33.4889 20.3684C33.5825 20.1036 33.7535 19.8859 33.9754 19.7194C34.4588 19.3568 35.169 18.5468 35.7988 17.7604C36.0864 17.4012 36.3434 17.0648 36.5347 16.8094C35.2224 15.98 33.6672 15.5 32 15.5C31.9468 15.5 31.8936 15.5005 31.8406 15.5015C31.9632 15.7457 32.0949 16.0343 32.2144 16.3518C32.5613 17.2735 32.8802 18.6329 32.3143 19.8379C31.7917 20.9507 30.8896 21.2386 30.2242 21.4105L30.1395 21.4323C29.4832 21.6015 29.2308 21.6666 29.0467 21.9461C28.8777 22.2026 28.9033 22.5284 29.1081 23.1957C29.1225 23.2426 29.1381 23.2922 29.1543 23.3439C29.2354 23.6023 29.3332 23.9138 29.3841 24.2067C29.4475 24.5711 29.4654 25.0344 29.2321 25.4822C29.0006 25.9264 28.6937 26.2292 28.3312 26.4267C27.9907 26.6123 27.6379 26.6826 27.3741 26.7294L27.2811 26.7458C26.7662 26.8364 26.5199 26.8798 26.28 27.1368C26.0938 27.3362 25.9737 27.6885 25.9035 28.2149C25.8749 28.4291 25.8577 28.6415 25.84 28.8611L25.8304 28.9782C25.8105 29.2205 25.7857 29.4994 25.7312 29.7388L25.7309 29.7402C27.1502 31.2894 29.1363 32.3109 31.3607 32.4763C31.1861 32.9786 31.0701 33.4768 31.0227 33.9528C28.2146 33.6805 25.7465 32.2467 24.1048 30.1379L24.1022 30.1374L24.1027 30.1353C22.7848 28.4414 22 26.3123 22 24C22 18.838 25.9112 14.5896 30.9317 14.0564L30.9454 14.0471ZM32.0053 34.2057C32.0642 33.2404 32.5001 32.0637 33.2384 30.9544C33.4768 30.5488 33.7723 30.1376 34.124 29.7369C35.1896 28.5233 36.7289 27.4585 38.6196 26.9858C38.8875 26.9188 39.0503 26.6474 38.9834 26.3795C38.9164 26.1116 38.6449 25.9487 38.377 26.0157C36.2677 26.543 34.5569 27.7282 33.3726 29.0772C33.1048 29.3822 32.8616 29.6983 32.6458 30.0199C32.556 29.7186 32.4983 29.378 32.4983 29.0008C32.4983 28.0837 32.9649 27.0874 33.7051 26.2979C34.4597 25.493 35.5515 24.8427 36.8998 24.6641C39.7007 24.2933 41.4381 24.6033 42.4627 24.8913C42.7451 24.9706 42.9552 25.2072 43.0007 25.497C43.0462 25.7867 42.9187 26.0763 42.6742 26.2384C42.6169 26.2764 42.5252 26.3683 42.414 26.5786C42.3043 26.7862 42.2011 27.0597 42.0946 27.4035C42.0066 27.6878 41.9235 27.995 41.8333 28.3289L41.776 28.5407C41.6648 28.9504 41.5418 29.3906 41.3941 29.8267C41.102 30.689 40.69 31.6085 39.9973 32.3147C39.2781 33.0478 38.3021 33.5044 36.9983 33.5044C35.6693 33.5044 34.7408 32.966 34.1479 32.346C33.7443 33.0859 33.5339 33.7829 33.5025 34.297C33.4773 34.7105 33.1217 35.0252 32.7083 35C32.2948 34.9747 31.9801 34.6191 32.0053 34.2057Z" fill="white"/>
<path d="M67.9688 33.4023C66.7422 33.9961 65.1406 34.293 63.1641 34.293C60.5859 34.293 58.5586 33.5352 57.082 32.0195C55.6055 30.5039 54.8672 28.4844 54.8672 25.9609C54.8672 23.2734 55.6953 21.0938 57.3516 19.4219C59.0156 17.75 61.1719 16.9141 63.8203 16.9141C65.4609 16.9141 66.8438 17.1211 67.9688 17.5352V21.1797C66.8438 20.5078 65.5625 20.1719 64.125 20.1719C62.5469 20.1719 61.2734 20.668 60.3047 21.6602C59.3359 22.6523 58.8516 23.9961 58.8516 25.6914C58.8516 27.3164 59.3086 28.6133 60.2227 29.582C61.1367 30.543 62.3672 31.0234 63.9141 31.0234C65.3906 31.0234 66.7422 30.6641 67.9688 29.9453V33.4023ZM80.9062 34H70.8984V17.1953H74.6836V30.9297H80.9062V34ZM89.6719 34.293C87.2656 34.293 85.3047 33.5117 83.7891 31.9492C82.2734 30.3789 81.5156 28.3359 81.5156 25.8203C81.5156 23.1641 82.2852 21.0156 83.8242 19.375C85.3633 17.7344 87.4023 16.9141 89.9414 16.9141C92.3398 16.9141 94.2773 17.6992 95.7539 19.2695C97.2383 20.8398 97.9805 22.9102 97.9805 25.4805C97.9805 28.1211 97.2109 30.25 95.6719 31.8672C94.1406 33.4844 92.1406 34.293 89.6719 34.293ZM89.8359 20.1719C88.5078 20.1719 87.4531 20.6719 86.6719 21.6719C85.8906 22.6641 85.5 23.9805 85.5 25.6211C85.5 27.2852 85.8906 28.6016 86.6719 29.5703C87.4531 30.5391 88.4766 31.0234 89.7422 31.0234C91.0469 31.0234 92.082 30.5547 92.8477 29.6172C93.6133 28.6719 93.9961 27.3633 93.9961 25.6914C93.9961 23.9492 93.625 22.5938 92.8828 21.625C92.1406 20.6562 91.125 20.1719 89.8359 20.1719ZM114.48 26.7227C114.48 31.7695 112.129 34.293 107.426 34.293C102.863 34.293 100.582 31.8281 100.582 26.8984V17.1953H104.379V26.9453C104.379 29.6641 105.441 31.0234 107.566 31.0234C109.652 31.0234 110.695 29.7109 110.695 27.0859V17.1953H114.48V26.7227ZM118.148 34V17.1953H124.102C130.07 17.1953 133.055 19.9258 133.055 25.3867C133.055 28.0039 132.238 30.0938 130.605 31.6562C128.98 33.2188 126.812 34 124.102 34H118.148ZM121.934 20.2773V30.9297H123.809C125.449 30.9297 126.734 30.4375 127.664 29.4531C128.602 28.4688 129.07 27.1289 129.07 25.4336C129.07 23.832 128.605 22.5742 127.676 21.6602C126.754 20.7383 125.457 20.2773 123.785 20.2773H121.934ZM141.703 33.3555V29.6055C142.383 30.1758 143.121 30.6055 143.918 30.8945C144.715 31.1758 145.52 31.3164 146.332 31.3164C146.809 31.3164 147.223 31.2734 147.574 31.1875C147.934 31.1016 148.23 30.9844 148.465 30.8359C148.707 30.6797 148.887 30.5 149.004 30.2969C149.121 30.0859 149.18 29.8594 149.18 29.6172C149.18 29.2891 149.086 28.9961 148.898 28.7383C148.711 28.4805 148.453 28.2422 148.125 28.0234C147.805 27.8047 147.422 27.5938 146.977 27.3906C146.531 27.1875 146.051 26.9805 145.535 26.7695C144.223 26.2227 143.242 25.5547 142.594 24.7656C141.953 23.9766 141.633 23.0234 141.633 21.9062C141.633 21.0312 141.809 20.2812 142.16 19.6562C142.512 19.0234 142.988 18.5039 143.59 18.0977C144.199 17.6914 144.902 17.3945 145.699 17.207C146.496 17.0117 147.34 16.9141 148.23 16.9141C149.105 16.9141 149.879 16.9688 150.551 17.0781C151.23 17.1797 151.855 17.3398 152.426 17.5586V21.0625C152.145 20.8672 151.836 20.6953 151.5 20.5469C151.172 20.3984 150.832 20.2773 150.48 20.1836C150.129 20.082 149.777 20.0078 149.426 19.9609C149.082 19.9141 148.754 19.8906 148.441 19.8906C148.012 19.8906 147.621 19.9336 147.27 20.0195C146.918 20.0977 146.621 20.2109 146.379 20.3594C146.137 20.5078 145.949 20.6875 145.816 20.8984C145.684 21.1016 145.617 21.332 145.617 21.5898C145.617 21.8711 145.691 22.125 145.84 22.3516C145.988 22.5703 146.199 22.7812 146.473 22.9844C146.746 23.1797 147.078 23.375 147.469 23.5703C147.859 23.7578 148.301 23.9531 148.793 24.1562C149.465 24.4375 150.066 24.7383 150.598 25.0586C151.137 25.3711 151.598 25.7266 151.98 26.125C152.363 26.5234 152.656 26.9805 152.859 27.4961C153.062 28.0039 153.164 28.5977 153.164 29.2773C153.164 30.2148 152.984 31.0039 152.625 31.6445C152.273 32.2773 151.793 32.793 151.184 33.1914C150.574 33.582 149.863 33.8633 149.051 34.0352C148.246 34.207 147.395 34.293 146.496 34.293C145.574 34.293 144.695 34.2148 143.859 34.0586C143.031 33.9023 142.312 33.668 141.703 33.3555ZM169.629 26.7227C169.629 31.7695 167.277 34.293 162.574 34.293C158.012 34.293 155.73 31.8281 155.73 26.8984V17.1953H159.527V26.9453C159.527 29.6641 160.59 31.0234 162.715 31.0234C164.801 31.0234 165.844 29.7109 165.844 27.0859V17.1953H169.629V26.7227ZM172.523 33.3555V29.6055C173.203 30.1758 173.941 30.6055 174.738 30.8945C175.535 31.1758 176.34 31.3164 177.152 31.3164C177.629 31.3164 178.043 31.2734 178.395 31.1875C178.754 31.1016 179.051 30.9844 179.285 30.8359C179.527 30.6797 179.707 30.5 179.824 30.2969C179.941 30.0859 180 29.8594 180 29.6172C180 29.2891 179.906 28.9961 179.719 28.7383C179.531 28.4805 179.273 28.2422 178.945 28.0234C178.625 27.8047 178.242 27.5938 177.797 27.3906C177.352 27.1875 176.871 26.9805 176.355 26.7695C175.043 26.2227 174.062 25.5547 173.414 24.7656C172.773 23.9766 172.453 23.0234 172.453 21.9062C172.453 21.0312 172.629 20.2812 172.98 19.6562C173.332 19.0234 173.809 18.5039 174.41 18.0977C175.02 17.6914 175.723 17.3945 176.52 17.207C177.316 17.0117 178.16 16.9141 179.051 16.9141C179.926 16.9141 180.699 16.9688 181.371 17.0781C182.051 17.1797 182.676 17.3398 183.246 17.5586V21.0625C182.965 20.8672 182.656 20.6953 182.32 20.5469C181.992 20.3984 181.652 20.2773 181.301 20.1836C180.949 20.082 180.598 20.0078 180.246 19.9609C179.902 19.9141 179.574 19.8906 179.262 19.8906C178.832 19.8906 178.441 19.9336 178.09 20.0195C177.738 20.0977 177.441 20.2109 177.199 20.3594C176.957 20.5078 176.77 20.6875 176.637 20.8984C176.504 21.1016 176.438 21.332 176.438 21.5898C176.438 21.8711 176.512 22.125 176.66 22.3516C176.809 22.5703 177.02 22.7812 177.293 22.9844C177.566 23.1797 177.898 23.375 178.289 23.5703C178.68 23.7578 179.121 23.9531 179.613 24.1562C180.285 24.4375 180.887 24.7383 181.418 25.0586C181.957 25.3711 182.418 25.7266 182.801 26.125C183.184 26.5234 183.477 26.9805 183.68 27.4961C183.883 28.0039 183.984 28.5977 183.984 29.2773C183.984 30.2148 183.805 31.0039 183.445 31.6445C183.094 32.2773 182.613 32.793 182.004 33.1914C181.395 33.582 180.684 33.8633 179.871 34.0352C179.066 34.207 178.215 34.293 177.316 34.293C176.395 34.293 175.516 34.2148 174.68 34.0586C173.852 33.9023 173.133 33.668 172.523 33.3555ZM198.551 20.2773H193.758V34H189.961V20.2773H185.191V17.1953H198.551V20.2773ZM213.902 34H209.777L208.582 30.2617H202.605L201.422 34H197.32L203.438 17.1953H207.926L213.902 34ZM207.715 27.3555L205.91 21.707C205.777 21.2852 205.684 20.7812 205.629 20.1953H205.535C205.496 20.6875 205.398 21.1758 205.242 21.6602L203.414 27.3555H207.715ZM219.785 34H216V17.1953H219.785V34ZM238.734 34H234.914L227.988 23.4414C227.582 22.8242 227.301 22.3594 227.145 22.0469H227.098C227.16 22.6406 227.191 23.5469 227.191 24.7656V34H223.617V17.1953H227.695L234.363 27.4258C234.668 27.8867 234.949 28.3438 235.207 28.7969H235.254C235.191 28.4062 235.16 27.6367 235.16 26.4883V17.1953H238.734V34ZM257.355 34H253.23L252.035 30.2617H246.059L244.875 34H240.773L246.891 17.1953H251.379L257.355 34ZM251.168 27.3555L249.363 21.707C249.23 21.2852 249.137 20.7812 249.082 20.1953H248.988C248.949 20.6875 248.852 21.1758 248.695 21.6602L246.867 27.3555H251.168ZM259.453 34V17.1953H265.57C267.445 17.1953 268.887 17.5391 269.895 18.2266C270.902 18.9141 271.406 19.8828 271.406 21.1328C271.406 22.0391 271.098 22.832 270.48 23.5117C269.871 24.1914 269.09 24.6641 268.137 24.9297V24.9766C269.332 25.125 270.285 25.5664 270.996 26.3008C271.715 27.0352 272.074 27.9297 272.074 28.9844C272.074 30.5234 271.523 31.7461 270.422 32.6523C269.32 33.5508 267.816 34 265.91 34H259.453ZM263.238 19.9844V23.9688H264.902C265.684 23.9688 266.297 23.7812 266.742 23.4062C267.195 23.0234 267.422 22.5 267.422 21.8359C267.422 20.6016 266.5 19.9844 264.656 19.9844H263.238ZM263.238 26.7812V31.2109H265.289C266.164 31.2109 266.848 31.0078 267.34 30.6016C267.84 30.1953 268.09 29.6406 268.09 28.9375C268.09 28.2656 267.844 27.7383 267.352 27.3555C266.867 26.9727 266.188 26.7812 265.312 26.7812H263.238ZM278.637 34H274.852V17.1953H278.637V34ZM292.477 34H282.469V17.1953H286.254V30.9297H292.477V34ZM298.535 34H294.75V17.1953H298.535V34ZM314.168 20.2773H309.375V34H305.578V20.2773H300.809V17.1953H314.168V20.2773ZM329.59 17.1953L324.117 28.0234V34H320.332V28.0938L315 17.1953H319.324L322.031 23.4648C322.078 23.582 322.207 24.0391 322.418 24.8359H322.465C322.566 24.2734 322.688 23.832 322.828 23.5117L325.582 17.1953H329.59Z" fill="white"/>
<defs>
<linearGradient id="paint0_linear_1950_963" x1="0" y1="24" x2="350" y2="24" gradientUnits="userSpaceOnUse">
<stop stop-color="#FF5C39"/>
<stop offset="0.505" stop-color="#FF5C39"/>
<stop offset="1" stop-color="#FF871F"/>
</linearGradient>
</defs>
</svg>
