<svg width="379" height="48" viewBox="0 0 379 48" fill="none" xmlns="http://www.w3.org/2000/svg">
<rect width="379" height="48" rx="10" fill="url(#paint0_linear_1950_982)"/>
<path d="M38.4923 14.3304L41.671 17.5092C42.5497 18.3878 42.5497 19.8125 41.671 20.6911L39.0866 23.2751C40.1696 23.4375 41 24.3718 41 25.5001V30.7501C41 31.9927 39.9926 33.0001 38.75 33.0001H25.25C24.0074 33.0001 23 31.9927 23 30.7501V17.2501C23 16.0074 24.0074 15.0001 25.25 15.0001H30.5C31.6289 15.0001 32.5637 15.8315 32.7253 16.9155L35.3103 14.3304C36.189 13.4517 37.6136 13.4517 38.4923 14.3304ZM24.5 30.7501C24.5 31.1643 24.8358 31.5001 25.25 31.5001L31.249 31.4994L31.25 24.7501L24.5 24.7494V30.7501ZM32.749 31.4994L38.75 31.5001C39.1642 31.5001 39.5 31.1643 39.5 30.7501V25.5001C39.5 25.0859 39.1642 24.7501 38.75 24.7501L32.749 24.7494V31.4994ZM30.5 16.5001H25.25C24.8358 16.5001 24.5 16.8359 24.5 17.2501V23.2494H31.25V17.2501C31.25 16.8359 30.9142 16.5001 30.5 16.5001ZM32.75 21.3094V23.2501L34.69 23.2494L32.75 21.3094Z" fill="white"/>
<path d="M65.6367 20.2773H59.707V24.4023H65.1562V27.4727H59.707V34H55.9219V17.1953H65.6367V20.2773ZM72.1992 34H68.4141V17.1953H72.1992V34ZM91.1484 34H87.3281L80.4023 23.4414C79.9961 22.8242 79.7148 22.3594 79.5586 22.0469H79.5117C79.5742 22.6406 79.6055 23.5469 79.6055 24.7656V34H76.0312V17.1953H80.1094L86.7773 27.4258C87.082 27.8867 87.3633 28.3438 87.6211 28.7969H87.668C87.6055 28.4062 87.5742 27.6367 87.5742 26.4883V17.1953H91.1484V34ZM102.094 34.293C99.6875 34.293 97.7266 33.5117 96.2109 31.9492C94.6953 30.3789 93.9375 28.3359 93.9375 25.8203C93.9375 23.1641 94.707 21.0156 96.2461 19.375C97.7852 17.7344 99.8242 16.9141 102.363 16.9141C104.762 16.9141 106.699 17.6992 108.176 19.2695C109.66 20.8398 110.402 22.9102 110.402 25.4805C110.402 28.1211 109.633 30.25 108.094 31.8672C106.562 33.4844 104.562 34.293 102.094 34.293ZM102.258 20.1719C100.93 20.1719 99.875 20.6719 99.0938 21.6719C98.3125 22.6641 97.9219 23.9805 97.9219 25.6211C97.9219 27.2852 98.3125 28.6016 99.0938 29.5703C99.875 30.5391 100.898 31.0234 102.164 31.0234C103.469 31.0234 104.504 30.5547 105.27 29.6172C106.035 28.6719 106.418 27.3633 106.418 25.6914C106.418 23.9492 106.047 22.5938 105.305 21.625C104.562 20.6562 103.547 20.1719 102.258 20.1719ZM116.988 28.2109V34H113.203V17.1953H119.133C123.367 17.1953 125.484 18.9805 125.484 22.5508C125.484 24.2383 124.875 25.6055 123.656 26.6523C122.445 27.6914 120.824 28.2109 118.793 28.2109H116.988ZM116.988 20.1016V25.3398H118.477C120.492 25.3398 121.5 24.457 121.5 22.6914C121.5 20.9648 120.492 20.1016 118.477 20.1016H116.988ZM127.172 33.3555V29.6055C127.852 30.1758 128.59 30.6055 129.387 30.8945C130.184 31.1758 130.988 31.3164 131.801 31.3164C132.277 31.3164 132.691 31.2734 133.043 31.1875C133.402 31.1016 133.699 30.9844 133.934 30.8359C134.176 30.6797 134.355 30.5 134.473 30.2969C134.59 30.0859 134.648 29.8594 134.648 29.6172C134.648 29.2891 134.555 28.9961 134.367 28.7383C134.18 28.4805 133.922 28.2422 133.594 28.0234C133.273 27.8047 132.891 27.5938 132.445 27.3906C132 27.1875 131.52 26.9805 131.004 26.7695C129.691 26.2227 128.711 25.5547 128.062 24.7656C127.422 23.9766 127.102 23.0234 127.102 21.9062C127.102 21.0312 127.277 20.2812 127.629 19.6562C127.98 19.0234 128.457 18.5039 129.059 18.0977C129.668 17.6914 130.371 17.3945 131.168 17.207C131.965 17.0117 132.809 16.9141 133.699 16.9141C134.574 16.9141 135.348 16.9688 136.02 17.0781C136.699 17.1797 137.324 17.3398 137.895 17.5586V21.0625C137.613 20.8672 137.305 20.6953 136.969 20.5469C136.641 20.3984 136.301 20.2773 135.949 20.1836C135.598 20.082 135.246 20.0078 134.895 19.9609C134.551 19.9141 134.223 19.8906 133.91 19.8906C133.48 19.8906 133.09 19.9336 132.738 20.0195C132.387 20.0977 132.09 20.2109 131.848 20.3594C131.605 20.5078 131.418 20.6875 131.285 20.8984C131.152 21.1016 131.086 21.332 131.086 21.5898C131.086 21.8711 131.16 22.125 131.309 22.3516C131.457 22.5703 131.668 22.7812 131.941 22.9844C132.215 23.1797 132.547 23.375 132.938 23.5703C133.328 23.7578 133.77 23.9531 134.262 24.1562C134.934 24.4375 135.535 24.7383 136.066 25.0586C136.605 25.3711 137.066 25.7266 137.449 26.125C137.832 26.5234 138.125 26.9805 138.328 27.4961C138.531 28.0039 138.633 28.5977 138.633 29.2773C138.633 30.2148 138.453 31.0039 138.094 31.6445C137.742 32.2773 137.262 32.793 136.652 33.1914C136.043 33.582 135.332 33.8633 134.52 34.0352C133.715 34.207 132.863 34.293 131.965 34.293C131.043 34.293 130.164 34.2148 129.328 34.0586C128.5 33.9023 127.781 33.668 127.172 33.3555ZM159.832 20.2773H155.039V34H151.242V20.2773H146.473V17.1953H159.832V20.2773ZM168.305 34.293C165.898 34.293 163.938 33.5117 162.422 31.9492C160.906 30.3789 160.148 28.3359 160.148 25.8203C160.148 23.1641 160.918 21.0156 162.457 19.375C163.996 17.7344 166.035 16.9141 168.574 16.9141C170.973 16.9141 172.91 17.6992 174.387 19.2695C175.871 20.8398 176.613 22.9102 176.613 25.4805C176.613 28.1211 175.844 30.25 174.305 31.8672C172.773 33.4844 170.773 34.293 168.305 34.293ZM168.469 20.1719C167.141 20.1719 166.086 20.6719 165.305 21.6719C164.523 22.6641 164.133 23.9805 164.133 25.6211C164.133 27.2852 164.523 28.6016 165.305 29.5703C166.086 30.5391 167.109 31.0234 168.375 31.0234C169.68 31.0234 170.715 30.5547 171.48 29.6172C172.246 28.6719 172.629 27.3633 172.629 25.6914C172.629 23.9492 172.258 22.5938 171.516 21.625C170.773 20.6562 169.758 20.1719 168.469 20.1719ZM186.516 34.293C184.109 34.293 182.148 33.5117 180.633 31.9492C179.117 30.3789 178.359 28.3359 178.359 25.8203C178.359 23.1641 179.129 21.0156 180.668 19.375C182.207 17.7344 184.246 16.9141 186.785 16.9141C189.184 16.9141 191.121 17.6992 192.598 19.2695C194.082 20.8398 194.824 22.9102 194.824 25.4805C194.824 28.1211 194.055 30.25 192.516 31.8672C190.984 33.4844 188.984 34.293 186.516 34.293ZM186.68 20.1719C185.352 20.1719 184.297 20.6719 183.516 21.6719C182.734 22.6641 182.344 23.9805 182.344 25.6211C182.344 27.2852 182.734 28.6016 183.516 29.5703C184.297 30.5391 185.32 31.0234 186.586 31.0234C187.891 31.0234 188.926 30.5547 189.691 29.6172C190.457 28.6719 190.84 27.3633 190.84 25.6914C190.84 23.9492 190.469 22.5938 189.727 21.625C188.984 20.6562 187.969 20.1719 186.68 20.1719ZM207.633 34H197.625V17.1953H201.41V30.9297H207.633V34ZM209.133 33.3555V29.6055C209.812 30.1758 210.551 30.6055 211.348 30.8945C212.145 31.1758 212.949 31.3164 213.762 31.3164C214.238 31.3164 214.652 31.2734 215.004 31.1875C215.363 31.1016 215.66 30.9844 215.895 30.8359C216.137 30.6797 216.316 30.5 216.434 30.2969C216.551 30.0859 216.609 29.8594 216.609 29.6172C216.609 29.2891 216.516 28.9961 216.328 28.7383C216.141 28.4805 215.883 28.2422 215.555 28.0234C215.234 27.8047 214.852 27.5938 214.406 27.3906C213.961 27.1875 213.48 26.9805 212.965 26.7695C211.652 26.2227 210.672 25.5547 210.023 24.7656C209.383 23.9766 209.062 23.0234 209.062 21.9062C209.062 21.0312 209.238 20.2812 209.59 19.6562C209.941 19.0234 210.418 18.5039 211.02 18.0977C211.629 17.6914 212.332 17.3945 213.129 17.207C213.926 17.0117 214.77 16.9141 215.66 16.9141C216.535 16.9141 217.309 16.9688 217.98 17.0781C218.66 17.1797 219.285 17.3398 219.855 17.5586V21.0625C219.574 20.8672 219.266 20.6953 218.93 20.5469C218.602 20.3984 218.262 20.2773 217.91 20.1836C217.559 20.082 217.207 20.0078 216.855 19.9609C216.512 19.9141 216.184 19.8906 215.871 19.8906C215.441 19.8906 215.051 19.9336 214.699 20.0195C214.348 20.0977 214.051 20.2109 213.809 20.3594C213.566 20.5078 213.379 20.6875 213.246 20.8984C213.113 21.1016 213.047 21.332 213.047 21.5898C213.047 21.8711 213.121 22.125 213.27 22.3516C213.418 22.5703 213.629 22.7812 213.902 22.9844C214.176 23.1797 214.508 23.375 214.898 23.5703C215.289 23.7578 215.73 23.9531 216.223 24.1562C216.895 24.4375 217.496 24.7383 218.027 25.0586C218.566 25.3711 219.027 25.7266 219.41 26.125C219.793 26.5234 220.086 26.9805 220.289 27.4961C220.492 28.0039 220.594 28.5977 220.594 29.2773C220.594 30.2148 220.414 31.0039 220.055 31.6445C219.703 32.2773 219.223 32.793 218.613 33.1914C218.004 33.582 217.293 33.8633 216.48 34.0352C215.676 34.207 214.824 34.293 213.926 34.293C213.004 34.293 212.125 34.2148 211.289 34.0586C210.461 33.9023 209.742 33.668 209.133 33.3555ZM242.273 28.3164H237.762V32.8281H235.395V28.3164H230.859V25.9375H235.395V21.4023H237.762V25.9375H242.273V28.3164ZM252.82 33.3555V29.6055C253.5 30.1758 254.238 30.6055 255.035 30.8945C255.832 31.1758 256.637 31.3164 257.449 31.3164C257.926 31.3164 258.34 31.2734 258.691 31.1875C259.051 31.1016 259.348 30.9844 259.582 30.8359C259.824 30.6797 260.004 30.5 260.121 30.2969C260.238 30.0859 260.297 29.8594 260.297 29.6172C260.297 29.2891 260.203 28.9961 260.016 28.7383C259.828 28.4805 259.57 28.2422 259.242 28.0234C258.922 27.8047 258.539 27.5938 258.094 27.3906C257.648 27.1875 257.168 26.9805 256.652 26.7695C255.34 26.2227 254.359 25.5547 253.711 24.7656C253.07 23.9766 252.75 23.0234 252.75 21.9062C252.75 21.0312 252.926 20.2812 253.277 19.6562C253.629 19.0234 254.105 18.5039 254.707 18.0977C255.316 17.6914 256.02 17.3945 256.816 17.207C257.613 17.0117 258.457 16.9141 259.348 16.9141C260.223 16.9141 260.996 16.9688 261.668 17.0781C262.348 17.1797 262.973 17.3398 263.543 17.5586V21.0625C263.262 20.8672 262.953 20.6953 262.617 20.5469C262.289 20.3984 261.949 20.2773 261.598 20.1836C261.246 20.082 260.895 20.0078 260.543 19.9609C260.199 19.9141 259.871 19.8906 259.559 19.8906C259.129 19.8906 258.738 19.9336 258.387 20.0195C258.035 20.0977 257.738 20.2109 257.496 20.3594C257.254 20.5078 257.066 20.6875 256.934 20.8984C256.801 21.1016 256.734 21.332 256.734 21.5898C256.734 21.8711 256.809 22.125 256.957 22.3516C257.105 22.5703 257.316 22.7812 257.59 22.9844C257.863 23.1797 258.195 23.375 258.586 23.5703C258.977 23.7578 259.418 23.9531 259.91 24.1562C260.582 24.4375 261.184 24.7383 261.715 25.0586C262.254 25.3711 262.715 25.7266 263.098 26.125C263.48 26.5234 263.773 26.9805 263.977 27.4961C264.18 28.0039 264.281 28.5977 264.281 29.2773C264.281 30.2148 264.102 31.0039 263.742 31.6445C263.391 32.2773 262.91 32.793 262.301 33.1914C261.691 33.582 260.98 33.8633 260.168 34.0352C259.363 34.207 258.512 34.293 257.613 34.293C256.691 34.293 255.812 34.2148 254.977 34.0586C254.148 33.9023 253.43 33.668 252.82 33.3555ZM277.125 34H267.047V17.1953H276.738V20.2773H270.832V24.0156H276.328V27.0859H270.832V30.9297H277.125V34ZM293.918 34H289.57L286.957 29.6758C286.762 29.3477 286.574 29.0547 286.395 28.7969C286.215 28.5391 286.031 28.3203 285.844 28.1406C285.664 27.9531 285.473 27.8125 285.27 27.7188C285.074 27.6172 284.859 27.5664 284.625 27.5664H283.605V34H279.82V17.1953H285.82C289.898 17.1953 291.938 18.7188 291.938 21.7656C291.938 22.3516 291.848 22.8945 291.668 23.3945C291.488 23.8867 291.234 24.332 290.906 24.7305C290.578 25.1289 290.18 25.4727 289.711 25.7617C289.25 26.0508 288.734 26.2773 288.164 26.4414V26.4883C288.414 26.5664 288.656 26.6953 288.891 26.875C289.125 27.0469 289.352 27.25 289.57 27.4844C289.789 27.7188 289.996 27.9727 290.191 28.2461C290.395 28.5117 290.578 28.7734 290.742 29.0312L293.918 34ZM283.605 20.0312V24.707H285.246C286.059 24.707 286.711 24.4727 287.203 24.0039C287.703 23.5273 287.953 22.9375 287.953 22.2344C287.953 20.7656 287.074 20.0312 285.316 20.0312H283.605ZM309.492 17.1953L303.703 34H299.414L293.695 17.1953H297.773L301.277 28.8906C301.465 29.5234 301.578 30.082 301.617 30.5664H301.688C301.742 30.043 301.863 29.4688 302.051 28.8438L305.531 17.1953H309.492ZM315.293 34H311.508V17.1953H315.293V34ZM331.172 33.4023C329.945 33.9961 328.344 34.293 326.367 34.293C323.789 34.293 321.762 33.5352 320.285 32.0195C318.809 30.5039 318.07 28.4844 318.07 25.9609C318.07 23.2734 318.898 21.0938 320.555 19.4219C322.219 17.75 324.375 16.9141 327.023 16.9141C328.664 16.9141 330.047 17.1211 331.172 17.5352V21.1797C330.047 20.5078 328.766 20.1719 327.328 20.1719C325.75 20.1719 324.477 20.668 323.508 21.6602C322.539 22.6523 322.055 23.9961 322.055 25.6914C322.055 27.3164 322.512 28.6133 323.426 29.582C324.34 30.543 325.57 31.0234 327.117 31.0234C328.594 31.0234 329.945 30.6641 331.172 29.9453V33.4023ZM344.18 34H334.102V17.1953H343.793V20.2773H337.887V24.0156H343.383V27.0859H337.887V30.9297H344.18V34ZM346.102 33.3555V29.6055C346.781 30.1758 347.52 30.6055 348.316 30.8945C349.113 31.1758 349.918 31.3164 350.73 31.3164C351.207 31.3164 351.621 31.2734 351.973 31.1875C352.332 31.1016 352.629 30.9844 352.863 30.8359C353.105 30.6797 353.285 30.5 353.402 30.2969C353.52 30.0859 353.578 29.8594 353.578 29.6172C353.578 29.2891 353.484 28.9961 353.297 28.7383C353.109 28.4805 352.852 28.2422 352.523 28.0234C352.203 27.8047 351.82 27.5938 351.375 27.3906C350.93 27.1875 350.449 26.9805 349.934 26.7695C348.621 26.2227 347.641 25.5547 346.992 24.7656C346.352 23.9766 346.031 23.0234 346.031 21.9062C346.031 21.0312 346.207 20.2812 346.559 19.6562C346.91 19.0234 347.387 18.5039 347.988 18.0977C348.598 17.6914 349.301 17.3945 350.098 17.207C350.895 17.0117 351.738 16.9141 352.629 16.9141C353.504 16.9141 354.277 16.9688 354.949 17.0781C355.629 17.1797 356.254 17.3398 356.824 17.5586V21.0625C356.543 20.8672 356.234 20.6953 355.898 20.5469C355.57 20.3984 355.23 20.2773 354.879 20.1836C354.527 20.082 354.176 20.0078 353.824 19.9609C353.48 19.9141 353.152 19.8906 352.84 19.8906C352.41 19.8906 352.02 19.9336 351.668 20.0195C351.316 20.0977 351.02 20.2109 350.777 20.3594C350.535 20.5078 350.348 20.6875 350.215 20.8984C350.082 21.1016 350.016 21.332 350.016 21.5898C350.016 21.8711 350.09 22.125 350.238 22.3516C350.387 22.5703 350.598 22.7812 350.871 22.9844C351.145 23.1797 351.477 23.375 351.867 23.5703C352.258 23.7578 352.699 23.9531 353.191 24.1562C353.863 24.4375 354.465 24.7383 354.996 25.0586C355.535 25.3711 355.996 25.7266 356.379 26.125C356.762 26.5234 357.055 26.9805 357.258 27.4961C357.461 28.0039 357.562 28.5977 357.562 29.2773C357.562 30.2148 357.383 31.0039 357.023 31.6445C356.672 32.2773 356.191 32.793 355.582 33.1914C354.973 33.582 354.262 33.8633 353.449 34.0352C352.645 34.207 351.793 34.293 350.895 34.293C349.973 34.293 349.094 34.2148 348.258 34.0586C347.43 33.9023 346.711 33.668 346.102 33.3555Z" fill="white"/>
<defs>
<linearGradient id="paint0_linear_1950_982" x1="0" y1="24" x2="379" y2="24" gradientUnits="userSpaceOnUse">
<stop stop-color="#C03BC4"/>
<stop offset="0.495" stop-color="#D7398F"/>
<stop offset="1" stop-color="#DF387C"/>
</linearGradient>
</defs>
</svg>
