<svg width="281" height="48" viewBox="0 0 281 48" fill="none" xmlns="http://www.w3.org/2000/svg">
<rect width="281" height="48" rx="10" fill="url(#paint0_linear_1950_945)"/>
<path d="M26.3426 14C25.7174 14 25.1397 14.3335 24.8271 14.875L23.2393 17.625C22.9267 18.1665 22.9267 18.8335 23.2393 19.375L24.8271 22.125C25.1397 22.6665 25.7174 23 26.3426 23H29.518C30.1432 23 30.721 22.6665 31.0336 22.125L32.6213 19.375C32.9339 18.8335 32.9339 18.1665 32.6213 17.625L31.0336 14.875C30.721 14.3335 30.1432 14 29.518 14H26.3426ZM24.8271 25.875C25.1397 25.3335 25.7174 25 26.3426 25H29.518C30.1432 25 30.721 25.3335 31.0336 25.875L32.6213 28.625C32.9339 29.1665 32.9339 29.8335 32.6213 30.375L31.0336 33.125C30.721 33.6665 30.1432 34 29.518 34H26.3426C25.7174 34 25.1397 33.6665 24.8271 33.125L23.2393 30.375C22.9267 29.8335 22.9267 29.1665 23.2393 28.625L24.8271 25.875ZM34.3271 20.375C34.6397 19.8335 35.2174 19.5 35.8426 19.5H39.018C39.6432 19.5 40.221 19.8335 40.5336 20.375L42.1213 23.125C42.4339 23.6665 42.4339 24.3335 42.1213 24.875L40.5336 27.625C40.221 28.1665 39.6432 28.5 39.018 28.5H35.8426C35.2174 28.5 34.6397 28.1665 34.3271 27.625L32.7393 24.875C32.4267 24.3335 32.4267 23.6665 32.7393 23.125L34.3271 20.375Z" fill="white"/>
<path d="M69.6211 26.7227C69.6211 31.7695 67.2695 34.293 62.5664 34.293C58.0039 34.293 55.7227 31.8281 55.7227 26.8984V17.1953H59.5195V26.9453C59.5195 29.6641 60.582 31.0234 62.707 31.0234C64.793 31.0234 65.8359 29.7109 65.8359 27.0859V17.1953H69.6211V26.7227ZM88.4062 34H84.5859L77.6602 23.4414C77.2539 22.8242 76.9727 22.3594 76.8164 22.0469H76.7695C76.832 22.6406 76.8633 23.5469 76.8633 24.7656V34H73.2891V17.1953H77.3672L84.0352 27.4258C84.3398 27.8867 84.6211 28.3438 84.8789 28.7969H84.9258C84.8633 28.4062 84.832 27.6367 84.832 26.4883V17.1953H88.4062V34ZM96.0352 34H92.25V17.1953H96.0352V34ZM111.668 20.2773H106.875V34H103.078V20.2773H98.3086V17.1953H111.668V20.2773ZM130.641 34H120.562V17.1953H130.254V20.2773H124.348V24.0156H129.844V27.0859H124.348V30.9297H130.641V34ZM145.383 33.4023C144.156 33.9961 142.555 34.293 140.578 34.293C138 34.293 135.973 33.5352 134.496 32.0195C133.02 30.5039 132.281 28.4844 132.281 25.9609C132.281 23.2734 133.109 21.0938 134.766 19.4219C136.43 17.75 138.586 16.9141 141.234 16.9141C142.875 16.9141 144.258 17.1211 145.383 17.5352V21.1797C144.258 20.5078 142.977 20.1719 141.539 20.1719C139.961 20.1719 138.688 20.668 137.719 21.6602C136.75 22.6523 136.266 23.9961 136.266 25.6914C136.266 27.3164 136.723 28.6133 137.637 29.582C138.551 30.543 139.781 31.0234 141.328 31.0234C142.805 31.0234 144.156 30.6641 145.383 29.9453V33.4023ZM155.109 34.293C152.703 34.293 150.742 33.5117 149.227 31.9492C147.711 30.3789 146.953 28.3359 146.953 25.8203C146.953 23.1641 147.723 21.0156 149.262 19.375C150.801 17.7344 152.84 16.9141 155.379 16.9141C157.777 16.9141 159.715 17.6992 161.191 19.2695C162.676 20.8398 163.418 22.9102 163.418 25.4805C163.418 28.1211 162.648 30.25 161.109 31.8672C159.578 33.4844 157.578 34.293 155.109 34.293ZM155.273 20.1719C153.945 20.1719 152.891 20.6719 152.109 21.6719C151.328 22.6641 150.938 23.9805 150.938 25.6211C150.938 27.2852 151.328 28.6016 152.109 29.5703C152.891 30.5391 153.914 31.0234 155.18 31.0234C156.484 31.0234 157.52 30.5547 158.285 29.6172C159.051 28.6719 159.434 27.3633 159.434 25.6914C159.434 23.9492 159.062 22.5938 158.32 21.625C157.578 20.6562 156.562 20.1719 155.273 20.1719ZM181.336 34H177.516L170.59 23.4414C170.184 22.8242 169.902 22.3594 169.746 22.0469H169.699C169.762 22.6406 169.793 23.5469 169.793 24.7656V34H166.219V17.1953H170.297L176.965 27.4258C177.27 27.8867 177.551 28.3438 177.809 28.7969H177.855C177.793 28.4062 177.762 27.6367 177.762 26.4883V17.1953H181.336V34ZM192.281 34.293C189.875 34.293 187.914 33.5117 186.398 31.9492C184.883 30.3789 184.125 28.3359 184.125 25.8203C184.125 23.1641 184.895 21.0156 186.434 19.375C187.973 17.7344 190.012 16.9141 192.551 16.9141C194.949 16.9141 196.887 17.6992 198.363 19.2695C199.848 20.8398 200.59 22.9102 200.59 25.4805C200.59 28.1211 199.82 30.25 198.281 31.8672C196.75 33.4844 194.75 34.293 192.281 34.293ZM192.445 20.1719C191.117 20.1719 190.062 20.6719 189.281 21.6719C188.5 22.6641 188.109 23.9805 188.109 25.6211C188.109 27.2852 188.5 28.6016 189.281 29.5703C190.062 30.5391 191.086 31.0234 192.352 31.0234C193.656 31.0234 194.691 30.5547 195.457 29.6172C196.223 28.6719 196.605 27.3633 196.605 25.6914C196.605 23.9492 196.234 22.5938 195.492 21.625C194.75 20.6562 193.734 20.1719 192.445 20.1719ZM222.539 34H218.801V23.9453C218.801 22.8594 218.848 21.6602 218.941 20.3477H218.848C218.652 21.3789 218.477 22.1211 218.32 22.5742L214.383 34H211.289L207.281 22.6914C207.172 22.3867 206.996 21.6055 206.754 20.3477H206.648C206.75 22.0039 206.801 23.457 206.801 24.707V34H203.391V17.1953H208.934L212.367 27.1562C212.641 27.9531 212.84 28.7539 212.965 29.5586H213.035C213.246 28.6289 213.469 27.8203 213.703 27.1328L217.137 17.1953H222.539V34ZM230.145 34H226.359V17.1953H230.145V34ZM246.023 33.4023C244.797 33.9961 243.195 34.293 241.219 34.293C238.641 34.293 236.613 33.5352 235.137 32.0195C233.66 30.5039 232.922 28.4844 232.922 25.9609C232.922 23.2734 233.75 21.0938 235.406 19.4219C237.07 17.75 239.227 16.9141 241.875 16.9141C243.516 16.9141 244.898 17.1211 246.023 17.5352V21.1797C244.898 20.5078 243.617 20.1719 242.18 20.1719C240.602 20.1719 239.328 20.668 238.359 21.6602C237.391 22.6523 236.906 23.9961 236.906 25.6914C236.906 27.3164 237.363 28.6133 238.277 29.582C239.191 30.543 240.422 31.0234 241.969 31.0234C243.445 31.0234 244.797 30.6641 246.023 29.9453V33.4023ZM248.18 33.3555V29.6055C248.859 30.1758 249.598 30.6055 250.395 30.8945C251.191 31.1758 251.996 31.3164 252.809 31.3164C253.285 31.3164 253.699 31.2734 254.051 31.1875C254.41 31.1016 254.707 30.9844 254.941 30.8359C255.184 30.6797 255.363 30.5 255.48 30.2969C255.598 30.0859 255.656 29.8594 255.656 29.6172C255.656 29.2891 255.562 28.9961 255.375 28.7383C255.188 28.4805 254.93 28.2422 254.602 28.0234C254.281 27.8047 253.898 27.5938 253.453 27.3906C253.008 27.1875 252.527 26.9805 252.012 26.7695C250.699 26.2227 249.719 25.5547 249.07 24.7656C248.43 23.9766 248.109 23.0234 248.109 21.9062C248.109 21.0312 248.285 20.2812 248.637 19.6562C248.988 19.0234 249.465 18.5039 250.066 18.0977C250.676 17.6914 251.379 17.3945 252.176 17.207C252.973 17.0117 253.816 16.9141 254.707 16.9141C255.582 16.9141 256.355 16.9688 257.027 17.0781C257.707 17.1797 258.332 17.3398 258.902 17.5586V21.0625C258.621 20.8672 258.312 20.6953 257.977 20.5469C257.648 20.3984 257.309 20.2773 256.957 20.1836C256.605 20.082 256.254 20.0078 255.902 19.9609C255.559 19.9141 255.23 19.8906 254.918 19.8906C254.488 19.8906 254.098 19.9336 253.746 20.0195C253.395 20.0977 253.098 20.2109 252.855 20.3594C252.613 20.5078 252.426 20.6875 252.293 20.8984C252.16 21.1016 252.094 21.332 252.094 21.5898C252.094 21.8711 252.168 22.125 252.316 22.3516C252.465 22.5703 252.676 22.7812 252.949 22.9844C253.223 23.1797 253.555 23.375 253.945 23.5703C254.336 23.7578 254.777 23.9531 255.27 24.1562C255.941 24.4375 256.543 24.7383 257.074 25.0586C257.613 25.3711 258.074 25.7266 258.457 26.125C258.84 26.5234 259.133 26.9805 259.336 27.4961C259.539 28.0039 259.641 28.5977 259.641 29.2773C259.641 30.2148 259.461 31.0039 259.102 31.6445C258.75 32.2773 258.27 32.793 257.66 33.1914C257.051 33.582 256.34 33.8633 255.527 34.0352C254.723 34.207 253.871 34.293 252.973 34.293C252.051 34.293 251.172 34.2148 250.336 34.0586C249.508 33.9023 248.789 33.668 248.18 33.3555Z" fill="white"/>
<defs>
<linearGradient id="paint0_linear_1950_945" x1="0" y1="24" x2="281" y2="24" gradientUnits="userSpaceOnUse">
<stop stop-color="#3DA699"/>
<stop offset="0.495" stop-color="#328882"/>
<stop offset="1" stop-color="#236065"/>
</linearGradient>
</defs>
</svg>
