<svg width="393" height="48" viewBox="0 0 393 48" fill="none" xmlns="http://www.w3.org/2000/svg">
<rect width="393" height="48" rx="10" fill="url(#paint0_linear_1950_954)"/>
<path d="M26.0798 20.0194C26.5481 17.1719 29.0202 15 32 15C34.9798 15 37.4519 17.1719 37.9202 20.0194C40.2085 20.2313 42 22.1564 42 24.5C42 24.6664 41.991 24.8307 41.9734 24.9925C40.8175 23.1925 38.798 22 36.5 22C32.9101 22 30 24.9101 30 28.5C30 28.6682 30.0064 28.835 30.0189 29H26.5C24.0147 29 22 26.9853 22 24.5C22 22.1564 23.7915 20.2313 26.0798 20.0194ZM42 28.5C42 31.5376 39.5376 34 36.5 34C33.4624 34 31 31.5376 31 28.5C31 25.4624 33.4624 23 36.5 23C39.5376 23 42 25.4624 42 28.5ZM37 25.5C37 25.2239 36.7761 25 36.5 25C36.2239 25 36 25.2239 36 25.5V30.2929L34.3536 28.6464C34.1583 28.4512 33.8417 28.4512 33.6464 28.6464C33.4512 28.8417 33.4512 29.1583 33.6464 29.3536L36.1464 31.8536C36.3417 32.0488 36.6583 32.0488 36.8536 31.8536L39.3536 29.3536C39.5488 29.1583 39.5488 28.8417 39.3536 28.6464C39.1583 28.4512 38.8417 28.4512 38.6464 28.6464L37 30.2929V25.5Z" fill="white"/>
<path d="M77.9062 17.1953L73.4648 34H69.2695L66.4805 23.2188C66.332 22.6562 66.2422 22.0273 66.2109 21.332H66.1641C66.0938 22.0977 65.9922 22.7266 65.8594 23.2188L63 34H58.6289L54.2109 17.1953H58.3477L60.7148 28.3867C60.8164 28.8633 60.8906 29.5039 60.9375 30.3086H61.0078C61.0391 29.707 61.1523 29.0508 61.3477 28.3398L64.3945 17.1953H68.4492L71.2031 28.4805C71.3047 28.8945 71.3945 29.4961 71.4727 30.2852H71.5195C71.5508 29.668 71.6328 29.043 71.7656 28.4102L74.0859 17.1953H77.9062ZM87.1406 34.293C84.7344 34.293 82.7734 33.5117 81.2578 31.9492C79.7422 30.3789 78.9844 28.3359 78.9844 25.8203C78.9844 23.1641 79.7539 21.0156 81.293 19.375C82.832 17.7344 84.8711 16.9141 87.4102 16.9141C89.8086 16.9141 91.7461 17.6992 93.2227 19.2695C94.707 20.8398 95.4492 22.9102 95.4492 25.4805C95.4492 28.1211 94.6797 30.25 93.1406 31.8672C91.6094 33.4844 89.6094 34.293 87.1406 34.293ZM87.3047 20.1719C85.9766 20.1719 84.9219 20.6719 84.1406 21.6719C83.3594 22.6641 82.9688 23.9805 82.9688 25.6211C82.9688 27.2852 83.3594 28.6016 84.1406 29.5703C84.9219 30.5391 85.9453 31.0234 87.2109 31.0234C88.5156 31.0234 89.5508 30.5547 90.3164 29.6172C91.082 28.6719 91.4648 27.3633 91.4648 25.6914C91.4648 23.9492 91.0938 22.5938 90.3516 21.625C89.6094 20.6562 88.5938 20.1719 87.3047 20.1719ZM112.348 34H108L105.387 29.6758C105.191 29.3477 105.004 29.0547 104.824 28.7969C104.645 28.5391 104.461 28.3203 104.273 28.1406C104.094 27.9531 103.902 27.8125 103.699 27.7188C103.504 27.6172 103.289 27.5664 103.055 27.5664H102.035V34H98.25V17.1953H104.25C108.328 17.1953 110.367 18.7188 110.367 21.7656C110.367 22.3516 110.277 22.8945 110.098 23.3945C109.918 23.8867 109.664 24.332 109.336 24.7305C109.008 25.1289 108.609 25.4727 108.141 25.7617C107.68 26.0508 107.164 26.2773 106.594 26.4414V26.4883C106.844 26.5664 107.086 26.6953 107.32 26.875C107.555 27.0469 107.781 27.25 108 27.4844C108.219 27.7188 108.426 27.9727 108.621 28.2461C108.824 28.5117 109.008 28.7734 109.172 29.0312L112.348 34ZM102.035 20.0312V24.707H103.676C104.488 24.707 105.141 24.4727 105.633 24.0039C106.133 23.5273 106.383 22.9375 106.383 22.2344C106.383 20.7656 105.504 20.0312 103.746 20.0312H102.035ZM127.898 34H123.117L118.219 26.6992C118.125 26.5586 117.977 26.25 117.773 25.7734H117.715V34H113.93V17.1953H117.715V25.1406H117.773C117.867 24.9219 118.023 24.6094 118.242 24.2031L122.883 17.1953H127.395L121.535 25.2109L127.898 34ZM139.523 34H129.516V17.1953H133.301V30.9297H139.523V34ZM148.289 34.293C145.883 34.293 143.922 33.5117 142.406 31.9492C140.891 30.3789 140.133 28.3359 140.133 25.8203C140.133 23.1641 140.902 21.0156 142.441 19.375C143.98 17.7344 146.02 16.9141 148.559 16.9141C150.957 16.9141 152.895 17.6992 154.371 19.2695C155.855 20.8398 156.598 22.9102 156.598 25.4805C156.598 28.1211 155.828 30.25 154.289 31.8672C152.758 33.4844 150.758 34.293 148.289 34.293ZM148.453 20.1719C147.125 20.1719 146.07 20.6719 145.289 21.6719C144.508 22.6641 144.117 23.9805 144.117 25.6211C144.117 27.2852 144.508 28.6016 145.289 29.5703C146.07 30.5391 147.094 31.0234 148.359 31.0234C149.664 31.0234 150.699 30.5547 151.465 29.6172C152.23 28.6719 152.613 27.3633 152.613 25.6914C152.613 23.9492 152.242 22.5938 151.5 21.625C150.758 20.6562 149.742 20.1719 148.453 20.1719ZM173.801 34H169.676L168.48 30.2617H162.504L161.32 34H157.219L163.336 17.1953H167.824L173.801 34ZM167.613 27.3555L165.809 21.707C165.676 21.2852 165.582 20.7812 165.527 20.1953H165.434C165.395 20.6875 165.297 21.1758 165.141 21.6602L163.312 27.3555H167.613ZM175.898 34V17.1953H181.852C187.82 17.1953 190.805 19.9258 190.805 25.3867C190.805 28.0039 189.988 30.0938 188.355 31.6562C186.73 33.2188 184.562 34 181.852 34H175.898ZM179.684 20.2773V30.9297H181.559C183.199 30.9297 184.484 30.4375 185.414 29.4531C186.352 28.4688 186.82 27.1289 186.82 25.4336C186.82 23.832 186.355 22.5742 185.426 21.6602C184.504 20.7383 183.207 20.2773 181.535 20.2773H179.684ZM207.328 34.293C204.922 34.293 202.961 33.5117 201.445 31.9492C199.93 30.3789 199.172 28.3359 199.172 25.8203C199.172 23.1641 199.941 21.0156 201.48 19.375C203.02 17.7344 205.059 16.9141 207.598 16.9141C209.996 16.9141 211.934 17.6992 213.41 19.2695C214.895 20.8398 215.637 22.9102 215.637 25.4805C215.637 28.1211 214.867 30.25 213.328 31.8672C211.797 33.4844 209.797 34.293 207.328 34.293ZM207.492 20.1719C206.164 20.1719 205.109 20.6719 204.328 21.6719C203.547 22.6641 203.156 23.9805 203.156 25.6211C203.156 27.2852 203.547 28.6016 204.328 29.5703C205.109 30.5391 206.133 31.0234 207.398 31.0234C208.703 31.0234 209.738 30.5547 210.504 29.6172C211.27 28.6719 211.652 27.3633 211.652 25.6914C211.652 23.9492 211.281 22.5938 210.539 21.625C209.797 20.6562 208.781 20.1719 207.492 20.1719ZM222.223 28.2109V34H218.438V17.1953H224.367C228.602 17.1953 230.719 18.9805 230.719 22.5508C230.719 24.2383 230.109 25.6055 228.891 26.6523C227.68 27.6914 226.059 28.2109 224.027 28.2109H222.223ZM222.223 20.1016V25.3398H223.711C225.727 25.3398 226.734 24.457 226.734 22.6914C226.734 20.9648 225.727 20.1016 223.711 20.1016H222.223ZM244.98 20.2773H240.188V34H236.391V20.2773H231.621V17.1953H244.98V20.2773ZM251.027 34H247.242V17.1953H251.027V34ZM274.008 34H270.27V23.9453C270.27 22.8594 270.316 21.6602 270.41 20.3477H270.316C270.121 21.3789 269.945 22.1211 269.789 22.5742L265.852 34H262.758L258.75 22.6914C258.641 22.3867 258.465 21.6055 258.223 20.3477H258.117C258.219 22.0039 258.27 23.457 258.27 24.707V34H254.859V17.1953H260.402L263.836 27.1562C264.109 27.9531 264.309 28.7539 264.434 29.5586H264.504C264.715 28.6289 264.938 27.8203 265.172 27.1328L268.605 17.1953H274.008V34ZM281.613 34H277.828V17.1953H281.613V34ZM297.539 34H284.004V31.8203L292.617 20.2773H284.625V17.1953H297.516V19.3164L289.09 30.9297H297.539V34ZM314.801 34H310.676L309.48 30.2617H303.504L302.32 34H298.219L304.336 17.1953H308.824L314.801 34ZM308.613 27.3555L306.809 21.707C306.676 21.2852 306.582 20.7812 306.527 20.1953H306.434C306.395 20.6875 306.297 21.1758 306.141 21.6602L304.312 27.3555H308.613ZM327.012 20.2773H322.219V34H318.422V20.2773H313.652V17.1953H327.012V20.2773ZM333.059 34H329.273V17.1953H333.059V34ZM343.992 34.293C341.586 34.293 339.625 33.5117 338.109 31.9492C336.594 30.3789 335.836 28.3359 335.836 25.8203C335.836 23.1641 336.605 21.0156 338.145 19.375C339.684 17.7344 341.723 16.9141 344.262 16.9141C346.66 16.9141 348.598 17.6992 350.074 19.2695C351.559 20.8398 352.301 22.9102 352.301 25.4805C352.301 28.1211 351.531 30.25 349.992 31.8672C348.461 33.4844 346.461 34.293 343.992 34.293ZM344.156 20.1719C342.828 20.1719 341.773 20.6719 340.992 21.6719C340.211 22.6641 339.82 23.9805 339.82 25.6211C339.82 27.2852 340.211 28.6016 340.992 29.5703C341.773 30.5391 342.797 31.0234 344.062 31.0234C345.367 31.0234 346.402 30.5547 347.168 29.6172C347.934 28.6719 348.316 27.3633 348.316 25.6914C348.316 23.9492 347.945 22.5938 347.203 21.625C346.461 20.6562 345.445 20.1719 344.156 20.1719ZM370.219 34H366.398L359.473 23.4414C359.066 22.8242 358.785 22.3594 358.629 22.0469H358.582C358.645 22.6406 358.676 23.5469 358.676 24.7656V34H355.102V17.1953H359.18L365.848 27.4258C366.152 27.8867 366.434 28.3438 366.691 28.7969H366.738C366.676 28.4062 366.645 27.6367 366.645 26.4883V17.1953H370.219V34Z" fill="white"/>
<defs>
<linearGradient id="paint0_linear_1950_954" x1="0" y1="24" x2="393" y2="24" gradientUnits="userSpaceOnUse">
<stop stop-color="#FF5C39"/>
<stop offset="0.505" stop-color="#FF5C39"/>
<stop offset="1" stop-color="#FF871F"/>
</linearGradient>
</defs>
</svg>
